<?xml version="1.0" encoding="UTF-8" standalone="no"?>
<svg
   xmlns:dc="http://purl.org/dc/elements/1.1/"
   xmlns:cc="http://creativecommons.org/ns#"
   xmlns:rdf="http://www.w3.org/1999/02/22-rdf-syntax-ns#"
   xmlns:svg="http://www.w3.org/2000/svg"
   xmlns="http://www.w3.org/2000/svg"
   xmlns:sodipodi="http://sodipodi.sourceforge.net/DTD/sodipodi-0.dtd"
   xmlns:inkscape="http://www.inkscape.org/namespaces/inkscape"
   inkscape:export-ydpi="200"
   inkscape:export-xdpi="200"
   inkscape:export-filename="C:\Users\Seth\Documents\KiCad\Rocketboard-16\graphics\Hubble_space_telescope.png"
   inkscape:version="1.0 (4035a4fb49, 2020-05-01)"
   sodipodi:docname="Hubble_space_telescope.svg"
   id="svg52"
   viewBox="0 0 450.25 365.94"
   version="1.1">
  <defs
     id="defs56" />
  <sodipodi:namedview
     inkscape:current-layer="svg52"
     inkscape:window-maximized="1"
     inkscape:window-y="-9"
     inkscape:window-x="-9"
     inkscape:cy="183.13019"
     inkscape:cx="225.12419"
     inkscape:zoom="2.6829539"
     showgrid="false"
     id="namedview54"
     inkscape:window-height="1361"
     inkscape:window-width="2560"
     inkscape:pageshadow="2"
     inkscape:pageopacity="0"
     guidetolerance="10"
     gridtolerance="10"
     objecttolerance="10"
     borderopacity="1"
     bordercolor="#666666"
     pagecolor="#ffffff" />
  <title
     id="title2">Hubble Space Telescope</title>
  <metadata
     id="metadata4">
    <rdf:RDF>
      <cc:Work
         rdf:about="">
        <dc:format>image/svg+xml</dc:format>
        <dc:type
           rdf:resource="http://purl.org/dc/dcmitype/StillImage" />
        <dc:title>Hubble Space Telescope</dc:title>
        <dc:date>12/02/2014</dc:date>
        <dc:creator>
          <cc:Agent>
            <dc:title>edited by Paul Sherman</dc:title>
          </cc:Agent>
        </dc:creator>
        <dc:rights>
          <cc:Agent>
            <dc:title>pd</dc:title>
          </cc:Agent>
        </dc:rights>
        <dc:publisher>
          <cc:Agent>
            <dc:title>wpclipart</dc:title>
          </cc:Agent>
        </dc:publisher>
        <cc:license
           rdf:resource="http://creativecommons.org/publicdomain/zero/1.0/" />
      </cc:Work>
      <cc:License
         rdf:about="http://creativecommons.org/licenses/publicdomain/">
        <cc:permits
           rdf:resource="http://creativecommons.org/ns#Reproduction" />
        <cc:permits
           rdf:resource="http://creativecommons.org/ns#Distribution" />
        <cc:permits
           rdf:resource="http://creativecommons.org/ns#DerivativeWorks" />
      </cc:License>
    </rdf:RDF>
  </metadata>
  <g
     id="g50"
     transform="translate(-12.954 -4)">
    <path
       d="m 231.29297,4.0058594 c -0.5499,0 -1.53606,0.6458969 -2.19141,1.4355468 -0.6554,0.7896002 -2.50563,1.7235019 -4.11133,2.0761719 -1.6057,0.3527 -3.12595,0.9774288 -3.3789,1.3867188 -0.343,0.556 -51.52789,26.7110621 -67.71289,34.6015621 -1.1282,0.55 -4.67296,2.35 -7.87696,4 -3.204,1.65 -8.44483,4.277444 -11.64843,5.839844 -3.2035,1.5625 -6.95118,3.437969 -8.32617,4.167969 -1.375,0.73 -14.60725,7.447181 -29.406255,14.925781 -14.799,7.4781 -28.2991,14.452447 -30,15.498047 -1.7009,1.0456 -5.116797,2.686031 -7.591797,3.644531 -2.475,0.9585 -6.435681,3.019732 -8.800781,4.582031 -2.3651,1.562303 -4.692062,2.841797 -5.169922,2.841797 -1.2502,0 -7.468071,3.360771 -7.863281,4.250001 -0.1834,0.4125 -1.169706,0.75 -2.191406,0.75 -1.021702,0 -2.137689,0.45318 -2.480469,1.00781 -0.806,1.3043 -15.072528,7.99219 -17.048828,7.99219 -0.8302,0 -1.756857,0.64611 -2.060547,1.4375 -0.3037,0.7914 -1.962047,1.7484 -3.6855471,2.12695 -1.7235,0.3785 -3.8732638,1.15025 -4.7773438,1.71485 -2.1289,1.3296 -0.9516102,3.708 5.5878909,11.2832 2.6343,3.0515 5.733572,6.75632 6.888672,8.23242 2.9763,3.803 3.686075,4.63761 12.609375,14.84961 4.3953,5.0302 7.992187,9.41769 7.992187,9.75 0,0.3323 0.7875,1.43853 1.75,2.45703 0.9625,1.0185 2.916297,3.23298 4.341797,4.92188 l 2.591797,3.07031 5.408203,-2.67188 c 2.9745,-1.4699 5.685239,-3.05143 6.023437,-3.51367 0.669602,-0.9152 2.962566,-2.28822 9.884766,-5.91992 2.475,-1.2984 5.48666,-2.98875 6.69336,-3.75586 1.9329,-1.22874 2.4388,-1.1723 4.25,0.4668 1.514397,1.3706 2.05664,3.08788 2.05664,6.52148 0,6.129 1.726263,15.27851 3.539063,18.75391 0.79637,1.5267 1.451678,3.50718 1.455078,4.40234 0.0034,0.8951 0.663097,2.17284 1.466797,2.83985 0.8037,0.667 1.764365,2.18524 2.134765,3.37304 0.822,2.636 7.092069,10.3858 13.980469,17.2793 5.513,5.5171 13.13116,9.87639 19.16016,10.96289 2.0696,0.373 4.31277,1.11401 4.98437,1.64649 0.6716,0.53236 3.3716,0.74325 6,0.46874 4.849,-0.5063 17.9499,-3.69891 19.7793,-4.82031 0.55,-0.3371 3.475,-1.1824 6.5,-1.87695 3.025,-0.6946 5.95,-1.58918 6.5,-1.98828 0.55,-0.3991 3.925,-1.28233 7.5,-1.96289 3.575,-0.6806 6.95,-1.60223 7.5,-2.04883 0.55,-0.4466 3.8125,-1.36385 7.25,-2.03711 3.4375,-0.6732 6.25,-1.6153 6.25,-2.09375 0,-0.47844 1.18411,-0.86914 2.63281,-0.86914 2.8844,0 10.27799,-1.92043 11.86719,-3.08203 0.55,-0.402 3.925,-1.28818 7.5,-1.96875 3.575,-0.6806 6.98085,-1.60894 7.56836,-2.06446 0.5875,-0.4555 3.31043,-1.31031 6.05273,-1.89843 3.7701,-0.8084 6.5136,-2.39995 11.2461,-6.52735 8.2131,-7.1631 11.57925,-7.40015 17.84375,-1.25195 5.1675,5.0713 5.91216,9.80328 1.88476,11.98828 -1.3221,0.7176 -6.2467,4.56719 -10.94141,8.55469 -4.69479,3.9875 -8.96443,7.25 -9.49023,7.25 -0.5258,0 -2.3391,1.575 -4.0293,3.5 -1.6902,1.925 -3.36415,3.5 -3.71875,3.5 -0.3546,0 -3.24161,2.25 -6.41601,5 -3.1744,2.75 -6.08666,5 -6.47266,5 -0.386,0 -5.30103,3.98673 -10.92383,8.86133 -5.623,4.875 -11.32176,9.44685 -12.66406,10.16015 -1.3423,0.7133 -5.40299,3.92648 -9.02539,7.13868 -3.6224,3.2122 -6.94952,5.83984 -7.39258,5.83984 -0.443,0 -2.09507,1.35 -3.67187,3 -1.5769,1.65 -3.13966,3 -3.47266,3 -0.333,0 -3.20255,2.25 -6.37695,5 -3.1744,2.75 -6.2739,5 -6.88672,5 -0.6128,0 -1.11328,0.34859 -1.11328,0.77539 0,0.4268 -2.89294,2.96086 -6.42774,5.63086 -7.9381,5.995 -8.74026,3.65512 7.92774,23.07812 2.75,3.2045 5.17529,6.3203 5.39062,6.92188 0.2153,0.6016 3.4778,4.7784 7.25,9.2832 3.7722,4.5048 6.86696,8.55477 6.87696,9 0.015,0.693 8.93604,11.52698 13.49804,16.39258 0.81682,0.8712 1.48438,1.97151 1.48438,2.44531 0,0.4738 1.2096,2.12342 2.6875,3.66602 l -0.002,0.002 c 2.95659,3.086 5.31445,3.65084 5.31445,1.27344 0,-0.8423 0.788,-1.82555 1.75,-2.18555 0.962,-0.36 8.41129,-6.98335 16.55469,-14.71875 8.1434,-7.7357 15.45587,-14.21085 16.25,-14.38867 0.79416,-0.1778 1.44531,-0.96533 1.44531,-1.75 0,-0.7847 0.42972,-1.42773 0.95508,-1.42773 0.5253,0 3.54303,-2.7 6.70703,-6 3.1641,-3.3 6.33431,-6 7.04492,-6 0.71061,0 1.29297,-0.68853 1.29297,-1.53125 0,-0.8427 0.86598,-1.85523 1.92578,-2.25 1.06,-0.395 8.63669,-7.01875 16.83789,-14.71875 8.2011,-7.6997 15.77272,-14.75981 16.82422,-15.68946 1.0515,-0.9296 4.16013,-3.96213 6.91016,-6.74023 2.75,-2.778 5.5625,-5.05555 6.25,-5.06055 0.6875,-0.005 1.25,-0.68281 1.25,-1.50781 -10e-6,-0.825 0.48552,-1.5 1.07812,-1.5 1.038,0 20.25036,-17.47271 36.06836,-32.80274 4.2053,-4.0755 8.7053,-7.93325 10,-8.57226 1.2947,-0.639 2.79234,-2.15218 3.32812,-3.36328 0.5358,-1.2111 1.50072,-2.32833 2.14454,-2.48242 0.644,-0.154 10.71486,-9.2796 22.38086,-20.2793 11.66599,-10.9997 21.83837,-20.1464 22.60546,-20.32422 0.76708,-0.1779 1.39452,-0.85746 1.39454,-1.51172 0,-0.6543 1.00984,-1.63481 2.24414,-2.17773 3.7233,-1.6377 3.32057,-4.33493 -1.35743,-9.10157 -2.367,-2.41176 -4.88521,-4.38476 -5.5957,-4.38476 -0.71049,0 -1.29101,-0.41368 -1.29101,-0.91797 0,-1.207 -12.78035,-13.49746 -14.43165,-13.87891 -0.7035,-0.1625 -1.87126,-1.4 -2.59375,-2.75 -0.7225,-1.35 -1.83348,-2.45507 -2.4707,-2.45507 -0.6372,0 -3.82463,-2.6998 -7.08203,-6 -7.2958,-7.3921 -9.56965,-9.51258 -11.15625,-10.4043 -0.7253,-0.4076 -3.8186,1.4104 -7.5,4.4082 -3.4461,2.8062 -7.39062,5.9839 -8.76562,7.0625 -1.375,1.0785 -5.52481,4.42987 -9.22071,7.44727 -3.6959,3.0174 -7.18345,5.48633 -7.75,5.48633 -0.56655,0 -1.02929,0.45 -1.02929,1 0,0.55 -0.38742,1 -0.86133,1 -0.47389,0 -0.70311,-5.0625 -0.50782,-11.25 0.3393,-10.751 -0.85432,-18.75 -2.79882,-18.75 -0.45772,0 -0.83204,-0.87391 -0.83203,-1.94141 0,-1.0675 -0.45002,-2.21867 -1,-2.55859 -1.55206,-0.9592 -1.1789,-4.5 0.4746,-4.5 0.8117,0 2.9492,1.64991 4.75,3.66601 1.8008,2.0161 4.96184,5.2786 7.02344,7.25 2.0616,1.9714 3.74909,4.14649 3.75,4.83399 0.002,1.43468 1.16588,1.62812 2.55078,0.42382 0.5225,-0.4544 2.97614,-1.43667 5.45118,-2.18359 8.53629,-2.5761 11.96173,-5.08582 12.64453,-9.26172 0.3392,-2.0747 1.0003,-4.00857 1.46679,-4.29687 0.46651,-0.2883 0.47352,-1.29152 0.0156,-2.22852 -0.4578,-0.937 -1.59589,-3.27812 -2.5293,-5.20312 -3.198,-6.596016 -11.66559,-14.219716 -19.92969,-17.945316 -6.349,-2.86223 -22.32426,-2.895982 -26.16796,-0.05469 -0.55001,0.4066 -2.79544,1.064478 -4.99024,1.460938 l -3.99219,0.720703 3.24219,2.896484 c 1.7823,1.5925 3.24024,3.267804 3.24024,3.722657 0,0.454898 1.35,2.120371 3,3.701171 2.93139,2.808501 3.93859,5.500001 2.05859,5.500001 -0.5175,0 -1.2193,-0.44915 -1.55859,-0.99805 -0.3393,-0.5489 -2.9955,-2.1239 -5.9043,-3.499998 -3.941,-1.864418 -6.93299,-2.501953 -11.74219,-2.501953 -3.5494,0 -6.8818,0.396913 -7.4043,0.882813 -1.094,1.01716 -26.03275,2.490498 -27.43945,1.621094 -0.9613,-0.594 1.76143,-6.128019 5.11133,-10.386719 1.03317,-1.3135 1.87888,-2.979625 1.87891,-3.703125 -10e-6,-0.7235 0.5724,-1.675404 1.27148,-2.115234 0.6991,-0.439803 1.84601,-1.923829 2.54883,-3.298829 3.1477,-6.1582 4.35259,-8 5.23437,-8 0.51998,0 0.9453,-0.52065 0.94532,-1.15625 0,-0.6356 1.125,-2.630893 2.5,-4.433593 1.375,-1.8027 2.5,-3.696465 2.5,-4.208985 0,-0.5125 0.97064,-2.164675 2.15624,-3.671875 1.7808,-2.26389 2.71823,-2.650467 5.39063,-2.216797 3.9102,0.6346 10.23869,-0.672434 12.05859,-2.490234 1.0996,-1.09828 0.49704,-1.264252 -3.53906,-0.982422 -5.181,0.3618 -9.06641,-1.040631 -9.0664,-3.269531 0,-0.7468 -0.67501,-1.617014 -1.5,-1.933594 -2.02995,-0.7789 -1.90364,-5.616903 0.22656,-8.658203 4.7754,-6.8173 9.90087,-8.710716 12.79687,-4.728516 1.3328,1.83278 1.57507,1.912841 1.30664,0.431641 -0.1812,-1.0002 -1.51955,-2.537306 -2.97265,-3.416016 -2.2862,-1.3825 -3.07878,-1.417453 -5.89258,-0.251953 -3.7179,1.54 -6.86642,4.287653 -9.38672,8.189453 -1.4137,2.1886 -1.61823,3.902 -1.07227,9 0.5874,5.485 0.40419,6.641081 -1.41601,8.955078 -1.14938,1.461301 -2.08984,3.147267 -2.08984,3.748047 0,0.60078 -0.39692,1.09375 -0.88282,1.09375 -0.4859,0 -1.13421,0.7875 -1.43945,1.75 -0.6999,2.2071 -3.90488,7.551135 -5.01758,8.365235 -0.8597,0.629 -2.60382,3.439765 -4.89062,7.884765 -0.7074,1.375 -3.04823,5.2 -5.20313,8.5 -2.1549,3.3 -4.85169,7.499785 -5.99219,9.333985 l -2.07421,3.335936 -6.5,-0.69336 c -3.57521,-0.38035 -8.08168,-0.76572 -10.01368,-0.85742 -1.932,-0.0917 -5.307,-1.055478 -7.5,-2.142578 -3.496,-1.73315 -6.01734,-1.973366 -20.48632,-1.941406 -9.07501,0.02005 -17.99838,0.354647 -19.83008,0.742187 -7.528,1.593 -1.38292,-2.982569 14.83008,-11.042969 3.02499,-1.5038 5.72499,-2.970112 6,-3.257812 0.82139,-0.8595 5.79901,-3.925091 10.29101,-6.337891 5.8617,-3.1485 9.12235,-5.049636 9.70899,-5.660156 0.27499,-0.2862 1.625,-1.055374 3,-1.708984 1.37496,-0.6536 5.87459,-3.076466 10,-5.384766 4.1254,-2.3083 9.04424,-5.019391 10.93164,-6.025391 1.8874,-1.006 3.6874,-2.17285 4,-2.59375 0.3126,-0.4209 2.14333,-1.561153 4.06836,-2.533203 1.925,-0.9721 6.09085,-3.200825 9.25585,-4.953125 l 5.75391,-3.185547 -3.70703,-3.796875 c -2.039,-2.0882 -4.04011,-3.796875 -4.44531,-3.796875 -0.4052,0 -3.63188,-2.925 -7.17188,-6.5 -3.54,-3.575 -6.94232,-6.5 -7.56054,-6.5 -0.61824,0 -1.125,-0.675 -1.125,-1.5 0,-0.825 -0.53175,-1.5 -1.18165,-1.5 -0.6499,0 -4.86915,-3.6 -9.37695,-8 -4.5078,-4.3999984 -8.64541,-7.9999996 -9.19531,-7.9999996 z m 0.40625,5.0078125 c 1.33275,-0.022687 4.81441,2.9277341 11.34961,9.4902341 5.203,5.225 10.03206,9.5 10.73047,9.5 0.69841,0 1.26953,0.5904 1.26953,1.3125 0,1.546 4.737,6.126326 7.25,7.009766 0.9625,0.3384 1.75,1.304224 1.75,2.146484 0,0.84228 0.675,1.53125 1.5,1.53125 0.825,0 1.5,0.187949 1.5,0.417969 0,0.23 0.27357,1.13002 0.60742,2 0.3983,1.038 0.0545,1.582031 -1,1.582031 -0.88386,0 -1.60742,0.428925 -1.60742,0.953125 0,0.5242 -1.9125,1.883531 -4.25,3.019531 -5.14,2.498 -17.63491,9.330044 -25.19531,13.777344 -3.0387,1.7875 -5.94253,3.25 -6.45508,3.25 -0.51255,0 -1.08229,0.3375 -1.26563,0.75 -0.1833,0.4125 -1.90898,1.543572 -3.83398,2.513672 -1.925,0.9701 -5.3,2.806178 -7.5,4.080078 -2.2,1.2739 -5.8,3.345616 -8,4.603516 -2.2,1.2579 -5.125,3.036935 -6.5,3.953125 -1.375,0.9161 -4.075,2.449703 -6,3.408203 -1.925,0.9585 -6.65,3.505956 -10.5,5.660156 -3.85,2.1542 -8.575,4.706265 -10.5,5.671875 -1.925,0.9656 -3.725,2.002981 -4,2.306641 -1.1553,1.2758 -5.10113,3.051848 -6.73633,3.031248 -1.46614,-0.0185 -1.36086,-0.33101 0.61914,-1.853514 2.8206,-2.1688 2.40089,-3.178565 -3.50391,-8.447265 -5.4958,-4.90385 -6.395,-4.693835 -1.3789,0.322265 4.4237,4.4237 4.52782,4.719022 2.57422,7.294922 -1.462,1.927802 -3.88925,2.414232 -15.53125,3.101562 -7.2668,0.429 -13.04297,-1.03885 -13.04297,-3.314452 0,-0.477002 -0.78648,-1.170073 -1.74805,-1.539063 -1.1559,-0.4436 -0.817,0.300666 1,2.197266 1.5116,1.577699 2.74805,3.182039 2.74805,3.564449 0,0.3824 -3.29241,0.69532 -7.31641,0.69532 -11.077,0 -17.89094,1.60405 -23.89844,5.62695 -6.344384,4.2485 -9.784011,7.33837 -9.791011,8.79687 -0.0027,0.5916 -1.082591,2.42332 -2.400391,4.07032 -2.3707,2.9631 -2.417241,2.9753 -4.49414,1.0957 -1.154523,-1.04479 -2.09961,-1.3952 -2.09961,-0.7793 0,0.6159 0.859756,1.57848 1.910156,2.14063 1.8815,1.007 1.890616,5.04883 0.01172,5.04883 -0.4642,0 -1.400431,2.7 -2.082031,6 -0.6816,3.3 -1.599113,6 -2.039063,6 -0.43995,0 -0.800781,0.59457 -0.800781,1.32031 0,0.7258 -1.329325,1.96325 -2.953125,2.75 -6.245,3.0256 -18.570055,9.45272 -19.046875,9.93164 -0.275,0.2762 -1.7661,1.15344 -3.3125,1.95117 -2.2348,1.15285 -3.206528,1.20345 -4.736328,0.24805 -2.59692,-1.62181 -2.849394,-1.53057 -2.240234,0.79883 0.31061,1.1878 0.03056,2 -0.689454,2 -1.723998,0 -7.021484,-3.25776 -7.021484,-4.31836 0,-0.4883 -3.375,-4.60679 -7.5,-9.15039 -4.125,-4.5436 -7.5,-8.56765 -7.5,-8.94336 0,-0.746 -4.997538,-5.58789 -5.767578,-5.58789 -0.696,0 8.994741,11.35907 10.494141,12.30078 0.70031,0.4398 1.273437,1.26232 1.273437,1.82812 0,1.858 13.295694,15.8711 15.058594,15.8711 2.135,0 8.148306,-2.72555 13.441406,-6.09375 2.2,-1.3999 6.25,-3.60093 9,-4.89063 2.75,-1.2897 6.262441,-3.21986 7.806641,-4.28906 1.5441,-1.06925 3.053152,-1.70072 3.351562,-1.40235 0.8674,0.86744 -0.483134,2.43643 -3.427734,3.98243 -14.887506,7.81695 -18.307434,9.6881 -22.087891,12.08789 -6.704579,4.25605 -10.071985,4.43399 -13.394531,0.70508 -1.5105,-1.6953 -2.746094,-3.3263 -2.746094,-3.62305 0,-0.2967 -1.575,-1.98525 -3.5,-3.75195 -1.925,-1.7667 -3.5,-3.58056 -3.5,-4.03125 0,-0.727 -9.16114,-11.62023 -17.11914,-20.35743 -1.5849,-1.7401 -2.88086,-3.62718 -2.88086,-4.19336 0,-0.5661 -0.985153,-1.71896 -2.189453,-2.5625 -1.20429,-0.8435 -1.9248736,-1.79973 -1.601562,-2.12304 0.478,-0.478 9.540015,-5.1953 23.291015,-12.125 1.1,-0.5543 3.35,-1.73444 5,-2.6211 16.05,-8.624984 94.126589,-47.710934 95.304689,-47.710934 0.56542,0 1.17799,-0.3375 1.36133,-0.75 0.183,-0.4124 8.65703,-4.948478 18.83203,-10.080078 10.175,-5.1315 19.625,-9.923873 21,-10.65039 1.375,-0.726501 4.525,-2.298188 7,-3.492188 2.475,-1.194 6.075,-3.011109 8,-4.037109 1.925,-1.0259 5.3,-2.648269 7.5,-3.605469 2.2,-0.9572 5.19439,-2.56019 6.65429,-3.5625 1.45993,-1.00231 3.22508,-1.822266 3.92188,-1.822266 0.6968,0 2.08264,-0.737762 3.07812,-1.638672 1.4885,-1.3471 2.08377,-1.409621 3.35157,-0.357422 1.29646,1.076012 1.43985,1.017119 0.91015,-0.363281 -0.7457,-1.94334 0.62945,-2.155225 2.53125,-0.390625 1.09812,1.0189 1.23861,0.935428 0.75196,-0.451172 -0.4593,-1.3088 0.64376,-2.289 4.78906,-4.25 2.9633,-1.4019 5.86712,-2.548828 6.45117,-2.548828 0.58403,0 1.06055,-0.45 1.06055,-1 0,-0.644499 0.20614,-0.9826716 0.65039,-0.9902341 z m -0.97461,2.7519531 c -0.5133,0.01858 -1.04788,0.170606 -1.70703,0.400391 -3.54753,1.2367 -6.17384,3.966418 -3.02344,3.142578 1.13147,-0.29585 2.0582,-0.821572 2.05859,-1.169922 3e-4,-0.34836 1.07994,-0.695658 2.39844,-0.771484 1.651,-0.0949 3.8875,1.376162 7.1875,4.726562 2.6354,2.6756 4.97932,4.676936 5.20899,4.447266 0.2297,-0.2297 -2.1451,-2.881079 -5.2793,-5.892578 -3.9531,-3.798378 -5.30386,-4.938553 -6.84375,-4.882813 z m -9.58984,4.363281 c -0.34741,0.01431 -0.64636,0.10534 -0.8125,0.271485 -0.3323,0.33229 0.2583,0.56881 1.3125,0.52539 1.16495,-0.04799 1.40124,-0.284285 0.60351,-0.603515 -0.36095,-0.144435 -0.75611,-0.20767 -1.10351,-0.19336 z m -7.6211,3.923828 c -0.3439,0.01587 -0.9635,0.20657 -1.88086,0.558594 -0.87,0.3338 -1.58203,1.00884 -1.58203,1.5 0,1.38321 1.6204,1.054978 3,-0.607422 0.84456,-1.017631 1.03605,-1.477621 0.46289,-1.451172 z m 31.42969,2.951172 c -1.25468,0 -1.10979,1.382403 0.29102,2.783203 0.6508,0.65084 1.33632,1.03086 1.52343,0.84375 0.6109,-0.6109 -0.89799,-3.626953 -1.81445,-3.626953 z m -36.73828,0.138672 c -1.36671,0.04964 -5.1543,1.978473 -5.1543,2.791016 0,0.53803 1.32105,0.21956 2.93555,-0.707032 1.6145,-0.9266 2.80189,-1.817248 2.63867,-1.980468 -0.0783,-0.07831 -0.22468,-0.110608 -0.41992,-0.103516 z m 33.78711,1.861328 c -0.58246,0 -0.78133,0.45 -0.44141,1 0.3399,0.55 0.81606,1 1.0586,1 0.24252,0 0.4414,-0.45 0.4414,-1 0,-0.55 -0.47613,-1 -1.05859,-1 z m 6.66015,2 c -0.5537,0 0.74246,1.792522 2.88086,3.982422 2.1384,2.1899 4.11163,3.757515 4.38477,3.484375 0.6567,-0.6567 -5.96993,-7.466797 -7.26563,-7.466797 z m -50.74023,1.080078 c -0.9016,-0.0434 -2.7016,0.805019 -4,1.886719 -1.29842,1.0817 -1.82985,1.9817 -1.18164,2 0.6483,0.0183 1.78098,-0.567987 2.51758,-1.304687 0.7366,-0.7367 2.00513,-1.601905 2.82031,-1.921875 1.22142,-0.47945 1.19465,-0.595097 -0.15625,-0.660157 z m 49.83594,3.544922 c -0.18224,0.08208 0.39069,0.81406 1.74023,2.25 1.6154,1.7188 3.08104,3.125 3.25781,3.125 0.9112,0 -2.27805,-3.876762 -4.09375,-4.976562 -0.36793,-0.222875 -0.62794,-0.35541 -0.77929,-0.394532 -0.0568,-0.01467 -0.099,-0.01565 -0.125,-0.0039 z m -57.78907,0.373047 c -0.32111,0.01393 -0.77888,0.122654 -1.36523,0.347656 -0.84869,0.3257 -1.54297,1.060893 -1.54297,1.632813 0,0.65816 0.71798,0.590919 1.95508,-0.181641 1.65706,-1.034872 1.91648,-1.840611 0.95312,-1.798828 z m 14.39258,1.433594 c -0.34336,0.103305 -0.37994,0.631253 0.15821,1.501953 0.3626,0.58656 1.13777,1.066406 1.72265,1.066406 0.6631,0 0.58758,-0.573057 -0.20117,-1.523437 -0.68579,-0.82628 -1.33632,-1.148227 -1.67969,-1.044922 z m 53.08789,2.568359 c -0.6798,0 0.12537,1.361691 1.78907,3.025391 3.6406,3.6406 3.08185,4.689765 -4.53125,8.509765 -2.8316,1.420601 -8.29649,4.356438 -12.14649,6.523438 -3.85,2.167 -8.575,4.728186 -10.5,5.691406 -1.925,0.9632 -4.02535,2.24238 -4.66601,2.84375 -0.6407,0.6014 -2.6657,1.708585 -4.5,2.458985 -1.83359,0.750108 -3.92673,1.945419 -4.6543,2.65625 -2.813,2.7503 1.29231,0.780993 15.32031,-7.345703 2.2,-1.274502 6.025,-3.366791 8.5,-4.650391 6.0464,-3.1357 9.39636,-5.084993 10,-5.820313 0.275,-0.335 2.1875,-1.213169 4.25,-1.951172 2.0625,-0.737999 3.75,-1.701118 3.75,-2.140624 0,-0.43951 0.68899,-0.800782 1.53125,-0.800782 2.86043,0 2.81694,-3.026693 -0.0879,-6.058594 -1.5494,-1.617198 -3.37489,-2.941406 -4.05469,-2.941406 z m -77.95312,1.060547 c -0.6261,-0.0075 -1.77224,0.640609 -3.43555,1.943359 l -2.5,1.957032 3.25,-1.199219 c 1.7875,-0.6598 3.25,-1.551049 3.25,-1.980469 0,-0.476812 -0.18879,-0.716227 -0.56445,-0.720703 z m 120.94531,0.125 c -0.20462,0.07533 -0.32942,0.605835 -0.29687,1.396485 0.048,1.164949 0.28429,1.401245 0.60351,0.603515 0.28891,-0.7219 0.25411,-1.583725 -0.0781,-1.916015 -0.0831,-0.08308 -0.16031,-0.109111 -0.22852,-0.08398 z m -64.43945,1.814453 c -0.58246,0 -0.78133,0.45 -0.44141,1 0.3399,0.55 0.81603,1 1.0586,1 0.24252,0 0.4414,-0.45 0.4414,-1 0,-0.55 -0.47613,-1 -1.05859,-1 z m -51.25,0.01563 c -0.71558,0.0092 -0.5927,0.401915 0.30859,0.984375 1.92112,1.2415 2.2673,1.2415 1.5,0 -0.3399,-0.55 -1.15355,-0.992775 -1.80859,-0.984375 z m 72.12695,0.984375 c -0.6631,0 -0.58758,0.575011 0.20117,1.525391 0.6957,0.83826 1.47096,1.318106 1.72266,1.066406 0.6935,-0.6935 -0.71523,-2.591797 -1.92383,-2.591797 z m 44.96875,1.445313 c -0.48369,0.07876 -0.7832,1.557528 -0.7832,3.99414 0,2.5074 0.45,4.558594 1,4.558594 0.55,0 1,-1.773906 1,-3.941406 0,-2.1675 -0.45,-4.218674 -1,-4.558594 -0.0763,-0.04719 -0.1477,-0.06399 -0.2168,-0.05273 z m -86.41797,2.660156 c -0.22707,-0.08041 -0.14386,0.29675 0.19531,1.1875 0.37555,0.98619 0.9343,1.542265 1.24219,1.234375 0.30789,-0.3079 -1.7e-4,-1.114639 -0.68359,-1.792969 -0.37036,-0.367612 -0.61766,-0.580662 -0.75391,-0.628906 z m 25.97656,0.894531 c -0.3602,0 0.15881,0.9 1.1543,2 0.9955,1.1 2.18954,2 2.6543,2 0.4647,0 -0.0543,-0.9 -1.1543,-2 -1.1,-1.1 -2.29405,-2 -2.6543,-2 z m -21.97656,3.105469 c -0.22707,-0.08041 -0.14386,0.29675 0.19531,1.1875 0.37555,0.98619 0.9343,1.542265 1.24219,1.234375 0.30789,-0.3079 -1.7e-4,-1.114639 -0.68359,-1.792969 -0.37036,-0.367612 -0.61766,-0.580662 -0.75391,-0.628906 z m -65.86914,2.925781 c -0.55,0 -1.675,0.43559 -2.5,0.96875 -0.825,0.53315 -1.05,0.970703 -0.5,0.970703 0.55,0 1.675,-0.437553 2.5,-0.970703 0.825,-0.53315 1.05,-0.96875 0.5,-0.96875 z m 69.14649,0.46875 2.92578,3.595703 c 1.61,1.9769 3.13015,3.423867 3.37695,3.216797 0.2468,-0.207 -1.07083,-1.82385 -2.92773,-3.59375 z m -55.0625,0.955078 c -0.23177,0.04647 -0.2732,0.237782 -0.0762,0.556641 0.336,0.5437 1.03325,0.988281 1.55079,0.988281 1.43843,0 1.12107,-0.716069 -0.61133,-1.380859 -0.22247,-0.08537 -0.41302,-0.138663 -0.57032,-0.162109 -0.11797,-0.01759 -0.21571,-0.01734 -0.29296,-0.002 z m -22.06446,2.576172 c -0.34412,0.02404 -0.994,0.213375 -1.93945,0.576172 -0.87,0.3339 -1.58203,1.10775 -1.58203,1.71875 0,0.611 7.3125,8.595641 16.25,17.744141 15.8462,16.22015 19.93918,19.209119 21.33398,15.574219 0.2865,-0.7464 2.20533,-1.913793 4.26563,-2.59375 2.0603,-0.680003 4.85072,-2.100453 6.19922,-3.15625 3.2623,-2.554502 0.42428,-1.597016 -6.91602,2.333984 -2.9517,1.58076 -5.99445,2.739699 -6.76367,2.574219 -0.769,-0.166 -8.61108,-7.494657 -17.42578,-16.285157 -14.3491,-14.3094 -15.84457,-16.1154 -14.29297,-17.25 1.17006,-0.855581 1.44463,-1.276393 0.87109,-1.236328 z m -13.3125,6.689453 c -0.66069,0.02869 -1.50615,0.397697 -2.90625,1.123047 l -3.19922,1.65625 4.50977,0.09766 c 2.7241,0.0588 5.15698,0.742923 6.14062,1.726563 0.8959,0.89587 1.88063,1.377183 2.1875,1.070313 0.3069,-0.306801 -0.3423,-1.174938 -1.4414,-1.929688 -1.0991,-0.7547 -2.67305,-2.026782 -3.49805,-2.826172 -0.65645,-0.63608 -1.13228,-0.946661 -1.79297,-0.917969 z m 46.81836,2.441407 c -0.0433,0.09527 0.42981,0.630265 1.37891,1.697265 2.03807,2.29129 2.5957,2.588513 2.5957,1.382813 0,-0.4177 -1.0125,-1.382368 -2.25,-2.142578 -1.121,-0.688625 -1.68133,-1.032769 -1.72461,-0.9375 z m 5.25586,5.222656 c -0.2302,0.2301 1.52579,2.251387 3.90039,4.492187 5.8609,5.53058 6.65851,5.226869 1.03711,-0.394531 -2.4847,-2.4846 -4.70736,-4.327786 -4.9375,-4.097656 z m -45.03515,0.115234 c -0.0625,0.01134 -0.11583,0.03575 -0.15626,0.07617 -0.32328,0.3233 0.28477,1.225827 1.35157,2.00586 2.7399,2.003409 3.17713,1.759609 1.05273,-0.587891 -0.87369,-0.965414 -1.81076,-1.573511 -2.24804,-1.494141 z m 76.5957,0.371094 c -0.75463,-0.117698 -4.36555,1.659688 -13.8418,6.75 -1.9246,1.0337 -3.72459,2.138005 -4,2.453125 -0.2755,0.3151 -1.28945,0.86363 -2.25195,1.21875 -0.96251,0.3552 -1.74238,1.221021 -1.73438,1.925781 0.009,0.78759 0.29843,0.8959 0.75,0.28125 0.76,-1.0343 4.26338,-3.016768 14.98438,-8.480468 3.4375,-1.751802 6.25,-3.545609 6.25,-3.986329 0,-0.09006 -0.0485,-0.145295 -0.15625,-0.162109 z m -102.56446,1.179688 c -0.47772,0 -1.30076,0.317071 -2.27929,0.949218 -1.29094,0.834387 -1.26523,0.973138 0.1914,0.986328 0.93,0.0084 1.96868,-0.436328 2.3086,-0.986328 0.3911,-0.6328 0.25727,-0.949221 -0.22071,-0.949218 z m 31.49219,1.949218 c -0.58531,0 -0.48903,0.63541 0.22852,1.5 0.68473,0.825 1.40141,1.5 1.59179,1.5 0.19042,0 0.0881,-0.675 -0.22851,-1.5 -0.3166,-0.825 -1.0333,-1.5 -1.5918,-1.5 z m -39.27148,2.03125 c -0.55,0 -1.675,0.43559 -2.5,0.96875 -0.825,0.53315 -1.05,0.970703 -0.5,0.970703 0.55,0 1.675,-0.437553 2.5,-0.970703 0.825,-0.53315 1.05,-0.96875 0.5,-0.96875 z m -5.865236,2.306641 c -0.07412,-0.01543 -0.156446,-0.01547 -0.246094,0.002 -0.119531,0.02309 -0.251172,0.07518 -0.388672,0.160156 -0.55,0.3399 -1,1.069141 -1,1.619141 0,0.55 0.45,0.720759 1,0.380859 0.55,-0.3399 1.000002,-1.067187 1.000002,-1.617187 0,-0.309375 -0.142872,-0.498634 -0.365236,-0.544922 z m 47.660156,0.236328 c -0.27791,0.07171 0.71022,1.364522 3.17187,3.826172 1.98001,1.98 4.01705,3.601562 4.52735,3.601562 0.5103,0 -0.96442,-1.766328 -3.27735,-3.923828 -2.60059,-2.425825 -4.14396,-3.575612 -4.42187,-3.503906 z m -31.66992,1.425781 c -0.55,0 0.2942,1.35 1.875,3 1.5808,1.65 3.325,3 3.875,3 0.55,0 -0.2942,-1.35 -1.875,-3 -1.5808,-1.65 -3.325,-3 -3.875,-3 z m -27.259768,5.199219 c -0.184584,0.0049 -0.4445,0.02754 -0.78125,0.06836 -1.054399,0.1278 -2.101221,0.907422 -2.326171,1.732422 -0.26306,0.96477 -0.115335,1.107931 0.416015,0.400391 0.4543,-0.6051 1.501172,-1.384652 2.326172,-1.732422 0.790478,-0.33321 0.918999,-0.483352 0.365234,-0.46875 z m 2.576172,2.800781 c -0.58246,0 -0.781326,0.45 -0.441406,1 0.3399,0.55 0.816054,1 1.058594,1 0.24254,0 0.441406,-0.45 0.441406,-1 0,-0.55 -0.476134,-1 -1.058594,-1 z m 233.066406,1.523438 c 9.1439,-0.0225 11.18,0.296237 15.75,2.460937 2.8867,1.3674 5.24805,2.915726 5.24805,3.441407 0,0.525699 1.8,2.634046 4,4.685546 2.2,2.051496 4,4.412506 4,5.248046 0,0.8355 0.41813,1.77954 0.92969,2.0957 2.11459,1.3074 -0.80542,10.01633 -3.60352,10.74805 -1.0047,0.26273 -2.27617,0.60131 -2.82617,0.75391 -0.55,0.1526 -1.88776,0.90027 -2.97266,1.66015 v -0.002 c -2.2304,1.56226 -8.1883,1.86877 -8.69531,0.44727 -0.1833,-0.514 -4.60703,-5.41217 -9.83203,-10.88477 -5.225,-5.4726 -11.1724,-11.792974 -13.2168,-14.046874 l -3.7168,-4.097657 2.2168,-1.242187 c 1.364,-0.76389 6.25835,-1.251728 12.71875,-1.267578 z m -198.00781,0.476562 c -0.55,0 -1,0.478087 -1,1.060547 0,0.58246 0.45,0.779353 1,0.439453 0.55,-0.3399 1,-0.816052 1,-1.058594 0,-0.242536 -0.45,-0.441406 -1,-0.441406 z m 2.81836,3 c -0.6631,0 -0.58758,0.575011 0.20117,1.525391 0.6957,0.83826 1.47096,1.318106 1.72266,1.066406 0.6935,-0.6935 -0.71523,-2.591797 -1.92383,-2.591797 z m -33.583987,1.431641 c -0.2172,0.2172 1.329047,1.997278 3.435547,3.955078 5.15266,4.789145 5.66586,4.567015 0.847656,-0.367187 -2.1384,-2.189904 -4.065993,-3.805101 -4.283203,-3.587891 z m -37.173828,6.208984 c -0.429425,0.01721 -1.126291,0.184601 -2.025391,0.498049 -1.6688,0.5817 -3.035156,1.46474 -3.035156,1.96094 0,0.49619 0.45,0.90039 1,0.90039 0.55,0 1,-0.45 1,-1 0,-0.55 0.648906,-1 1.441406,-1 0.7925,0 1.706911,-0.43106 2.033204,-0.95899 0.175798,-0.284457 0.01536,-0.417595 -0.414063,-0.400389 z m 154.568355,0.763669 13.13086,0.0957 5.48829,3.78125 c 3.01829,2.0799 7.64249,6.4674 10.27539,9.75 2.6328,3.2826 4.92778,5.96875 5.09961,5.96875 1.03099,0 -1.39787,-3.89995 -3.79297,-6.08985 -1.5575,-1.424 -2.83204,-3.10848 -2.83203,-3.74218 -4e-5,-0.63371 -0.90004,-1.71344 -2,-2.4004 -2.82321,-1.7631 -2.48316,-2.76757 0.93554,-2.76757 3.9219,0 9.27616,2.14523 6.81446,2.73047 -0.96253,0.2288 -1.75002,1.26207 -1.75,2.29687 -4e-5,1.9522 3.50001,2.95538 9.16601,2.62695 2.02442,-0.1173 2.41304,-0.45708 1.61719,-1.41601 -0.8405,-1.0128 -1.34795,-1.01548 -2.56055,-0.01 -1.30411,1.0823 -1.40207,0.91438 -0.7207,-1.23242 0.4343,-1.3686 1.48266,-2.99559 2.33008,-3.61523 1.552,-1.135 11.21765,-2.3618 18.71875,-2.375 2.2275,-0.004 4.48989,-0.44498 5.02734,-0.98243 1.538,-1.53862 23.05621,-1.77823 24.56641,-0.27343 0.6899,0.6875 2.02745,1.25 2.9707,1.25 2.2359,0 9.49155,8.27418 11.06055,12.61328 0.6734,1.8622 1.53381,3.38672 1.91211,3.38672 1.15048,0 2.11012,7.06687 2.0625,15.20117 -0.0543,9.271 -3.09277,16.70703 -9.00977,22.05273 -3.0682,2.772 -4.9228,3.56304 -9.6543,4.11914 -3.2208,0.3785 -6.33557,1.07267 -6.92187,1.54297 -0.5863,0.4703 -4.43947,1.40799 -8.56445,2.08399 -4.125,0.676 -7.95002,1.57714 -8.5,2.00195 -0.55001,0.4248 -3.025,1.08161 -5.5,1.45898 -2.47501,0.37731 -5.28751,0.9078 -6.25,1.17969 -2.22344,0.6281 -2.35739,-2.32971 -0.24219,-5.34961 0.8294,-1.1842 1.67327,-4.77 1.87695,-7.9707 0.20365,-3.20066 0.18781,-4.47031 -0.0371,-2.82031 -0.2249,1.65 -0.79513,3.9 -1.26562,5 -0.4705,1.1 -1.41854,3.88384 -2.10743,6.18554 -0.6889,2.3017 -3.17795,6.3517 -5.53125,9 -3.976,4.4745 -4.39738,4.69954 -5.95898,3.18164 -1.49522,-1.4534 -1.54143,-2.2802 -0.42383,-7.5 0.6908,-3.2266 1.6347,-6.2939 2.09766,-6.8164 1.18756,-1.3403 1.05157,-9.55078 -0.1582,-9.55078 -0.55001,0 -1,1.77827 -1,3.95117 0,4.492 -1.91295,14.29636 -2.93555,15.04883 -0.3737,0.275 -1.28721,2.00349 -2.03125,3.84179 -1.1495,2.8402 -1.14104,3.48946 0.0566,4.31641 1.02355,0.70666 0.7917,0.7986 -0.8457,0.33789 -1.6455,-0.463 -2.42842,-0.14185 -2.89844,1.18555 -0.9073,2.5624 -4.45395,6.31836 -5.96485,6.31836 -0.6979,0 -1.87586,0.86848 -2.61914,1.92968 -0.7433,1.0612 -2.68124,2.23989 -4.30664,2.61914 -1.6254,0.3792 -3.85508,1.23635 -4.95507,1.90625 -1.10001,0.6699 -4.92503,1.76055 -8.5,2.42188 -3.575,0.6613 -7.40001,1.59706 -8.5,2.08008 -3.66601,1.60985 -8.81897,3.05799 -9.27149,2.60547 -0.2458,-0.2458 0.5021,-1.78106 1.66211,-3.41016 1.16001,-1.6291 2.10938,-3.40552 2.10938,-3.94922 0,-0.5437 0.675,-1.24786 1.5,-1.56445 0.82499,-0.3165 1.5,-1.20948 1.5,-1.98438 0,-0.7749 0.675,-1.9696 1.5,-2.65429 1.71439,-1.4228 1.97729,-3 0.5,-3 -0.55001,0 -1,0.4797 -1,1.0664 0,0.5867 -1.125,2.54105 -2.5,4.34375 -1.375,1.8027 -2.53242,3.68552 -2.57032,4.1836 -0.144,1.9 -12.81604,10.29318 -16.56054,10.96875 -2.1283,0.384 -4.31915,1.01442 -4.86914,1.40039 -0.55001,0.3859 -3.7,1.30251 -7,2.03711 -3.30001,0.7346 -6.45002,1.64503 -7,2.02343 -0.55001,0.3784 -3.11236,1.20266 -5.69336,1.83204 -2.581,0.62934 -4.94355,1.14453 -5.25,1.14453 -1.1946,0 -0.46216,-1.7755 1.44336,-3.5 1.09997,-0.9955 2,-2.41454 2,-3.1543 0,-0.73971 0.5625,-1.34952 1.25,-1.35352 1.74368,-0.01 5.58533,-5.91694 6.35742,-9.77734 0.3535,-1.7677 1.00501,-3.21484 1.44726,-3.21484 0.4423,0 1.30054,-2.5875 1.90821,-5.75 0.6077,-3.1625 1.56646,-6.57403 2.13085,-7.58203 1.4366,-2.56604 1.4087,-20.36011 -0.0352,-22.09961 -0.83069,-1.0009 -0.84774,-1.58062 -0.0586,-2.06836 0.68447,-0.423 0.75251,-1.11553 0.17968,-1.83985 -0.5049,-0.6386 -1.23563,-2.96015 -1.62304,-5.16015 -0.3874,-2.2 -1.25626,-4.9 -1.93164,-6 -0.67541,-1.1 -1.85349,-4.025 -2.61719,-6.5 -0.7637,-2.475 -2.65207,-6.14046 -4.19727,-8.14453 -1.5453,-2.0042 -2.82003,-4.02917 -2.83203,-4.5 -0.028,-1.10601 -9.14807,-10.20704 -11.73047,-11.70704 -1.0875,-0.6317 -3.83868,-2.17122 -6.11328,-3.41992 -2.2746,-1.2487 -4.13477,-2.71118 -4.13476,-3.25 -4e-5,-0.92281 2.51981,-1.17377 14.50781,-1.44726 2.7542,-0.0628 5.45419,-0.36873 6,-0.67969 1.563,-0.89043 16.60111,-0.24944 20.66601,0.88086 2.0203,0.5618 5.7328,2.41253 8.25,4.11133 2.5172,1.69883 4.57618,2.72349 4.57618,2.27734 0,-1.3919 -3.48618,-4.04676 -6.85938,-5.22266 -8.446,-2.9442 2.14423,-4.6763 27.49023,-4.49414 z m -164.207027,3.64453 c -0.315155,0.0159 -0.922256,0.20649 -1.839844,0.5586 -0.87,0.3338 -1.582031,1.00884 -1.582031,1.5 0,1.30961 0.942578,1.09258 2.642578,-0.60742 1.0175,-1.01754 1.304556,-1.47758 0.779297,-1.45118 z m 22.162109,0.40625 c -0.231763,0.0465 -0.27324,0.23781 -0.07617,0.55664 0.336,0.54372 1.033241,0.98829 1.550781,0.98829 1.43844,0 1.123025,-0.71607 -0.609375,-1.38086 -0.22248,-0.0854 -0.414964,-0.13866 -0.572266,-0.16211 -0.117976,-0.0176 -0.215711,-0.0174 -0.292969,-0.002 z m 53.021488,0.68946 c 2.69364,0.0515 5.41443,0.47644 8.1289,1.28125 5.8237,1.7268 6.85864,2.1582 13.36914,5.5664 8.058,4.219 20.13864,20.77611 22.55274,30.91211 0.34,1.4277 0.98079,3.06005 1.42383,3.62891 1.1955,1.535 2.90115,13.13109 2.91015,19.77539 0.008,6.458 -1.80531,19.63941 -2.91601,21.19141 -0.3937,0.55 -1.33213,3.025 -2.08594,5.5 -1.2369,4.0609 -6.32602,11.99307 -8.23242,12.83203 -0.41659,0.1834 -0.75783,0.9867 -0.75781,1.7832 0,0.7965 -0.78751,1.74909 -1.75,2.11719 -0.96253,0.3681 -3.65262,2.11898 -5.97852,3.89258 -3.1216,2.3805 -5.74,3.41153 -10,3.93554 -3.1741,0.3905 -6.05274,1.14733 -6.39648,1.68164 -0.39842,0.61921 -0.84012,0.62167 -1.21876,0.01 -0.32669,-0.5286 -3.40283,-1.25445 -6.83593,-1.61328 -4.1458,-0.4333 -7.50767,-1.49069 -10.00977,-3.14649 -2.0722,-1.3713 -4.13357,-2.49218 -4.58008,-2.49218 -1.328,0 -13.230465,-12.27193 -13.230465,-13.64063 0,-0.693 -0.568422,-1.62072 -1.263672,-2.06055 -1.4564,-0.921 -6.736328,-11.51307 -6.736328,-13.51367 0,-0.7373 -0.657274,-2.27727 -1.458984,-3.42187 -0.8018,-1.1446 -1.760683,-5.18236 -2.132813,-8.97266 -0.3721,-3.7903 -1.088927,-7.4142 -1.591797,-8.05273 -0.56587,-0.7185 -0.508669,-1.41104 0.150391,-1.81836 0.58568,-0.3619 0.733102,-1.19035 0.326172,-1.83985 -0.99742,-1.5919 -1.001444,-3.92789 -0.0098,-5.34179 0.4518,-0.6441 0.338827,-1.45324 -0.251953,-1.81836 -0.58568,-0.3619 -0.741143,-1.18244 -0.345703,-1.82227 0.39543,-0.6398 0.782825,-1.84502 0.859375,-2.67969 0.3505,-3.8209 1.780883,-10.58736 2.533203,-11.98046 0.457,-0.8462 1.765503,-3.56211 2.908203,-6.03711 3.6085,-7.8166 4.870941,-9.61979 9.751957,-13.92579 2.6189,-2.31028 5.23798,-4.50862 5.82031,-4.88671 5.32606,-3.4582 11.12281,-5.1563 17.04883,-5.04297 z m 192.78906,0.23633 c 0.35859,0.0159 0.61133,0.41549 0.61133,1.05859 0,0.85744 -0.45,1.55859 -1,1.55859 -0.55,0 -1,-0.4239 -1,-0.9414 0,-0.5175 0.45,-1.21868 1,-1.5586 0.1375,-0.085 0.26914,-0.12248 0.38867,-0.11718 z M 35.5,110.48633 c -0.701592,-0.003 -1.451172,0.41844 -1.451172,1.07812 0,0.24254 0.701137,0.43946 1.558594,0.43946 0.857457,0 1.277102,-0.45666 0.93164,-1.01563 -0.21405,-0.34634 -0.618107,-0.50027 -1.039062,-0.50195 z m 159.52539,1.28906 c -0.22207,0.0849 0.43085,0.99618 1.77149,2.40625 1.78747,1.8801 3.24999,3.81052 3.25,4.29102 -4e-5,0.4805 0.74685,1.69978 1.66015,2.70898 0.9132,1.00923 1.87581,1.61833 2.13867,1.35547 0.6912,-0.6908 -5.93613,-9.12289 -8.29882,-10.55859 -0.27503,-0.1671 -0.44747,-0.23145 -0.52149,-0.20313 z m -162.435546,0.22852 c -1.2469,0 -10.541016,5.25428 -10.541016,5.95898 h 0.002 c 0,0.9435 9.683683,-3.63916 10.507813,-4.97266 0.33479,-0.54171 0.34883,-0.98632 0.03125,-0.98632 z m 15.458984,1 c -1.6242,0 -1.1538,1.65603 1.25,4.39843 1.2375,1.4118 2.665458,2.57399 3.173828,2.58399 0.5084,0.01 -0.05414,-1.02388 -1.25,-2.29688 -1.19586,-1.273 -2.173828,-2.8479 -2.173828,-3.5 0,-0.6521 -0.45,-1.18554 -1,-1.18554 z m 208.212892,1.45312 c -0.13822,0.0167 -0.2168,0.11852 -0.2168,0.32227 0,0.6185 0.56717,1.48393 1.25977,1.92382 0.6926,0.4399 2.37091,2.46124 3.72851,4.49024 2.8424,4.24815 3.85964,4.3417 1.68164,0.1543 -1.52083,-2.92382 -5.48559,-7.00756 -6.45312,-6.89063 z m -172.73047,2.59375 c -0.302777,0.0405 -0.482422,0.55309 -0.482422,1.51367 0,0.85746 0.456655,1.27515 1.015625,0.92969 0.55897,-0.3454 0.757836,-1.04659 0.441406,-1.55859 -0.321465,-0.52016 -0.606839,-0.80797 -0.83789,-0.87305 -0.04814,-0.0136 -0.09346,-0.0175 -0.136719,-0.0117 z m -63.578125,2.47852 c -0.603675,-0.005 -1.444878,0.23136 -2.705078,0.70703 -3.79136,1.4311 -3.936444,2.22109 -0.964844,5.30859 1.2293,1.27733 2.437134,2.12146 2.683594,1.875 0.24646,-0.2464 -0.08355,-0.98197 -0.734375,-1.63281 -1.58603,-1.586 -1.507513,-4.7832 0.117187,-4.7832 0.715,0 1.84,0.54117 2.5,1.20117 1.33788,1.3379 1.604813,-0.0135 0.382813,-1.9375 -0.3098,-0.48781 -0.675622,-0.73362 -1.279297,-0.73828 z m 227.173825,1.52539 c -0.18239,0.0273 -0.0333,0.4866 0.35938,1.44922 0.4487,1.1 1.03629,3.0125 1.30469,4.25 0.2684,1.2375 0.86527,2.25 1.32617,2.25 0.4609,0 1.15574,1.6875 1.54492,3.75 0.38912,2.06253 0.88431,3.22657 1.09961,2.58789 0.6504,-1.929 -2.69242,-12.07571 -4.44922,-13.50391 -0.54146,-0.4402 -0.89491,-0.70445 -1.08594,-0.76953 -0.0398,-0.0136 -0.0736,-0.0176 -0.0996,-0.0137 z M 54.351562,121.4375 c -0.343364,0.1033 -0.3819,0.6293 0.15625,1.5 0.362601,0.58656 1.137767,1.06641 1.722657,1.06641 0.66309,0 0.587578,-0.57305 -0.201172,-1.52344 -0.68579,-0.82628 -1.334367,-1.14627 -1.677735,-1.04297 z m 150.720708,2.56641 c -0.5209,0 0.0459,2.00327 1.26171,4.45117 1.2158,2.4479 2.5866,4.4729 3.04493,4.5 0.45837,0.0271 0.6596,-0.28867 0.44726,-0.70117 -0.2124,-0.4125 -1.15675,-2.4375 -2.09765,-4.5 -0.9409,-2.0625 -2.13535,-3.75 -2.65625,-3.75 z m -146.707036,2.42968 c -0.05683,0.006 -0.102343,0.0242 -0.136718,0.0586 -0.275,0.275 0.318712,1.40502 1.320312,2.51172 1.0016,1.10678 2.045313,1.78867 2.320313,1.51367 0.275,-0.275 -0.318713,-1.40689 -1.320313,-2.51367 -0.8764,-0.96844 -1.785748,-1.60916 -2.183594,-1.57032 z m -33.152343,0.21485 c -0.316309,0.0759 -0.118694,0.70528 0.816406,1.83203 0.6958,0.83833 1.737516,1.52344 2.316406,1.52344 0.57886,0 0.187606,-0.8421 -0.871094,-1.8711 -1.114865,-1.08359 -1.94541,-1.56029 -2.261718,-1.48437 z m -4.722657,2.35547 c -0.857457,0 -1.2771,0.4586 -0.93164,1.01757 0.3454,0.55897 1.046593,0.7559 1.558594,0.43946 1.387077,-0.85724 1.129546,-1.45703 -0.626954,-1.45703 z m 338.601566,1.74414 c 0.84724,0.008 1.66945,0.26209 2.57226,0.73047 1.438,0.746 8.93049,7.3573 16.65039,14.6914 7.7195,7.3346 14.86912,13.65796 15.88672,14.05274 1.0176,0.3948 1.84961,1.40727 1.84961,2.25 0,0.8427 0.3375,1.54695 0.75,1.56445 1.5442,0.0655 3.98265,2.55401 4.69141,4.78711 0.641,2.019 -0.93336,3.91809 -12.44336,14.99609 -7.2487,6.9761 -13.75767,12.9086 -14.46485,13.1836 -0.708,0.275 -7.91532,6.8 -16.01562,14.5 -8.1007,7.6997 -15.35535,14.14641 -16.12305,14.32421 -0.76768,0.17791 -1.39648,0.70903 -1.39648,1.17969 0,1.3052 -10.3264,10.95001 -11.75,10.97461 -0.6875,0.0119 -1.25,0.69649 -1.25,1.52149 0,0.825 -0.675,1.5 -1.5,1.5 -0.825,0 -1.5,0.675 -1.5,1.5 0,0.825 -0.5075,1.5 -1.12891,1.5 -0.6214,0 -2.9839,1.73225 -5.25,3.84765 -2.266,2.115 -11.84164,11.1154 -21.27734,20 -9.4361,8.8848 -17.54955,16.15235 -18.03125,16.15235 -0.4817,0 -2.96734,2.25 -5.52344,5 -2.5561,2.75 -5.1297,5 -5.71875,5 -0.58905,0 -1.07031,0.64566 -1.07031,1.43359 0,0.788 -0.9,1.71721 -2,2.06641 -1.1,0.3492 -2,1.24654 -2,1.99414 0,0.74759 -0.65337,1.50576 -1.45313,1.68359 -1.338,0.297 -20.30125,17.41295 -33.65625,30.37695 -3.0856,2.9952 -6.1231,5.44532 -6.75,5.44532 -0.6269,0 -1.14062,0.675 -1.14062,1.5 0,0.825 -0.58348,1.5 -1.29688,1.5 -0.71329,0 -3.07617,1.83835 -5.25,4.08398 -2.1741,2.2459 -5.07636,4.89584 -6.45117,5.88867 -2.493,1.8003 -2.5133,1.79341 -7.25,-2.49609 -2.6125,-2.3659 -4.75094,-4.67799 -4.7539,-5.13867 -0.003,-0.4607 -3.3616,-4.43789 -7.4629,-8.83789 -4.1013,-4.4 -7.47334,-8.37795 -7.49414,-8.83985 -0.0208,-0.4619 -1.11363,-2.0369 -2.42773,-3.5 -14.4908,-16.1329 -19.61133,-22.15637 -19.61133,-23.07226 0,-0.59792 -0.40143,-1.08789 -0.89258,-1.08789 -0.4911,0 -1.20408,-0.7875 -1.58398,-1.75 -0.5186,-1.314 0.88139,-3.1826 5.62109,-7.5 3.4717,-3.1625 6.67244,-5.75 7.11328,-5.75 0.833,0 11.93151,-9.01315 17.34961,-14.08985 1.7085,-1.6009 3.41778,-2.91015 3.80078,-2.91015 0.383,0 5.5988,-4.275 11.5918,-9.5 5.993,-5.225 11.20233,-9.5 11.57617,-9.5 0.3738,0 4.42019,-3.15 8.99219,-7 4.572,-3.85 8.58442,-7 8.91602,-7 0.3316,0 4.81147,-3.6 9.95507,-8 5.1436,-4.4 9.75861,-8 10.25391,-8 0.4953,0 2.00432,-1.33034 3.35352,-2.95703 1.3492,-1.62674 2.86767,-2.9767 3.375,-3 0.5073,-0.0233 3.51007,-2.29297 6.67187,-5.04297 3.1617,-2.75 6.00428,-5 6.31641,-5 0.6554,0 2.6604,-1.60314 10.4707,-8.36524 3.0903,-2.6756 6.74414,-5.57824 8.11914,-6.45117 1.375,-0.8729 3.175,-2.16537 4,-2.87109 10.0781,-8.6213 15.94827,-13.3125 16.65625,-13.3125 0.4743,0 1.42443,-0.9 2.11133,-2 0.6869,-1.1 1.73407,-2 2.32617,-2 0.5921,0 4.11503,-2.7 7.82813,-6 3.7131,-3.3 7.2581,-6 7.8789,-6 0.6208,0 1.61042,-0.9 2.19922,-2 0.5888,-1.1 1.55139,-2 2.13867,-2 0.919,0 4.36033,-2.76366 17.86133,-14.34766 3.1966,-2.7428 5.17709,-3.92486 7.04102,-3.9082 z m -93.04688,0.25586 c -0.55,0 -1,0.45 -1,1 0,0.55 0.45,1 1,1 0.55,0 1,-0.45 1,-1 0,-0.55 -0.45,-1 -1,-1 z m 93.03711,1 c -0.5311,0 -4.53448,3.15 -8.89648,7 -4.362,3.85 -8.39019,7 -8.95117,7 -0.56106,0 -1.17018,0.34312 -1.35352,0.76367 -0.284,0.653 -12.03499,10.27427 -21.08398,17.26367 -1.51252,1.1682 -2.75,2.56179 -2.75,3.0957 0,0.797 7.2626,-4.83847 16.25,-12.60937 0.96249,-0.8322 2.03397,-1.51367 2.38085,-1.51367 0.515,0 8.59311,-6.63258 17.56641,-14.42188 0.9332,-0.8101 3.0708,-2.18241 4.75,-3.05078 2.92412,-1.5121 4.11719,-3.52734 2.08789,-3.52734 z m 1.96485,2 c -0.55001,0 -1.00001,0.45 -1,1 0,0.55 0.44999,1 1,1 0.54998,0 1,-0.45 1,-1 -10e-6,-0.55 -0.45002,-1 -1,-1 z m -113.41407,0.50781 c -0.3625,-0.0316 -0.58789,0.0719 -0.58789,0.31836 0,0.49294 -2.73472,1.14408 -6.07812,1.44726 -3.3435,0.30317 -6.20393,0.70296 -6.35742,0.88868 -0.15352,0.1857 -0.0149,2.13789 0.30859,4.33789 0.56959,3.87327 0.59873,3.89914 0.91601,0.82421 0.1802,-1.74656 0.86384,-3.61799 1.51954,-4.16015 1.8323,-1.51481 10.97539,-1.81595 11.45507,-0.37695 0.5676,1.7027 2.23633,1.51484 2.23633,-0.25196 0,-0.8057 -0.9,-1.94645 -2,-2.53515 -0.55,-0.29435 -1.04961,-0.46064 -1.41211,-0.49219 z m -37.80664,0.49219 c -0.8973,0 -0.8922,0.28739 0.0195,1.19921 0.66,0.66 1.19922,2.08627 1.19922,3.16797 0,1.08169 0.28009,1.68676 0.6211,1.34571 0.9861,-0.9861 -0.53625,-5.71289 -1.83985,-5.71289 z m 57.68555,0.49023 c -0.17296,0.0156 -0.28679,0.77227 -0.27149,2.00977 0.0204,1.65003 0.24451,2.20344 0.49805,1.23047 0.25349,-0.97301 0.23678,-2.32297 -0.0371,-3 -0.0685,-0.16928 -0.1318,-0.24544 -0.18945,-0.24024 z m -233.054689,1.50977 c -0.1904,0 -0.08611,0.675 0.230469,1.5 0.3166,0.825 1.031344,1.5 1.589844,1.5 0.58531,0 0.489034,-0.63541 -0.228516,-1.5 -0.68473,-0.825 -1.401397,-1.5 -1.591797,-1.5 z m 32.802735,0 c -0.3394,0 1.140862,1.8 3.289062,4 3.89952,3.99344 4.5,4.45824 4.5,3.48242 0,-0.7241 -7.035242,-7.48242 -7.789062,-7.48242 z m 186.787114,0 c -1.10892,0 -1.38739,5.28058 -0.33399,6.33398 1.15091,1.151 1.33399,0.76272 1.33399,-2.83398 0,-1.925 -0.45001,-3.5 -1,-3.5 z m 108.82031,0 c -0.6631,0 -0.58758,0.57304 0.20117,1.52343 0.6957,0.83826 1.47096,1.31811 1.72266,1.06641 0.6935,-0.6935 -0.71523,-2.58984 -1.92383,-2.58984 z m 3.78125,3.04882 c -1.556,-0.086 17.78269,19.05369 20.24609,20.03711 1.2907,0.5152 2.58126,1.83239 2.86719,2.92578 0.2859,1.09344 0.99999,1.98829 1.58789,1.98829 1.5572,0 5.69727,4.12302 5.69727,5.67382 0,1.7706 -0.95983,1.67003 -3.16993,-0.33007 -1.00577,-0.91024 -1.83007,-1.189 -1.83007,-0.6211 -10e-6,0.5679 0.66295,1.58195 1.47265,2.25391 1.2621,1.0475 1.27308,1.42215 0.0723,2.62305 -0.7704,0.77039 -1.68323,1.40039 -2.02735,1.40039 -0.3441,0 -2.06261,1.34674 -3.82031,2.99414 -3.6793,3.4485 -5.06109,3.70086 -6.90039,1.25586 -0.7241,-0.9625 -2.43704,-2.65 -3.80664,-3.75 l -2.49023,-2 2,2.44336 c 1.1,1.344 3.06453,3.38987 4.36523,4.54687 l 2.36523,2.10352 -6.61523,5.91601 c -3.6383,3.2539 -6.61523,6.27059 -6.61523,6.70313 -10e-6,1.5245 1.11894,0.72476 7.77734,-5.55664 3.6973,-3.4883 9.49692,-8.7758 12.88672,-11.75 3.3899,-2.9741 6.48151,-6.27153 6.87109,-7.32813 0.575,-1.557 -2.20211,-4.72117 -14.66211,-16.70117 -8.4549,-8.1287 -15.77709,-14.80083 -16.27148,-14.82813 z m -98.07422,1.23243 c -0.30049,0.0953 -0.5293,1.57774 -0.5293,3.61132 0,2.3241 0.33931,4.01673 0.75196,3.76172 0.90883,-0.5617 0.8373,-6.39917 -0.0899,-7.32617 -0.0454,-0.0454 -0.0899,-0.0605 -0.13281,-0.0469 z m -55.42774,1.69922 c -0.70519,0.004 -0.69811,2.84596 -0.32031,13.26953 0.2727,7.5252 0.87072,12.75 1.46094,12.75 1.13474,0 0.62374,-24.46806 -0.53516,-25.62696 -0.24279,-0.24281 -0.44273,-0.39357 -0.60547,-0.39257 z m 38.47657,0.13085 c -0.0435,-0.22078 -0.13537,1.09756 -0.29883,3.84961 -0.211,3.5539 -0.8464,7.01955 -1.41211,7.70118 -0.5657,0.6817 -3.0131,1.53679 -5.4375,1.90039 -2.4244,0.3636 -4.16123,1.06043 -3.85938,1.54882 0.7157,1.1581 3.76757,1.14114 4.98047,-0.0273 0.5225,-0.50343 2.07618,-1.06593 3.45118,-1.25 2.4225,-0.3243 2.50197,-0.58198 2.58007,-8.33398 0.0343,-3.4073 0.0399,-5.16789 -0.004,-5.38868 z m 115.36523,1.88868 c -0.58246,0 -0.78133,0.45 -0.4414,1 0.33989,0.55 0.818,1 1.06054,1 0.24254,0 0.43945,-0.45 0.43946,-1 0,-0.55 -0.47614,-1 -1.0586,-1 z m -112.56445,0.38867 c -0.12148,-0.004 -0.25479,0.0347 -0.39453,0.12109 -0.55897,0.3454 -0.75785,1.0466 -0.44141,1.5586 0.85724,1.38708 1.45897,1.12954 1.45899,-0.62696 0,-0.64312 -0.25861,-1.04046 -0.62305,-1.05273 z m -211.492189,1.61133 c -0.55,0 -0.722733,0.45 -0.382813,1 0.3399,0.55 1.067188,1 1.617188,1 0.55,0 0.722712,-0.45 0.382812,-1 -0.3399,-0.55 -1.067187,-1 -1.617187,-1 z m 193.775389,0 c -1.10998,-10e-4 -1.19228,8.5744 -0.11328,11.8125 l 0.002,0.002 c 0.24069,0.72236 0.77697,1.1038 1.19336,0.84766 1.2413,-0.764 0.22457,-12.66141 -1.08203,-12.66211 z m 18.7168,2.38867 c -0.12148,-0.004 -0.25479,0.0347 -0.39453,0.12109 -0.55897,0.3454 -0.75785,1.0466 -0.44141,1.5586 0.85724,1.38708 1.45899,1.12954 1.45899,-0.62696 0,-0.64312 -0.25861,-1.04046 -0.62305,-1.05273 z m 116.94726,0.81445 c -0.20613,-0.0261 -0.32423,0.11639 -0.32421,0.42969 -10e-6,0.5683 0.30129,1.33256 0.66796,1.69922 0.36663,0.36667 0.89943,0.43456 1.1836,0.15039 0.28417,-0.2842 -0.0171,-1.04838 -0.66797,-1.69922 -0.35877,-0.35878 -0.65324,-0.55395 -0.85938,-0.58008 z M 46.349609,150.4375 c -0.343365,0.10331 -0.379947,0.6293 0.158203,1.5 0.362601,0.58656 1.137767,1.06641 1.722657,1.06641 0.66309,0 0.587578,-0.57305 -0.201172,-1.52344 -0.68579,-0.82628 -1.336323,-1.14628 -1.679688,-1.04297 z m 286.281251,10.01953 c -0.23177,0.047 -0.27318,0.23974 -0.0762,0.55859 0.336,0.54373 1.03324,0.98829 1.55078,0.98829 1.43844,0 1.12302,-0.71803 -0.60938,-1.38282 -0.22247,-0.0854 -0.41496,-0.13866 -0.57226,-0.16211 -0.11798,-0.0176 -0.21572,-0.0174 -0.29297,-0.002 z m -124.83789,3.62891 c -1.69265,-0.0356 -4.6557,0.34104 -9.83789,1.02148 -8.9668,1.1774 -12.88918,2.89649 -6.60938,2.89649 2.035,0 3.70117,-0.48404 3.70118,-1.07618 0,-0.618 1.46701,-0.94973 3.44531,-0.77929 1.8955,0.1633 3.7718,-0.0277 4.16797,-0.42383 1.4594,-1.4594 4.5847,-0.6748 5.0957,1.2793 0.739,2.8258 2.29102,2.4871 2.29102,-0.5 0,-1.64402 -0.0776,-2.37222 -2.25391,-2.41797 z m 93.32226,1.9375 c 1.51004,0.0268 2.93165,0.34358 2.93165,0.92578 -10e-6,0.52 -1.09219,1.53249 -2.42579,2.25 -1.334,0.7176 -6.49786,4.79219 -11.47656,9.05469 -4.9787,4.2625 -9.32355,7.75 -9.65625,7.75 -0.3327,0 -2.52775,1.575 -4.87695,3.5 -2.3492,1.925 -4.99611,3.5 -5.88086,3.5 -2.2834,0 -10.68359,-8.44153 -10.68359,-10.73633 -10e-6,-3.8174 6.15482,-7.61838 15.11132,-9.33008 3.513,-0.6714 6.83865,-1.55374 7.38868,-1.96094 0.55,-0.4072 4.28272,-1.31692 8.29492,-2.02344 4.0122,-0.7065 7.52584,-1.65968 7.80859,-2.11718 0.35595,-0.5759 1.95481,-0.83933 3.46484,-0.8125 z m 66.32032,0.32422 c -0.11953,0.0201 -0.25118,0.0713 -0.38867,0.15625 -0.55001,0.3399 -1.00001,0.81605 -1,1.05859 0,0.24254 0.44999,0.44141 1,0.44141 0.54998,0 1,-0.47809 1,-1.06055 -10e-6,-0.43685 -0.25274,-0.65599 -0.61133,-0.5957 z m -53.20313,1.74023 c -0.99723,0.0445 -3.18557,2.09244 -3.18554,3.19336 -10e-6,0.56792 0.90245,0.2153 2.00585,-0.7832 1.1034,-0.9985 1.79048,-2.0318 1.52539,-2.29688 -0.084,-0.084 -0.20324,-0.11963 -0.3457,-0.11328 z m -128.61328,0.22852 c -0.25905,-0.003 -0.6087,0.006 -1.04492,0.0293 -2.9719,0.1587 -2.97171,0.15824 -4.19141,9.30274 -0.6909,5.1802 -2.11144,10.81103 -3.27734,12.98633 -1.13201,2.1121 -2.0586,4.18482 -2.05859,4.60546 0,0.42065 0.94782,0.76368 2.10742,0.76368 1.6926,0 1.99641,-0.44733 1.53906,-2.26953 -0.5216,-2.07884 0.87391,-7.68552 2.56641,-10.3125 0.38318,-0.5948 1.00218,-4.05827 1.375,-7.69727 0.5781,-5.6423 0.98932,-6.68321 2.79492,-7.07617 0.93232,-0.20292 0.96659,-0.32356 0.18945,-0.33203 z m 183.73242,1.1289 c -0.0578,0.007 -0.10707,0.027 -0.14258,0.0625 -0.2841,0.284 0.35231,1.17278 1.41211,1.97461 2.70405,2.04574 3.04633,1.86523 0.91993,-0.48437 -0.87378,-0.96548 -1.78466,-1.59963 -2.18946,-1.55274 z m -156.30468,1.5586 c -0.55001,0 -1,0.9 -1,2 0,1.1 0.44999,2 1,2 0.55,0 1,-0.9 1,-2 0,-1.1 -0.45002,-2 -1,-2 z m -5.53516,0.49023 c -0.17296,0.0156 -0.28483,0.77227 -0.26953,2.00977 0.0204,1.65003 0.2445,2.20342 0.49804,1.23047 0.25349,-0.97301 0.23681,-2.323 -0.0371,-3 -0.0685,-0.16928 -0.13375,-0.24544 -0.1914,-0.24024 z m 101.47851,0.64063 c -0.26266,-0.005 -1.39827,0.88847 -2.74804,2.18164 -1.5425,1.4779 -3.23027,2.6875 -3.75196,2.6875 -1.0539,0 -6.44335,5.43154 -6.44335,6.49414 0,0.3709 2.925,-1.89451 6.5,-5.03321 3.57499,-3.1386 6.5,-5.96075 6.5,-6.27148 0,-0.0389 -0.0191,-0.0579 -0.0566,-0.0586 z m 10.44141,2.19531 c -0.0389,0.0103 -0.0747,0.0317 -0.10742,0.0644 -0.26213,0.2621 -0.18089,0.95638 0.18164,1.54297 0.9861,1.5955 1.5629,1.28554 0.88672,-0.47656 -0.28502,-0.74261 -0.68883,-1.203 -0.96094,-1.13086 z m -112.70508,2.94922 c -0.24266,0.0466 -0.64274,0.41479 -1.21094,1.16601 -0.80751,1.0676 -1.46875,2.69453 -1.46874,3.61524 0,2.2029 -3.57844,6.69504 -5.76954,7.24218 -0.9516,0.23759 -0.41263,0.26329 1.19727,0.0566 1.6099,-0.20654 2.97355,-0.48347 3.03125,-0.61524 0.0577,-0.1318 1.1024,-2.31441 2.32226,-4.84961 1.92442,-3.99943 2.62644,-6.75501 1.89844,-6.61523 z m 4.70508,0.18945 c -0.12947,-0.0506 -0.22391,0.36475 -0.26953,1.22656 -0.0638,1.205 -0.57384,2.47286 -1.13281,2.81836 -0.55897,0.3455 -0.70854,1.12444 -0.33399,1.73047 0.8668,1.4025 2.58258,-3.03123 2.00391,-5.17773 -0.0994,-0.36873 -0.1899,-0.5673 -0.26758,-0.59766 z m 143.83789,5.04297 c -0.14888,-0.002 -0.29582,0.0379 -0.43359,0.12305 -0.6161,0.3808 -0.48075,0.9499 0.35351,1.47851 1.82082,1.15375 1.88334,1.12329 1.22071,-0.60351 -0.23655,-0.61635 -0.69397,-0.99246 -1.14063,-0.99805 z m -60.69141,1.76953 c -1.40239,0.2188 -15.8315,11.72815 -15.33593,12.29102 0.168,0.191 9.93512,10.05778 21.70312,21.92578 v 0.002 l 21.39649,21.57617 2.59961,-2.28515 c 1.4299,-1.2574 2.75043,-2.62461 2.93554,-3.03711 0.1851,-0.4125 0.7828,-0.75 1.32617,-0.75 0.54341,0 1.55887,-0.5625 2.25782,-1.25 6.245,-6.142 26.01054,-24.32396 26.73828,-24.59571 1.0646,-0.398 10.84961,-10.1985 10.84961,-10.86718 0,-0.573 -11.94072,9.97059 -17.51172,15.46289 -2.371,2.3375 -4.77789,4.25 -5.34961,4.25 -0.5717,0 -1.40001,0.56676 -1.83984,1.25976 -1.9,2.993 -19.04441,17.63876 -21.31641,18.20899 -2.218,0.557 -4.7397,-1.63482 -22.4707,-19.50782 l -19.97461,-20.13281 4.59961,-4.16406 c 2.5297,-2.2905 5.81402,-4.99512 7.29883,-6.01172 1.48471,-1.0165 2.46911,-2.07972 2.1875,-2.36133 -0.0172,-0.0172 -0.0485,-0.0207 -0.0938,-0.0137 z m 34.05274,0.17578 c -0.23177,0.047 -0.27318,0.23976 -0.0762,0.55859 0.336,0.54373 1.03324,0.98829 1.55078,0.98829 1.43844,0 1.12302,-0.71803 -0.60938,-1.38282 -0.22247,-0.0854 -0.41496,-0.13866 -0.57226,-0.16211 -0.11798,-0.0176 -0.21572,-0.0174 -0.29297,-0.002 z m 30.41602,2.54688 c -0.0516,0.0516 0.25109,0.45695 0.87304,1.25 0.75485,0.9625 1.54235,1.75 1.75,1.75 0.8231,0 0.29272,-0.82251 -1.37304,-2.12891 -0.79303,-0.62192 -1.19839,-0.9227 -1.25,-0.87109 z m -166,3 c -1.1,0 -2.00001,0.45 -2,1 0,0.55 0.9,1 2,1 1.09997,0 1.99999,-0.45 2,-1 -4e-5,-0.55 -0.90003,-1 -2,-1 z m 113,0 c -0.55001,0 -1,0.45 -1,1 0,0.55 0.44997,1 1,1 0.54998,0 1,-0.45 1,-1 0,-0.55 -0.45,-1 -1,-1 z m -118,2.1289 c -0.45313,0 -0.90629,0.0703 -1.25,0.20899 -0.6875,0.27741 -0.125,0.5039 1.25,0.5039 1.375,0 1.9375,-0.22649 1.25,-0.5039 -0.34379,-0.13871 -0.7969,-0.20899 -1.25,-0.20899 z m 176.02539,0.0332 c -0.0433,0.0953 0.43176,0.62831 1.38085,1.69531 2.03808,2.29128 2.59373,2.58851 2.59376,1.38281 0,-0.4177 -1.0125,-1.38237 -2.25,-2.14258 -1.12102,-0.68867 -1.68134,-1.03083 -1.72461,-0.93554 z m -182.08399,0.83789 c -1.13248,0 -1.78136,0.45 -1.4414,1 0.33986,0.55 1.26603,1 2.05859,1 0.79256,0 1.44141,-0.45 1.44141,-1 0,-0.55 -0.92612,-1 -2.0586,-1 z m 155.41602,0.29882 c -0.26033,0.0262 -0.0355,0.38186 0.625,1.17774 1.44013,1.73528 2.01758,1.91686 2.01758,0.63086 0,-0.4912 -0.73784,-1.17701 -1.64063,-1.52344 -0.51468,-0.19751 -0.84576,-0.30087 -1.00195,-0.28516 z m 6.90625,6.70118 c -0.3682,0 1.08035,1.79057 3.21875,3.98047 2.1384,2.18987 4.05963,3.81147 4.26953,3.60156 0.469,-0.469 -6.55603,-7.58203 -7.48828,-7.58203 z m -29.57227,0.0156 c -0.71558,0.009 -0.5927,0.40192 0.3086,0.98438 1.9211,1.2415 2.26729,1.2415 1.5,0 -0.33991,-0.55 -1.15356,-0.99238 -1.8086,-0.98438 z m -44.78125,3.98438 c -1.007,0 -4.47237,2.55122 -10.16015,7.48242 -0.9625,0.83446 -2.20002,1.51758 -2.75,1.51758 -0.55001,0 -1,0.76242 -1,1.69531 0,1.3198 0.72127,1.0216 3.25,-1.3418 6.54538,-6.1174 12.75,-9.20861 12.75,-6.35351 0,0.55 0.64953,1 1.44335,1 0.7938,0 2.14381,1.00025 3,2.22265 0.85618,1.2224 1.55665,1.74417 1.55665,1.16016 0,-1.3695 -6.58905,-7.38281 -8.08985,-7.38281 z m 51.08985,2 c -0.55001,0 -1,0.45 -1,1 0,0.55 0.44999,1 1,1 0.54998,0 1,-0.45 1,-1 0,-0.55 -0.45002,-1 -1,-1 z m 3.32226,3.20312 c -0.20613,-0.0261 -0.32226,0.11639 -0.32226,0.42969 0,0.5683 0.30129,1.33256 0.66796,1.69922 0.36663,0.36667 0.89747,0.43456 1.18164,0.15039 0.28417,-0.2842 -0.0152,-1.04838 -0.66601,-1.69922 -0.35877,-0.35878 -0.6552,-0.55395 -0.86133,-0.58008 z m 2.49609,3.79688 c -0.6631,0 -0.58562,0.57304 0.20313,1.52343 0.6957,0.83826 1.47096,1.31811 1.72266,1.06641 0.6935,-0.6935 -0.71719,-2.58984 -1.92579,-2.58984 z m 3.86329,3 c -0.5345,0 0.241,1.125 1.7246,2.5 1.48361,1.375 2.97778,2.5 3.32032,2.5 0.3426,0 -0.43291,-1.125 -1.72461,-2.5 -1.2917,-1.375 -2.78581,-2.5 -3.32031,-2.5 z m -76.00977,0.0566 c -0.0398,-0.0133 -0.0943,-0.0123 -0.16406,0.002 -0.71775,0.14694 -2.98404,1.73812 -6.00781,4.42383 -2.75004,2.4425 -4.45331,4.45741 -3.78516,4.47851 0.6682,0.0211 1.69645,-0.86093 2.28516,-1.96093 0.58869,-1.1 1.65162,-2 2.36132,-2 0.7097,0 2.34686,-1.125 3.63868,-2.5 1.47658,-1.57176 1.95032,-2.35001 1.67187,-2.44336 z m 31.41211,4.0664 c -0.3474,0.0143 -0.64636,0.10534 -0.8125,0.27149 -0.3323,0.33229 0.2583,0.56879 1.3125,0.52539 1.16495,-0.048 1.40125,-0.2843 0.60352,-0.60352 -0.36096,-0.14445 -0.75612,-0.20766 -1.10352,-0.19336 z m -33.78125,2.3086 c -0.34337,0.1033 -0.3819,0.63125 0.15625,1.50195 0.3626,0.58656 1.13778,1.06641 1.72266,1.06641 0.6631,0 0.58757,-0.575 -0.20118,-1.52539 -0.68579,-0.82628 -1.33437,-1.14628 -1.67773,-1.04297 z m 36,0 c -0.34337,0.1033 -0.3819,0.63125 0.15625,1.50195 0.3626,0.58656 1.13778,1.06641 1.72266,1.06641 0.6631,0 0.58757,-0.575 -0.20118,-1.52539 -0.68579,-0.82628 -1.33437,-1.14628 -1.67773,-1.04297 z m -45.92578,2.56836 c -0.5588,0 -1.99396,1.125 -3.18945,2.5 -1.19552,1.375 -2.62605,2.5 -3.17969,2.5 -0.55362,0 -1.00781,0.45 -1.00781,1 -4e-5,1.8244 1.56888,1.04 5,-2.5 1.86578,-1.925 2.93566,-3.5 2.37695,-3.5 z m 50,0.1875 c -0.20462,0.0753 -0.32943,0.60388 -0.29688,1.39453 0.048,1.16495 0.2843,1.4032 0.60352,0.60547 0.28891,-0.7219 0.25407,-1.58567 -0.0781,-1.91797 -0.0831,-0.0831 -0.16031,-0.10723 -0.22851,-0.082 z m 2.89453,3.51562 c -0.30283,0.037 -0.0845,0.77574 0.68359,2.21094 0.6139,1.14706 1.7589,2.08594 2.54493,2.08594 1.01121,0 0.78164,-0.67286 -0.78516,-2.30079 -1.31687,-1.36816 -2.14053,-2.03306 -2.44336,-1.99609 z m -34.1875,3.41992 c -0.3474,0.0143 -0.64636,0.10534 -0.8125,0.27149 -0.3323,0.33229 0.2583,0.56879 1.3125,0.52539 1.16495,-0.048 1.40122,-0.2843 0.60352,-0.60352 -0.36096,-0.14445 -0.75612,-0.20766 -1.10352,-0.19336 z m -27.80469,0.90821 c -0.6714,-0.0174 -3.3714,2.06154 -6,4.61914 -4.21075,4.097 -4.17831,4.2655 0.20899,1.125 3.7865,-2.7104 6.81711,-5.71754 5.79101,-5.74414 z m 66.89063,1.53711 c -0.0444,-0.002 -0.0789,0.009 -0.10157,0.0312 -0.3057,0.3057 1.24813,2.23812 3.45313,4.29492 2.205,2.0568 4.77318,4.90488 5.70703,6.33008 1.48242,2.2625 1.51168,2.74654 0.23438,3.80664 -0.80467,0.6678 -1.46289,1.83414 -1.46289,2.59179 0,0.7577 -0.56212,1.37696 -1.25,1.37696 -0.68791,0 -3.87714,2.7 -7.08594,6 -3.2088,3.3 -6.16421,6 -6.56836,6 -0.4041,0 -1.63132,1.0125 -2.72852,2.25 -3.925,4.427 -15.6043,14.75 -16.6875,14.75 -0.6072,0 -3.03232,-1.89255 -5.39062,-4.20703 -2.3583,-2.31451 -4.2843,-3.77702 -4.2793,-3.25 0.005,0.52699 1.80103,2.53203 3.99024,4.45703 2.1892,1.925 3.98483,3.95381 3.99023,4.50781 0.005,0.554 -2.24837,3.029 -5.00977,5.5 -2.7614,2.471 -7.75174,6.96719 -11.08984,9.99219 -3.338,3.025 -6.48001,5.65065 -6.98047,5.83398 -0.50047,0.1833 -0.9082,0.78203 -0.9082,1.33203 h -0.002 c 0,1.822 1.73178,0.43499 14.55078,-11.66601 6.9918,-6.5999 13.42937,-12.41646 14.30664,-12.92579 0.8772,-0.50938 3.63084,-2.93417 6.11914,-5.38867 2.4883,-2.4546 5.53592,-5.12755 6.77344,-5.93945 1.23748,-0.8119 2.25,-2.06569 2.25,-2.78711 -10e-6,-0.72142 0.60786,-1.45889 1.35156,-1.63672 1.925,-0.46 19.64844,-16.99663 19.64844,-18.33203 0,-1.40275 -11.45444,-12.86644 -12.83008,-12.92187 z m -79.36719,8.18554 c -0.38086,0.074 -1.27152,0.70241 -2.30273,1.65821 -1.375,1.2744 -2.5,2.68165 -2.5,3.12695 0,0.4453 1.125,-0.24726 2.5,-1.53906 1.375,-1.2918 2.5,-2.69909 2.5,-3.12696 0,-0.10695 -0.0703,-0.1438 -0.19727,-0.11914 z m 54.52148,3.45117 c -0.20613,-0.0261 -0.32226,0.11444 -0.32226,0.42774 0,0.5683 0.29934,1.33451 0.66601,1.70117 0.36663,0.36667 0.89943,0.43261 1.1836,0.14844 0.28417,-0.2842 -0.0171,-1.04838 -0.66797,-1.69922 -0.35877,-0.35878 -0.65324,-0.552 -0.85938,-0.57813 z m -60.98047,1.88672 c -0.9687,-0.15267 -4.34376,3.04082 -4.34374,4.23828 -4e-5,0.5606 1.12329,-0.0365 2.49609,-1.32617 1.3728,-1.2896 2.27532,-2.56452 2.00586,-2.83398 -0.0415,-0.0415 -0.0936,-0.0679 -0.15821,-0.0781 z m 27.59766,1.90821 c -0.58246,0 -0.78136,0.45 -0.4414,1 0.33986,0.55 0.818,1 1.06054,1 0.24254,0 0.43946,-0.45 0.43946,-1 0,-0.55 -0.47614,-1 -1.0586,-1 z m 37.45508,0.48828 c -0.54176,-0.0345 -0.50299,0.67855 0.58398,1.98828 0.6957,0.83833 1.72896,1.52344 2.29688,1.52344 0.56792,0 0.21729,-0.90246 -0.78125,-2.00586 -0.90477,-0.9998 -1.67824,-1.47899 -2.09961,-1.50586 z m -72.60352,3.91406 c -0.37465,0.0263 -1.25976,0.62881 -2.29101,1.59766 -1.375,1.2918 -2.5,2.76744 -2.5,3.27929 0,1.202 4.95952,-3.47952 4.98242,-4.70312 0.002,-0.1271 -0.0665,-0.18261 -0.19141,-0.17383 z m 77.78516,1.59766 c -0.5406,0 0.7659,1.79252 2.9043,3.98242 2.1383,2.19 4.08544,3.7837 4.32617,3.54297 0.6126,-0.6126 -6.02927,-7.52539 -7.23047,-7.52539 z m -74.25391,1.20507 c -0.20613,-0.0261 -0.32226,0.11444 -0.32226,0.42774 0,0.5683 0.29934,1.33447 0.66601,1.70117 0.36663,0.36667 0.89943,0.43456 1.1836,0.15039 0.28417,-0.2842 -0.0171,-1.05033 -0.66797,-1.70117 -0.35877,-0.35878 -0.65324,-0.552 -0.85938,-0.57813 z m -10.36328,3.08594 c -0.1873,-0.0437 -0.99648,0.34028 -1.95898,0.94141 -1.1,0.687 -2,1.66112 -2,2.16406 0,0.50297 0.9,0.099 2,-0.89648 1.1,-0.9955 2,-1.9696 2,-2.16407 0,-0.0243 -0.0143,-0.0387 -0.041,-0.0449 z m -6.58593,4.70899 c -0.55001,0 -2.29225,1.35 -3.87305,3 -1.58082,1.65 -2.425,3 -1.875,3 0.55,0 2.29418,-1.35 3.875,-3 1.58082,-1.65 2.42302,-3 1.87305,-3 z m 66.92773,5.43164 c -0.34337,0.1033 -0.37995,0.63125 0.1582,1.50195 0.3626,0.58656 1.13778,1.06641 1.72266,1.06641 0.6631,0 0.58562,-0.57305 -0.20313,-1.52344 -0.68579,-0.82628 -1.33437,-1.14823 -1.67773,-1.04492 z m -73.70508,2.06836 2.95117,3.60156 c 1.6235,1.9805 3.32044,3.39645 3.76953,3.14844 0.44911,-0.24801 0.67096,-0.51721 0.49415,-0.59961 -0.1768,-0.0825 -1.87178,-1.50039 -3.76758,-3.15039 z m -6.6582,3.58398 c -0.28096,0.0419 -1.49375,1.03282 -2.9375,2.41602 -1.65,1.5808 -3,3.1 -3,3.375 0,0.275 1.35,-0.7942 3,-2.375 1.65,-1.5808 3,-3.1 3,-3.375 0,-0.0344 -0.0224,-0.047 -0.0625,-0.041 z m 14.39453,5.41016 c -0.0826,-0.0227 -0.14143,-0.0187 -0.17383,0.0137 -0.2592,0.2591 1.06215,2.02467 2.93555,3.92187 1.8734,1.8971 3.83525,3.47617 4.35937,3.50977 0.5242,0.0336 -0.79714,-1.73002 -2.93554,-3.91992 -1.8711,-1.91616 -3.60723,-3.36669 -4.18555,-3.52539 z m 39.99023,0.71093 c -0.20613,-0.0261 -0.32226,0.11444 -0.32226,0.42774 0,0.5683 0.29934,1.33451 0.66601,1.70117 0.36663,0.36667 0.89943,0.43456 1.1836,0.15039 0.28417,-0.2842 -0.0152,-1.05033 -0.66602,-1.70117 -0.35876,-0.35878 -0.65519,-0.552 -0.86133,-0.57813 z m -62.27734,0.6211 c -0.46435,-0.0943 -2.93759,1.59958 -6.55469,4.79492 l -6.50976,5.75 2.50976,2.61914 c 1.3801,1.4405 2.50977,3.15704 2.50977,3.81445 h -0.002 c 0,0.65742 0.44999,1.19532 1,1.19532 1.60176,0 1.16039,-1.5448 -1,-3.5 -1.1,-0.9955 -2,-2.34549 -2,-3 0,-1.5612 3.66362,-4.85955 4.23242,-3.81055 0.24186,0.44612 0.32304,0.30014 0.17968,-0.32422 -0.1434,-0.6244 1.05557,-2.3965 2.66407,-3.9375 2.47734,-2.37344 3.33186,-3.52822 2.9707,-3.60156 z m 65.64453,5.18945 c -0.71558,0.009 -0.59074,0.40192 0.31055,0.98438 1.92112,1.2415 2.2673,1.2415 1.5,0 -0.3399,-0.55 -1.15551,-0.99238 -1.81055,-0.98438 z m 4.08399,3.98438 c -0.4825,0 0.33671,1.125 1.82031,2.5 1.4836,1.375 2.93401,2.5 3.22461,2.5 0.2906,0 -0.52861,-1.125 -1.82031,-2.5 -1.29171,-1.375 -2.74214,-2.5 -3.22461,-2.5 z m -72.95508,1 c -0.6631,0 -0.58758,0.57301 0.20117,1.52343 0.6957,0.83826 1.47096,1.32006 1.72266,1.06836 0.6935,-0.6935 -0.71523,-2.59179 -1.92383,-2.59179 z m 35.83203,0 c -0.55,0 0.0578,1.125 1.34961,2.5 1.2917,1.375 2.79765,2.5 3.34765,2.5 0.55,0 -0.0559,-1.125 -1.34765,-2.5 -1.2917,-1.375 -2.79961,-2.5 -3.34961,-2.5 z m -30.63477,6.99218 c -0.0843,0.038 0.22072,0.44842 0.85547,1.25782 0.7549,0.9625 1.8417,1.75 2.41602,1.75 0.57436,0 0.85806,-0.12758 0.6289,-0.28321 -0.2292,-0.1556 -1.318,-0.94313 -2.41796,-1.75 -0.92501,-0.67851 -1.39809,-1.01263 -1.48243,-0.97461 z m 36.62891,0.50782 2.92773,3.59375 c 1.61,1.977 3.1282,3.42582 3.375,3.21875 0.2468,-0.207 -1.06888,-1.82385 -2.92578,-3.59375 z m -43.32617,1.98828 c -0.0767,-0.0151 -0.13267,-0.006 -0.16602,0.0273 -0.2668,0.2667 0.82744,1.82233 2.43164,3.45703 1.6041,1.6347 3.34094,2.9847 3.86133,3 0.5204,0.0153 -0.57384,-1.54023 -2.43164,-3.45703 -1.62557,-1.6772 -3.15848,-2.92143 -3.69531,-3.02734 z m 13.56445,5.51172 c -0.55,0 -0.72273,0.45 -0.38281,1 0.3399,0.55 1.06719,1 1.61719,1 0.55,0 0.72271,-0.45 0.38281,-1 -0.3399,-0.55 -1.06719,-1 -1.61719,-1 z m 65.11719,0 c -0.55,0 -1,0.45 -1,1 0,0.55 0.45,1 1,1 0.55,0 1,-0.45 1,-1 0,-0.55 -0.45,-1 -1,-1 z m -2.08594,2.23828 c -0.39802,0.0463 -2.11875,1.41027 -4.16406,3.32617 -9.3259,8.7356 -9.52241,8.86143 -11.47071,7.33203 -1.64214,-1.28913 -1.66535,-1.25371 -0.31445,0.46289 1.4993,1.9051 0.68103,2.91379 -8.01367,9.89649 -0.8515,0.6839 -3.47714,2.96591 -5.83594,5.07031 -4.1144,3.6706 -4.36798,3.75584 -6.20898,2.08984 -1.0554,-0.95513 -2.21483,-1.43946 -2.57813,-1.07617 -0.36329,0.3633 -0.18438,0.66016 0.39844,0.66016 0.5828,0 1.34022,0.73206 1.68359,1.62695 0.8291,2.1607 -2.40205,4.62387 -4.15625,3.16797 -1.601,-1.3287 -1.64862,0.41186 -0.0547,2.00586 h 0.002 c 1.5867,1.58668 1.87737,1.5352 4.26367,-0.7461 8.788,-8.401 26.49012,-24.05468 27.20313,-24.05468 1.0258,0 9.33203,-8.63127 9.33203,-9.69727 0,-0.0494 -0.0291,-0.0711 -0.0859,-0.0645 z m -69.71094,0.27148 c -0.0317,0.001 -0.0569,0.01 -0.0742,0.0274 -0.2775,0.2776 1.4647,2.51099 3.8711,4.96289 2.4064,2.4519 4.57254,4.25949 4.81445,4.01757 0.2419,-0.242 -1.49834,-2.47343 -3.86914,-4.96093 -2.07445,-2.17657 -3.99388,-3.83315 -4.62695,-4.02735 -0.0452,-0.0139 -0.0835,-0.0206 -0.11524,-0.0195 z m 46.52539,1.49024 c -0.4938,0 0.3763,1.35 1.9336,3 1.5573,1.65 3.2543,3 3.77148,3 0.5172,0 -0.35279,-1.35 -1.93359,-3 -1.5808,-1.65 -3.27769,-3 -3.77149,-3 z m -36.03711,0.0156 c -0.71558,0.009 -0.59269,0.40192 0.3086,0.98438 1.92112,1.2415 2.2673,1.2415 1.5,0 -0.3399,-0.55 -1.15356,-0.99238 -1.8086,-0.98438 z m 8.03125,8.98438 c -0.56792,0 -0.21533,0.90246 0.78321,2.00586 0.9985,1.1034 2.03179,1.79047 2.29687,1.52539 0.6719,-0.6719 -1.82188,-3.53125 -3.08008,-3.53125 z m -8.96484,0.43554 c -0.42375,-0.0188 0.17149,0.9242 1.49414,2.30469 1.5116,1.5777 2.74805,3.43318 2.74805,4.12305 0,0.68986 0.45769,0.97103 1.01758,0.625 1.1515,-0.7117 -2.62983,-5.97748 -5.01563,-6.98438 -0.10301,-0.0435 -0.1836,-0.0657 -0.24414,-0.0684 z m 13.13477,4.56446 c -1.34231,0 -1.07298,1.76069 0.35742,2.33789 0.68748,0.27741 1.34851,0.54058 1.46875,0.58398 0.12023,0.0435 -0.0408,-0.59687 -0.35742,-1.42187 -0.3166,-0.825 -0.97759,-1.5 -1.46875,-1.5 z m 2.60742,3.5 2.42383,2.75 c 1.3334,1.5125 2.57088,2.75 2.75,2.75 0.7843,0 0.14647,-0.81028 -2.42383,-3.07618 z m -6.91016,2.5 c -0.5697,0 0.4435,1.35 2.25,3 1.8066,1.65 3.5662,3 3.91016,3 0.344,0 -0.6692,-1.35 -2.25,-3 -1.5808,-1.65 -3.34049,-3 -3.91016,-3 z m 7.79883,7.34375 c -0.11953,0.0201 -0.25117,0.0713 -0.38867,0.15625 -0.55,0.3399 -1,0.81605 -1,1.05859 0,0.24254 0.45,0.44141 1,0.44141 0.55,0 1,-0.47614 1,-1.0586 0,-0.43684 -0.25274,-0.65794 -0.61133,-0.59765 z"
       transform="translate(12.954,4)"
       id="path6" />
    <g
       id="g48" />
  </g>
</svg>
