%TF.GenerationSoftware,KiCad,Pcbnew,(5.1.6)-1*%
%TF.CreationDate,2020-09-13T20:32:52-05:00*%
%TF.ProjectId,rocketboard-16,726f636b-6574-4626-9f61-72642d31362e,1.1*%
%TF.SameCoordinates,Original*%
%TF.FileFunction,Legend,Bot*%
%TF.FilePolarity,Positive*%
%FSLAX46Y46*%
G04 Gerber Fmt 4.6, Leading zero omitted, Abs format (unit mm)*
G04 Created by KiCad (PCBNEW (5.1.6)-1) date 2020-09-13 20:32:52*
%MOMM*%
%LPD*%
G01*
G04 APERTURE LIST*
%ADD10C,0.120000*%
%ADD11C,0.010000*%
%ADD12C,0.150000*%
%ADD13C,0.100000*%
%ADD14C,0.200000*%
G04 APERTURE END LIST*
D10*
%TO.C,C6*%
X115662779Y-116080000D02*
X115337221Y-116080000D01*
X115662779Y-115060000D02*
X115337221Y-115060000D01*
%TO.C,R2*%
X134261221Y-114879000D02*
X134586779Y-114879000D01*
X134261221Y-115899000D02*
X134586779Y-115899000D01*
%TO.C,R1*%
X134261221Y-112079000D02*
X134586779Y-112079000D01*
X134261221Y-113099000D02*
X134586779Y-113099000D01*
%TO.C,D17*%
X107765000Y-57385000D02*
X107765000Y-55100000D01*
X109235000Y-57385000D02*
X107765000Y-57385000D01*
X109235000Y-55100000D02*
X109235000Y-57385000D01*
D11*
%TO.C,G\u002A\u002A\u002A*%
G36*
X84440700Y-123086900D02*
G01*
X84605800Y-123086900D01*
X84605800Y-120438950D01*
X84440700Y-120438950D01*
X84440700Y-123086900D01*
G37*
X84440700Y-123086900D02*
X84605800Y-123086900D01*
X84605800Y-120438950D01*
X84440700Y-120438950D01*
X84440700Y-123086900D01*
G36*
X84656600Y-123455200D02*
G01*
X84713750Y-123455200D01*
X84713750Y-120438950D01*
X84656600Y-120438950D01*
X84656600Y-123455200D01*
G37*
X84656600Y-123455200D02*
X84713750Y-123455200D01*
X84713750Y-120438950D01*
X84656600Y-120438950D01*
X84656600Y-123455200D01*
G36*
X85183650Y-112215700D02*
G01*
X85101100Y-112215700D01*
X85101100Y-112969167D01*
X84872500Y-113615235D01*
X84872500Y-114569100D01*
X84828538Y-114759237D01*
X84812680Y-114828532D01*
X84795290Y-114905792D01*
X84776692Y-114989495D01*
X84757210Y-115078118D01*
X84737169Y-115170141D01*
X84716893Y-115264040D01*
X84696705Y-115358293D01*
X84676931Y-115451379D01*
X84657894Y-115541775D01*
X84639918Y-115627958D01*
X84623329Y-115708407D01*
X84608449Y-115781600D01*
X84595603Y-115846014D01*
X84585115Y-115900128D01*
X84581893Y-115917258D01*
X84564664Y-116009825D01*
X84562931Y-117542282D01*
X84561198Y-119074740D01*
X84471974Y-119380607D01*
X84450525Y-119454093D01*
X84426865Y-119535074D01*
X84401903Y-119620449D01*
X84376546Y-119707114D01*
X84351703Y-119791967D01*
X84328280Y-119871904D01*
X84307187Y-119943824D01*
X84300600Y-119966263D01*
X84218450Y-120246052D01*
X84218312Y-126176563D01*
X84218173Y-132107075D01*
X84183265Y-132226447D01*
X83866025Y-132494779D01*
X83864336Y-132663706D01*
X83862646Y-132832633D01*
X84046778Y-132835176D01*
X84109912Y-132836292D01*
X84160400Y-132837723D01*
X84198290Y-132839472D01*
X84223634Y-132841542D01*
X84236479Y-132843933D01*
X84237953Y-132844762D01*
X84239545Y-132851548D01*
X84236736Y-132865458D01*
X84229129Y-132887806D01*
X84216329Y-132919904D01*
X84212673Y-132928650D01*
X84200667Y-132957387D01*
X84190681Y-132981656D01*
X84183634Y-132999196D01*
X84180445Y-133007747D01*
X84180350Y-133008176D01*
X84185468Y-133012331D01*
X84198985Y-133020841D01*
X84218148Y-133031986D01*
X84221346Y-133033783D01*
X84241829Y-133045759D01*
X84257723Y-133056023D01*
X84265901Y-133062542D01*
X84266199Y-133062950D01*
X84264393Y-133070014D01*
X84257337Y-133086757D01*
X84245763Y-133111651D01*
X84230397Y-133143171D01*
X84211971Y-133179788D01*
X84191222Y-133219957D01*
X84112387Y-133370725D01*
X84108296Y-133425459D01*
X84103191Y-133470334D01*
X84094041Y-133525190D01*
X84081286Y-133588124D01*
X84065370Y-133657237D01*
X84046734Y-133730627D01*
X84025820Y-133806394D01*
X84003071Y-133882637D01*
X83998839Y-133896187D01*
X83998685Y-133898386D01*
X84000297Y-133900276D01*
X84004562Y-133901878D01*
X84012365Y-133903217D01*
X84024593Y-133904317D01*
X84042130Y-133905200D01*
X84065864Y-133905890D01*
X84096679Y-133906411D01*
X84135461Y-133906787D01*
X84183097Y-133907039D01*
X84240472Y-133907193D01*
X84308471Y-133907272D01*
X84387981Y-133907298D01*
X84418048Y-133907300D01*
X84840750Y-133907300D01*
X84840750Y-133875698D01*
X84839228Y-133856603D01*
X84836664Y-133839037D01*
X84777010Y-133839037D01*
X84776456Y-133841537D01*
X84773994Y-133843632D01*
X84768600Y-133845359D01*
X84759250Y-133846751D01*
X84744920Y-133847846D01*
X84724586Y-133848678D01*
X84697225Y-133849283D01*
X84661812Y-133849697D01*
X84617323Y-133849955D01*
X84562735Y-133850092D01*
X84497023Y-133850144D01*
X84456575Y-133850150D01*
X84135900Y-133850150D01*
X84135900Y-133793000D01*
X84650250Y-133793000D01*
X84650250Y-133735850D01*
X84161300Y-133735850D01*
X84161300Y-133653300D01*
X84624850Y-133653300D01*
X84624850Y-133596150D01*
X84193050Y-133596150D01*
X84193050Y-133539000D01*
X84600181Y-133539000D01*
X84598228Y-133512012D01*
X84596275Y-133485025D01*
X84459750Y-133477630D01*
X84404583Y-133474582D01*
X84361651Y-133472059D01*
X84331004Y-133470035D01*
X84312692Y-133468484D01*
X84306767Y-133467380D01*
X84313277Y-133466699D01*
X84332272Y-133466414D01*
X84363803Y-133466499D01*
X84407920Y-133466930D01*
X84464672Y-133467681D01*
X84478800Y-133467886D01*
X84528706Y-133468691D01*
X84574438Y-133469568D01*
X84614478Y-133470479D01*
X84647308Y-133471382D01*
X84671408Y-133472237D01*
X84685260Y-133473005D01*
X84688031Y-133473416D01*
X84690311Y-133480080D01*
X84695032Y-133497225D01*
X84701735Y-133522971D01*
X84709963Y-133555433D01*
X84719256Y-133592729D01*
X84729158Y-133632977D01*
X84739209Y-133674294D01*
X84748953Y-133714797D01*
X84757929Y-133752604D01*
X84765682Y-133785832D01*
X84771751Y-133812599D01*
X84775679Y-133831021D01*
X84777010Y-133839037D01*
X84836664Y-133839037D01*
X84834816Y-133826387D01*
X84827745Y-133786242D01*
X84818246Y-133737359D01*
X84806549Y-133680928D01*
X84792886Y-133618140D01*
X84778280Y-133553622D01*
X84760436Y-133476170D01*
X84787997Y-133441427D01*
X84815558Y-133406685D01*
X84787846Y-133352367D01*
X84682000Y-133352367D01*
X84682000Y-133368451D01*
X84466622Y-133366413D01*
X84415539Y-133365814D01*
X84368547Y-133365043D01*
X84327141Y-133364140D01*
X84292819Y-133363147D01*
X84267076Y-133362107D01*
X84251410Y-133361061D01*
X84247170Y-133360294D01*
X84248521Y-133353604D01*
X84254426Y-133336751D01*
X84264287Y-133311182D01*
X84277508Y-133278344D01*
X84293491Y-133239683D01*
X84311639Y-133196644D01*
X84331356Y-133150674D01*
X84352043Y-133103221D01*
X84370675Y-133061162D01*
X84384145Y-133031000D01*
X84558485Y-133031000D01*
X84605540Y-133137341D01*
X84631638Y-133197994D01*
X84652553Y-133250195D01*
X84668057Y-133293301D01*
X84677923Y-133326673D01*
X84681921Y-133349667D01*
X84682000Y-133352367D01*
X84787846Y-133352367D01*
X84756169Y-133290280D01*
X84723752Y-133224657D01*
X84696695Y-133165504D01*
X84675456Y-133113914D01*
X84660494Y-133070985D01*
X84653828Y-133045881D01*
X84649502Y-133025837D01*
X84719726Y-133043605D01*
X84789950Y-133061372D01*
X84789889Y-133047773D01*
X84788827Y-133036842D01*
X84785948Y-133016036D01*
X84781647Y-132987990D01*
X84776317Y-132955334D01*
X84774075Y-132942100D01*
X84773284Y-132937404D01*
X84700552Y-132937404D01*
X84697253Y-132954252D01*
X84692423Y-132960404D01*
X84681566Y-132965584D01*
X84663066Y-132971115D01*
X84649561Y-132974099D01*
X84632338Y-132976611D01*
X84605058Y-132979682D01*
X84570342Y-132983094D01*
X84530807Y-132986629D01*
X84489073Y-132990070D01*
X84447761Y-132993200D01*
X84409490Y-132995801D01*
X84376878Y-132997656D01*
X84355755Y-132998479D01*
X84324785Y-132999250D01*
X84327795Y-132969087D01*
X84331932Y-132949172D01*
X84340282Y-132922764D01*
X84351269Y-132894669D01*
X84354887Y-132886537D01*
X84378968Y-132834150D01*
X84675140Y-132834150D01*
X84688095Y-132876093D01*
X84697518Y-132911700D01*
X84700552Y-132937404D01*
X84773284Y-132937404D01*
X84768490Y-132908961D01*
X84763768Y-132879998D01*
X84760294Y-132857652D01*
X84758454Y-132844364D01*
X84758262Y-132842087D01*
X84761245Y-132839206D01*
X84771095Y-132837061D01*
X84789089Y-132835567D01*
X84816500Y-132834645D01*
X84854606Y-132834210D01*
X84881530Y-132834150D01*
X85004860Y-132834150D01*
X84967255Y-132927453D01*
X84954285Y-132960688D01*
X84943250Y-132990974D01*
X84934992Y-133015837D01*
X84930354Y-133032807D01*
X84929650Y-133037837D01*
X84931736Y-133049213D01*
X84939360Y-133056589D01*
X84954570Y-133060748D01*
X84979417Y-133062472D01*
X84994738Y-133062663D01*
X85015309Y-133063093D01*
X85026225Y-133065132D01*
X85030524Y-133070088D01*
X85031250Y-133078386D01*
X85029500Y-133092218D01*
X85023975Y-133112091D01*
X85014267Y-133139065D01*
X84999967Y-133174203D01*
X84980665Y-133218565D01*
X84957232Y-133270417D01*
X84910144Y-133373310D01*
X84942122Y-133424336D01*
X84956024Y-133447334D01*
X84966852Y-133466801D01*
X84973087Y-133479929D01*
X84974011Y-133483368D01*
X84972640Y-133491546D01*
X84968830Y-133510338D01*
X84962961Y-133537976D01*
X84955412Y-133572690D01*
X84946564Y-133612710D01*
X84938897Y-133646950D01*
X84928835Y-133693075D01*
X84919567Y-133738254D01*
X84911558Y-133780010D01*
X84905271Y-133815868D01*
X84901171Y-133843349D01*
X84899943Y-133854912D01*
X84896014Y-133907300D01*
X85671657Y-133907300D01*
X85802745Y-133907252D01*
X85921271Y-133907110D01*
X86027375Y-133906872D01*
X86121195Y-133906537D01*
X86202870Y-133906103D01*
X86272538Y-133905569D01*
X86330338Y-133904935D01*
X86376409Y-133904198D01*
X86410888Y-133903359D01*
X86433916Y-133902415D01*
X86445630Y-133901366D01*
X86447300Y-133900746D01*
X86445013Y-133891055D01*
X86439341Y-133875249D01*
X86437597Y-133870968D01*
X86429723Y-133850150D01*
X86333000Y-133850150D01*
X85767850Y-133850150D01*
X85767850Y-133793000D01*
X85890088Y-133791483D01*
X85940901Y-133791040D01*
X85993540Y-133790919D01*
X86046223Y-133791092D01*
X86097168Y-133791534D01*
X86144592Y-133792217D01*
X86186713Y-133793115D01*
X86221749Y-133794202D01*
X86247918Y-133795451D01*
X86263437Y-133796836D01*
X86264738Y-133797054D01*
X86275009Y-133798356D01*
X86280172Y-133795244D01*
X86281984Y-133784807D01*
X86282200Y-133768104D01*
X86282200Y-133735850D01*
X85767850Y-133735850D01*
X85767850Y-133653300D01*
X85982163Y-133653251D01*
X86196475Y-133653202D01*
X86210763Y-133628180D01*
X86219343Y-133612447D01*
X86224440Y-133601735D01*
X86225050Y-133599654D01*
X86218944Y-133598827D01*
X86201595Y-133598070D01*
X86174462Y-133597406D01*
X86139003Y-133596859D01*
X86096676Y-133596452D01*
X86048939Y-133596210D01*
X86009150Y-133596150D01*
X85793250Y-133596150D01*
X85793250Y-133539000D01*
X86199650Y-133539000D01*
X86199650Y-133481850D01*
X85809414Y-133481850D01*
X85826867Y-133464387D01*
X85844320Y-133446925D01*
X86023573Y-133443638D01*
X86202825Y-133440352D01*
X86229193Y-133456338D01*
X86255560Y-133472325D01*
X86278388Y-133561225D01*
X86296377Y-133632665D01*
X86310654Y-133692489D01*
X86321324Y-133741194D01*
X86328493Y-133779277D01*
X86332264Y-133807234D01*
X86332943Y-133819987D01*
X86333000Y-133850150D01*
X86429723Y-133850150D01*
X86426707Y-133842178D01*
X86414030Y-133804171D01*
X86400114Y-133759020D01*
X86385505Y-133708801D01*
X86370749Y-133655590D01*
X86356394Y-133601460D01*
X86342987Y-133548487D01*
X86331074Y-133498747D01*
X86321203Y-133454313D01*
X86313919Y-133417261D01*
X86309771Y-133389666D01*
X86309249Y-133383967D01*
X86307820Y-133367320D01*
X86307418Y-133364544D01*
X86250450Y-133364544D01*
X86244409Y-133365496D01*
X86227511Y-133366224D01*
X86201599Y-133366739D01*
X86168516Y-133367051D01*
X86130102Y-133367171D01*
X86088201Y-133367109D01*
X86044654Y-133366876D01*
X86001303Y-133366482D01*
X85959991Y-133365937D01*
X85922558Y-133365253D01*
X85890848Y-133364440D01*
X85866701Y-133363507D01*
X85851961Y-133362467D01*
X85850400Y-133362261D01*
X85832880Y-133358842D01*
X85824963Y-133354179D01*
X85823592Y-133346013D01*
X85823975Y-133342721D01*
X85826648Y-133332649D01*
X85833010Y-133312475D01*
X85842441Y-133284042D01*
X85854324Y-133249195D01*
X85868039Y-133209779D01*
X85878258Y-133180851D01*
X85915158Y-133077032D01*
X85812300Y-133077032D01*
X85809820Y-133084512D01*
X85802886Y-133101771D01*
X85792260Y-133127011D01*
X85778704Y-133158433D01*
X85762978Y-133194235D01*
X85757489Y-133206601D01*
X85702677Y-133329747D01*
X85707303Y-133453782D01*
X85711930Y-133577817D01*
X85678128Y-133713983D01*
X85644325Y-133850150D01*
X85624278Y-133850150D01*
X85521991Y-133850150D01*
X85005850Y-133850150D01*
X85005850Y-133780300D01*
X85029609Y-133780300D01*
X85043489Y-133780574D01*
X85067866Y-133781338D01*
X85100549Y-133782502D01*
X85139346Y-133783976D01*
X85182068Y-133785669D01*
X85226525Y-133787493D01*
X85270525Y-133789356D01*
X85311878Y-133791171D01*
X85348394Y-133792846D01*
X85377881Y-133794291D01*
X85397963Y-133795406D01*
X85437650Y-133797887D01*
X85437650Y-133735850D01*
X85031250Y-133735850D01*
X85031250Y-133653300D01*
X85437650Y-133653300D01*
X85437650Y-133596150D01*
X85056650Y-133596150D01*
X85056650Y-133539000D01*
X85386850Y-133539000D01*
X85386850Y-133481850D01*
X85088400Y-133481850D01*
X85088400Y-133424700D01*
X85430808Y-133424700D01*
X85440742Y-133458037D01*
X85452727Y-133500055D01*
X85465100Y-133546614D01*
X85477335Y-133595412D01*
X85488905Y-133644149D01*
X85499284Y-133690525D01*
X85507946Y-133732240D01*
X85514364Y-133766992D01*
X85518012Y-133792482D01*
X85518473Y-133797762D01*
X85521991Y-133850150D01*
X85624278Y-133850150D01*
X85609103Y-133847914D01*
X85602104Y-133839569D01*
X85601078Y-133835862D01*
X85598405Y-133824721D01*
X85593229Y-133803937D01*
X85586216Y-133776163D01*
X85578035Y-133744052D01*
X85575121Y-133732675D01*
X85562897Y-133682444D01*
X85550796Y-133627236D01*
X85538386Y-133564922D01*
X85525235Y-133493372D01*
X85516969Y-133446056D01*
X85513545Y-133426137D01*
X85554973Y-133429463D01*
X85578813Y-133430667D01*
X85592002Y-133429362D01*
X85596376Y-133425345D01*
X85596400Y-133424878D01*
X85594446Y-133416679D01*
X85588995Y-133398412D01*
X85580663Y-133372022D01*
X85579209Y-133367550D01*
X85499675Y-133367550D01*
X85038488Y-133367550D01*
X85057901Y-133315162D01*
X85066813Y-133290686D01*
X85078604Y-133257695D01*
X85092033Y-133219690D01*
X85105862Y-133180168D01*
X85113020Y-133159543D01*
X85148725Y-133056312D01*
X85281199Y-133057943D01*
X85413672Y-133059575D01*
X85435406Y-133119703D01*
X85467995Y-133223335D01*
X85491469Y-133324687D01*
X85499675Y-133367550D01*
X85579209Y-133367550D01*
X85570068Y-133339457D01*
X85557825Y-133302663D01*
X85555386Y-133295421D01*
X85533854Y-133230161D01*
X85517143Y-133176247D01*
X85505154Y-133133317D01*
X85497785Y-133101010D01*
X85494937Y-133078963D01*
X85494894Y-133077037D01*
X85495771Y-133069401D01*
X85500407Y-133065115D01*
X85511619Y-133063219D01*
X85532227Y-133062755D01*
X85536906Y-133062750D01*
X85579012Y-133062750D01*
X85575269Y-133042112D01*
X85572149Y-133028843D01*
X85566069Y-133006153D01*
X85557788Y-132976767D01*
X85555453Y-132968755D01*
X85489623Y-132968755D01*
X85454155Y-133005777D01*
X85059825Y-133002425D01*
X85061371Y-132980200D01*
X85063425Y-132964301D01*
X85067657Y-132940060D01*
X85073336Y-132911496D01*
X85076686Y-132895962D01*
X85090455Y-132833949D01*
X85261396Y-132835637D01*
X85432336Y-132837325D01*
X85460980Y-132903040D01*
X85489623Y-132968755D01*
X85555453Y-132968755D01*
X85548065Y-132943407D01*
X85543418Y-132927812D01*
X85515308Y-132834150D01*
X85625704Y-132834150D01*
X85661553Y-132834303D01*
X85692540Y-132834730D01*
X85716627Y-132835377D01*
X85731775Y-132836193D01*
X85736100Y-132836975D01*
X85733447Y-132843568D01*
X85726391Y-132858615D01*
X85716287Y-132879249D01*
X85712820Y-132886188D01*
X85698993Y-132916667D01*
X85690997Y-132943142D01*
X85687061Y-132971782D01*
X85686672Y-132977261D01*
X85683804Y-133021947D01*
X85748052Y-133046278D01*
X85774154Y-133056721D01*
X85795155Y-133066183D01*
X85808610Y-133073494D01*
X85812300Y-133077032D01*
X85915158Y-133077032D01*
X85930391Y-133034175D01*
X86009951Y-133032405D01*
X86089510Y-133030636D01*
X86169980Y-133196087D01*
X86190510Y-133238397D01*
X86209107Y-133276916D01*
X86225078Y-133310190D01*
X86237727Y-133336767D01*
X86246362Y-133355193D01*
X86250286Y-133364014D01*
X86250450Y-133364544D01*
X86307418Y-133364544D01*
X86305666Y-133352453D01*
X86302074Y-133337448D01*
X86296330Y-133320387D01*
X86287722Y-133299352D01*
X86275536Y-133272426D01*
X86259059Y-133237691D01*
X86240771Y-133199817D01*
X86175900Y-133065925D01*
X86195713Y-133064195D01*
X86246024Y-133058391D01*
X86285891Y-133050456D01*
X86317465Y-133039866D01*
X86336861Y-133029951D01*
X86369296Y-133010360D01*
X86365501Y-132992741D01*
X86284022Y-132992741D01*
X86049749Y-132994489D01*
X85996055Y-132994927D01*
X85946095Y-132995406D01*
X85901357Y-132995907D01*
X85863331Y-132996411D01*
X85833506Y-132996896D01*
X85813372Y-132997345D01*
X85804418Y-132997736D01*
X85804363Y-132997743D01*
X85798045Y-132996844D01*
X85794734Y-132990136D01*
X85793589Y-132974895D01*
X85793571Y-132962737D01*
X85795845Y-132937083D01*
X85801450Y-132906718D01*
X85808115Y-132881775D01*
X85822339Y-132837325D01*
X86035783Y-132835653D01*
X86249228Y-132833982D01*
X86262799Y-132873753D01*
X86271026Y-132902723D01*
X86277635Y-132934587D01*
X86280196Y-132953133D01*
X86284022Y-132992741D01*
X86365501Y-132992741D01*
X86351341Y-132927017D01*
X86344710Y-132895961D01*
X86339154Y-132869423D01*
X86335177Y-132849844D01*
X86333282Y-132839668D01*
X86333193Y-132838912D01*
X86339264Y-132837826D01*
X86356628Y-132836828D01*
X86383882Y-132835945D01*
X86419618Y-132835207D01*
X86462432Y-132834642D01*
X86510918Y-132834280D01*
X86563670Y-132834150D01*
X86796550Y-132834150D01*
X86796550Y-132437209D01*
X86777909Y-132418625D01*
X86714001Y-132418625D01*
X86714001Y-132585112D01*
X86714000Y-132751600D01*
X86580650Y-132751600D01*
X86580609Y-132588087D01*
X86580573Y-132443511D01*
X86523500Y-132443511D01*
X86523500Y-132751818D01*
X86502903Y-132751600D01*
X86117100Y-132751600D01*
X85767850Y-132751600D01*
X85767850Y-132712352D01*
X85769246Y-132686872D01*
X85773270Y-132650285D01*
X85779680Y-132603857D01*
X85788233Y-132548851D01*
X85798686Y-132486533D01*
X85810797Y-132418166D01*
X85824322Y-132345016D01*
X85839019Y-132268347D01*
X85854644Y-132189424D01*
X85870956Y-132109511D01*
X85887711Y-132029874D01*
X85904667Y-131951775D01*
X85921580Y-131876481D01*
X85938208Y-131805256D01*
X85954307Y-131739364D01*
X85955908Y-131733001D01*
X85965479Y-131698159D01*
X85974977Y-131669091D01*
X85983775Y-131647257D01*
X85991241Y-131634117D01*
X85996746Y-131631132D01*
X85998598Y-131634000D01*
X85999819Y-131641765D01*
X86002301Y-131661039D01*
X86005919Y-131690707D01*
X86010546Y-131729655D01*
X86016056Y-131776768D01*
X86022321Y-131830930D01*
X86029216Y-131891027D01*
X86036613Y-131955944D01*
X86044387Y-132024566D01*
X86052411Y-132095779D01*
X86060558Y-132168467D01*
X86068702Y-132241516D01*
X86076716Y-132313811D01*
X86084474Y-132384237D01*
X86091849Y-132451679D01*
X86098716Y-132515022D01*
X86101282Y-132538875D01*
X86105841Y-132582773D01*
X86109885Y-132624420D01*
X86113210Y-132661483D01*
X86115609Y-132691631D01*
X86116880Y-132712532D01*
X86117029Y-132718262D01*
X86117100Y-132751600D01*
X86502903Y-132751600D01*
X86363163Y-132750121D01*
X86202825Y-132748425D01*
X86192033Y-132693165D01*
X86180399Y-132629440D01*
X86168711Y-132557797D01*
X86157365Y-132481253D01*
X86146753Y-132402823D01*
X86137269Y-132325524D01*
X86129309Y-132252371D01*
X86123265Y-132186380D01*
X86120237Y-132143587D01*
X86118536Y-132112668D01*
X86117944Y-132092250D01*
X86118711Y-132080163D01*
X86121086Y-132074236D01*
X86125318Y-132072300D01*
X86128444Y-132072150D01*
X86136129Y-132074940D01*
X86149000Y-132083603D01*
X86167539Y-132098580D01*
X86192225Y-132120310D01*
X86223540Y-132149232D01*
X86261965Y-132185787D01*
X86307980Y-132230415D01*
X86362067Y-132283554D01*
X86391738Y-132312908D01*
X86523500Y-132443511D01*
X86580573Y-132443511D01*
X86580568Y-132424575D01*
X86455941Y-132295663D01*
X86331314Y-132166752D01*
X86334648Y-132125215D01*
X86337878Y-132097417D01*
X86342793Y-132081032D01*
X86350402Y-132074792D01*
X86361712Y-132077429D01*
X86369187Y-132081754D01*
X86377712Y-132088804D01*
X86394059Y-132103754D01*
X86417084Y-132125503D01*
X86445646Y-132152956D01*
X86478600Y-132185013D01*
X86514804Y-132220578D01*
X86550488Y-132255936D01*
X86714001Y-132418625D01*
X86777909Y-132418625D01*
X86331636Y-131973725D01*
X86332168Y-131246650D01*
X85983790Y-131246650D01*
X85805659Y-131988012D01*
X85782869Y-132082841D01*
X85760871Y-132174332D01*
X85739851Y-132261717D01*
X85719993Y-132344225D01*
X85701485Y-132421087D01*
X85684511Y-132491534D01*
X85669257Y-132554796D01*
X85655908Y-132610103D01*
X85644650Y-132656686D01*
X85635668Y-132693775D01*
X85629149Y-132720600D01*
X85625277Y-132736393D01*
X85624236Y-132740487D01*
X85622347Y-132743932D01*
X85617986Y-132746585D01*
X85609671Y-132748549D01*
X85595918Y-132749926D01*
X85575245Y-132750817D01*
X85546167Y-132751325D01*
X85507204Y-132751552D01*
X85462623Y-132751600D01*
X85304300Y-132751600D01*
X85304300Y-132260863D01*
X84331935Y-132260863D01*
X84330732Y-132296351D01*
X84325684Y-132342676D01*
X84322755Y-132363435D01*
X84318622Y-132389009D01*
X84312396Y-132424546D01*
X84304548Y-132467568D01*
X84295554Y-132515601D01*
X84285886Y-132566168D01*
X84276017Y-132616793D01*
X84266420Y-132665000D01*
X84257570Y-132708314D01*
X84250068Y-132743662D01*
X84242798Y-132777000D01*
X83920000Y-132777000D01*
X83920304Y-132651587D01*
X83920608Y-132526175D01*
X84016318Y-132437275D01*
X84075525Y-132382657D01*
X84126459Y-132336547D01*
X84169787Y-132298433D01*
X84206177Y-132267801D01*
X84236294Y-132244138D01*
X84260806Y-132226932D01*
X84280380Y-132215670D01*
X84295682Y-132209839D01*
X84307379Y-132208926D01*
X84311807Y-132210045D01*
X84322540Y-132218648D01*
X84329227Y-132235275D01*
X84331935Y-132260863D01*
X85304300Y-132260863D01*
X85304300Y-129249575D01*
X84570875Y-129249575D01*
X84568931Y-129544850D01*
X84568598Y-129593330D01*
X84568163Y-129653153D01*
X84567638Y-129722962D01*
X84567032Y-129801400D01*
X84566358Y-129887112D01*
X84565626Y-129978738D01*
X84564846Y-130074925D01*
X84564031Y-130174313D01*
X84563190Y-130275547D01*
X84562334Y-130377271D01*
X84561475Y-130478126D01*
X84561045Y-130528042D01*
X84555104Y-131215960D01*
X84498320Y-131490067D01*
X84479807Y-131579323D01*
X84463665Y-131656884D01*
X84449727Y-131723503D01*
X84437829Y-131779931D01*
X84427805Y-131826917D01*
X84419490Y-131865214D01*
X84412717Y-131895571D01*
X84407321Y-131918740D01*
X84403138Y-131935471D01*
X84400000Y-131946516D01*
X84397743Y-131952624D01*
X84396202Y-131954548D01*
X84395930Y-131954477D01*
X84395083Y-131947837D01*
X84394136Y-131929686D01*
X84393121Y-131901210D01*
X84392065Y-131863597D01*
X84390998Y-131818033D01*
X84389950Y-131765707D01*
X84388950Y-131707806D01*
X84388026Y-131645516D01*
X84387689Y-131619961D01*
X84387201Y-131575132D01*
X84386724Y-131518600D01*
X84386262Y-131451359D01*
X84385818Y-131374406D01*
X84385394Y-131288736D01*
X84384996Y-131195346D01*
X84384625Y-131095230D01*
X84384286Y-130989385D01*
X84383981Y-130878807D01*
X84383715Y-130764491D01*
X84383490Y-130647434D01*
X84383311Y-130528631D01*
X84383179Y-130409077D01*
X84383099Y-130289770D01*
X84383091Y-130268750D01*
X84382722Y-129249575D01*
X84570875Y-129249575D01*
X85304300Y-129249575D01*
X85304300Y-129246288D01*
X85642438Y-129247931D01*
X85980575Y-129249575D01*
X85982183Y-130248112D01*
X85983790Y-131246650D01*
X86332168Y-131246650D01*
X86334149Y-128541550D01*
X86282228Y-128541550D01*
X84866150Y-128541550D01*
X84866150Y-125747550D01*
X84815350Y-125747550D01*
X84815350Y-128541550D01*
X84732773Y-128541550D01*
X84599478Y-128541550D01*
X84377177Y-128541550D01*
X84378776Y-126822287D01*
X84380375Y-125103025D01*
X84435938Y-125101190D01*
X84491500Y-125099355D01*
X84491500Y-125689886D01*
X84543888Y-125691730D01*
X84596275Y-125693575D01*
X84597877Y-127117562D01*
X84599478Y-128541550D01*
X84732773Y-128541550D01*
X84734374Y-127117562D01*
X84735975Y-125693575D01*
X84950225Y-125691903D01*
X85164474Y-125690231D01*
X85166125Y-125396628D01*
X85167775Y-125103025D01*
X85547188Y-125101387D01*
X85926600Y-125099750D01*
X85926600Y-125690199D01*
X86102813Y-125691887D01*
X86279025Y-125693575D01*
X86280627Y-127117562D01*
X86282228Y-128541550D01*
X86334149Y-128541550D01*
X86335896Y-126157098D01*
X86337432Y-124058450D01*
X85932950Y-124058450D01*
X85932950Y-124991900D01*
X85183650Y-124991900D01*
X84542383Y-124991900D01*
X84275600Y-124991900D01*
X84275600Y-124058192D01*
X84407363Y-124059908D01*
X84539125Y-124061625D01*
X84540754Y-124526762D01*
X84542383Y-124991900D01*
X85183650Y-124991900D01*
X85183650Y-124058450D01*
X85932950Y-124058450D01*
X86337432Y-124058450D01*
X86340125Y-120381800D01*
X86282200Y-120381800D01*
X86282200Y-123537750D01*
X85977400Y-123537750D01*
X85977400Y-123201200D01*
X85894850Y-123201200D01*
X85894850Y-123537750D01*
X84548650Y-123537750D01*
X84548650Y-123340900D01*
X84548489Y-123292358D01*
X84548031Y-123248165D01*
X84547318Y-123209848D01*
X84546389Y-123178934D01*
X84545285Y-123156949D01*
X84544047Y-123145421D01*
X84543432Y-123144050D01*
X84534763Y-123145953D01*
X84518717Y-123150782D01*
X84509439Y-123153854D01*
X84480665Y-123163658D01*
X84476621Y-123250691D01*
X84474791Y-123290777D01*
X84472686Y-123338029D01*
X84470549Y-123386923D01*
X84468623Y-123431937D01*
X84468379Y-123437737D01*
X84464181Y-123537750D01*
X84326400Y-123537750D01*
X84326400Y-120381800D01*
X86282200Y-120381800D01*
X86340125Y-120381800D01*
X86340156Y-120340472D01*
X86333592Y-120315526D01*
X86280564Y-120315526D01*
X86278986Y-120317263D01*
X86274978Y-120318765D01*
X86267743Y-120320049D01*
X86256483Y-120321132D01*
X86240401Y-120322032D01*
X86218701Y-120322764D01*
X86190584Y-120323346D01*
X86155254Y-120323795D01*
X86111912Y-120324129D01*
X86059763Y-120324363D01*
X85998009Y-120324515D01*
X85925852Y-120324602D01*
X85842496Y-120324641D01*
X85759066Y-120324650D01*
X85234450Y-120324650D01*
X85234450Y-119726346D01*
X85309063Y-119730111D01*
X85331303Y-119730981D01*
X85364509Y-119731936D01*
X85406950Y-119732941D01*
X85456892Y-119733963D01*
X85512602Y-119734967D01*
X85572349Y-119735920D01*
X85634399Y-119736788D01*
X85672600Y-119737259D01*
X85735623Y-119738062D01*
X85797749Y-119738972D01*
X85857185Y-119739957D01*
X85912139Y-119740981D01*
X85960816Y-119742009D01*
X86001425Y-119743008D01*
X86032171Y-119743942D01*
X86044822Y-119744442D01*
X86128118Y-119748241D01*
X86177598Y-119942783D01*
X86191124Y-119995416D01*
X86204984Y-120048374D01*
X86218527Y-120099229D01*
X86231099Y-120145557D01*
X86242046Y-120184930D01*
X86250716Y-120214924D01*
X86252207Y-120219875D01*
X86261720Y-120251174D01*
X86270076Y-120278758D01*
X86276483Y-120300006D01*
X86280150Y-120312299D01*
X86280509Y-120313537D01*
X86280564Y-120315526D01*
X86333592Y-120315526D01*
X86173066Y-119705498D01*
X86016837Y-119111800D01*
X85183650Y-119111800D01*
X85183650Y-119390141D01*
X85183557Y-119448407D01*
X85183289Y-119502725D01*
X85182867Y-119551785D01*
X85182309Y-119594276D01*
X85181637Y-119628888D01*
X85180869Y-119654311D01*
X85180024Y-119669234D01*
X85179417Y-119672716D01*
X85171752Y-119674155D01*
X85153169Y-119675247D01*
X85125446Y-119676000D01*
X85090360Y-119676421D01*
X85049690Y-119676517D01*
X85005213Y-119676295D01*
X84958705Y-119675763D01*
X84911946Y-119674927D01*
X84866711Y-119673795D01*
X84824780Y-119672374D01*
X84797734Y-119671180D01*
X84762766Y-119669230D01*
X84732371Y-119667123D01*
X84708759Y-119665046D01*
X84694144Y-119663185D01*
X84690486Y-119662152D01*
X84690064Y-119654493D01*
X84692779Y-119638293D01*
X84697692Y-119618385D01*
X84702902Y-119600393D01*
X84711297Y-119572233D01*
X84722277Y-119535859D01*
X84735240Y-119493225D01*
X84749585Y-119446285D01*
X84764713Y-119396993D01*
X84780021Y-119347303D01*
X84794909Y-119299171D01*
X84808776Y-119254548D01*
X84821021Y-119215391D01*
X84831043Y-119183653D01*
X84838242Y-119161288D01*
X84838333Y-119161012D01*
X84850679Y-119123414D01*
X84713750Y-119123414D01*
X84711733Y-119132043D01*
X84705995Y-119151252D01*
X84697008Y-119179633D01*
X84685245Y-119215780D01*
X84671179Y-119258284D01*
X84655282Y-119305737D01*
X84638025Y-119356733D01*
X84619881Y-119409863D01*
X84601323Y-119463719D01*
X84582823Y-119516895D01*
X84564853Y-119567982D01*
X84560004Y-119581654D01*
X84531814Y-119660983D01*
X84497370Y-119668254D01*
X84470557Y-119673850D01*
X84454397Y-119675915D01*
X84447032Y-119673106D01*
X84446606Y-119664080D01*
X84451260Y-119647495D01*
X84454500Y-119637262D01*
X84465577Y-119601650D01*
X84478488Y-119559551D01*
X84492738Y-119512635D01*
X84507831Y-119462572D01*
X84523272Y-119411035D01*
X84538563Y-119359693D01*
X84553210Y-119310217D01*
X84566716Y-119264279D01*
X84578585Y-119223550D01*
X84588322Y-119189699D01*
X84595430Y-119164399D01*
X84599413Y-119149319D01*
X84599718Y-119148007D01*
X84607821Y-119111800D01*
X84660786Y-119111800D01*
X84686857Y-119112088D01*
X84702701Y-119113315D01*
X84710782Y-119116022D01*
X84713567Y-119120747D01*
X84713750Y-119123414D01*
X84850679Y-119123414D01*
X84854493Y-119111800D01*
X85183650Y-119111800D01*
X86016837Y-119111800D01*
X86005975Y-119070525D01*
X86000759Y-116590850D01*
X85945650Y-116590850D01*
X85945650Y-119016550D01*
X85018550Y-119016550D01*
X85018550Y-116590850D01*
X84961400Y-116590850D01*
X84961400Y-119016550D01*
X84904250Y-119016550D01*
X84904250Y-116590850D01*
X84789950Y-116590850D01*
X84789950Y-119016550D01*
X84707400Y-119016550D01*
X84707400Y-116590850D01*
X84789950Y-116590850D01*
X84904250Y-116590850D01*
X84961400Y-116590850D01*
X85018550Y-116590850D01*
X85945650Y-116590850D01*
X86000759Y-116590850D01*
X85999516Y-116000300D01*
X85946429Y-116000300D01*
X85042087Y-116000300D01*
X85046232Y-115951266D01*
X85048225Y-115930486D01*
X85051619Y-115898399D01*
X85056259Y-115856303D01*
X85061994Y-115805497D01*
X85068670Y-115747278D01*
X85076133Y-115682945D01*
X85084230Y-115613795D01*
X85092809Y-115541127D01*
X85101717Y-115466238D01*
X85110799Y-115390426D01*
X85119903Y-115314990D01*
X85128876Y-115241228D01*
X85137564Y-115170436D01*
X85145815Y-115103915D01*
X85152461Y-115050975D01*
X85163714Y-114963142D01*
X85174019Y-114885191D01*
X85183318Y-114817516D01*
X85191551Y-114760510D01*
X85198661Y-114714566D01*
X85204588Y-114680079D01*
X85209275Y-114657441D01*
X85211769Y-114649709D01*
X85156798Y-114649709D01*
X85156636Y-114662055D01*
X85153297Y-114682868D01*
X85148492Y-114708075D01*
X85144206Y-114732818D01*
X85138439Y-114770115D01*
X85131199Y-114819910D01*
X85122493Y-114882142D01*
X85112329Y-114956755D01*
X85100715Y-115043690D01*
X85087659Y-115142890D01*
X85073169Y-115254296D01*
X85057252Y-115377851D01*
X85039916Y-115513496D01*
X85031307Y-115581200D01*
X85022357Y-115651471D01*
X85013819Y-115718096D01*
X85005834Y-115779995D01*
X84998544Y-115836083D01*
X84992092Y-115885279D01*
X84986619Y-115926501D01*
X84982268Y-115958667D01*
X84979182Y-115980695D01*
X84977501Y-115991501D01*
X84977304Y-115992362D01*
X84969067Y-115997500D01*
X84949807Y-116000064D01*
X84939375Y-116000300D01*
X84919243Y-115999833D01*
X84908732Y-115997600D01*
X84904771Y-115992353D01*
X84904252Y-115986012D01*
X84905421Y-115973143D01*
X84908518Y-115951945D01*
X84912927Y-115926534D01*
X84913985Y-115920925D01*
X84917254Y-115902313D01*
X84922017Y-115873052D01*
X84927978Y-115835063D01*
X84934843Y-115790270D01*
X84942314Y-115740596D01*
X84950096Y-115687963D01*
X84955015Y-115654225D01*
X84964406Y-115589679D01*
X84974086Y-115523640D01*
X84984251Y-115454803D01*
X84995095Y-115381867D01*
X85006815Y-115303527D01*
X85019604Y-115218482D01*
X85033659Y-115125429D01*
X85049174Y-115023064D01*
X85066345Y-114910086D01*
X85075347Y-114850950D01*
X85082342Y-114805109D01*
X85088878Y-114762454D01*
X85094661Y-114724884D01*
X85099398Y-114694298D01*
X85102796Y-114672597D01*
X85103757Y-114666638D01*
X85012299Y-114666638D01*
X85011956Y-114676986D01*
X85010103Y-114692186D01*
X85006555Y-114713535D01*
X85001124Y-114742331D01*
X84993622Y-114779869D01*
X84983863Y-114827447D01*
X84973736Y-114876350D01*
X84953637Y-114973815D01*
X84933023Y-115074847D01*
X84912240Y-115177688D01*
X84891636Y-115280581D01*
X84871557Y-115381769D01*
X84852350Y-115479496D01*
X84834362Y-115572003D01*
X84817940Y-115657535D01*
X84803430Y-115734334D01*
X84791180Y-115800643D01*
X84790094Y-115806625D01*
X84781674Y-115852802D01*
X84773878Y-115895074D01*
X84767020Y-115931778D01*
X84761412Y-115961248D01*
X84757370Y-115981822D01*
X84755207Y-115991837D01*
X84755052Y-115992362D01*
X84747458Y-115997646D01*
X84732490Y-116000244D01*
X84729825Y-116000300D01*
X84714148Y-115998731D01*
X84707918Y-115993020D01*
X84707400Y-115988923D01*
X84708601Y-115980888D01*
X84712064Y-115961471D01*
X84717577Y-115931745D01*
X84724933Y-115892785D01*
X84733920Y-115845664D01*
X84744328Y-115791459D01*
X84755948Y-115731241D01*
X84768569Y-115666087D01*
X84781982Y-115597070D01*
X84795976Y-115525265D01*
X84810341Y-115451745D01*
X84824868Y-115377586D01*
X84839346Y-115303861D01*
X84853566Y-115231645D01*
X84867317Y-115162012D01*
X84880389Y-115096036D01*
X84892573Y-115034792D01*
X84903658Y-114979354D01*
X84913434Y-114930797D01*
X84921691Y-114890194D01*
X84928220Y-114858620D01*
X84930180Y-114849326D01*
X84944557Y-114783862D01*
X84957221Y-114730862D01*
X84968164Y-114690351D01*
X84977379Y-114662355D01*
X84984858Y-114646902D01*
X84987613Y-114644072D01*
X84996597Y-114644903D01*
X85006146Y-114651741D01*
X85009207Y-114655313D01*
X85011320Y-114659846D01*
X85012299Y-114666638D01*
X85103757Y-114666638D01*
X85104500Y-114662037D01*
X85107912Y-114648689D01*
X85114777Y-114642830D01*
X85129319Y-114641417D01*
X85133138Y-114641400D01*
X85145557Y-114641587D01*
X85153274Y-114643621D01*
X85156798Y-114649709D01*
X85211769Y-114649709D01*
X85212594Y-114647153D01*
X85219623Y-114645747D01*
X85238003Y-114644478D01*
X85266384Y-114643382D01*
X85303419Y-114642493D01*
X85347757Y-114641846D01*
X85398050Y-114641475D01*
X85435007Y-114641400D01*
X85653865Y-114641400D01*
X85660707Y-114658862D01*
X85665383Y-114673712D01*
X85672360Y-114699938D01*
X85681407Y-114736472D01*
X85692296Y-114782243D01*
X85704796Y-114836183D01*
X85718679Y-114897222D01*
X85733714Y-114964290D01*
X85749674Y-115036320D01*
X85766327Y-115112241D01*
X85783445Y-115190984D01*
X85800798Y-115271480D01*
X85818156Y-115352660D01*
X85835291Y-115433454D01*
X85851973Y-115512793D01*
X85867973Y-115589608D01*
X85883060Y-115662830D01*
X85897006Y-115731389D01*
X85909581Y-115794216D01*
X85920556Y-115850242D01*
X85929701Y-115898398D01*
X85936787Y-115937614D01*
X85941584Y-115966821D01*
X85942073Y-115970137D01*
X85946429Y-116000300D01*
X85999516Y-116000300D01*
X85999495Y-115990775D01*
X85982304Y-115901875D01*
X85965574Y-115816631D01*
X85946642Y-115722608D01*
X85925308Y-115618814D01*
X85901366Y-115504257D01*
X85885423Y-115428800D01*
X85862207Y-115318752D01*
X85837341Y-115199850D01*
X85811572Y-115075711D01*
X85785649Y-114949954D01*
X85760318Y-114826196D01*
X85736328Y-114708054D01*
X85729343Y-114673449D01*
X85691651Y-114486424D01*
X85691650Y-114032294D01*
X85691650Y-113600000D01*
X85634500Y-113600000D01*
X85634500Y-114558850D01*
X85126500Y-114558850D01*
X85126500Y-113600000D01*
X85043950Y-113600000D01*
X85043950Y-114558850D01*
X84986800Y-114558850D01*
X84986800Y-113600000D01*
X85043950Y-113600000D01*
X85126500Y-113600000D01*
X85634500Y-113600000D01*
X85691650Y-113600000D01*
X85691650Y-113578164D01*
X85669145Y-113523291D01*
X85602750Y-113523291D01*
X85602750Y-113542850D01*
X85043950Y-113542850D01*
X85043950Y-113506178D01*
X85046257Y-113476101D01*
X85053231Y-113436047D01*
X85064953Y-113385706D01*
X85081504Y-113324768D01*
X85102964Y-113252926D01*
X85129413Y-113169868D01*
X85139808Y-113138259D01*
X85197056Y-112965443D01*
X85217341Y-112962033D01*
X85233489Y-112959643D01*
X85257467Y-112956468D01*
X85284487Y-112953139D01*
X85288425Y-112952675D01*
X85313831Y-112949913D01*
X85330093Y-112949265D01*
X85340671Y-112951254D01*
X85349021Y-112956401D01*
X85356174Y-112962909D01*
X85365359Y-112972942D01*
X85375134Y-112986497D01*
X85386167Y-113004859D01*
X85399126Y-113029314D01*
X85414681Y-113061147D01*
X85433500Y-113101645D01*
X85456251Y-113152093D01*
X85466250Y-113174550D01*
X85493388Y-113236452D01*
X85518576Y-113295431D01*
X85541348Y-113350296D01*
X85561237Y-113399854D01*
X85577776Y-113442911D01*
X85590497Y-113478276D01*
X85598935Y-113504755D01*
X85602623Y-113521157D01*
X85602750Y-113523291D01*
X85669145Y-113523291D01*
X85553538Y-113241419D01*
X85415425Y-112904675D01*
X85409350Y-112272850D01*
X85355100Y-112272850D01*
X85355100Y-112579766D01*
X85355015Y-112641019D01*
X85354772Y-112698372D01*
X85354386Y-112750579D01*
X85353876Y-112796394D01*
X85353257Y-112834572D01*
X85352548Y-112863869D01*
X85351764Y-112883037D01*
X85350924Y-112890832D01*
X85350867Y-112890916D01*
X85343253Y-112892509D01*
X85325480Y-112893828D01*
X85300088Y-112894748D01*
X85269616Y-112895143D01*
X85265142Y-112895150D01*
X85183650Y-112895150D01*
X85183650Y-112272850D01*
X85355100Y-112272850D01*
X85409350Y-112272850D01*
X85409075Y-112244275D01*
X85355101Y-112240369D01*
X85355101Y-112215700D01*
X85298062Y-112215700D01*
X85240800Y-112215700D01*
X85240800Y-111535519D01*
X85267788Y-111537472D01*
X85294775Y-111539425D01*
X85296419Y-111877562D01*
X85298062Y-112215700D01*
X85355101Y-112215700D01*
X85355100Y-111847034D01*
X85355100Y-111453700D01*
X85183650Y-111453700D01*
X85183650Y-112215700D01*
G37*
X85183650Y-112215700D02*
X85101100Y-112215700D01*
X85101100Y-112969167D01*
X84872500Y-113615235D01*
X84872500Y-114569100D01*
X84828538Y-114759237D01*
X84812680Y-114828532D01*
X84795290Y-114905792D01*
X84776692Y-114989495D01*
X84757210Y-115078118D01*
X84737169Y-115170141D01*
X84716893Y-115264040D01*
X84696705Y-115358293D01*
X84676931Y-115451379D01*
X84657894Y-115541775D01*
X84639918Y-115627958D01*
X84623329Y-115708407D01*
X84608449Y-115781600D01*
X84595603Y-115846014D01*
X84585115Y-115900128D01*
X84581893Y-115917258D01*
X84564664Y-116009825D01*
X84562931Y-117542282D01*
X84561198Y-119074740D01*
X84471974Y-119380607D01*
X84450525Y-119454093D01*
X84426865Y-119535074D01*
X84401903Y-119620449D01*
X84376546Y-119707114D01*
X84351703Y-119791967D01*
X84328280Y-119871904D01*
X84307187Y-119943824D01*
X84300600Y-119966263D01*
X84218450Y-120246052D01*
X84218312Y-126176563D01*
X84218173Y-132107075D01*
X84183265Y-132226447D01*
X83866025Y-132494779D01*
X83864336Y-132663706D01*
X83862646Y-132832633D01*
X84046778Y-132835176D01*
X84109912Y-132836292D01*
X84160400Y-132837723D01*
X84198290Y-132839472D01*
X84223634Y-132841542D01*
X84236479Y-132843933D01*
X84237953Y-132844762D01*
X84239545Y-132851548D01*
X84236736Y-132865458D01*
X84229129Y-132887806D01*
X84216329Y-132919904D01*
X84212673Y-132928650D01*
X84200667Y-132957387D01*
X84190681Y-132981656D01*
X84183634Y-132999196D01*
X84180445Y-133007747D01*
X84180350Y-133008176D01*
X84185468Y-133012331D01*
X84198985Y-133020841D01*
X84218148Y-133031986D01*
X84221346Y-133033783D01*
X84241829Y-133045759D01*
X84257723Y-133056023D01*
X84265901Y-133062542D01*
X84266199Y-133062950D01*
X84264393Y-133070014D01*
X84257337Y-133086757D01*
X84245763Y-133111651D01*
X84230397Y-133143171D01*
X84211971Y-133179788D01*
X84191222Y-133219957D01*
X84112387Y-133370725D01*
X84108296Y-133425459D01*
X84103191Y-133470334D01*
X84094041Y-133525190D01*
X84081286Y-133588124D01*
X84065370Y-133657237D01*
X84046734Y-133730627D01*
X84025820Y-133806394D01*
X84003071Y-133882637D01*
X83998839Y-133896187D01*
X83998685Y-133898386D01*
X84000297Y-133900276D01*
X84004562Y-133901878D01*
X84012365Y-133903217D01*
X84024593Y-133904317D01*
X84042130Y-133905200D01*
X84065864Y-133905890D01*
X84096679Y-133906411D01*
X84135461Y-133906787D01*
X84183097Y-133907039D01*
X84240472Y-133907193D01*
X84308471Y-133907272D01*
X84387981Y-133907298D01*
X84418048Y-133907300D01*
X84840750Y-133907300D01*
X84840750Y-133875698D01*
X84839228Y-133856603D01*
X84836664Y-133839037D01*
X84777010Y-133839037D01*
X84776456Y-133841537D01*
X84773994Y-133843632D01*
X84768600Y-133845359D01*
X84759250Y-133846751D01*
X84744920Y-133847846D01*
X84724586Y-133848678D01*
X84697225Y-133849283D01*
X84661812Y-133849697D01*
X84617323Y-133849955D01*
X84562735Y-133850092D01*
X84497023Y-133850144D01*
X84456575Y-133850150D01*
X84135900Y-133850150D01*
X84135900Y-133793000D01*
X84650250Y-133793000D01*
X84650250Y-133735850D01*
X84161300Y-133735850D01*
X84161300Y-133653300D01*
X84624850Y-133653300D01*
X84624850Y-133596150D01*
X84193050Y-133596150D01*
X84193050Y-133539000D01*
X84600181Y-133539000D01*
X84598228Y-133512012D01*
X84596275Y-133485025D01*
X84459750Y-133477630D01*
X84404583Y-133474582D01*
X84361651Y-133472059D01*
X84331004Y-133470035D01*
X84312692Y-133468484D01*
X84306767Y-133467380D01*
X84313277Y-133466699D01*
X84332272Y-133466414D01*
X84363803Y-133466499D01*
X84407920Y-133466930D01*
X84464672Y-133467681D01*
X84478800Y-133467886D01*
X84528706Y-133468691D01*
X84574438Y-133469568D01*
X84614478Y-133470479D01*
X84647308Y-133471382D01*
X84671408Y-133472237D01*
X84685260Y-133473005D01*
X84688031Y-133473416D01*
X84690311Y-133480080D01*
X84695032Y-133497225D01*
X84701735Y-133522971D01*
X84709963Y-133555433D01*
X84719256Y-133592729D01*
X84729158Y-133632977D01*
X84739209Y-133674294D01*
X84748953Y-133714797D01*
X84757929Y-133752604D01*
X84765682Y-133785832D01*
X84771751Y-133812599D01*
X84775679Y-133831021D01*
X84777010Y-133839037D01*
X84836664Y-133839037D01*
X84834816Y-133826387D01*
X84827745Y-133786242D01*
X84818246Y-133737359D01*
X84806549Y-133680928D01*
X84792886Y-133618140D01*
X84778280Y-133553622D01*
X84760436Y-133476170D01*
X84787997Y-133441427D01*
X84815558Y-133406685D01*
X84787846Y-133352367D01*
X84682000Y-133352367D01*
X84682000Y-133368451D01*
X84466622Y-133366413D01*
X84415539Y-133365814D01*
X84368547Y-133365043D01*
X84327141Y-133364140D01*
X84292819Y-133363147D01*
X84267076Y-133362107D01*
X84251410Y-133361061D01*
X84247170Y-133360294D01*
X84248521Y-133353604D01*
X84254426Y-133336751D01*
X84264287Y-133311182D01*
X84277508Y-133278344D01*
X84293491Y-133239683D01*
X84311639Y-133196644D01*
X84331356Y-133150674D01*
X84352043Y-133103221D01*
X84370675Y-133061162D01*
X84384145Y-133031000D01*
X84558485Y-133031000D01*
X84605540Y-133137341D01*
X84631638Y-133197994D01*
X84652553Y-133250195D01*
X84668057Y-133293301D01*
X84677923Y-133326673D01*
X84681921Y-133349667D01*
X84682000Y-133352367D01*
X84787846Y-133352367D01*
X84756169Y-133290280D01*
X84723752Y-133224657D01*
X84696695Y-133165504D01*
X84675456Y-133113914D01*
X84660494Y-133070985D01*
X84653828Y-133045881D01*
X84649502Y-133025837D01*
X84719726Y-133043605D01*
X84789950Y-133061372D01*
X84789889Y-133047773D01*
X84788827Y-133036842D01*
X84785948Y-133016036D01*
X84781647Y-132987990D01*
X84776317Y-132955334D01*
X84774075Y-132942100D01*
X84773284Y-132937404D01*
X84700552Y-132937404D01*
X84697253Y-132954252D01*
X84692423Y-132960404D01*
X84681566Y-132965584D01*
X84663066Y-132971115D01*
X84649561Y-132974099D01*
X84632338Y-132976611D01*
X84605058Y-132979682D01*
X84570342Y-132983094D01*
X84530807Y-132986629D01*
X84489073Y-132990070D01*
X84447761Y-132993200D01*
X84409490Y-132995801D01*
X84376878Y-132997656D01*
X84355755Y-132998479D01*
X84324785Y-132999250D01*
X84327795Y-132969087D01*
X84331932Y-132949172D01*
X84340282Y-132922764D01*
X84351269Y-132894669D01*
X84354887Y-132886537D01*
X84378968Y-132834150D01*
X84675140Y-132834150D01*
X84688095Y-132876093D01*
X84697518Y-132911700D01*
X84700552Y-132937404D01*
X84773284Y-132937404D01*
X84768490Y-132908961D01*
X84763768Y-132879998D01*
X84760294Y-132857652D01*
X84758454Y-132844364D01*
X84758262Y-132842087D01*
X84761245Y-132839206D01*
X84771095Y-132837061D01*
X84789089Y-132835567D01*
X84816500Y-132834645D01*
X84854606Y-132834210D01*
X84881530Y-132834150D01*
X85004860Y-132834150D01*
X84967255Y-132927453D01*
X84954285Y-132960688D01*
X84943250Y-132990974D01*
X84934992Y-133015837D01*
X84930354Y-133032807D01*
X84929650Y-133037837D01*
X84931736Y-133049213D01*
X84939360Y-133056589D01*
X84954570Y-133060748D01*
X84979417Y-133062472D01*
X84994738Y-133062663D01*
X85015309Y-133063093D01*
X85026225Y-133065132D01*
X85030524Y-133070088D01*
X85031250Y-133078386D01*
X85029500Y-133092218D01*
X85023975Y-133112091D01*
X85014267Y-133139065D01*
X84999967Y-133174203D01*
X84980665Y-133218565D01*
X84957232Y-133270417D01*
X84910144Y-133373310D01*
X84942122Y-133424336D01*
X84956024Y-133447334D01*
X84966852Y-133466801D01*
X84973087Y-133479929D01*
X84974011Y-133483368D01*
X84972640Y-133491546D01*
X84968830Y-133510338D01*
X84962961Y-133537976D01*
X84955412Y-133572690D01*
X84946564Y-133612710D01*
X84938897Y-133646950D01*
X84928835Y-133693075D01*
X84919567Y-133738254D01*
X84911558Y-133780010D01*
X84905271Y-133815868D01*
X84901171Y-133843349D01*
X84899943Y-133854912D01*
X84896014Y-133907300D01*
X85671657Y-133907300D01*
X85802745Y-133907252D01*
X85921271Y-133907110D01*
X86027375Y-133906872D01*
X86121195Y-133906537D01*
X86202870Y-133906103D01*
X86272538Y-133905569D01*
X86330338Y-133904935D01*
X86376409Y-133904198D01*
X86410888Y-133903359D01*
X86433916Y-133902415D01*
X86445630Y-133901366D01*
X86447300Y-133900746D01*
X86445013Y-133891055D01*
X86439341Y-133875249D01*
X86437597Y-133870968D01*
X86429723Y-133850150D01*
X86333000Y-133850150D01*
X85767850Y-133850150D01*
X85767850Y-133793000D01*
X85890088Y-133791483D01*
X85940901Y-133791040D01*
X85993540Y-133790919D01*
X86046223Y-133791092D01*
X86097168Y-133791534D01*
X86144592Y-133792217D01*
X86186713Y-133793115D01*
X86221749Y-133794202D01*
X86247918Y-133795451D01*
X86263437Y-133796836D01*
X86264738Y-133797054D01*
X86275009Y-133798356D01*
X86280172Y-133795244D01*
X86281984Y-133784807D01*
X86282200Y-133768104D01*
X86282200Y-133735850D01*
X85767850Y-133735850D01*
X85767850Y-133653300D01*
X85982163Y-133653251D01*
X86196475Y-133653202D01*
X86210763Y-133628180D01*
X86219343Y-133612447D01*
X86224440Y-133601735D01*
X86225050Y-133599654D01*
X86218944Y-133598827D01*
X86201595Y-133598070D01*
X86174462Y-133597406D01*
X86139003Y-133596859D01*
X86096676Y-133596452D01*
X86048939Y-133596210D01*
X86009150Y-133596150D01*
X85793250Y-133596150D01*
X85793250Y-133539000D01*
X86199650Y-133539000D01*
X86199650Y-133481850D01*
X85809414Y-133481850D01*
X85826867Y-133464387D01*
X85844320Y-133446925D01*
X86023573Y-133443638D01*
X86202825Y-133440352D01*
X86229193Y-133456338D01*
X86255560Y-133472325D01*
X86278388Y-133561225D01*
X86296377Y-133632665D01*
X86310654Y-133692489D01*
X86321324Y-133741194D01*
X86328493Y-133779277D01*
X86332264Y-133807234D01*
X86332943Y-133819987D01*
X86333000Y-133850150D01*
X86429723Y-133850150D01*
X86426707Y-133842178D01*
X86414030Y-133804171D01*
X86400114Y-133759020D01*
X86385505Y-133708801D01*
X86370749Y-133655590D01*
X86356394Y-133601460D01*
X86342987Y-133548487D01*
X86331074Y-133498747D01*
X86321203Y-133454313D01*
X86313919Y-133417261D01*
X86309771Y-133389666D01*
X86309249Y-133383967D01*
X86307820Y-133367320D01*
X86307418Y-133364544D01*
X86250450Y-133364544D01*
X86244409Y-133365496D01*
X86227511Y-133366224D01*
X86201599Y-133366739D01*
X86168516Y-133367051D01*
X86130102Y-133367171D01*
X86088201Y-133367109D01*
X86044654Y-133366876D01*
X86001303Y-133366482D01*
X85959991Y-133365937D01*
X85922558Y-133365253D01*
X85890848Y-133364440D01*
X85866701Y-133363507D01*
X85851961Y-133362467D01*
X85850400Y-133362261D01*
X85832880Y-133358842D01*
X85824963Y-133354179D01*
X85823592Y-133346013D01*
X85823975Y-133342721D01*
X85826648Y-133332649D01*
X85833010Y-133312475D01*
X85842441Y-133284042D01*
X85854324Y-133249195D01*
X85868039Y-133209779D01*
X85878258Y-133180851D01*
X85915158Y-133077032D01*
X85812300Y-133077032D01*
X85809820Y-133084512D01*
X85802886Y-133101771D01*
X85792260Y-133127011D01*
X85778704Y-133158433D01*
X85762978Y-133194235D01*
X85757489Y-133206601D01*
X85702677Y-133329747D01*
X85707303Y-133453782D01*
X85711930Y-133577817D01*
X85678128Y-133713983D01*
X85644325Y-133850150D01*
X85624278Y-133850150D01*
X85521991Y-133850150D01*
X85005850Y-133850150D01*
X85005850Y-133780300D01*
X85029609Y-133780300D01*
X85043489Y-133780574D01*
X85067866Y-133781338D01*
X85100549Y-133782502D01*
X85139346Y-133783976D01*
X85182068Y-133785669D01*
X85226525Y-133787493D01*
X85270525Y-133789356D01*
X85311878Y-133791171D01*
X85348394Y-133792846D01*
X85377881Y-133794291D01*
X85397963Y-133795406D01*
X85437650Y-133797887D01*
X85437650Y-133735850D01*
X85031250Y-133735850D01*
X85031250Y-133653300D01*
X85437650Y-133653300D01*
X85437650Y-133596150D01*
X85056650Y-133596150D01*
X85056650Y-133539000D01*
X85386850Y-133539000D01*
X85386850Y-133481850D01*
X85088400Y-133481850D01*
X85088400Y-133424700D01*
X85430808Y-133424700D01*
X85440742Y-133458037D01*
X85452727Y-133500055D01*
X85465100Y-133546614D01*
X85477335Y-133595412D01*
X85488905Y-133644149D01*
X85499284Y-133690525D01*
X85507946Y-133732240D01*
X85514364Y-133766992D01*
X85518012Y-133792482D01*
X85518473Y-133797762D01*
X85521991Y-133850150D01*
X85624278Y-133850150D01*
X85609103Y-133847914D01*
X85602104Y-133839569D01*
X85601078Y-133835862D01*
X85598405Y-133824721D01*
X85593229Y-133803937D01*
X85586216Y-133776163D01*
X85578035Y-133744052D01*
X85575121Y-133732675D01*
X85562897Y-133682444D01*
X85550796Y-133627236D01*
X85538386Y-133564922D01*
X85525235Y-133493372D01*
X85516969Y-133446056D01*
X85513545Y-133426137D01*
X85554973Y-133429463D01*
X85578813Y-133430667D01*
X85592002Y-133429362D01*
X85596376Y-133425345D01*
X85596400Y-133424878D01*
X85594446Y-133416679D01*
X85588995Y-133398412D01*
X85580663Y-133372022D01*
X85579209Y-133367550D01*
X85499675Y-133367550D01*
X85038488Y-133367550D01*
X85057901Y-133315162D01*
X85066813Y-133290686D01*
X85078604Y-133257695D01*
X85092033Y-133219690D01*
X85105862Y-133180168D01*
X85113020Y-133159543D01*
X85148725Y-133056312D01*
X85281199Y-133057943D01*
X85413672Y-133059575D01*
X85435406Y-133119703D01*
X85467995Y-133223335D01*
X85491469Y-133324687D01*
X85499675Y-133367550D01*
X85579209Y-133367550D01*
X85570068Y-133339457D01*
X85557825Y-133302663D01*
X85555386Y-133295421D01*
X85533854Y-133230161D01*
X85517143Y-133176247D01*
X85505154Y-133133317D01*
X85497785Y-133101010D01*
X85494937Y-133078963D01*
X85494894Y-133077037D01*
X85495771Y-133069401D01*
X85500407Y-133065115D01*
X85511619Y-133063219D01*
X85532227Y-133062755D01*
X85536906Y-133062750D01*
X85579012Y-133062750D01*
X85575269Y-133042112D01*
X85572149Y-133028843D01*
X85566069Y-133006153D01*
X85557788Y-132976767D01*
X85555453Y-132968755D01*
X85489623Y-132968755D01*
X85454155Y-133005777D01*
X85059825Y-133002425D01*
X85061371Y-132980200D01*
X85063425Y-132964301D01*
X85067657Y-132940060D01*
X85073336Y-132911496D01*
X85076686Y-132895962D01*
X85090455Y-132833949D01*
X85261396Y-132835637D01*
X85432336Y-132837325D01*
X85460980Y-132903040D01*
X85489623Y-132968755D01*
X85555453Y-132968755D01*
X85548065Y-132943407D01*
X85543418Y-132927812D01*
X85515308Y-132834150D01*
X85625704Y-132834150D01*
X85661553Y-132834303D01*
X85692540Y-132834730D01*
X85716627Y-132835377D01*
X85731775Y-132836193D01*
X85736100Y-132836975D01*
X85733447Y-132843568D01*
X85726391Y-132858615D01*
X85716287Y-132879249D01*
X85712820Y-132886188D01*
X85698993Y-132916667D01*
X85690997Y-132943142D01*
X85687061Y-132971782D01*
X85686672Y-132977261D01*
X85683804Y-133021947D01*
X85748052Y-133046278D01*
X85774154Y-133056721D01*
X85795155Y-133066183D01*
X85808610Y-133073494D01*
X85812300Y-133077032D01*
X85915158Y-133077032D01*
X85930391Y-133034175D01*
X86009951Y-133032405D01*
X86089510Y-133030636D01*
X86169980Y-133196087D01*
X86190510Y-133238397D01*
X86209107Y-133276916D01*
X86225078Y-133310190D01*
X86237727Y-133336767D01*
X86246362Y-133355193D01*
X86250286Y-133364014D01*
X86250450Y-133364544D01*
X86307418Y-133364544D01*
X86305666Y-133352453D01*
X86302074Y-133337448D01*
X86296330Y-133320387D01*
X86287722Y-133299352D01*
X86275536Y-133272426D01*
X86259059Y-133237691D01*
X86240771Y-133199817D01*
X86175900Y-133065925D01*
X86195713Y-133064195D01*
X86246024Y-133058391D01*
X86285891Y-133050456D01*
X86317465Y-133039866D01*
X86336861Y-133029951D01*
X86369296Y-133010360D01*
X86365501Y-132992741D01*
X86284022Y-132992741D01*
X86049749Y-132994489D01*
X85996055Y-132994927D01*
X85946095Y-132995406D01*
X85901357Y-132995907D01*
X85863331Y-132996411D01*
X85833506Y-132996896D01*
X85813372Y-132997345D01*
X85804418Y-132997736D01*
X85804363Y-132997743D01*
X85798045Y-132996844D01*
X85794734Y-132990136D01*
X85793589Y-132974895D01*
X85793571Y-132962737D01*
X85795845Y-132937083D01*
X85801450Y-132906718D01*
X85808115Y-132881775D01*
X85822339Y-132837325D01*
X86035783Y-132835653D01*
X86249228Y-132833982D01*
X86262799Y-132873753D01*
X86271026Y-132902723D01*
X86277635Y-132934587D01*
X86280196Y-132953133D01*
X86284022Y-132992741D01*
X86365501Y-132992741D01*
X86351341Y-132927017D01*
X86344710Y-132895961D01*
X86339154Y-132869423D01*
X86335177Y-132849844D01*
X86333282Y-132839668D01*
X86333193Y-132838912D01*
X86339264Y-132837826D01*
X86356628Y-132836828D01*
X86383882Y-132835945D01*
X86419618Y-132835207D01*
X86462432Y-132834642D01*
X86510918Y-132834280D01*
X86563670Y-132834150D01*
X86796550Y-132834150D01*
X86796550Y-132437209D01*
X86777909Y-132418625D01*
X86714001Y-132418625D01*
X86714001Y-132585112D01*
X86714000Y-132751600D01*
X86580650Y-132751600D01*
X86580609Y-132588087D01*
X86580573Y-132443511D01*
X86523500Y-132443511D01*
X86523500Y-132751818D01*
X86502903Y-132751600D01*
X86117100Y-132751600D01*
X85767850Y-132751600D01*
X85767850Y-132712352D01*
X85769246Y-132686872D01*
X85773270Y-132650285D01*
X85779680Y-132603857D01*
X85788233Y-132548851D01*
X85798686Y-132486533D01*
X85810797Y-132418166D01*
X85824322Y-132345016D01*
X85839019Y-132268347D01*
X85854644Y-132189424D01*
X85870956Y-132109511D01*
X85887711Y-132029874D01*
X85904667Y-131951775D01*
X85921580Y-131876481D01*
X85938208Y-131805256D01*
X85954307Y-131739364D01*
X85955908Y-131733001D01*
X85965479Y-131698159D01*
X85974977Y-131669091D01*
X85983775Y-131647257D01*
X85991241Y-131634117D01*
X85996746Y-131631132D01*
X85998598Y-131634000D01*
X85999819Y-131641765D01*
X86002301Y-131661039D01*
X86005919Y-131690707D01*
X86010546Y-131729655D01*
X86016056Y-131776768D01*
X86022321Y-131830930D01*
X86029216Y-131891027D01*
X86036613Y-131955944D01*
X86044387Y-132024566D01*
X86052411Y-132095779D01*
X86060558Y-132168467D01*
X86068702Y-132241516D01*
X86076716Y-132313811D01*
X86084474Y-132384237D01*
X86091849Y-132451679D01*
X86098716Y-132515022D01*
X86101282Y-132538875D01*
X86105841Y-132582773D01*
X86109885Y-132624420D01*
X86113210Y-132661483D01*
X86115609Y-132691631D01*
X86116880Y-132712532D01*
X86117029Y-132718262D01*
X86117100Y-132751600D01*
X86502903Y-132751600D01*
X86363163Y-132750121D01*
X86202825Y-132748425D01*
X86192033Y-132693165D01*
X86180399Y-132629440D01*
X86168711Y-132557797D01*
X86157365Y-132481253D01*
X86146753Y-132402823D01*
X86137269Y-132325524D01*
X86129309Y-132252371D01*
X86123265Y-132186380D01*
X86120237Y-132143587D01*
X86118536Y-132112668D01*
X86117944Y-132092250D01*
X86118711Y-132080163D01*
X86121086Y-132074236D01*
X86125318Y-132072300D01*
X86128444Y-132072150D01*
X86136129Y-132074940D01*
X86149000Y-132083603D01*
X86167539Y-132098580D01*
X86192225Y-132120310D01*
X86223540Y-132149232D01*
X86261965Y-132185787D01*
X86307980Y-132230415D01*
X86362067Y-132283554D01*
X86391738Y-132312908D01*
X86523500Y-132443511D01*
X86580573Y-132443511D01*
X86580568Y-132424575D01*
X86455941Y-132295663D01*
X86331314Y-132166752D01*
X86334648Y-132125215D01*
X86337878Y-132097417D01*
X86342793Y-132081032D01*
X86350402Y-132074792D01*
X86361712Y-132077429D01*
X86369187Y-132081754D01*
X86377712Y-132088804D01*
X86394059Y-132103754D01*
X86417084Y-132125503D01*
X86445646Y-132152956D01*
X86478600Y-132185013D01*
X86514804Y-132220578D01*
X86550488Y-132255936D01*
X86714001Y-132418625D01*
X86777909Y-132418625D01*
X86331636Y-131973725D01*
X86332168Y-131246650D01*
X85983790Y-131246650D01*
X85805659Y-131988012D01*
X85782869Y-132082841D01*
X85760871Y-132174332D01*
X85739851Y-132261717D01*
X85719993Y-132344225D01*
X85701485Y-132421087D01*
X85684511Y-132491534D01*
X85669257Y-132554796D01*
X85655908Y-132610103D01*
X85644650Y-132656686D01*
X85635668Y-132693775D01*
X85629149Y-132720600D01*
X85625277Y-132736393D01*
X85624236Y-132740487D01*
X85622347Y-132743932D01*
X85617986Y-132746585D01*
X85609671Y-132748549D01*
X85595918Y-132749926D01*
X85575245Y-132750817D01*
X85546167Y-132751325D01*
X85507204Y-132751552D01*
X85462623Y-132751600D01*
X85304300Y-132751600D01*
X85304300Y-132260863D01*
X84331935Y-132260863D01*
X84330732Y-132296351D01*
X84325684Y-132342676D01*
X84322755Y-132363435D01*
X84318622Y-132389009D01*
X84312396Y-132424546D01*
X84304548Y-132467568D01*
X84295554Y-132515601D01*
X84285886Y-132566168D01*
X84276017Y-132616793D01*
X84266420Y-132665000D01*
X84257570Y-132708314D01*
X84250068Y-132743662D01*
X84242798Y-132777000D01*
X83920000Y-132777000D01*
X83920304Y-132651587D01*
X83920608Y-132526175D01*
X84016318Y-132437275D01*
X84075525Y-132382657D01*
X84126459Y-132336547D01*
X84169787Y-132298433D01*
X84206177Y-132267801D01*
X84236294Y-132244138D01*
X84260806Y-132226932D01*
X84280380Y-132215670D01*
X84295682Y-132209839D01*
X84307379Y-132208926D01*
X84311807Y-132210045D01*
X84322540Y-132218648D01*
X84329227Y-132235275D01*
X84331935Y-132260863D01*
X85304300Y-132260863D01*
X85304300Y-129249575D01*
X84570875Y-129249575D01*
X84568931Y-129544850D01*
X84568598Y-129593330D01*
X84568163Y-129653153D01*
X84567638Y-129722962D01*
X84567032Y-129801400D01*
X84566358Y-129887112D01*
X84565626Y-129978738D01*
X84564846Y-130074925D01*
X84564031Y-130174313D01*
X84563190Y-130275547D01*
X84562334Y-130377271D01*
X84561475Y-130478126D01*
X84561045Y-130528042D01*
X84555104Y-131215960D01*
X84498320Y-131490067D01*
X84479807Y-131579323D01*
X84463665Y-131656884D01*
X84449727Y-131723503D01*
X84437829Y-131779931D01*
X84427805Y-131826917D01*
X84419490Y-131865214D01*
X84412717Y-131895571D01*
X84407321Y-131918740D01*
X84403138Y-131935471D01*
X84400000Y-131946516D01*
X84397743Y-131952624D01*
X84396202Y-131954548D01*
X84395930Y-131954477D01*
X84395083Y-131947837D01*
X84394136Y-131929686D01*
X84393121Y-131901210D01*
X84392065Y-131863597D01*
X84390998Y-131818033D01*
X84389950Y-131765707D01*
X84388950Y-131707806D01*
X84388026Y-131645516D01*
X84387689Y-131619961D01*
X84387201Y-131575132D01*
X84386724Y-131518600D01*
X84386262Y-131451359D01*
X84385818Y-131374406D01*
X84385394Y-131288736D01*
X84384996Y-131195346D01*
X84384625Y-131095230D01*
X84384286Y-130989385D01*
X84383981Y-130878807D01*
X84383715Y-130764491D01*
X84383490Y-130647434D01*
X84383311Y-130528631D01*
X84383179Y-130409077D01*
X84383099Y-130289770D01*
X84383091Y-130268750D01*
X84382722Y-129249575D01*
X84570875Y-129249575D01*
X85304300Y-129249575D01*
X85304300Y-129246288D01*
X85642438Y-129247931D01*
X85980575Y-129249575D01*
X85982183Y-130248112D01*
X85983790Y-131246650D01*
X86332168Y-131246650D01*
X86334149Y-128541550D01*
X86282228Y-128541550D01*
X84866150Y-128541550D01*
X84866150Y-125747550D01*
X84815350Y-125747550D01*
X84815350Y-128541550D01*
X84732773Y-128541550D01*
X84599478Y-128541550D01*
X84377177Y-128541550D01*
X84378776Y-126822287D01*
X84380375Y-125103025D01*
X84435938Y-125101190D01*
X84491500Y-125099355D01*
X84491500Y-125689886D01*
X84543888Y-125691730D01*
X84596275Y-125693575D01*
X84597877Y-127117562D01*
X84599478Y-128541550D01*
X84732773Y-128541550D01*
X84734374Y-127117562D01*
X84735975Y-125693575D01*
X84950225Y-125691903D01*
X85164474Y-125690231D01*
X85166125Y-125396628D01*
X85167775Y-125103025D01*
X85547188Y-125101387D01*
X85926600Y-125099750D01*
X85926600Y-125690199D01*
X86102813Y-125691887D01*
X86279025Y-125693575D01*
X86280627Y-127117562D01*
X86282228Y-128541550D01*
X86334149Y-128541550D01*
X86335896Y-126157098D01*
X86337432Y-124058450D01*
X85932950Y-124058450D01*
X85932950Y-124991900D01*
X85183650Y-124991900D01*
X84542383Y-124991900D01*
X84275600Y-124991900D01*
X84275600Y-124058192D01*
X84407363Y-124059908D01*
X84539125Y-124061625D01*
X84540754Y-124526762D01*
X84542383Y-124991900D01*
X85183650Y-124991900D01*
X85183650Y-124058450D01*
X85932950Y-124058450D01*
X86337432Y-124058450D01*
X86340125Y-120381800D01*
X86282200Y-120381800D01*
X86282200Y-123537750D01*
X85977400Y-123537750D01*
X85977400Y-123201200D01*
X85894850Y-123201200D01*
X85894850Y-123537750D01*
X84548650Y-123537750D01*
X84548650Y-123340900D01*
X84548489Y-123292358D01*
X84548031Y-123248165D01*
X84547318Y-123209848D01*
X84546389Y-123178934D01*
X84545285Y-123156949D01*
X84544047Y-123145421D01*
X84543432Y-123144050D01*
X84534763Y-123145953D01*
X84518717Y-123150782D01*
X84509439Y-123153854D01*
X84480665Y-123163658D01*
X84476621Y-123250691D01*
X84474791Y-123290777D01*
X84472686Y-123338029D01*
X84470549Y-123386923D01*
X84468623Y-123431937D01*
X84468379Y-123437737D01*
X84464181Y-123537750D01*
X84326400Y-123537750D01*
X84326400Y-120381800D01*
X86282200Y-120381800D01*
X86340125Y-120381800D01*
X86340156Y-120340472D01*
X86333592Y-120315526D01*
X86280564Y-120315526D01*
X86278986Y-120317263D01*
X86274978Y-120318765D01*
X86267743Y-120320049D01*
X86256483Y-120321132D01*
X86240401Y-120322032D01*
X86218701Y-120322764D01*
X86190584Y-120323346D01*
X86155254Y-120323795D01*
X86111912Y-120324129D01*
X86059763Y-120324363D01*
X85998009Y-120324515D01*
X85925852Y-120324602D01*
X85842496Y-120324641D01*
X85759066Y-120324650D01*
X85234450Y-120324650D01*
X85234450Y-119726346D01*
X85309063Y-119730111D01*
X85331303Y-119730981D01*
X85364509Y-119731936D01*
X85406950Y-119732941D01*
X85456892Y-119733963D01*
X85512602Y-119734967D01*
X85572349Y-119735920D01*
X85634399Y-119736788D01*
X85672600Y-119737259D01*
X85735623Y-119738062D01*
X85797749Y-119738972D01*
X85857185Y-119739957D01*
X85912139Y-119740981D01*
X85960816Y-119742009D01*
X86001425Y-119743008D01*
X86032171Y-119743942D01*
X86044822Y-119744442D01*
X86128118Y-119748241D01*
X86177598Y-119942783D01*
X86191124Y-119995416D01*
X86204984Y-120048374D01*
X86218527Y-120099229D01*
X86231099Y-120145557D01*
X86242046Y-120184930D01*
X86250716Y-120214924D01*
X86252207Y-120219875D01*
X86261720Y-120251174D01*
X86270076Y-120278758D01*
X86276483Y-120300006D01*
X86280150Y-120312299D01*
X86280509Y-120313537D01*
X86280564Y-120315526D01*
X86333592Y-120315526D01*
X86173066Y-119705498D01*
X86016837Y-119111800D01*
X85183650Y-119111800D01*
X85183650Y-119390141D01*
X85183557Y-119448407D01*
X85183289Y-119502725D01*
X85182867Y-119551785D01*
X85182309Y-119594276D01*
X85181637Y-119628888D01*
X85180869Y-119654311D01*
X85180024Y-119669234D01*
X85179417Y-119672716D01*
X85171752Y-119674155D01*
X85153169Y-119675247D01*
X85125446Y-119676000D01*
X85090360Y-119676421D01*
X85049690Y-119676517D01*
X85005213Y-119676295D01*
X84958705Y-119675763D01*
X84911946Y-119674927D01*
X84866711Y-119673795D01*
X84824780Y-119672374D01*
X84797734Y-119671180D01*
X84762766Y-119669230D01*
X84732371Y-119667123D01*
X84708759Y-119665046D01*
X84694144Y-119663185D01*
X84690486Y-119662152D01*
X84690064Y-119654493D01*
X84692779Y-119638293D01*
X84697692Y-119618385D01*
X84702902Y-119600393D01*
X84711297Y-119572233D01*
X84722277Y-119535859D01*
X84735240Y-119493225D01*
X84749585Y-119446285D01*
X84764713Y-119396993D01*
X84780021Y-119347303D01*
X84794909Y-119299171D01*
X84808776Y-119254548D01*
X84821021Y-119215391D01*
X84831043Y-119183653D01*
X84838242Y-119161288D01*
X84838333Y-119161012D01*
X84850679Y-119123414D01*
X84713750Y-119123414D01*
X84711733Y-119132043D01*
X84705995Y-119151252D01*
X84697008Y-119179633D01*
X84685245Y-119215780D01*
X84671179Y-119258284D01*
X84655282Y-119305737D01*
X84638025Y-119356733D01*
X84619881Y-119409863D01*
X84601323Y-119463719D01*
X84582823Y-119516895D01*
X84564853Y-119567982D01*
X84560004Y-119581654D01*
X84531814Y-119660983D01*
X84497370Y-119668254D01*
X84470557Y-119673850D01*
X84454397Y-119675915D01*
X84447032Y-119673106D01*
X84446606Y-119664080D01*
X84451260Y-119647495D01*
X84454500Y-119637262D01*
X84465577Y-119601650D01*
X84478488Y-119559551D01*
X84492738Y-119512635D01*
X84507831Y-119462572D01*
X84523272Y-119411035D01*
X84538563Y-119359693D01*
X84553210Y-119310217D01*
X84566716Y-119264279D01*
X84578585Y-119223550D01*
X84588322Y-119189699D01*
X84595430Y-119164399D01*
X84599413Y-119149319D01*
X84599718Y-119148007D01*
X84607821Y-119111800D01*
X84660786Y-119111800D01*
X84686857Y-119112088D01*
X84702701Y-119113315D01*
X84710782Y-119116022D01*
X84713567Y-119120747D01*
X84713750Y-119123414D01*
X84850679Y-119123414D01*
X84854493Y-119111800D01*
X85183650Y-119111800D01*
X86016837Y-119111800D01*
X86005975Y-119070525D01*
X86000759Y-116590850D01*
X85945650Y-116590850D01*
X85945650Y-119016550D01*
X85018550Y-119016550D01*
X85018550Y-116590850D01*
X84961400Y-116590850D01*
X84961400Y-119016550D01*
X84904250Y-119016550D01*
X84904250Y-116590850D01*
X84789950Y-116590850D01*
X84789950Y-119016550D01*
X84707400Y-119016550D01*
X84707400Y-116590850D01*
X84789950Y-116590850D01*
X84904250Y-116590850D01*
X84961400Y-116590850D01*
X85018550Y-116590850D01*
X85945650Y-116590850D01*
X86000759Y-116590850D01*
X85999516Y-116000300D01*
X85946429Y-116000300D01*
X85042087Y-116000300D01*
X85046232Y-115951266D01*
X85048225Y-115930486D01*
X85051619Y-115898399D01*
X85056259Y-115856303D01*
X85061994Y-115805497D01*
X85068670Y-115747278D01*
X85076133Y-115682945D01*
X85084230Y-115613795D01*
X85092809Y-115541127D01*
X85101717Y-115466238D01*
X85110799Y-115390426D01*
X85119903Y-115314990D01*
X85128876Y-115241228D01*
X85137564Y-115170436D01*
X85145815Y-115103915D01*
X85152461Y-115050975D01*
X85163714Y-114963142D01*
X85174019Y-114885191D01*
X85183318Y-114817516D01*
X85191551Y-114760510D01*
X85198661Y-114714566D01*
X85204588Y-114680079D01*
X85209275Y-114657441D01*
X85211769Y-114649709D01*
X85156798Y-114649709D01*
X85156636Y-114662055D01*
X85153297Y-114682868D01*
X85148492Y-114708075D01*
X85144206Y-114732818D01*
X85138439Y-114770115D01*
X85131199Y-114819910D01*
X85122493Y-114882142D01*
X85112329Y-114956755D01*
X85100715Y-115043690D01*
X85087659Y-115142890D01*
X85073169Y-115254296D01*
X85057252Y-115377851D01*
X85039916Y-115513496D01*
X85031307Y-115581200D01*
X85022357Y-115651471D01*
X85013819Y-115718096D01*
X85005834Y-115779995D01*
X84998544Y-115836083D01*
X84992092Y-115885279D01*
X84986619Y-115926501D01*
X84982268Y-115958667D01*
X84979182Y-115980695D01*
X84977501Y-115991501D01*
X84977304Y-115992362D01*
X84969067Y-115997500D01*
X84949807Y-116000064D01*
X84939375Y-116000300D01*
X84919243Y-115999833D01*
X84908732Y-115997600D01*
X84904771Y-115992353D01*
X84904252Y-115986012D01*
X84905421Y-115973143D01*
X84908518Y-115951945D01*
X84912927Y-115926534D01*
X84913985Y-115920925D01*
X84917254Y-115902313D01*
X84922017Y-115873052D01*
X84927978Y-115835063D01*
X84934843Y-115790270D01*
X84942314Y-115740596D01*
X84950096Y-115687963D01*
X84955015Y-115654225D01*
X84964406Y-115589679D01*
X84974086Y-115523640D01*
X84984251Y-115454803D01*
X84995095Y-115381867D01*
X85006815Y-115303527D01*
X85019604Y-115218482D01*
X85033659Y-115125429D01*
X85049174Y-115023064D01*
X85066345Y-114910086D01*
X85075347Y-114850950D01*
X85082342Y-114805109D01*
X85088878Y-114762454D01*
X85094661Y-114724884D01*
X85099398Y-114694298D01*
X85102796Y-114672597D01*
X85103757Y-114666638D01*
X85012299Y-114666638D01*
X85011956Y-114676986D01*
X85010103Y-114692186D01*
X85006555Y-114713535D01*
X85001124Y-114742331D01*
X84993622Y-114779869D01*
X84983863Y-114827447D01*
X84973736Y-114876350D01*
X84953637Y-114973815D01*
X84933023Y-115074847D01*
X84912240Y-115177688D01*
X84891636Y-115280581D01*
X84871557Y-115381769D01*
X84852350Y-115479496D01*
X84834362Y-115572003D01*
X84817940Y-115657535D01*
X84803430Y-115734334D01*
X84791180Y-115800643D01*
X84790094Y-115806625D01*
X84781674Y-115852802D01*
X84773878Y-115895074D01*
X84767020Y-115931778D01*
X84761412Y-115961248D01*
X84757370Y-115981822D01*
X84755207Y-115991837D01*
X84755052Y-115992362D01*
X84747458Y-115997646D01*
X84732490Y-116000244D01*
X84729825Y-116000300D01*
X84714148Y-115998731D01*
X84707918Y-115993020D01*
X84707400Y-115988923D01*
X84708601Y-115980888D01*
X84712064Y-115961471D01*
X84717577Y-115931745D01*
X84724933Y-115892785D01*
X84733920Y-115845664D01*
X84744328Y-115791459D01*
X84755948Y-115731241D01*
X84768569Y-115666087D01*
X84781982Y-115597070D01*
X84795976Y-115525265D01*
X84810341Y-115451745D01*
X84824868Y-115377586D01*
X84839346Y-115303861D01*
X84853566Y-115231645D01*
X84867317Y-115162012D01*
X84880389Y-115096036D01*
X84892573Y-115034792D01*
X84903658Y-114979354D01*
X84913434Y-114930797D01*
X84921691Y-114890194D01*
X84928220Y-114858620D01*
X84930180Y-114849326D01*
X84944557Y-114783862D01*
X84957221Y-114730862D01*
X84968164Y-114690351D01*
X84977379Y-114662355D01*
X84984858Y-114646902D01*
X84987613Y-114644072D01*
X84996597Y-114644903D01*
X85006146Y-114651741D01*
X85009207Y-114655313D01*
X85011320Y-114659846D01*
X85012299Y-114666638D01*
X85103757Y-114666638D01*
X85104500Y-114662037D01*
X85107912Y-114648689D01*
X85114777Y-114642830D01*
X85129319Y-114641417D01*
X85133138Y-114641400D01*
X85145557Y-114641587D01*
X85153274Y-114643621D01*
X85156798Y-114649709D01*
X85211769Y-114649709D01*
X85212594Y-114647153D01*
X85219623Y-114645747D01*
X85238003Y-114644478D01*
X85266384Y-114643382D01*
X85303419Y-114642493D01*
X85347757Y-114641846D01*
X85398050Y-114641475D01*
X85435007Y-114641400D01*
X85653865Y-114641400D01*
X85660707Y-114658862D01*
X85665383Y-114673712D01*
X85672360Y-114699938D01*
X85681407Y-114736472D01*
X85692296Y-114782243D01*
X85704796Y-114836183D01*
X85718679Y-114897222D01*
X85733714Y-114964290D01*
X85749674Y-115036320D01*
X85766327Y-115112241D01*
X85783445Y-115190984D01*
X85800798Y-115271480D01*
X85818156Y-115352660D01*
X85835291Y-115433454D01*
X85851973Y-115512793D01*
X85867973Y-115589608D01*
X85883060Y-115662830D01*
X85897006Y-115731389D01*
X85909581Y-115794216D01*
X85920556Y-115850242D01*
X85929701Y-115898398D01*
X85936787Y-115937614D01*
X85941584Y-115966821D01*
X85942073Y-115970137D01*
X85946429Y-116000300D01*
X85999516Y-116000300D01*
X85999495Y-115990775D01*
X85982304Y-115901875D01*
X85965574Y-115816631D01*
X85946642Y-115722608D01*
X85925308Y-115618814D01*
X85901366Y-115504257D01*
X85885423Y-115428800D01*
X85862207Y-115318752D01*
X85837341Y-115199850D01*
X85811572Y-115075711D01*
X85785649Y-114949954D01*
X85760318Y-114826196D01*
X85736328Y-114708054D01*
X85729343Y-114673449D01*
X85691651Y-114486424D01*
X85691650Y-114032294D01*
X85691650Y-113600000D01*
X85634500Y-113600000D01*
X85634500Y-114558850D01*
X85126500Y-114558850D01*
X85126500Y-113600000D01*
X85043950Y-113600000D01*
X85043950Y-114558850D01*
X84986800Y-114558850D01*
X84986800Y-113600000D01*
X85043950Y-113600000D01*
X85126500Y-113600000D01*
X85634500Y-113600000D01*
X85691650Y-113600000D01*
X85691650Y-113578164D01*
X85669145Y-113523291D01*
X85602750Y-113523291D01*
X85602750Y-113542850D01*
X85043950Y-113542850D01*
X85043950Y-113506178D01*
X85046257Y-113476101D01*
X85053231Y-113436047D01*
X85064953Y-113385706D01*
X85081504Y-113324768D01*
X85102964Y-113252926D01*
X85129413Y-113169868D01*
X85139808Y-113138259D01*
X85197056Y-112965443D01*
X85217341Y-112962033D01*
X85233489Y-112959643D01*
X85257467Y-112956468D01*
X85284487Y-112953139D01*
X85288425Y-112952675D01*
X85313831Y-112949913D01*
X85330093Y-112949265D01*
X85340671Y-112951254D01*
X85349021Y-112956401D01*
X85356174Y-112962909D01*
X85365359Y-112972942D01*
X85375134Y-112986497D01*
X85386167Y-113004859D01*
X85399126Y-113029314D01*
X85414681Y-113061147D01*
X85433500Y-113101645D01*
X85456251Y-113152093D01*
X85466250Y-113174550D01*
X85493388Y-113236452D01*
X85518576Y-113295431D01*
X85541348Y-113350296D01*
X85561237Y-113399854D01*
X85577776Y-113442911D01*
X85590497Y-113478276D01*
X85598935Y-113504755D01*
X85602623Y-113521157D01*
X85602750Y-113523291D01*
X85669145Y-113523291D01*
X85553538Y-113241419D01*
X85415425Y-112904675D01*
X85409350Y-112272850D01*
X85355100Y-112272850D01*
X85355100Y-112579766D01*
X85355015Y-112641019D01*
X85354772Y-112698372D01*
X85354386Y-112750579D01*
X85353876Y-112796394D01*
X85353257Y-112834572D01*
X85352548Y-112863869D01*
X85351764Y-112883037D01*
X85350924Y-112890832D01*
X85350867Y-112890916D01*
X85343253Y-112892509D01*
X85325480Y-112893828D01*
X85300088Y-112894748D01*
X85269616Y-112895143D01*
X85265142Y-112895150D01*
X85183650Y-112895150D01*
X85183650Y-112272850D01*
X85355100Y-112272850D01*
X85409350Y-112272850D01*
X85409075Y-112244275D01*
X85355101Y-112240369D01*
X85355101Y-112215700D01*
X85298062Y-112215700D01*
X85240800Y-112215700D01*
X85240800Y-111535519D01*
X85267788Y-111537472D01*
X85294775Y-111539425D01*
X85296419Y-111877562D01*
X85298062Y-112215700D01*
X85355101Y-112215700D01*
X85355100Y-111847034D01*
X85355100Y-111453700D01*
X85183650Y-111453700D01*
X85183650Y-112215700D01*
D12*
%TO.C,P1*%
X127660000Y-45450000D02*
X118460000Y-45450000D01*
X118460000Y-45450000D02*
X118460000Y-47400000D01*
X118460000Y-49050000D02*
X118460000Y-51350000D01*
X127660000Y-45450000D02*
X127660000Y-47400000D01*
X127660000Y-49050000D02*
X127660000Y-51350000D01*
D10*
%TO.C,C5*%
X121910000Y-120237221D02*
X121910000Y-120562779D01*
X120890000Y-120237221D02*
X120890000Y-120562779D01*
%TO.C,C3*%
X112990000Y-117737221D02*
X112990000Y-118062779D01*
X114010000Y-117737221D02*
X114010000Y-118062779D01*
%TO.C,C7*%
X115462779Y-112010000D02*
X115137221Y-112010000D01*
X115462779Y-110990000D02*
X115137221Y-110990000D01*
%TO.C,C8*%
X124490000Y-105962779D02*
X124490000Y-105637221D01*
X125510000Y-105962779D02*
X125510000Y-105637221D01*
%TO.C,C21*%
X127390000Y-107162779D02*
X127390000Y-106837221D01*
X128410000Y-107162779D02*
X128410000Y-106837221D01*
%TO.C,C30*%
X147460000Y-146487221D02*
X147460000Y-146812779D01*
X146440000Y-146487221D02*
X146440000Y-146812779D01*
%TO.C,C29*%
X128410000Y-146487221D02*
X128410000Y-146812779D01*
X127390000Y-146487221D02*
X127390000Y-146812779D01*
%TO.C,C28*%
X109360000Y-146487221D02*
X109360000Y-146812779D01*
X108340000Y-146487221D02*
X108340000Y-146812779D01*
%TO.C,C27*%
X90310000Y-146487221D02*
X90310000Y-146812779D01*
X89290000Y-146487221D02*
X89290000Y-146812779D01*
%TO.C,C26*%
X147460000Y-127437221D02*
X147460000Y-127762779D01*
X146440000Y-127437221D02*
X146440000Y-127762779D01*
%TO.C,C25*%
X128410000Y-127437221D02*
X128410000Y-127762779D01*
X127390000Y-127437221D02*
X127390000Y-127762779D01*
%TO.C,C24*%
X109360000Y-127437221D02*
X109360000Y-127762779D01*
X108340000Y-127437221D02*
X108340000Y-127762779D01*
%TO.C,C23*%
X90310000Y-127437221D02*
X90310000Y-127762779D01*
X89290000Y-127437221D02*
X89290000Y-127762779D01*
%TO.C,C22*%
X147460000Y-108387221D02*
X147460000Y-108712779D01*
X146440000Y-108387221D02*
X146440000Y-108712779D01*
%TO.C,C20*%
X109360000Y-108387221D02*
X109360000Y-108712779D01*
X108340000Y-108387221D02*
X108340000Y-108712779D01*
%TO.C,C19*%
X90310000Y-108387221D02*
X90310000Y-108712779D01*
X89290000Y-108387221D02*
X89290000Y-108712779D01*
%TO.C,C18*%
X147460000Y-89337221D02*
X147460000Y-89662779D01*
X146440000Y-89337221D02*
X146440000Y-89662779D01*
%TO.C,C17*%
X128410000Y-89337221D02*
X128410000Y-89662779D01*
X127390000Y-89337221D02*
X127390000Y-89662779D01*
%TO.C,C16*%
X109360000Y-89337221D02*
X109360000Y-89662779D01*
X108340000Y-89337221D02*
X108340000Y-89662779D01*
%TO.C,D9*%
X99665000Y-119185000D02*
X99665000Y-116900000D01*
X101135000Y-119185000D02*
X99665000Y-119185000D01*
X101135000Y-116900000D02*
X101135000Y-119185000D01*
%TO.C,D16*%
X156815000Y-138235000D02*
X156815000Y-135950000D01*
X158285000Y-138235000D02*
X156815000Y-138235000D01*
X158285000Y-135950000D02*
X158285000Y-138235000D01*
%TO.C,D15*%
X137765000Y-138235000D02*
X137765000Y-135950000D01*
X139235000Y-138235000D02*
X137765000Y-138235000D01*
X139235000Y-135950000D02*
X139235000Y-138235000D01*
%TO.C,D14*%
X118715000Y-138235000D02*
X118715000Y-135950000D01*
X120185000Y-138235000D02*
X118715000Y-138235000D01*
X120185000Y-135950000D02*
X120185000Y-138235000D01*
%TO.C,D13*%
X99665000Y-138235000D02*
X99665000Y-135950000D01*
X101135000Y-138235000D02*
X99665000Y-138235000D01*
X101135000Y-135950000D02*
X101135000Y-138235000D01*
%TO.C,D12*%
X156815000Y-119185000D02*
X156815000Y-116900000D01*
X158285000Y-119185000D02*
X156815000Y-119185000D01*
X158285000Y-116900000D02*
X158285000Y-119185000D01*
%TO.C,D11*%
X137765000Y-119185000D02*
X137765000Y-116900000D01*
X139235000Y-119185000D02*
X137765000Y-119185000D01*
X139235000Y-116900000D02*
X139235000Y-119185000D01*
%TO.C,D10*%
X117865000Y-120885000D02*
X117865000Y-118600000D01*
X119335000Y-120885000D02*
X117865000Y-120885000D01*
X119335000Y-118600000D02*
X119335000Y-120885000D01*
%TO.C,D8*%
X156815000Y-100135000D02*
X156815000Y-97850000D01*
X158285000Y-100135000D02*
X156815000Y-100135000D01*
X158285000Y-97850000D02*
X158285000Y-100135000D01*
%TO.C,D7*%
X137765000Y-100135000D02*
X137765000Y-97850000D01*
X139235000Y-100135000D02*
X137765000Y-100135000D01*
X139235000Y-97850000D02*
X139235000Y-100135000D01*
%TO.C,D6*%
X118715000Y-100135000D02*
X118715000Y-97850000D01*
X120185000Y-100135000D02*
X118715000Y-100135000D01*
X120185000Y-97850000D02*
X120185000Y-100135000D01*
%TO.C,D5*%
X99665000Y-100135000D02*
X99665000Y-97850000D01*
X101135000Y-100135000D02*
X99665000Y-100135000D01*
X101135000Y-97850000D02*
X101135000Y-100135000D01*
%TO.C,D4*%
X156815000Y-81085000D02*
X156815000Y-78800000D01*
X158285000Y-81085000D02*
X156815000Y-81085000D01*
X158285000Y-78800000D02*
X158285000Y-81085000D01*
%TO.C,D3*%
X137765000Y-81085000D02*
X137765000Y-78800000D01*
X139235000Y-81085000D02*
X137765000Y-81085000D01*
X139235000Y-78800000D02*
X139235000Y-81085000D01*
%TO.C,D2*%
X118715000Y-81085000D02*
X118715000Y-78800000D01*
X120185000Y-81085000D02*
X118715000Y-81085000D01*
X120185000Y-78800000D02*
X120185000Y-81085000D01*
%TO.C,Y1*%
X109725000Y-117975000D02*
X111075000Y-117975000D01*
X109725000Y-116225000D02*
X111075000Y-116225000D01*
%TO.C,C31*%
X101825000Y-74619221D02*
X101825000Y-74944779D01*
X100805000Y-74619221D02*
X100805000Y-74944779D01*
%TO.C,SW1*%
X97886000Y-77885000D02*
X91426000Y-77885000D01*
X97886000Y-73355000D02*
X97886000Y-75955000D01*
X97886000Y-71425000D02*
X91426000Y-71425000D01*
X91426000Y-73355000D02*
X91426000Y-75955000D01*
X97886000Y-71455000D02*
X97886000Y-71425000D01*
X97886000Y-77885000D02*
X97886000Y-77855000D01*
X91426000Y-77885000D02*
X91426000Y-77855000D01*
X91426000Y-71425000D02*
X91426000Y-71455000D01*
%TO.C,R5*%
X125310000Y-59558221D02*
X125310000Y-59883779D01*
X124290000Y-59558221D02*
X124290000Y-59883779D01*
%TO.C,C13*%
X114058578Y-67010000D02*
X113541422Y-67010000D01*
X114058578Y-65590000D02*
X113541422Y-65590000D01*
%TO.C,C10*%
X109961422Y-62380000D02*
X110478578Y-62380000D01*
X109961422Y-63800000D02*
X110478578Y-63800000D01*
D13*
%TO.C,D35*%
X147950000Y-145310000D02*
X147950000Y-145710000D01*
X148350000Y-145310000D02*
X147950000Y-145310000D01*
%TO.C,D34*%
X128900000Y-145310000D02*
X128900000Y-145710000D01*
X129300000Y-145310000D02*
X128900000Y-145310000D01*
%TO.C,D33*%
X109850000Y-145310000D02*
X109850000Y-145710000D01*
X110250000Y-145310000D02*
X109850000Y-145310000D01*
%TO.C,D32*%
X90800000Y-145310000D02*
X90800000Y-145710000D01*
X91200000Y-145310000D02*
X90800000Y-145310000D01*
%TO.C,D31*%
X147950000Y-126260000D02*
X147950000Y-126660000D01*
X148350000Y-126260000D02*
X147950000Y-126260000D01*
%TO.C,D30*%
X128900000Y-126260000D02*
X128900000Y-126660000D01*
X129300000Y-126260000D02*
X128900000Y-126260000D01*
%TO.C,D29*%
X109850000Y-126260000D02*
X109850000Y-126660000D01*
X110250000Y-126260000D02*
X109850000Y-126260000D01*
%TO.C,D28*%
X90800000Y-126260000D02*
X90800000Y-126660000D01*
X91200000Y-126260000D02*
X90800000Y-126260000D01*
%TO.C,D27*%
X147950000Y-107210000D02*
X147950000Y-107610000D01*
X148350000Y-107210000D02*
X147950000Y-107210000D01*
%TO.C,D26*%
X128900000Y-107210000D02*
X128900000Y-107610000D01*
X129300000Y-107210000D02*
X128900000Y-107210000D01*
%TO.C,D25*%
X109850000Y-107210000D02*
X109850000Y-107610000D01*
X110250000Y-107210000D02*
X109850000Y-107210000D01*
%TO.C,D24*%
X90800000Y-107210000D02*
X90800000Y-107610000D01*
X91200000Y-107210000D02*
X90800000Y-107210000D01*
%TO.C,D23*%
X147950000Y-88160000D02*
X147950000Y-88560000D01*
X148350000Y-88160000D02*
X147950000Y-88160000D01*
%TO.C,D22*%
X128900000Y-88160000D02*
X128900000Y-88560000D01*
X129300000Y-88160000D02*
X128900000Y-88160000D01*
%TO.C,D21*%
X109850000Y-88160000D02*
X109850000Y-88560000D01*
X110250000Y-88160000D02*
X109850000Y-88160000D01*
%TO.C,D20*%
X90800000Y-88160000D02*
X90800000Y-88560000D01*
X91200000Y-88160000D02*
X90800000Y-88160000D01*
D10*
%TO.C,X1*%
X102350000Y-115950000D02*
X102350000Y-110650000D01*
X106050000Y-115950000D02*
X102350000Y-115950000D01*
%TO.C,U3*%
X132900000Y-58410000D02*
X130450000Y-58410000D01*
X131100000Y-55190000D02*
X132900000Y-55190000D01*
%TO.C,U2*%
X116610000Y-60100000D02*
X116610000Y-54090000D01*
X109790000Y-57850000D02*
X109790000Y-54090000D01*
X116610000Y-54090000D02*
X115350000Y-54090000D01*
X109790000Y-54090000D02*
X111050000Y-54090000D01*
%TO.C,U1*%
X119380000Y-116160000D02*
X118090000Y-116160000D01*
X119380000Y-116610000D02*
X119380000Y-116160000D01*
X119830000Y-116610000D02*
X119380000Y-116610000D01*
X126600000Y-116610000D02*
X126600000Y-116160000D01*
X126150000Y-116610000D02*
X126600000Y-116610000D01*
X119380000Y-109390000D02*
X119380000Y-109840000D01*
X119830000Y-109390000D02*
X119380000Y-109390000D01*
X126600000Y-109390000D02*
X126600000Y-109840000D01*
X126150000Y-109390000D02*
X126600000Y-109390000D01*
%TO.C,R9*%
X123290000Y-101662779D02*
X123290000Y-101337221D01*
X124310000Y-101662779D02*
X124310000Y-101337221D01*
%TO.C,R8*%
X123061000Y-123225779D02*
X123061000Y-122900221D01*
X124081000Y-123225779D02*
X124081000Y-122900221D01*
%TO.C,R7*%
X110249721Y-111190000D02*
X110575279Y-111190000D01*
X110249721Y-112210000D02*
X110575279Y-112210000D01*
%TO.C,R6*%
X141386779Y-115191000D02*
X141061221Y-115191000D01*
X141386779Y-114171000D02*
X141061221Y-114171000D01*
%TO.C,R4*%
X121290000Y-59883779D02*
X121290000Y-59558221D01*
X122310000Y-59883779D02*
X122310000Y-59558221D01*
%TO.C,R3*%
X102805000Y-74944779D02*
X102805000Y-74619221D01*
X103825000Y-74944779D02*
X103825000Y-74619221D01*
%TO.C,JP2*%
X155133000Y-115380000D02*
X155133000Y-111280000D01*
X155133000Y-111280000D02*
X153133000Y-111280000D01*
X153133000Y-111280000D02*
X153133000Y-115380000D01*
X153133000Y-115380000D02*
X155133000Y-115380000D01*
X152933000Y-114630000D02*
X152633000Y-114930000D01*
X152633000Y-114930000D02*
X152633000Y-114330000D01*
X152933000Y-114630000D02*
X152633000Y-114330000D01*
%TO.C,JP1*%
X151333000Y-115380000D02*
X151333000Y-111280000D01*
X151333000Y-111280000D02*
X149333000Y-111280000D01*
X149333000Y-111280000D02*
X149333000Y-115380000D01*
X149333000Y-115380000D02*
X151333000Y-115380000D01*
X149133000Y-114630000D02*
X148833000Y-114930000D01*
X148833000Y-114930000D02*
X148833000Y-114330000D01*
X149133000Y-114630000D02*
X148833000Y-114330000D01*
%TO.C,D19*%
X157265000Y-71585000D02*
X157265000Y-69300000D01*
X158735000Y-71585000D02*
X157265000Y-71585000D01*
X158735000Y-69300000D02*
X158735000Y-71585000D01*
%TO.C,D18*%
X87403000Y-71585000D02*
X87403000Y-69300000D01*
X88873000Y-71585000D02*
X87403000Y-71585000D01*
X88873000Y-69300000D02*
X88873000Y-71585000D01*
%TO.C,D1*%
X99665000Y-81085000D02*
X99665000Y-78800000D01*
X101135000Y-81085000D02*
X99665000Y-81085000D01*
X101135000Y-78800000D02*
X101135000Y-81085000D01*
%TO.C,C15*%
X90310000Y-89337221D02*
X90310000Y-89662779D01*
X89290000Y-89337221D02*
X89290000Y-89662779D01*
%TO.C,C14*%
X113962779Y-63610000D02*
X113637221Y-63610000D01*
X113962779Y-62590000D02*
X113637221Y-62590000D01*
%TO.C,C12*%
X107410000Y-117737221D02*
X107410000Y-118062779D01*
X106390000Y-117737221D02*
X106390000Y-118062779D01*
%TO.C,C11*%
X130290000Y-117262779D02*
X130290000Y-116937221D01*
X131310000Y-117262779D02*
X131310000Y-116937221D01*
%TO.C,C9*%
X129610000Y-116937221D02*
X129610000Y-117262779D01*
X128590000Y-116937221D02*
X128590000Y-117262779D01*
%TO.C,C4*%
X110024721Y-65790000D02*
X110350279Y-65790000D01*
X110024721Y-66810000D02*
X110350279Y-66810000D01*
%TO.C,C2*%
X104562779Y-109810000D02*
X104237221Y-109810000D01*
X104562779Y-108790000D02*
X104237221Y-108790000D01*
%TO.C,C1*%
X104510000Y-117837221D02*
X104510000Y-118162779D01*
X103490000Y-117837221D02*
X103490000Y-118162779D01*
%TO.C,C6*%
D12*
X113607142Y-115403333D02*
X113654761Y-115355714D01*
X113702380Y-115212857D01*
X113702380Y-115117619D01*
X113654761Y-114974761D01*
X113559523Y-114879523D01*
X113464285Y-114831904D01*
X113273809Y-114784285D01*
X113130952Y-114784285D01*
X112940476Y-114831904D01*
X112845238Y-114879523D01*
X112750000Y-114974761D01*
X112702380Y-115117619D01*
X112702380Y-115212857D01*
X112750000Y-115355714D01*
X112797619Y-115403333D01*
X112702380Y-116260476D02*
X112702380Y-116070000D01*
X112750000Y-115974761D01*
X112797619Y-115927142D01*
X112940476Y-115831904D01*
X113130952Y-115784285D01*
X113511904Y-115784285D01*
X113607142Y-115831904D01*
X113654761Y-115879523D01*
X113702380Y-115974761D01*
X113702380Y-116165238D01*
X113654761Y-116260476D01*
X113607142Y-116308095D01*
X113511904Y-116355714D01*
X113273809Y-116355714D01*
X113178571Y-116308095D01*
X113130952Y-116260476D01*
X113083333Y-116165238D01*
X113083333Y-115974761D01*
X113130952Y-115879523D01*
X113178571Y-115831904D01*
X113273809Y-115784285D01*
%TO.C,R2*%
X136471619Y-115555666D02*
X136947809Y-115889000D01*
X136471619Y-116127095D02*
X137471619Y-116127095D01*
X137471619Y-115746142D01*
X137424000Y-115650904D01*
X137376380Y-115603285D01*
X137281142Y-115555666D01*
X137138285Y-115555666D01*
X137043047Y-115603285D01*
X136995428Y-115650904D01*
X136947809Y-115746142D01*
X136947809Y-116127095D01*
X137376380Y-115174714D02*
X137424000Y-115127095D01*
X137471619Y-115031857D01*
X137471619Y-114793761D01*
X137424000Y-114698523D01*
X137376380Y-114650904D01*
X137281142Y-114603285D01*
X137185904Y-114603285D01*
X137043047Y-114650904D01*
X136471619Y-115222333D01*
X136471619Y-114603285D01*
%TO.C,R1*%
X136471619Y-112755666D02*
X136947809Y-113089000D01*
X136471619Y-113327095D02*
X137471619Y-113327095D01*
X137471619Y-112946142D01*
X137424000Y-112850904D01*
X137376380Y-112803285D01*
X137281142Y-112755666D01*
X137138285Y-112755666D01*
X137043047Y-112803285D01*
X136995428Y-112850904D01*
X136947809Y-112946142D01*
X136947809Y-113327095D01*
X136471619Y-111803285D02*
X136471619Y-112374714D01*
X136471619Y-112089000D02*
X137471619Y-112089000D01*
X137328761Y-112184238D01*
X137233523Y-112279476D01*
X137185904Y-112374714D01*
%TO.C,D17*%
X107452380Y-54685714D02*
X106452380Y-54685714D01*
X106452380Y-54923809D01*
X106500000Y-55066666D01*
X106595238Y-55161904D01*
X106690476Y-55209523D01*
X106880952Y-55257142D01*
X107023809Y-55257142D01*
X107214285Y-55209523D01*
X107309523Y-55161904D01*
X107404761Y-55066666D01*
X107452380Y-54923809D01*
X107452380Y-54685714D01*
X107452380Y-56209523D02*
X107452380Y-55638095D01*
X107452380Y-55923809D02*
X106452380Y-55923809D01*
X106595238Y-55828571D01*
X106690476Y-55733333D01*
X106738095Y-55638095D01*
X106452380Y-56542857D02*
X106452380Y-57209523D01*
X107452380Y-56780952D01*
%TO.C,REF\u002A\u002A*%
X83452380Y-89328571D02*
X82976190Y-88995238D01*
X83452380Y-88757142D02*
X82452380Y-88757142D01*
X82452380Y-89138095D01*
X82500000Y-89233333D01*
X82547619Y-89280952D01*
X82642857Y-89328571D01*
X82785714Y-89328571D01*
X82880952Y-89280952D01*
X82928571Y-89233333D01*
X82976190Y-89138095D01*
X82976190Y-88757142D01*
X83404761Y-90138095D02*
X83452380Y-90042857D01*
X83452380Y-89852380D01*
X83404761Y-89757142D01*
X83309523Y-89709523D01*
X82928571Y-89709523D01*
X82833333Y-89757142D01*
X82785714Y-89852380D01*
X82785714Y-90042857D01*
X82833333Y-90138095D01*
X82928571Y-90185714D01*
X83023809Y-90185714D01*
X83119047Y-89709523D01*
X82785714Y-90519047D02*
X83452380Y-90757142D01*
X82785714Y-90995238D01*
X83452380Y-92661904D02*
X83452380Y-92090476D01*
X83452380Y-92376190D02*
X82452380Y-92376190D01*
X82595238Y-92280952D01*
X82690476Y-92185714D01*
X82738095Y-92090476D01*
X83357142Y-93090476D02*
X83404761Y-93138095D01*
X83452380Y-93090476D01*
X83404761Y-93042857D01*
X83357142Y-93090476D01*
X83452380Y-93090476D01*
X83452380Y-94090476D02*
X83452380Y-93519047D01*
X83452380Y-93804761D02*
X82452380Y-93804761D01*
X82595238Y-93709523D01*
X82690476Y-93614285D01*
X82738095Y-93519047D01*
D14*
X85178571Y-89828571D02*
X84464285Y-89328571D01*
X85178571Y-88971428D02*
X83678571Y-88971428D01*
X83678571Y-89542857D01*
X83750000Y-89685714D01*
X83821428Y-89757142D01*
X83964285Y-89828571D01*
X84178571Y-89828571D01*
X84321428Y-89757142D01*
X84392857Y-89685714D01*
X84464285Y-89542857D01*
X84464285Y-88971428D01*
X85178571Y-90685714D02*
X85107142Y-90542857D01*
X85035714Y-90471428D01*
X84892857Y-90400000D01*
X84464285Y-90400000D01*
X84321428Y-90471428D01*
X84250000Y-90542857D01*
X84178571Y-90685714D01*
X84178571Y-90900000D01*
X84250000Y-91042857D01*
X84321428Y-91114285D01*
X84464285Y-91185714D01*
X84892857Y-91185714D01*
X85035714Y-91114285D01*
X85107142Y-91042857D01*
X85178571Y-90900000D01*
X85178571Y-90685714D01*
X85107142Y-92471428D02*
X85178571Y-92328571D01*
X85178571Y-92042857D01*
X85107142Y-91900000D01*
X85035714Y-91828571D01*
X84892857Y-91757142D01*
X84464285Y-91757142D01*
X84321428Y-91828571D01*
X84250000Y-91900000D01*
X84178571Y-92042857D01*
X84178571Y-92328571D01*
X84250000Y-92471428D01*
X85178571Y-93114285D02*
X83678571Y-93114285D01*
X84607142Y-93257142D02*
X85178571Y-93685714D01*
X84178571Y-93685714D02*
X84750000Y-93114285D01*
X85107142Y-94900000D02*
X85178571Y-94757142D01*
X85178571Y-94471428D01*
X85107142Y-94328571D01*
X84964285Y-94257142D01*
X84392857Y-94257142D01*
X84250000Y-94328571D01*
X84178571Y-94471428D01*
X84178571Y-94757142D01*
X84250000Y-94900000D01*
X84392857Y-94971428D01*
X84535714Y-94971428D01*
X84678571Y-94257142D01*
X84178571Y-95400000D02*
X84178571Y-95971428D01*
X83678571Y-95614285D02*
X84964285Y-95614285D01*
X85107142Y-95685714D01*
X85178571Y-95828571D01*
X85178571Y-95971428D01*
X85178571Y-96471428D02*
X83678571Y-96471428D01*
X84250000Y-96471428D02*
X84178571Y-96614285D01*
X84178571Y-96900000D01*
X84250000Y-97042857D01*
X84321428Y-97114285D01*
X84464285Y-97185714D01*
X84892857Y-97185714D01*
X85035714Y-97114285D01*
X85107142Y-97042857D01*
X85178571Y-96900000D01*
X85178571Y-96614285D01*
X85107142Y-96471428D01*
X85178571Y-98042857D02*
X85107142Y-97900000D01*
X85035714Y-97828571D01*
X84892857Y-97757142D01*
X84464285Y-97757142D01*
X84321428Y-97828571D01*
X84250000Y-97900000D01*
X84178571Y-98042857D01*
X84178571Y-98257142D01*
X84250000Y-98400000D01*
X84321428Y-98471428D01*
X84464285Y-98542857D01*
X84892857Y-98542857D01*
X85035714Y-98471428D01*
X85107142Y-98400000D01*
X85178571Y-98257142D01*
X85178571Y-98042857D01*
X85178571Y-99828571D02*
X84392857Y-99828571D01*
X84250000Y-99757142D01*
X84178571Y-99614285D01*
X84178571Y-99328571D01*
X84250000Y-99185714D01*
X85107142Y-99828571D02*
X85178571Y-99685714D01*
X85178571Y-99328571D01*
X85107142Y-99185714D01*
X84964285Y-99114285D01*
X84821428Y-99114285D01*
X84678571Y-99185714D01*
X84607142Y-99328571D01*
X84607142Y-99685714D01*
X84535714Y-99828571D01*
X85178571Y-100542857D02*
X84178571Y-100542857D01*
X84464285Y-100542857D02*
X84321428Y-100614285D01*
X84250000Y-100685714D01*
X84178571Y-100828571D01*
X84178571Y-100971428D01*
X85178571Y-102114285D02*
X83678571Y-102114285D01*
X85107142Y-102114285D02*
X85178571Y-101971428D01*
X85178571Y-101685714D01*
X85107142Y-101542857D01*
X85035714Y-101471428D01*
X84892857Y-101400000D01*
X84464285Y-101400000D01*
X84321428Y-101471428D01*
X84250000Y-101542857D01*
X84178571Y-101685714D01*
X84178571Y-101971428D01*
X84250000Y-102114285D01*
X84607142Y-102828571D02*
X84607142Y-103971428D01*
X85178571Y-105471428D02*
X85178571Y-104614285D01*
X85178571Y-105042857D02*
X83678571Y-105042857D01*
X83892857Y-104900000D01*
X84035714Y-104757142D01*
X84107142Y-104614285D01*
X83678571Y-106757142D02*
X83678571Y-106471428D01*
X83750000Y-106328571D01*
X83821428Y-106257142D01*
X84035714Y-106114285D01*
X84321428Y-106042857D01*
X84892857Y-106042857D01*
X85035714Y-106114285D01*
X85107142Y-106185714D01*
X85178571Y-106328571D01*
X85178571Y-106614285D01*
X85107142Y-106757142D01*
X85035714Y-106828571D01*
X84892857Y-106900000D01*
X84535714Y-106900000D01*
X84392857Y-106828571D01*
X84321428Y-106757142D01*
X84250000Y-106614285D01*
X84250000Y-106328571D01*
X84321428Y-106185714D01*
X84392857Y-106114285D01*
X84535714Y-106042857D01*
%TO.C,P1*%
D12*
X123798095Y-55902380D02*
X123798095Y-54902380D01*
X123417142Y-54902380D01*
X123321904Y-54950000D01*
X123274285Y-54997619D01*
X123226666Y-55092857D01*
X123226666Y-55235714D01*
X123274285Y-55330952D01*
X123321904Y-55378571D01*
X123417142Y-55426190D01*
X123798095Y-55426190D01*
X122274285Y-55902380D02*
X122845714Y-55902380D01*
X122560000Y-55902380D02*
X122560000Y-54902380D01*
X122655238Y-55045238D01*
X122750476Y-55140476D01*
X122845714Y-55188095D01*
%TO.C,C5*%
X123257142Y-120233333D02*
X123304761Y-120185714D01*
X123352380Y-120042857D01*
X123352380Y-119947619D01*
X123304761Y-119804761D01*
X123209523Y-119709523D01*
X123114285Y-119661904D01*
X122923809Y-119614285D01*
X122780952Y-119614285D01*
X122590476Y-119661904D01*
X122495238Y-119709523D01*
X122400000Y-119804761D01*
X122352380Y-119947619D01*
X122352380Y-120042857D01*
X122400000Y-120185714D01*
X122447619Y-120233333D01*
X122352380Y-121138095D02*
X122352380Y-120661904D01*
X122828571Y-120614285D01*
X122780952Y-120661904D01*
X122733333Y-120757142D01*
X122733333Y-120995238D01*
X122780952Y-121090476D01*
X122828571Y-121138095D01*
X122923809Y-121185714D01*
X123161904Y-121185714D01*
X123257142Y-121138095D01*
X123304761Y-121090476D01*
X123352380Y-120995238D01*
X123352380Y-120757142D01*
X123304761Y-120661904D01*
X123257142Y-120614285D01*
%TO.C,C3*%
X112166666Y-120257142D02*
X112214285Y-120304761D01*
X112357142Y-120352380D01*
X112452380Y-120352380D01*
X112595238Y-120304761D01*
X112690476Y-120209523D01*
X112738095Y-120114285D01*
X112785714Y-119923809D01*
X112785714Y-119780952D01*
X112738095Y-119590476D01*
X112690476Y-119495238D01*
X112595238Y-119400000D01*
X112452380Y-119352380D01*
X112357142Y-119352380D01*
X112214285Y-119400000D01*
X112166666Y-119447619D01*
X111833333Y-119352380D02*
X111214285Y-119352380D01*
X111547619Y-119733333D01*
X111404761Y-119733333D01*
X111309523Y-119780952D01*
X111261904Y-119828571D01*
X111214285Y-119923809D01*
X111214285Y-120161904D01*
X111261904Y-120257142D01*
X111309523Y-120304761D01*
X111404761Y-120352380D01*
X111690476Y-120352380D01*
X111785714Y-120304761D01*
X111833333Y-120257142D01*
%TO.C,C7*%
X115466666Y-113357142D02*
X115514285Y-113404761D01*
X115657142Y-113452380D01*
X115752380Y-113452380D01*
X115895238Y-113404761D01*
X115990476Y-113309523D01*
X116038095Y-113214285D01*
X116085714Y-113023809D01*
X116085714Y-112880952D01*
X116038095Y-112690476D01*
X115990476Y-112595238D01*
X115895238Y-112500000D01*
X115752380Y-112452380D01*
X115657142Y-112452380D01*
X115514285Y-112500000D01*
X115466666Y-112547619D01*
X115133333Y-112452380D02*
X114466666Y-112452380D01*
X114895238Y-113452380D01*
%TO.C,C8*%
X123857142Y-105633333D02*
X123904761Y-105585714D01*
X123952380Y-105442857D01*
X123952380Y-105347619D01*
X123904761Y-105204761D01*
X123809523Y-105109523D01*
X123714285Y-105061904D01*
X123523809Y-105014285D01*
X123380952Y-105014285D01*
X123190476Y-105061904D01*
X123095238Y-105109523D01*
X123000000Y-105204761D01*
X122952380Y-105347619D01*
X122952380Y-105442857D01*
X123000000Y-105585714D01*
X123047619Y-105633333D01*
X123380952Y-106204761D02*
X123333333Y-106109523D01*
X123285714Y-106061904D01*
X123190476Y-106014285D01*
X123142857Y-106014285D01*
X123047619Y-106061904D01*
X123000000Y-106109523D01*
X122952380Y-106204761D01*
X122952380Y-106395238D01*
X123000000Y-106490476D01*
X123047619Y-106538095D01*
X123142857Y-106585714D01*
X123190476Y-106585714D01*
X123285714Y-106538095D01*
X123333333Y-106490476D01*
X123380952Y-106395238D01*
X123380952Y-106204761D01*
X123428571Y-106109523D01*
X123476190Y-106061904D01*
X123571428Y-106014285D01*
X123761904Y-106014285D01*
X123857142Y-106061904D01*
X123904761Y-106109523D01*
X123952380Y-106204761D01*
X123952380Y-106395238D01*
X123904761Y-106490476D01*
X123857142Y-106538095D01*
X123761904Y-106585714D01*
X123571428Y-106585714D01*
X123476190Y-106538095D01*
X123428571Y-106490476D01*
X123380952Y-106395238D01*
%TO.C,C21*%
X126757142Y-105357142D02*
X126804761Y-105309523D01*
X126852380Y-105166666D01*
X126852380Y-105071428D01*
X126804761Y-104928571D01*
X126709523Y-104833333D01*
X126614285Y-104785714D01*
X126423809Y-104738095D01*
X126280952Y-104738095D01*
X126090476Y-104785714D01*
X125995238Y-104833333D01*
X125900000Y-104928571D01*
X125852380Y-105071428D01*
X125852380Y-105166666D01*
X125900000Y-105309523D01*
X125947619Y-105357142D01*
X125947619Y-105738095D02*
X125900000Y-105785714D01*
X125852380Y-105880952D01*
X125852380Y-106119047D01*
X125900000Y-106214285D01*
X125947619Y-106261904D01*
X126042857Y-106309523D01*
X126138095Y-106309523D01*
X126280952Y-106261904D01*
X126852380Y-105690476D01*
X126852380Y-106309523D01*
X126852380Y-107261904D02*
X126852380Y-106690476D01*
X126852380Y-106976190D02*
X125852380Y-106976190D01*
X125995238Y-106880952D01*
X126090476Y-106785714D01*
X126138095Y-106690476D01*
%TO.C,C30*%
X145877142Y-146007142D02*
X145924761Y-145959523D01*
X145972380Y-145816666D01*
X145972380Y-145721428D01*
X145924761Y-145578571D01*
X145829523Y-145483333D01*
X145734285Y-145435714D01*
X145543809Y-145388095D01*
X145400952Y-145388095D01*
X145210476Y-145435714D01*
X145115238Y-145483333D01*
X145020000Y-145578571D01*
X144972380Y-145721428D01*
X144972380Y-145816666D01*
X145020000Y-145959523D01*
X145067619Y-146007142D01*
X144972380Y-146340476D02*
X144972380Y-146959523D01*
X145353333Y-146626190D01*
X145353333Y-146769047D01*
X145400952Y-146864285D01*
X145448571Y-146911904D01*
X145543809Y-146959523D01*
X145781904Y-146959523D01*
X145877142Y-146911904D01*
X145924761Y-146864285D01*
X145972380Y-146769047D01*
X145972380Y-146483333D01*
X145924761Y-146388095D01*
X145877142Y-146340476D01*
X144972380Y-147578571D02*
X144972380Y-147673809D01*
X145020000Y-147769047D01*
X145067619Y-147816666D01*
X145162857Y-147864285D01*
X145353333Y-147911904D01*
X145591428Y-147911904D01*
X145781904Y-147864285D01*
X145877142Y-147816666D01*
X145924761Y-147769047D01*
X145972380Y-147673809D01*
X145972380Y-147578571D01*
X145924761Y-147483333D01*
X145877142Y-147435714D01*
X145781904Y-147388095D01*
X145591428Y-147340476D01*
X145353333Y-147340476D01*
X145162857Y-147388095D01*
X145067619Y-147435714D01*
X145020000Y-147483333D01*
X144972380Y-147578571D01*
%TO.C,C29*%
X126827142Y-146007142D02*
X126874761Y-145959523D01*
X126922380Y-145816666D01*
X126922380Y-145721428D01*
X126874761Y-145578571D01*
X126779523Y-145483333D01*
X126684285Y-145435714D01*
X126493809Y-145388095D01*
X126350952Y-145388095D01*
X126160476Y-145435714D01*
X126065238Y-145483333D01*
X125970000Y-145578571D01*
X125922380Y-145721428D01*
X125922380Y-145816666D01*
X125970000Y-145959523D01*
X126017619Y-146007142D01*
X126017619Y-146388095D02*
X125970000Y-146435714D01*
X125922380Y-146530952D01*
X125922380Y-146769047D01*
X125970000Y-146864285D01*
X126017619Y-146911904D01*
X126112857Y-146959523D01*
X126208095Y-146959523D01*
X126350952Y-146911904D01*
X126922380Y-146340476D01*
X126922380Y-146959523D01*
X126922380Y-147435714D02*
X126922380Y-147626190D01*
X126874761Y-147721428D01*
X126827142Y-147769047D01*
X126684285Y-147864285D01*
X126493809Y-147911904D01*
X126112857Y-147911904D01*
X126017619Y-147864285D01*
X125970000Y-147816666D01*
X125922380Y-147721428D01*
X125922380Y-147530952D01*
X125970000Y-147435714D01*
X126017619Y-147388095D01*
X126112857Y-147340476D01*
X126350952Y-147340476D01*
X126446190Y-147388095D01*
X126493809Y-147435714D01*
X126541428Y-147530952D01*
X126541428Y-147721428D01*
X126493809Y-147816666D01*
X126446190Y-147864285D01*
X126350952Y-147911904D01*
%TO.C,C28*%
X107777142Y-146007142D02*
X107824761Y-145959523D01*
X107872380Y-145816666D01*
X107872380Y-145721428D01*
X107824761Y-145578571D01*
X107729523Y-145483333D01*
X107634285Y-145435714D01*
X107443809Y-145388095D01*
X107300952Y-145388095D01*
X107110476Y-145435714D01*
X107015238Y-145483333D01*
X106920000Y-145578571D01*
X106872380Y-145721428D01*
X106872380Y-145816666D01*
X106920000Y-145959523D01*
X106967619Y-146007142D01*
X106967619Y-146388095D02*
X106920000Y-146435714D01*
X106872380Y-146530952D01*
X106872380Y-146769047D01*
X106920000Y-146864285D01*
X106967619Y-146911904D01*
X107062857Y-146959523D01*
X107158095Y-146959523D01*
X107300952Y-146911904D01*
X107872380Y-146340476D01*
X107872380Y-146959523D01*
X107300952Y-147530952D02*
X107253333Y-147435714D01*
X107205714Y-147388095D01*
X107110476Y-147340476D01*
X107062857Y-147340476D01*
X106967619Y-147388095D01*
X106920000Y-147435714D01*
X106872380Y-147530952D01*
X106872380Y-147721428D01*
X106920000Y-147816666D01*
X106967619Y-147864285D01*
X107062857Y-147911904D01*
X107110476Y-147911904D01*
X107205714Y-147864285D01*
X107253333Y-147816666D01*
X107300952Y-147721428D01*
X107300952Y-147530952D01*
X107348571Y-147435714D01*
X107396190Y-147388095D01*
X107491428Y-147340476D01*
X107681904Y-147340476D01*
X107777142Y-147388095D01*
X107824761Y-147435714D01*
X107872380Y-147530952D01*
X107872380Y-147721428D01*
X107824761Y-147816666D01*
X107777142Y-147864285D01*
X107681904Y-147911904D01*
X107491428Y-147911904D01*
X107396190Y-147864285D01*
X107348571Y-147816666D01*
X107300952Y-147721428D01*
%TO.C,C27*%
X88727142Y-146007142D02*
X88774761Y-145959523D01*
X88822380Y-145816666D01*
X88822380Y-145721428D01*
X88774761Y-145578571D01*
X88679523Y-145483333D01*
X88584285Y-145435714D01*
X88393809Y-145388095D01*
X88250952Y-145388095D01*
X88060476Y-145435714D01*
X87965238Y-145483333D01*
X87870000Y-145578571D01*
X87822380Y-145721428D01*
X87822380Y-145816666D01*
X87870000Y-145959523D01*
X87917619Y-146007142D01*
X87917619Y-146388095D02*
X87870000Y-146435714D01*
X87822380Y-146530952D01*
X87822380Y-146769047D01*
X87870000Y-146864285D01*
X87917619Y-146911904D01*
X88012857Y-146959523D01*
X88108095Y-146959523D01*
X88250952Y-146911904D01*
X88822380Y-146340476D01*
X88822380Y-146959523D01*
X87822380Y-147292857D02*
X87822380Y-147959523D01*
X88822380Y-147530952D01*
%TO.C,C26*%
X145877142Y-126957142D02*
X145924761Y-126909523D01*
X145972380Y-126766666D01*
X145972380Y-126671428D01*
X145924761Y-126528571D01*
X145829523Y-126433333D01*
X145734285Y-126385714D01*
X145543809Y-126338095D01*
X145400952Y-126338095D01*
X145210476Y-126385714D01*
X145115238Y-126433333D01*
X145020000Y-126528571D01*
X144972380Y-126671428D01*
X144972380Y-126766666D01*
X145020000Y-126909523D01*
X145067619Y-126957142D01*
X145067619Y-127338095D02*
X145020000Y-127385714D01*
X144972380Y-127480952D01*
X144972380Y-127719047D01*
X145020000Y-127814285D01*
X145067619Y-127861904D01*
X145162857Y-127909523D01*
X145258095Y-127909523D01*
X145400952Y-127861904D01*
X145972380Y-127290476D01*
X145972380Y-127909523D01*
X144972380Y-128766666D02*
X144972380Y-128576190D01*
X145020000Y-128480952D01*
X145067619Y-128433333D01*
X145210476Y-128338095D01*
X145400952Y-128290476D01*
X145781904Y-128290476D01*
X145877142Y-128338095D01*
X145924761Y-128385714D01*
X145972380Y-128480952D01*
X145972380Y-128671428D01*
X145924761Y-128766666D01*
X145877142Y-128814285D01*
X145781904Y-128861904D01*
X145543809Y-128861904D01*
X145448571Y-128814285D01*
X145400952Y-128766666D01*
X145353333Y-128671428D01*
X145353333Y-128480952D01*
X145400952Y-128385714D01*
X145448571Y-128338095D01*
X145543809Y-128290476D01*
%TO.C,C25*%
X126827142Y-126957142D02*
X126874761Y-126909523D01*
X126922380Y-126766666D01*
X126922380Y-126671428D01*
X126874761Y-126528571D01*
X126779523Y-126433333D01*
X126684285Y-126385714D01*
X126493809Y-126338095D01*
X126350952Y-126338095D01*
X126160476Y-126385714D01*
X126065238Y-126433333D01*
X125970000Y-126528571D01*
X125922380Y-126671428D01*
X125922380Y-126766666D01*
X125970000Y-126909523D01*
X126017619Y-126957142D01*
X126017619Y-127338095D02*
X125970000Y-127385714D01*
X125922380Y-127480952D01*
X125922380Y-127719047D01*
X125970000Y-127814285D01*
X126017619Y-127861904D01*
X126112857Y-127909523D01*
X126208095Y-127909523D01*
X126350952Y-127861904D01*
X126922380Y-127290476D01*
X126922380Y-127909523D01*
X125922380Y-128814285D02*
X125922380Y-128338095D01*
X126398571Y-128290476D01*
X126350952Y-128338095D01*
X126303333Y-128433333D01*
X126303333Y-128671428D01*
X126350952Y-128766666D01*
X126398571Y-128814285D01*
X126493809Y-128861904D01*
X126731904Y-128861904D01*
X126827142Y-128814285D01*
X126874761Y-128766666D01*
X126922380Y-128671428D01*
X126922380Y-128433333D01*
X126874761Y-128338095D01*
X126827142Y-128290476D01*
%TO.C,C24*%
X107777142Y-126957142D02*
X107824761Y-126909523D01*
X107872380Y-126766666D01*
X107872380Y-126671428D01*
X107824761Y-126528571D01*
X107729523Y-126433333D01*
X107634285Y-126385714D01*
X107443809Y-126338095D01*
X107300952Y-126338095D01*
X107110476Y-126385714D01*
X107015238Y-126433333D01*
X106920000Y-126528571D01*
X106872380Y-126671428D01*
X106872380Y-126766666D01*
X106920000Y-126909523D01*
X106967619Y-126957142D01*
X106967619Y-127338095D02*
X106920000Y-127385714D01*
X106872380Y-127480952D01*
X106872380Y-127719047D01*
X106920000Y-127814285D01*
X106967619Y-127861904D01*
X107062857Y-127909523D01*
X107158095Y-127909523D01*
X107300952Y-127861904D01*
X107872380Y-127290476D01*
X107872380Y-127909523D01*
X107205714Y-128766666D02*
X107872380Y-128766666D01*
X106824761Y-128528571D02*
X107539047Y-128290476D01*
X107539047Y-128909523D01*
%TO.C,C23*%
X88727142Y-126957142D02*
X88774761Y-126909523D01*
X88822380Y-126766666D01*
X88822380Y-126671428D01*
X88774761Y-126528571D01*
X88679523Y-126433333D01*
X88584285Y-126385714D01*
X88393809Y-126338095D01*
X88250952Y-126338095D01*
X88060476Y-126385714D01*
X87965238Y-126433333D01*
X87870000Y-126528571D01*
X87822380Y-126671428D01*
X87822380Y-126766666D01*
X87870000Y-126909523D01*
X87917619Y-126957142D01*
X87917619Y-127338095D02*
X87870000Y-127385714D01*
X87822380Y-127480952D01*
X87822380Y-127719047D01*
X87870000Y-127814285D01*
X87917619Y-127861904D01*
X88012857Y-127909523D01*
X88108095Y-127909523D01*
X88250952Y-127861904D01*
X88822380Y-127290476D01*
X88822380Y-127909523D01*
X87822380Y-128242857D02*
X87822380Y-128861904D01*
X88203333Y-128528571D01*
X88203333Y-128671428D01*
X88250952Y-128766666D01*
X88298571Y-128814285D01*
X88393809Y-128861904D01*
X88631904Y-128861904D01*
X88727142Y-128814285D01*
X88774761Y-128766666D01*
X88822380Y-128671428D01*
X88822380Y-128385714D01*
X88774761Y-128290476D01*
X88727142Y-128242857D01*
%TO.C,C22*%
X145877142Y-107907142D02*
X145924761Y-107859523D01*
X145972380Y-107716666D01*
X145972380Y-107621428D01*
X145924761Y-107478571D01*
X145829523Y-107383333D01*
X145734285Y-107335714D01*
X145543809Y-107288095D01*
X145400952Y-107288095D01*
X145210476Y-107335714D01*
X145115238Y-107383333D01*
X145020000Y-107478571D01*
X144972380Y-107621428D01*
X144972380Y-107716666D01*
X145020000Y-107859523D01*
X145067619Y-107907142D01*
X145067619Y-108288095D02*
X145020000Y-108335714D01*
X144972380Y-108430952D01*
X144972380Y-108669047D01*
X145020000Y-108764285D01*
X145067619Y-108811904D01*
X145162857Y-108859523D01*
X145258095Y-108859523D01*
X145400952Y-108811904D01*
X145972380Y-108240476D01*
X145972380Y-108859523D01*
X145067619Y-109240476D02*
X145020000Y-109288095D01*
X144972380Y-109383333D01*
X144972380Y-109621428D01*
X145020000Y-109716666D01*
X145067619Y-109764285D01*
X145162857Y-109811904D01*
X145258095Y-109811904D01*
X145400952Y-109764285D01*
X145972380Y-109192857D01*
X145972380Y-109811904D01*
%TO.C,C20*%
X107777142Y-107907142D02*
X107824761Y-107859523D01*
X107872380Y-107716666D01*
X107872380Y-107621428D01*
X107824761Y-107478571D01*
X107729523Y-107383333D01*
X107634285Y-107335714D01*
X107443809Y-107288095D01*
X107300952Y-107288095D01*
X107110476Y-107335714D01*
X107015238Y-107383333D01*
X106920000Y-107478571D01*
X106872380Y-107621428D01*
X106872380Y-107716666D01*
X106920000Y-107859523D01*
X106967619Y-107907142D01*
X106967619Y-108288095D02*
X106920000Y-108335714D01*
X106872380Y-108430952D01*
X106872380Y-108669047D01*
X106920000Y-108764285D01*
X106967619Y-108811904D01*
X107062857Y-108859523D01*
X107158095Y-108859523D01*
X107300952Y-108811904D01*
X107872380Y-108240476D01*
X107872380Y-108859523D01*
X106872380Y-109478571D02*
X106872380Y-109573809D01*
X106920000Y-109669047D01*
X106967619Y-109716666D01*
X107062857Y-109764285D01*
X107253333Y-109811904D01*
X107491428Y-109811904D01*
X107681904Y-109764285D01*
X107777142Y-109716666D01*
X107824761Y-109669047D01*
X107872380Y-109573809D01*
X107872380Y-109478571D01*
X107824761Y-109383333D01*
X107777142Y-109335714D01*
X107681904Y-109288095D01*
X107491428Y-109240476D01*
X107253333Y-109240476D01*
X107062857Y-109288095D01*
X106967619Y-109335714D01*
X106920000Y-109383333D01*
X106872380Y-109478571D01*
%TO.C,C19*%
X88727142Y-107907142D02*
X88774761Y-107859523D01*
X88822380Y-107716666D01*
X88822380Y-107621428D01*
X88774761Y-107478571D01*
X88679523Y-107383333D01*
X88584285Y-107335714D01*
X88393809Y-107288095D01*
X88250952Y-107288095D01*
X88060476Y-107335714D01*
X87965238Y-107383333D01*
X87870000Y-107478571D01*
X87822380Y-107621428D01*
X87822380Y-107716666D01*
X87870000Y-107859523D01*
X87917619Y-107907142D01*
X88822380Y-108859523D02*
X88822380Y-108288095D01*
X88822380Y-108573809D02*
X87822380Y-108573809D01*
X87965238Y-108478571D01*
X88060476Y-108383333D01*
X88108095Y-108288095D01*
X88822380Y-109335714D02*
X88822380Y-109526190D01*
X88774761Y-109621428D01*
X88727142Y-109669047D01*
X88584285Y-109764285D01*
X88393809Y-109811904D01*
X88012857Y-109811904D01*
X87917619Y-109764285D01*
X87870000Y-109716666D01*
X87822380Y-109621428D01*
X87822380Y-109430952D01*
X87870000Y-109335714D01*
X87917619Y-109288095D01*
X88012857Y-109240476D01*
X88250952Y-109240476D01*
X88346190Y-109288095D01*
X88393809Y-109335714D01*
X88441428Y-109430952D01*
X88441428Y-109621428D01*
X88393809Y-109716666D01*
X88346190Y-109764285D01*
X88250952Y-109811904D01*
%TO.C,C18*%
X145877142Y-88857142D02*
X145924761Y-88809523D01*
X145972380Y-88666666D01*
X145972380Y-88571428D01*
X145924761Y-88428571D01*
X145829523Y-88333333D01*
X145734285Y-88285714D01*
X145543809Y-88238095D01*
X145400952Y-88238095D01*
X145210476Y-88285714D01*
X145115238Y-88333333D01*
X145020000Y-88428571D01*
X144972380Y-88571428D01*
X144972380Y-88666666D01*
X145020000Y-88809523D01*
X145067619Y-88857142D01*
X145972380Y-89809523D02*
X145972380Y-89238095D01*
X145972380Y-89523809D02*
X144972380Y-89523809D01*
X145115238Y-89428571D01*
X145210476Y-89333333D01*
X145258095Y-89238095D01*
X145400952Y-90380952D02*
X145353333Y-90285714D01*
X145305714Y-90238095D01*
X145210476Y-90190476D01*
X145162857Y-90190476D01*
X145067619Y-90238095D01*
X145020000Y-90285714D01*
X144972380Y-90380952D01*
X144972380Y-90571428D01*
X145020000Y-90666666D01*
X145067619Y-90714285D01*
X145162857Y-90761904D01*
X145210476Y-90761904D01*
X145305714Y-90714285D01*
X145353333Y-90666666D01*
X145400952Y-90571428D01*
X145400952Y-90380952D01*
X145448571Y-90285714D01*
X145496190Y-90238095D01*
X145591428Y-90190476D01*
X145781904Y-90190476D01*
X145877142Y-90238095D01*
X145924761Y-90285714D01*
X145972380Y-90380952D01*
X145972380Y-90571428D01*
X145924761Y-90666666D01*
X145877142Y-90714285D01*
X145781904Y-90761904D01*
X145591428Y-90761904D01*
X145496190Y-90714285D01*
X145448571Y-90666666D01*
X145400952Y-90571428D01*
%TO.C,C17*%
X126827142Y-88857142D02*
X126874761Y-88809523D01*
X126922380Y-88666666D01*
X126922380Y-88571428D01*
X126874761Y-88428571D01*
X126779523Y-88333333D01*
X126684285Y-88285714D01*
X126493809Y-88238095D01*
X126350952Y-88238095D01*
X126160476Y-88285714D01*
X126065238Y-88333333D01*
X125970000Y-88428571D01*
X125922380Y-88571428D01*
X125922380Y-88666666D01*
X125970000Y-88809523D01*
X126017619Y-88857142D01*
X126922380Y-89809523D02*
X126922380Y-89238095D01*
X126922380Y-89523809D02*
X125922380Y-89523809D01*
X126065238Y-89428571D01*
X126160476Y-89333333D01*
X126208095Y-89238095D01*
X125922380Y-90142857D02*
X125922380Y-90809523D01*
X126922380Y-90380952D01*
%TO.C,C16*%
X107777142Y-88857142D02*
X107824761Y-88809523D01*
X107872380Y-88666666D01*
X107872380Y-88571428D01*
X107824761Y-88428571D01*
X107729523Y-88333333D01*
X107634285Y-88285714D01*
X107443809Y-88238095D01*
X107300952Y-88238095D01*
X107110476Y-88285714D01*
X107015238Y-88333333D01*
X106920000Y-88428571D01*
X106872380Y-88571428D01*
X106872380Y-88666666D01*
X106920000Y-88809523D01*
X106967619Y-88857142D01*
X107872380Y-89809523D02*
X107872380Y-89238095D01*
X107872380Y-89523809D02*
X106872380Y-89523809D01*
X107015238Y-89428571D01*
X107110476Y-89333333D01*
X107158095Y-89238095D01*
X106872380Y-90666666D02*
X106872380Y-90476190D01*
X106920000Y-90380952D01*
X106967619Y-90333333D01*
X107110476Y-90238095D01*
X107300952Y-90190476D01*
X107681904Y-90190476D01*
X107777142Y-90238095D01*
X107824761Y-90285714D01*
X107872380Y-90380952D01*
X107872380Y-90571428D01*
X107824761Y-90666666D01*
X107777142Y-90714285D01*
X107681904Y-90761904D01*
X107443809Y-90761904D01*
X107348571Y-90714285D01*
X107300952Y-90666666D01*
X107253333Y-90571428D01*
X107253333Y-90380952D01*
X107300952Y-90285714D01*
X107348571Y-90238095D01*
X107443809Y-90190476D01*
%TO.C,D9*%
X101138095Y-115652380D02*
X101138095Y-114652380D01*
X100900000Y-114652380D01*
X100757142Y-114700000D01*
X100661904Y-114795238D01*
X100614285Y-114890476D01*
X100566666Y-115080952D01*
X100566666Y-115223809D01*
X100614285Y-115414285D01*
X100661904Y-115509523D01*
X100757142Y-115604761D01*
X100900000Y-115652380D01*
X101138095Y-115652380D01*
X100090476Y-115652380D02*
X99900000Y-115652380D01*
X99804761Y-115604761D01*
X99757142Y-115557142D01*
X99661904Y-115414285D01*
X99614285Y-115223809D01*
X99614285Y-114842857D01*
X99661904Y-114747619D01*
X99709523Y-114700000D01*
X99804761Y-114652380D01*
X99995238Y-114652380D01*
X100090476Y-114700000D01*
X100138095Y-114747619D01*
X100185714Y-114842857D01*
X100185714Y-115080952D01*
X100138095Y-115176190D01*
X100090476Y-115223809D01*
X99995238Y-115271428D01*
X99804761Y-115271428D01*
X99709523Y-115223809D01*
X99661904Y-115176190D01*
X99614285Y-115080952D01*
%TO.C,D16*%
X159432380Y-135535714D02*
X158432380Y-135535714D01*
X158432380Y-135773809D01*
X158480000Y-135916666D01*
X158575238Y-136011904D01*
X158670476Y-136059523D01*
X158860952Y-136107142D01*
X159003809Y-136107142D01*
X159194285Y-136059523D01*
X159289523Y-136011904D01*
X159384761Y-135916666D01*
X159432380Y-135773809D01*
X159432380Y-135535714D01*
X159432380Y-137059523D02*
X159432380Y-136488095D01*
X159432380Y-136773809D02*
X158432380Y-136773809D01*
X158575238Y-136678571D01*
X158670476Y-136583333D01*
X158718095Y-136488095D01*
X158432380Y-137916666D02*
X158432380Y-137726190D01*
X158480000Y-137630952D01*
X158527619Y-137583333D01*
X158670476Y-137488095D01*
X158860952Y-137440476D01*
X159241904Y-137440476D01*
X159337142Y-137488095D01*
X159384761Y-137535714D01*
X159432380Y-137630952D01*
X159432380Y-137821428D01*
X159384761Y-137916666D01*
X159337142Y-137964285D01*
X159241904Y-138011904D01*
X159003809Y-138011904D01*
X158908571Y-137964285D01*
X158860952Y-137916666D01*
X158813333Y-137821428D01*
X158813333Y-137630952D01*
X158860952Y-137535714D01*
X158908571Y-137488095D01*
X159003809Y-137440476D01*
%TO.C,D15*%
X140382380Y-135535714D02*
X139382380Y-135535714D01*
X139382380Y-135773809D01*
X139430000Y-135916666D01*
X139525238Y-136011904D01*
X139620476Y-136059523D01*
X139810952Y-136107142D01*
X139953809Y-136107142D01*
X140144285Y-136059523D01*
X140239523Y-136011904D01*
X140334761Y-135916666D01*
X140382380Y-135773809D01*
X140382380Y-135535714D01*
X140382380Y-137059523D02*
X140382380Y-136488095D01*
X140382380Y-136773809D02*
X139382380Y-136773809D01*
X139525238Y-136678571D01*
X139620476Y-136583333D01*
X139668095Y-136488095D01*
X139382380Y-137964285D02*
X139382380Y-137488095D01*
X139858571Y-137440476D01*
X139810952Y-137488095D01*
X139763333Y-137583333D01*
X139763333Y-137821428D01*
X139810952Y-137916666D01*
X139858571Y-137964285D01*
X139953809Y-138011904D01*
X140191904Y-138011904D01*
X140287142Y-137964285D01*
X140334761Y-137916666D01*
X140382380Y-137821428D01*
X140382380Y-137583333D01*
X140334761Y-137488095D01*
X140287142Y-137440476D01*
%TO.C,D14*%
X121332380Y-135535714D02*
X120332380Y-135535714D01*
X120332380Y-135773809D01*
X120380000Y-135916666D01*
X120475238Y-136011904D01*
X120570476Y-136059523D01*
X120760952Y-136107142D01*
X120903809Y-136107142D01*
X121094285Y-136059523D01*
X121189523Y-136011904D01*
X121284761Y-135916666D01*
X121332380Y-135773809D01*
X121332380Y-135535714D01*
X121332380Y-137059523D02*
X121332380Y-136488095D01*
X121332380Y-136773809D02*
X120332380Y-136773809D01*
X120475238Y-136678571D01*
X120570476Y-136583333D01*
X120618095Y-136488095D01*
X120665714Y-137916666D02*
X121332380Y-137916666D01*
X120284761Y-137678571D02*
X120999047Y-137440476D01*
X120999047Y-138059523D01*
%TO.C,D13*%
X102282380Y-135535714D02*
X101282380Y-135535714D01*
X101282380Y-135773809D01*
X101330000Y-135916666D01*
X101425238Y-136011904D01*
X101520476Y-136059523D01*
X101710952Y-136107142D01*
X101853809Y-136107142D01*
X102044285Y-136059523D01*
X102139523Y-136011904D01*
X102234761Y-135916666D01*
X102282380Y-135773809D01*
X102282380Y-135535714D01*
X102282380Y-137059523D02*
X102282380Y-136488095D01*
X102282380Y-136773809D02*
X101282380Y-136773809D01*
X101425238Y-136678571D01*
X101520476Y-136583333D01*
X101568095Y-136488095D01*
X101282380Y-137392857D02*
X101282380Y-138011904D01*
X101663333Y-137678571D01*
X101663333Y-137821428D01*
X101710952Y-137916666D01*
X101758571Y-137964285D01*
X101853809Y-138011904D01*
X102091904Y-138011904D01*
X102187142Y-137964285D01*
X102234761Y-137916666D01*
X102282380Y-137821428D01*
X102282380Y-137535714D01*
X102234761Y-137440476D01*
X102187142Y-137392857D01*
%TO.C,D12*%
X159432380Y-116485714D02*
X158432380Y-116485714D01*
X158432380Y-116723809D01*
X158480000Y-116866666D01*
X158575238Y-116961904D01*
X158670476Y-117009523D01*
X158860952Y-117057142D01*
X159003809Y-117057142D01*
X159194285Y-117009523D01*
X159289523Y-116961904D01*
X159384761Y-116866666D01*
X159432380Y-116723809D01*
X159432380Y-116485714D01*
X159432380Y-118009523D02*
X159432380Y-117438095D01*
X159432380Y-117723809D02*
X158432380Y-117723809D01*
X158575238Y-117628571D01*
X158670476Y-117533333D01*
X158718095Y-117438095D01*
X158527619Y-118390476D02*
X158480000Y-118438095D01*
X158432380Y-118533333D01*
X158432380Y-118771428D01*
X158480000Y-118866666D01*
X158527619Y-118914285D01*
X158622857Y-118961904D01*
X158718095Y-118961904D01*
X158860952Y-118914285D01*
X159432380Y-118342857D01*
X159432380Y-118961904D01*
%TO.C,D11*%
X140382380Y-116485714D02*
X139382380Y-116485714D01*
X139382380Y-116723809D01*
X139430000Y-116866666D01*
X139525238Y-116961904D01*
X139620476Y-117009523D01*
X139810952Y-117057142D01*
X139953809Y-117057142D01*
X140144285Y-117009523D01*
X140239523Y-116961904D01*
X140334761Y-116866666D01*
X140382380Y-116723809D01*
X140382380Y-116485714D01*
X140382380Y-118009523D02*
X140382380Y-117438095D01*
X140382380Y-117723809D02*
X139382380Y-117723809D01*
X139525238Y-117628571D01*
X139620476Y-117533333D01*
X139668095Y-117438095D01*
X140382380Y-118961904D02*
X140382380Y-118390476D01*
X140382380Y-118676190D02*
X139382380Y-118676190D01*
X139525238Y-118580952D01*
X139620476Y-118485714D01*
X139668095Y-118390476D01*
%TO.C,D10*%
X120482380Y-118185714D02*
X119482380Y-118185714D01*
X119482380Y-118423809D01*
X119530000Y-118566666D01*
X119625238Y-118661904D01*
X119720476Y-118709523D01*
X119910952Y-118757142D01*
X120053809Y-118757142D01*
X120244285Y-118709523D01*
X120339523Y-118661904D01*
X120434761Y-118566666D01*
X120482380Y-118423809D01*
X120482380Y-118185714D01*
X120482380Y-119709523D02*
X120482380Y-119138095D01*
X120482380Y-119423809D02*
X119482380Y-119423809D01*
X119625238Y-119328571D01*
X119720476Y-119233333D01*
X119768095Y-119138095D01*
X119482380Y-120328571D02*
X119482380Y-120423809D01*
X119530000Y-120519047D01*
X119577619Y-120566666D01*
X119672857Y-120614285D01*
X119863333Y-120661904D01*
X120101428Y-120661904D01*
X120291904Y-120614285D01*
X120387142Y-120566666D01*
X120434761Y-120519047D01*
X120482380Y-120423809D01*
X120482380Y-120328571D01*
X120434761Y-120233333D01*
X120387142Y-120185714D01*
X120291904Y-120138095D01*
X120101428Y-120090476D01*
X119863333Y-120090476D01*
X119672857Y-120138095D01*
X119577619Y-120185714D01*
X119530000Y-120233333D01*
X119482380Y-120328571D01*
%TO.C,D8*%
X159432380Y-97911904D02*
X158432380Y-97911904D01*
X158432380Y-98150000D01*
X158480000Y-98292857D01*
X158575238Y-98388095D01*
X158670476Y-98435714D01*
X158860952Y-98483333D01*
X159003809Y-98483333D01*
X159194285Y-98435714D01*
X159289523Y-98388095D01*
X159384761Y-98292857D01*
X159432380Y-98150000D01*
X159432380Y-97911904D01*
X158860952Y-99054761D02*
X158813333Y-98959523D01*
X158765714Y-98911904D01*
X158670476Y-98864285D01*
X158622857Y-98864285D01*
X158527619Y-98911904D01*
X158480000Y-98959523D01*
X158432380Y-99054761D01*
X158432380Y-99245238D01*
X158480000Y-99340476D01*
X158527619Y-99388095D01*
X158622857Y-99435714D01*
X158670476Y-99435714D01*
X158765714Y-99388095D01*
X158813333Y-99340476D01*
X158860952Y-99245238D01*
X158860952Y-99054761D01*
X158908571Y-98959523D01*
X158956190Y-98911904D01*
X159051428Y-98864285D01*
X159241904Y-98864285D01*
X159337142Y-98911904D01*
X159384761Y-98959523D01*
X159432380Y-99054761D01*
X159432380Y-99245238D01*
X159384761Y-99340476D01*
X159337142Y-99388095D01*
X159241904Y-99435714D01*
X159051428Y-99435714D01*
X158956190Y-99388095D01*
X158908571Y-99340476D01*
X158860952Y-99245238D01*
%TO.C,D7*%
X140382380Y-97911904D02*
X139382380Y-97911904D01*
X139382380Y-98150000D01*
X139430000Y-98292857D01*
X139525238Y-98388095D01*
X139620476Y-98435714D01*
X139810952Y-98483333D01*
X139953809Y-98483333D01*
X140144285Y-98435714D01*
X140239523Y-98388095D01*
X140334761Y-98292857D01*
X140382380Y-98150000D01*
X140382380Y-97911904D01*
X139382380Y-98816666D02*
X139382380Y-99483333D01*
X140382380Y-99054761D01*
%TO.C,D6*%
X121332380Y-97911904D02*
X120332380Y-97911904D01*
X120332380Y-98150000D01*
X120380000Y-98292857D01*
X120475238Y-98388095D01*
X120570476Y-98435714D01*
X120760952Y-98483333D01*
X120903809Y-98483333D01*
X121094285Y-98435714D01*
X121189523Y-98388095D01*
X121284761Y-98292857D01*
X121332380Y-98150000D01*
X121332380Y-97911904D01*
X120332380Y-99340476D02*
X120332380Y-99150000D01*
X120380000Y-99054761D01*
X120427619Y-99007142D01*
X120570476Y-98911904D01*
X120760952Y-98864285D01*
X121141904Y-98864285D01*
X121237142Y-98911904D01*
X121284761Y-98959523D01*
X121332380Y-99054761D01*
X121332380Y-99245238D01*
X121284761Y-99340476D01*
X121237142Y-99388095D01*
X121141904Y-99435714D01*
X120903809Y-99435714D01*
X120808571Y-99388095D01*
X120760952Y-99340476D01*
X120713333Y-99245238D01*
X120713333Y-99054761D01*
X120760952Y-98959523D01*
X120808571Y-98911904D01*
X120903809Y-98864285D01*
%TO.C,D5*%
X102282380Y-97911904D02*
X101282380Y-97911904D01*
X101282380Y-98150000D01*
X101330000Y-98292857D01*
X101425238Y-98388095D01*
X101520476Y-98435714D01*
X101710952Y-98483333D01*
X101853809Y-98483333D01*
X102044285Y-98435714D01*
X102139523Y-98388095D01*
X102234761Y-98292857D01*
X102282380Y-98150000D01*
X102282380Y-97911904D01*
X101282380Y-99388095D02*
X101282380Y-98911904D01*
X101758571Y-98864285D01*
X101710952Y-98911904D01*
X101663333Y-99007142D01*
X101663333Y-99245238D01*
X101710952Y-99340476D01*
X101758571Y-99388095D01*
X101853809Y-99435714D01*
X102091904Y-99435714D01*
X102187142Y-99388095D01*
X102234761Y-99340476D01*
X102282380Y-99245238D01*
X102282380Y-99007142D01*
X102234761Y-98911904D01*
X102187142Y-98864285D01*
%TO.C,D4*%
X159432380Y-78861904D02*
X158432380Y-78861904D01*
X158432380Y-79100000D01*
X158480000Y-79242857D01*
X158575238Y-79338095D01*
X158670476Y-79385714D01*
X158860952Y-79433333D01*
X159003809Y-79433333D01*
X159194285Y-79385714D01*
X159289523Y-79338095D01*
X159384761Y-79242857D01*
X159432380Y-79100000D01*
X159432380Y-78861904D01*
X158765714Y-80290476D02*
X159432380Y-80290476D01*
X158384761Y-80052380D02*
X159099047Y-79814285D01*
X159099047Y-80433333D01*
%TO.C,D3*%
X140382380Y-78861904D02*
X139382380Y-78861904D01*
X139382380Y-79100000D01*
X139430000Y-79242857D01*
X139525238Y-79338095D01*
X139620476Y-79385714D01*
X139810952Y-79433333D01*
X139953809Y-79433333D01*
X140144285Y-79385714D01*
X140239523Y-79338095D01*
X140334761Y-79242857D01*
X140382380Y-79100000D01*
X140382380Y-78861904D01*
X139382380Y-79766666D02*
X139382380Y-80385714D01*
X139763333Y-80052380D01*
X139763333Y-80195238D01*
X139810952Y-80290476D01*
X139858571Y-80338095D01*
X139953809Y-80385714D01*
X140191904Y-80385714D01*
X140287142Y-80338095D01*
X140334761Y-80290476D01*
X140382380Y-80195238D01*
X140382380Y-79909523D01*
X140334761Y-79814285D01*
X140287142Y-79766666D01*
%TO.C,D2*%
X121332380Y-78861904D02*
X120332380Y-78861904D01*
X120332380Y-79100000D01*
X120380000Y-79242857D01*
X120475238Y-79338095D01*
X120570476Y-79385714D01*
X120760952Y-79433333D01*
X120903809Y-79433333D01*
X121094285Y-79385714D01*
X121189523Y-79338095D01*
X121284761Y-79242857D01*
X121332380Y-79100000D01*
X121332380Y-78861904D01*
X120427619Y-79814285D02*
X120380000Y-79861904D01*
X120332380Y-79957142D01*
X120332380Y-80195238D01*
X120380000Y-80290476D01*
X120427619Y-80338095D01*
X120522857Y-80385714D01*
X120618095Y-80385714D01*
X120760952Y-80338095D01*
X121332380Y-79766666D01*
X121332380Y-80385714D01*
%TO.C,Y1*%
X110876190Y-115076190D02*
X110876190Y-115552380D01*
X111209523Y-114552380D02*
X110876190Y-115076190D01*
X110542857Y-114552380D01*
X109685714Y-115552380D02*
X110257142Y-115552380D01*
X109971428Y-115552380D02*
X109971428Y-114552380D01*
X110066666Y-114695238D01*
X110161904Y-114790476D01*
X110257142Y-114838095D01*
%TO.C,C31*%
X100242142Y-74139142D02*
X100289761Y-74091523D01*
X100337380Y-73948666D01*
X100337380Y-73853428D01*
X100289761Y-73710571D01*
X100194523Y-73615333D01*
X100099285Y-73567714D01*
X99908809Y-73520095D01*
X99765952Y-73520095D01*
X99575476Y-73567714D01*
X99480238Y-73615333D01*
X99385000Y-73710571D01*
X99337380Y-73853428D01*
X99337380Y-73948666D01*
X99385000Y-74091523D01*
X99432619Y-74139142D01*
X99337380Y-74472476D02*
X99337380Y-75091523D01*
X99718333Y-74758190D01*
X99718333Y-74901047D01*
X99765952Y-74996285D01*
X99813571Y-75043904D01*
X99908809Y-75091523D01*
X100146904Y-75091523D01*
X100242142Y-75043904D01*
X100289761Y-74996285D01*
X100337380Y-74901047D01*
X100337380Y-74615333D01*
X100289761Y-74520095D01*
X100242142Y-74472476D01*
X100337380Y-76043904D02*
X100337380Y-75472476D01*
X100337380Y-75758190D02*
X99337380Y-75758190D01*
X99480238Y-75662952D01*
X99575476Y-75567714D01*
X99623095Y-75472476D01*
%TO.C,SW1*%
X95989333Y-79059761D02*
X95846476Y-79107380D01*
X95608380Y-79107380D01*
X95513142Y-79059761D01*
X95465523Y-79012142D01*
X95417904Y-78916904D01*
X95417904Y-78821666D01*
X95465523Y-78726428D01*
X95513142Y-78678809D01*
X95608380Y-78631190D01*
X95798857Y-78583571D01*
X95894095Y-78535952D01*
X95941714Y-78488333D01*
X95989333Y-78393095D01*
X95989333Y-78297857D01*
X95941714Y-78202619D01*
X95894095Y-78155000D01*
X95798857Y-78107380D01*
X95560761Y-78107380D01*
X95417904Y-78155000D01*
X95084571Y-78107380D02*
X94846476Y-79107380D01*
X94656000Y-78393095D01*
X94465523Y-79107380D01*
X94227428Y-78107380D01*
X93322666Y-79107380D02*
X93894095Y-79107380D01*
X93608380Y-79107380D02*
X93608380Y-78107380D01*
X93703619Y-78250238D01*
X93798857Y-78345476D01*
X93894095Y-78393095D01*
%TO.C,R5*%
X126752380Y-59554333D02*
X126276190Y-59221000D01*
X126752380Y-58982904D02*
X125752380Y-58982904D01*
X125752380Y-59363857D01*
X125800000Y-59459095D01*
X125847619Y-59506714D01*
X125942857Y-59554333D01*
X126085714Y-59554333D01*
X126180952Y-59506714D01*
X126228571Y-59459095D01*
X126276190Y-59363857D01*
X126276190Y-58982904D01*
X125752380Y-60459095D02*
X125752380Y-59982904D01*
X126228571Y-59935285D01*
X126180952Y-59982904D01*
X126133333Y-60078142D01*
X126133333Y-60316238D01*
X126180952Y-60411476D01*
X126228571Y-60459095D01*
X126323809Y-60506714D01*
X126561904Y-60506714D01*
X126657142Y-60459095D01*
X126704761Y-60411476D01*
X126752380Y-60316238D01*
X126752380Y-60078142D01*
X126704761Y-59982904D01*
X126657142Y-59935285D01*
%TO.C,C13*%
X114442857Y-65007142D02*
X114490476Y-65054761D01*
X114633333Y-65102380D01*
X114728571Y-65102380D01*
X114871428Y-65054761D01*
X114966666Y-64959523D01*
X115014285Y-64864285D01*
X115061904Y-64673809D01*
X115061904Y-64530952D01*
X115014285Y-64340476D01*
X114966666Y-64245238D01*
X114871428Y-64150000D01*
X114728571Y-64102380D01*
X114633333Y-64102380D01*
X114490476Y-64150000D01*
X114442857Y-64197619D01*
X113490476Y-65102380D02*
X114061904Y-65102380D01*
X113776190Y-65102380D02*
X113776190Y-64102380D01*
X113871428Y-64245238D01*
X113966666Y-64340476D01*
X114061904Y-64388095D01*
X113157142Y-64102380D02*
X112538095Y-64102380D01*
X112871428Y-64483333D01*
X112728571Y-64483333D01*
X112633333Y-64530952D01*
X112585714Y-64578571D01*
X112538095Y-64673809D01*
X112538095Y-64911904D01*
X112585714Y-65007142D01*
X112633333Y-65054761D01*
X112728571Y-65102380D01*
X113014285Y-65102380D01*
X113109523Y-65054761D01*
X113157142Y-65007142D01*
%TO.C,C10*%
X110862857Y-65097142D02*
X110910476Y-65144761D01*
X111053333Y-65192380D01*
X111148571Y-65192380D01*
X111291428Y-65144761D01*
X111386666Y-65049523D01*
X111434285Y-64954285D01*
X111481904Y-64763809D01*
X111481904Y-64620952D01*
X111434285Y-64430476D01*
X111386666Y-64335238D01*
X111291428Y-64240000D01*
X111148571Y-64192380D01*
X111053333Y-64192380D01*
X110910476Y-64240000D01*
X110862857Y-64287619D01*
X109910476Y-65192380D02*
X110481904Y-65192380D01*
X110196190Y-65192380D02*
X110196190Y-64192380D01*
X110291428Y-64335238D01*
X110386666Y-64430476D01*
X110481904Y-64478095D01*
X109291428Y-64192380D02*
X109196190Y-64192380D01*
X109100952Y-64240000D01*
X109053333Y-64287619D01*
X109005714Y-64382857D01*
X108958095Y-64573333D01*
X108958095Y-64811428D01*
X109005714Y-65001904D01*
X109053333Y-65097142D01*
X109100952Y-65144761D01*
X109196190Y-65192380D01*
X109291428Y-65192380D01*
X109386666Y-65144761D01*
X109434285Y-65097142D01*
X109481904Y-65001904D01*
X109529523Y-64811428D01*
X109529523Y-64573333D01*
X109481904Y-64382857D01*
X109434285Y-64287619D01*
X109386666Y-64240000D01*
X109291428Y-64192380D01*
%TO.C,H4*%
X85761904Y-150952380D02*
X85761904Y-149952380D01*
X85761904Y-150428571D02*
X85190476Y-150428571D01*
X85190476Y-150952380D02*
X85190476Y-149952380D01*
X84285714Y-150285714D02*
X84285714Y-150952380D01*
X84523809Y-149904761D02*
X84761904Y-150619047D01*
X84142857Y-150619047D01*
%TO.C,X1*%
X106452380Y-112490476D02*
X107452380Y-113157142D01*
X106452380Y-113157142D02*
X107452380Y-112490476D01*
X107452380Y-114061904D02*
X107452380Y-113490476D01*
X107452380Y-113776190D02*
X106452380Y-113776190D01*
X106595238Y-113680952D01*
X106690476Y-113585714D01*
X106738095Y-113490476D01*
%TO.C,U3*%
X132761904Y-59152380D02*
X132761904Y-59961904D01*
X132714285Y-60057142D01*
X132666666Y-60104761D01*
X132571428Y-60152380D01*
X132380952Y-60152380D01*
X132285714Y-60104761D01*
X132238095Y-60057142D01*
X132190476Y-59961904D01*
X132190476Y-59152380D01*
X131809523Y-59152380D02*
X131190476Y-59152380D01*
X131523809Y-59533333D01*
X131380952Y-59533333D01*
X131285714Y-59580952D01*
X131238095Y-59628571D01*
X131190476Y-59723809D01*
X131190476Y-59961904D01*
X131238095Y-60057142D01*
X131285714Y-60104761D01*
X131380952Y-60152380D01*
X131666666Y-60152380D01*
X131761904Y-60104761D01*
X131809523Y-60057142D01*
%TO.C,U2*%
X117152380Y-55238095D02*
X117961904Y-55238095D01*
X118057142Y-55285714D01*
X118104761Y-55333333D01*
X118152380Y-55428571D01*
X118152380Y-55619047D01*
X118104761Y-55714285D01*
X118057142Y-55761904D01*
X117961904Y-55809523D01*
X117152380Y-55809523D01*
X117247619Y-56238095D02*
X117200000Y-56285714D01*
X117152380Y-56380952D01*
X117152380Y-56619047D01*
X117200000Y-56714285D01*
X117247619Y-56761904D01*
X117342857Y-56809523D01*
X117438095Y-56809523D01*
X117580952Y-56761904D01*
X118152380Y-56190476D01*
X118152380Y-56809523D01*
%TO.C,U1*%
X123751904Y-118302380D02*
X123751904Y-119111904D01*
X123704285Y-119207142D01*
X123656666Y-119254761D01*
X123561428Y-119302380D01*
X123370952Y-119302380D01*
X123275714Y-119254761D01*
X123228095Y-119207142D01*
X123180476Y-119111904D01*
X123180476Y-118302380D01*
X122180476Y-119302380D02*
X122751904Y-119302380D01*
X122466190Y-119302380D02*
X122466190Y-118302380D01*
X122561428Y-118445238D01*
X122656666Y-118540476D01*
X122751904Y-118588095D01*
%TO.C,R9*%
X125682380Y-101333333D02*
X125206190Y-101000000D01*
X125682380Y-100761904D02*
X124682380Y-100761904D01*
X124682380Y-101142857D01*
X124730000Y-101238095D01*
X124777619Y-101285714D01*
X124872857Y-101333333D01*
X125015714Y-101333333D01*
X125110952Y-101285714D01*
X125158571Y-101238095D01*
X125206190Y-101142857D01*
X125206190Y-100761904D01*
X125682380Y-101809523D02*
X125682380Y-102000000D01*
X125634761Y-102095238D01*
X125587142Y-102142857D01*
X125444285Y-102238095D01*
X125253809Y-102285714D01*
X124872857Y-102285714D01*
X124777619Y-102238095D01*
X124730000Y-102190476D01*
X124682380Y-102095238D01*
X124682380Y-101904761D01*
X124730000Y-101809523D01*
X124777619Y-101761904D01*
X124872857Y-101714285D01*
X125110952Y-101714285D01*
X125206190Y-101761904D01*
X125253809Y-101809523D01*
X125301428Y-101904761D01*
X125301428Y-102095238D01*
X125253809Y-102190476D01*
X125206190Y-102238095D01*
X125110952Y-102285714D01*
%TO.C,R8*%
X125453380Y-122896333D02*
X124977190Y-122563000D01*
X125453380Y-122324904D02*
X124453380Y-122324904D01*
X124453380Y-122705857D01*
X124501000Y-122801095D01*
X124548619Y-122848714D01*
X124643857Y-122896333D01*
X124786714Y-122896333D01*
X124881952Y-122848714D01*
X124929571Y-122801095D01*
X124977190Y-122705857D01*
X124977190Y-122324904D01*
X124881952Y-123467761D02*
X124834333Y-123372523D01*
X124786714Y-123324904D01*
X124691476Y-123277285D01*
X124643857Y-123277285D01*
X124548619Y-123324904D01*
X124501000Y-123372523D01*
X124453380Y-123467761D01*
X124453380Y-123658238D01*
X124501000Y-123753476D01*
X124548619Y-123801095D01*
X124643857Y-123848714D01*
X124691476Y-123848714D01*
X124786714Y-123801095D01*
X124834333Y-123753476D01*
X124881952Y-123658238D01*
X124881952Y-123467761D01*
X124929571Y-123372523D01*
X124977190Y-123324904D01*
X125072428Y-123277285D01*
X125262904Y-123277285D01*
X125358142Y-123324904D01*
X125405761Y-123372523D01*
X125453380Y-123467761D01*
X125453380Y-123658238D01*
X125405761Y-123753476D01*
X125358142Y-123801095D01*
X125262904Y-123848714D01*
X125072428Y-123848714D01*
X124977190Y-123801095D01*
X124929571Y-123753476D01*
X124881952Y-123658238D01*
%TO.C,R7*%
X110579166Y-113582380D02*
X110912500Y-113106190D01*
X111150595Y-113582380D02*
X111150595Y-112582380D01*
X110769642Y-112582380D01*
X110674404Y-112630000D01*
X110626785Y-112677619D01*
X110579166Y-112772857D01*
X110579166Y-112915714D01*
X110626785Y-113010952D01*
X110674404Y-113058571D01*
X110769642Y-113106190D01*
X111150595Y-113106190D01*
X110245833Y-112582380D02*
X109579166Y-112582380D01*
X110007738Y-113582380D01*
%TO.C,R6*%
X141390666Y-113703380D02*
X141724000Y-113227190D01*
X141962095Y-113703380D02*
X141962095Y-112703380D01*
X141581142Y-112703380D01*
X141485904Y-112751000D01*
X141438285Y-112798619D01*
X141390666Y-112893857D01*
X141390666Y-113036714D01*
X141438285Y-113131952D01*
X141485904Y-113179571D01*
X141581142Y-113227190D01*
X141962095Y-113227190D01*
X140533523Y-112703380D02*
X140724000Y-112703380D01*
X140819238Y-112751000D01*
X140866857Y-112798619D01*
X140962095Y-112941476D01*
X141009714Y-113131952D01*
X141009714Y-113512904D01*
X140962095Y-113608142D01*
X140914476Y-113655761D01*
X140819238Y-113703380D01*
X140628761Y-113703380D01*
X140533523Y-113655761D01*
X140485904Y-113608142D01*
X140438285Y-113512904D01*
X140438285Y-113274809D01*
X140485904Y-113179571D01*
X140533523Y-113131952D01*
X140628761Y-113084333D01*
X140819238Y-113084333D01*
X140914476Y-113131952D01*
X140962095Y-113179571D01*
X141009714Y-113274809D01*
%TO.C,R4*%
X123682380Y-59554333D02*
X123206190Y-59221000D01*
X123682380Y-58982904D02*
X122682380Y-58982904D01*
X122682380Y-59363857D01*
X122730000Y-59459095D01*
X122777619Y-59506714D01*
X122872857Y-59554333D01*
X123015714Y-59554333D01*
X123110952Y-59506714D01*
X123158571Y-59459095D01*
X123206190Y-59363857D01*
X123206190Y-58982904D01*
X123015714Y-60411476D02*
X123682380Y-60411476D01*
X122634761Y-60173380D02*
X123349047Y-59935285D01*
X123349047Y-60554333D01*
%TO.C,R3*%
X105197380Y-74615333D02*
X104721190Y-74282000D01*
X105197380Y-74043904D02*
X104197380Y-74043904D01*
X104197380Y-74424857D01*
X104245000Y-74520095D01*
X104292619Y-74567714D01*
X104387857Y-74615333D01*
X104530714Y-74615333D01*
X104625952Y-74567714D01*
X104673571Y-74520095D01*
X104721190Y-74424857D01*
X104721190Y-74043904D01*
X104197380Y-74948666D02*
X104197380Y-75567714D01*
X104578333Y-75234380D01*
X104578333Y-75377238D01*
X104625952Y-75472476D01*
X104673571Y-75520095D01*
X104768809Y-75567714D01*
X105006904Y-75567714D01*
X105102142Y-75520095D01*
X105149761Y-75472476D01*
X105197380Y-75377238D01*
X105197380Y-75091523D01*
X105149761Y-74996285D01*
X105102142Y-74948666D01*
%TO.C,JP2*%
X155385380Y-112496666D02*
X156099666Y-112496666D01*
X156242523Y-112449047D01*
X156337761Y-112353809D01*
X156385380Y-112210952D01*
X156385380Y-112115714D01*
X156385380Y-112972857D02*
X155385380Y-112972857D01*
X155385380Y-113353809D01*
X155433000Y-113449047D01*
X155480619Y-113496666D01*
X155575857Y-113544285D01*
X155718714Y-113544285D01*
X155813952Y-113496666D01*
X155861571Y-113449047D01*
X155909190Y-113353809D01*
X155909190Y-112972857D01*
X155480619Y-113925238D02*
X155433000Y-113972857D01*
X155385380Y-114068095D01*
X155385380Y-114306190D01*
X155433000Y-114401428D01*
X155480619Y-114449047D01*
X155575857Y-114496666D01*
X155671095Y-114496666D01*
X155813952Y-114449047D01*
X156385380Y-113877619D01*
X156385380Y-114496666D01*
%TO.C,JP1*%
X151585380Y-112496666D02*
X152299666Y-112496666D01*
X152442523Y-112449047D01*
X152537761Y-112353809D01*
X152585380Y-112210952D01*
X152585380Y-112115714D01*
X152585380Y-112972857D02*
X151585380Y-112972857D01*
X151585380Y-113353809D01*
X151633000Y-113449047D01*
X151680619Y-113496666D01*
X151775857Y-113544285D01*
X151918714Y-113544285D01*
X152013952Y-113496666D01*
X152061571Y-113449047D01*
X152109190Y-113353809D01*
X152109190Y-112972857D01*
X152585380Y-114496666D02*
X152585380Y-113925238D01*
X152585380Y-114210952D02*
X151585380Y-114210952D01*
X151728238Y-114115714D01*
X151823476Y-114020476D01*
X151871095Y-113925238D01*
%TO.C,D19*%
X159882380Y-68885714D02*
X158882380Y-68885714D01*
X158882380Y-69123809D01*
X158930000Y-69266666D01*
X159025238Y-69361904D01*
X159120476Y-69409523D01*
X159310952Y-69457142D01*
X159453809Y-69457142D01*
X159644285Y-69409523D01*
X159739523Y-69361904D01*
X159834761Y-69266666D01*
X159882380Y-69123809D01*
X159882380Y-68885714D01*
X159882380Y-70409523D02*
X159882380Y-69838095D01*
X159882380Y-70123809D02*
X158882380Y-70123809D01*
X159025238Y-70028571D01*
X159120476Y-69933333D01*
X159168095Y-69838095D01*
X159882380Y-70885714D02*
X159882380Y-71076190D01*
X159834761Y-71171428D01*
X159787142Y-71219047D01*
X159644285Y-71314285D01*
X159453809Y-71361904D01*
X159072857Y-71361904D01*
X158977619Y-71314285D01*
X158930000Y-71266666D01*
X158882380Y-71171428D01*
X158882380Y-70980952D01*
X158930000Y-70885714D01*
X158977619Y-70838095D01*
X159072857Y-70790476D01*
X159310952Y-70790476D01*
X159406190Y-70838095D01*
X159453809Y-70885714D01*
X159501428Y-70980952D01*
X159501428Y-71171428D01*
X159453809Y-71266666D01*
X159406190Y-71314285D01*
X159310952Y-71361904D01*
%TO.C,D18*%
X90020380Y-68885714D02*
X89020380Y-68885714D01*
X89020380Y-69123809D01*
X89068000Y-69266666D01*
X89163238Y-69361904D01*
X89258476Y-69409523D01*
X89448952Y-69457142D01*
X89591809Y-69457142D01*
X89782285Y-69409523D01*
X89877523Y-69361904D01*
X89972761Y-69266666D01*
X90020380Y-69123809D01*
X90020380Y-68885714D01*
X90020380Y-70409523D02*
X90020380Y-69838095D01*
X90020380Y-70123809D02*
X89020380Y-70123809D01*
X89163238Y-70028571D01*
X89258476Y-69933333D01*
X89306095Y-69838095D01*
X89448952Y-70980952D02*
X89401333Y-70885714D01*
X89353714Y-70838095D01*
X89258476Y-70790476D01*
X89210857Y-70790476D01*
X89115619Y-70838095D01*
X89068000Y-70885714D01*
X89020380Y-70980952D01*
X89020380Y-71171428D01*
X89068000Y-71266666D01*
X89115619Y-71314285D01*
X89210857Y-71361904D01*
X89258476Y-71361904D01*
X89353714Y-71314285D01*
X89401333Y-71266666D01*
X89448952Y-71171428D01*
X89448952Y-70980952D01*
X89496571Y-70885714D01*
X89544190Y-70838095D01*
X89639428Y-70790476D01*
X89829904Y-70790476D01*
X89925142Y-70838095D01*
X89972761Y-70885714D01*
X90020380Y-70980952D01*
X90020380Y-71171428D01*
X89972761Y-71266666D01*
X89925142Y-71314285D01*
X89829904Y-71361904D01*
X89639428Y-71361904D01*
X89544190Y-71314285D01*
X89496571Y-71266666D01*
X89448952Y-71171428D01*
%TO.C,D1*%
X102282380Y-78861904D02*
X101282380Y-78861904D01*
X101282380Y-79100000D01*
X101330000Y-79242857D01*
X101425238Y-79338095D01*
X101520476Y-79385714D01*
X101710952Y-79433333D01*
X101853809Y-79433333D01*
X102044285Y-79385714D01*
X102139523Y-79338095D01*
X102234761Y-79242857D01*
X102282380Y-79100000D01*
X102282380Y-78861904D01*
X102282380Y-80385714D02*
X102282380Y-79814285D01*
X102282380Y-80100000D02*
X101282380Y-80100000D01*
X101425238Y-80004761D01*
X101520476Y-79909523D01*
X101568095Y-79814285D01*
%TO.C,C15*%
X88727142Y-88857142D02*
X88774761Y-88809523D01*
X88822380Y-88666666D01*
X88822380Y-88571428D01*
X88774761Y-88428571D01*
X88679523Y-88333333D01*
X88584285Y-88285714D01*
X88393809Y-88238095D01*
X88250952Y-88238095D01*
X88060476Y-88285714D01*
X87965238Y-88333333D01*
X87870000Y-88428571D01*
X87822380Y-88571428D01*
X87822380Y-88666666D01*
X87870000Y-88809523D01*
X87917619Y-88857142D01*
X88822380Y-89809523D02*
X88822380Y-89238095D01*
X88822380Y-89523809D02*
X87822380Y-89523809D01*
X87965238Y-89428571D01*
X88060476Y-89333333D01*
X88108095Y-89238095D01*
X87822380Y-90714285D02*
X87822380Y-90238095D01*
X88298571Y-90190476D01*
X88250952Y-90238095D01*
X88203333Y-90333333D01*
X88203333Y-90571428D01*
X88250952Y-90666666D01*
X88298571Y-90714285D01*
X88393809Y-90761904D01*
X88631904Y-90761904D01*
X88727142Y-90714285D01*
X88774761Y-90666666D01*
X88822380Y-90571428D01*
X88822380Y-90333333D01*
X88774761Y-90238095D01*
X88727142Y-90190476D01*
%TO.C,C14*%
X114442857Y-62027142D02*
X114490476Y-62074761D01*
X114633333Y-62122380D01*
X114728571Y-62122380D01*
X114871428Y-62074761D01*
X114966666Y-61979523D01*
X115014285Y-61884285D01*
X115061904Y-61693809D01*
X115061904Y-61550952D01*
X115014285Y-61360476D01*
X114966666Y-61265238D01*
X114871428Y-61170000D01*
X114728571Y-61122380D01*
X114633333Y-61122380D01*
X114490476Y-61170000D01*
X114442857Y-61217619D01*
X113490476Y-62122380D02*
X114061904Y-62122380D01*
X113776190Y-62122380D02*
X113776190Y-61122380D01*
X113871428Y-61265238D01*
X113966666Y-61360476D01*
X114061904Y-61408095D01*
X112633333Y-61455714D02*
X112633333Y-62122380D01*
X112871428Y-61074761D02*
X113109523Y-61789047D01*
X112490476Y-61789047D01*
%TO.C,C12*%
X105827142Y-117257142D02*
X105874761Y-117209523D01*
X105922380Y-117066666D01*
X105922380Y-116971428D01*
X105874761Y-116828571D01*
X105779523Y-116733333D01*
X105684285Y-116685714D01*
X105493809Y-116638095D01*
X105350952Y-116638095D01*
X105160476Y-116685714D01*
X105065238Y-116733333D01*
X104970000Y-116828571D01*
X104922380Y-116971428D01*
X104922380Y-117066666D01*
X104970000Y-117209523D01*
X105017619Y-117257142D01*
X105922380Y-118209523D02*
X105922380Y-117638095D01*
X105922380Y-117923809D02*
X104922380Y-117923809D01*
X105065238Y-117828571D01*
X105160476Y-117733333D01*
X105208095Y-117638095D01*
X105017619Y-118590476D02*
X104970000Y-118638095D01*
X104922380Y-118733333D01*
X104922380Y-118971428D01*
X104970000Y-119066666D01*
X105017619Y-119114285D01*
X105112857Y-119161904D01*
X105208095Y-119161904D01*
X105350952Y-119114285D01*
X105922380Y-118542857D01*
X105922380Y-119161904D01*
%TO.C,C11*%
X132587142Y-116457142D02*
X132634761Y-116409523D01*
X132682380Y-116266666D01*
X132682380Y-116171428D01*
X132634761Y-116028571D01*
X132539523Y-115933333D01*
X132444285Y-115885714D01*
X132253809Y-115838095D01*
X132110952Y-115838095D01*
X131920476Y-115885714D01*
X131825238Y-115933333D01*
X131730000Y-116028571D01*
X131682380Y-116171428D01*
X131682380Y-116266666D01*
X131730000Y-116409523D01*
X131777619Y-116457142D01*
X132682380Y-117409523D02*
X132682380Y-116838095D01*
X132682380Y-117123809D02*
X131682380Y-117123809D01*
X131825238Y-117028571D01*
X131920476Y-116933333D01*
X131968095Y-116838095D01*
X132682380Y-118361904D02*
X132682380Y-117790476D01*
X132682380Y-118076190D02*
X131682380Y-118076190D01*
X131825238Y-117980952D01*
X131920476Y-117885714D01*
X131968095Y-117790476D01*
%TO.C,C9*%
X128027142Y-116933333D02*
X128074761Y-116885714D01*
X128122380Y-116742857D01*
X128122380Y-116647619D01*
X128074761Y-116504761D01*
X127979523Y-116409523D01*
X127884285Y-116361904D01*
X127693809Y-116314285D01*
X127550952Y-116314285D01*
X127360476Y-116361904D01*
X127265238Y-116409523D01*
X127170000Y-116504761D01*
X127122380Y-116647619D01*
X127122380Y-116742857D01*
X127170000Y-116885714D01*
X127217619Y-116933333D01*
X128122380Y-117409523D02*
X128122380Y-117600000D01*
X128074761Y-117695238D01*
X128027142Y-117742857D01*
X127884285Y-117838095D01*
X127693809Y-117885714D01*
X127312857Y-117885714D01*
X127217619Y-117838095D01*
X127170000Y-117790476D01*
X127122380Y-117695238D01*
X127122380Y-117504761D01*
X127170000Y-117409523D01*
X127217619Y-117361904D01*
X127312857Y-117314285D01*
X127550952Y-117314285D01*
X127646190Y-117361904D01*
X127693809Y-117409523D01*
X127741428Y-117504761D01*
X127741428Y-117695238D01*
X127693809Y-117790476D01*
X127646190Y-117838095D01*
X127550952Y-117885714D01*
%TO.C,C4*%
X110354166Y-68087142D02*
X110401785Y-68134761D01*
X110544642Y-68182380D01*
X110639880Y-68182380D01*
X110782738Y-68134761D01*
X110877976Y-68039523D01*
X110925595Y-67944285D01*
X110973214Y-67753809D01*
X110973214Y-67610952D01*
X110925595Y-67420476D01*
X110877976Y-67325238D01*
X110782738Y-67230000D01*
X110639880Y-67182380D01*
X110544642Y-67182380D01*
X110401785Y-67230000D01*
X110354166Y-67277619D01*
X109497023Y-67515714D02*
X109497023Y-68182380D01*
X109735119Y-67134761D02*
X109973214Y-67849047D01*
X109354166Y-67849047D01*
%TO.C,C2*%
X104566666Y-108227142D02*
X104614285Y-108274761D01*
X104757142Y-108322380D01*
X104852380Y-108322380D01*
X104995238Y-108274761D01*
X105090476Y-108179523D01*
X105138095Y-108084285D01*
X105185714Y-107893809D01*
X105185714Y-107750952D01*
X105138095Y-107560476D01*
X105090476Y-107465238D01*
X104995238Y-107370000D01*
X104852380Y-107322380D01*
X104757142Y-107322380D01*
X104614285Y-107370000D01*
X104566666Y-107417619D01*
X104185714Y-107417619D02*
X104138095Y-107370000D01*
X104042857Y-107322380D01*
X103804761Y-107322380D01*
X103709523Y-107370000D01*
X103661904Y-107417619D01*
X103614285Y-107512857D01*
X103614285Y-107608095D01*
X103661904Y-107750952D01*
X104233333Y-108322380D01*
X103614285Y-108322380D01*
%TO.C,C1*%
X102927142Y-117833333D02*
X102974761Y-117785714D01*
X103022380Y-117642857D01*
X103022380Y-117547619D01*
X102974761Y-117404761D01*
X102879523Y-117309523D01*
X102784285Y-117261904D01*
X102593809Y-117214285D01*
X102450952Y-117214285D01*
X102260476Y-117261904D01*
X102165238Y-117309523D01*
X102070000Y-117404761D01*
X102022380Y-117547619D01*
X102022380Y-117642857D01*
X102070000Y-117785714D01*
X102117619Y-117833333D01*
X103022380Y-118785714D02*
X103022380Y-118214285D01*
X103022380Y-118500000D02*
X102022380Y-118500000D01*
X102165238Y-118404761D01*
X102260476Y-118309523D01*
X102308095Y-118214285D01*
%TO.C,H1*%
X85761904Y-55152380D02*
X85761904Y-54152380D01*
X85761904Y-54628571D02*
X85190476Y-54628571D01*
X85190476Y-55152380D02*
X85190476Y-54152380D01*
X84190476Y-55152380D02*
X84761904Y-55152380D01*
X84476190Y-55152380D02*
X84476190Y-54152380D01*
X84571428Y-54295238D01*
X84666666Y-54390476D01*
X84761904Y-54438095D01*
%TO.C,H2*%
X161961904Y-55152380D02*
X161961904Y-54152380D01*
X161961904Y-54628571D02*
X161390476Y-54628571D01*
X161390476Y-55152380D02*
X161390476Y-54152380D01*
X160961904Y-54247619D02*
X160914285Y-54200000D01*
X160819047Y-54152380D01*
X160580952Y-54152380D01*
X160485714Y-54200000D01*
X160438095Y-54247619D01*
X160390476Y-54342857D01*
X160390476Y-54438095D01*
X160438095Y-54580952D01*
X161009523Y-55152380D01*
X160390476Y-55152380D01*
%TO.C,H3*%
X161961904Y-150952380D02*
X161961904Y-149952380D01*
X161961904Y-150428571D02*
X161390476Y-150428571D01*
X161390476Y-150952380D02*
X161390476Y-149952380D01*
X161009523Y-149952380D02*
X160390476Y-149952380D01*
X160723809Y-150333333D01*
X160580952Y-150333333D01*
X160485714Y-150380952D01*
X160438095Y-150428571D01*
X160390476Y-150523809D01*
X160390476Y-150761904D01*
X160438095Y-150857142D01*
X160485714Y-150904761D01*
X160580952Y-150952380D01*
X160866666Y-150952380D01*
X160961904Y-150904761D01*
X161009523Y-150857142D01*
%TD*%
M02*
