%TF.GenerationSoftware,KiCad,Pcbnew,(5.1.6)-1*%
%TF.CreationDate,2020-09-22T20:03:52-05:00*%
%TF.ProjectId,rocketboard-16,726f636b-6574-4626-9f61-72642d31362e,1.1*%
%TF.SameCoordinates,Original*%
%TF.FileFunction,Soldermask,Top*%
%TF.FilePolarity,Negative*%
%FSLAX46Y46*%
G04 Gerber Fmt 4.6, Leading zero omitted, Abs format (unit mm)*
G04 Created by KiCad (PCBNEW (5.1.6)-1) date 2020-09-22 20:03:52*
%MOMM*%
%LPD*%
G01*
G04 APERTURE LIST*
%ADD10C,2.000000*%
%ADD11C,3.200000*%
%ADD12R,2.000000X2.000000*%
%ADD13O,1.000000X1.600000*%
%ADD14O,0.900000X2.100000*%
%ADD15C,0.650000*%
%ADD16C,1.700000*%
%ADD17C,4.000000*%
%ADD18C,2.200000*%
%ADD19R,1.700000X1.700000*%
%ADD20O,1.700000X1.700000*%
G04 APERTURE END LIST*
D10*
%TO.C,SW3*%
X158090000Y-64200000D03*
X158090000Y-59200000D03*
D11*
X151090000Y-67300000D03*
X151090000Y-56100000D03*
D10*
X143590000Y-64200000D03*
X143590000Y-61700000D03*
D12*
X143590000Y-59200000D03*
%TD*%
D10*
%TO.C,SW2*%
X88100000Y-59200000D03*
X88100000Y-64200000D03*
D11*
X95100000Y-56100000D03*
X95100000Y-67300000D03*
D10*
X102600000Y-59200000D03*
X102600000Y-61700000D03*
D12*
X102600000Y-64200000D03*
%TD*%
D13*
%TO.C,P1*%
X118740000Y-48230000D03*
X127380000Y-48230000D03*
D14*
X118740000Y-52410000D03*
X127380000Y-52410000D03*
D15*
X120170000Y-51910000D03*
X125950000Y-51910000D03*
%TD*%
D16*
%TO.C,K16*%
X156790000Y-141830000D03*
X146630000Y-141830000D03*
D17*
X151710000Y-141830000D03*
D18*
X147900000Y-139290000D03*
X154250000Y-136750000D03*
%TD*%
D16*
%TO.C,K15*%
X137740000Y-141830000D03*
X127580000Y-141830000D03*
D17*
X132660000Y-141830000D03*
D18*
X128850000Y-139290000D03*
X135200000Y-136750000D03*
%TD*%
D16*
%TO.C,K14*%
X118690000Y-141830000D03*
X108530000Y-141830000D03*
D17*
X113610000Y-141830000D03*
D18*
X109800000Y-139290000D03*
X116150000Y-136750000D03*
%TD*%
D16*
%TO.C,K13*%
X99640000Y-141830000D03*
X89480000Y-141830000D03*
D17*
X94560000Y-141830000D03*
D18*
X90750000Y-139290000D03*
X97100000Y-136750000D03*
%TD*%
D16*
%TO.C,K12*%
X156790000Y-122780000D03*
X146630000Y-122780000D03*
D17*
X151710000Y-122780000D03*
D18*
X147900000Y-120240000D03*
X154250000Y-117700000D03*
%TD*%
D16*
%TO.C,K11*%
X137740000Y-122780000D03*
X127580000Y-122780000D03*
D17*
X132660000Y-122780000D03*
D18*
X128850000Y-120240000D03*
X135200000Y-117700000D03*
%TD*%
D16*
%TO.C,K10*%
X118690000Y-122780000D03*
X108530000Y-122780000D03*
D17*
X113610000Y-122780000D03*
D18*
X109800000Y-120240000D03*
X116150000Y-117700000D03*
%TD*%
D16*
%TO.C,K9*%
X99640000Y-122780000D03*
X89480000Y-122780000D03*
D17*
X94560000Y-122780000D03*
D18*
X90750000Y-120240000D03*
X97100000Y-117700000D03*
%TD*%
D16*
%TO.C,K8*%
X156790000Y-103730000D03*
X146630000Y-103730000D03*
D17*
X151710000Y-103730000D03*
D18*
X147900000Y-101190000D03*
X154250000Y-98650000D03*
%TD*%
D16*
%TO.C,K7*%
X137740000Y-103730000D03*
X127580000Y-103730000D03*
D17*
X132660000Y-103730000D03*
D18*
X128850000Y-101190000D03*
X135200000Y-98650000D03*
%TD*%
D16*
%TO.C,K6*%
X118690000Y-103730000D03*
X108530000Y-103730000D03*
D17*
X113610000Y-103730000D03*
D18*
X109800000Y-101190000D03*
X116150000Y-98650000D03*
%TD*%
D16*
%TO.C,K5*%
X99640000Y-103730000D03*
X89480000Y-103730000D03*
D17*
X94560000Y-103730000D03*
D18*
X90750000Y-101190000D03*
X97100000Y-98650000D03*
%TD*%
D16*
%TO.C,K4*%
X156790000Y-84680000D03*
X146630000Y-84680000D03*
D17*
X151710000Y-84680000D03*
D18*
X147900000Y-82140000D03*
X154250000Y-79600000D03*
%TD*%
D16*
%TO.C,K3*%
X137740000Y-84680000D03*
X127580000Y-84680000D03*
D17*
X132660000Y-84680000D03*
D18*
X128850000Y-82140000D03*
X135200000Y-79600000D03*
%TD*%
D16*
%TO.C,K2*%
X118690000Y-84680000D03*
X108530000Y-84680000D03*
D17*
X113610000Y-84680000D03*
D18*
X109800000Y-82140000D03*
X116150000Y-79600000D03*
%TD*%
D16*
%TO.C,K1*%
X99640000Y-84680000D03*
X89480000Y-84680000D03*
D17*
X94560000Y-84680000D03*
D18*
X90750000Y-82140000D03*
X97100000Y-79600000D03*
%TD*%
D19*
%TO.C,U4*%
X126920000Y-72000000D03*
D20*
X124380000Y-72000000D03*
X121840000Y-72000000D03*
X119300000Y-72000000D03*
%TD*%
D11*
%TO.C,H4*%
X85000000Y-146300000D03*
%TD*%
D20*
%TO.C,J1*%
X163600000Y-117020000D03*
X163600000Y-114480000D03*
X163600000Y-111940000D03*
D19*
X163600000Y-109400000D03*
%TD*%
D11*
%TO.C,H1*%
X85000000Y-50500000D03*
%TD*%
%TO.C,H2*%
X161200000Y-50500000D03*
%TD*%
%TO.C,H3*%
X161200000Y-146300000D03*
%TD*%
M02*
