M48
INCH,TZ
T1C0.0256
T2C0.0669
T3C0.1260
T4C0.1575
%
G90
G05
T1
X47311Y-20437
X49587Y-20437
T2
X57728Y-33339
X61728Y-33339
X50228Y-48339
X54228Y-48339
X50228Y-40839
X54228Y-40839
X35228Y-48339
X39228Y-48339
X42728Y-48339
X46728Y-48339
X50228Y-55839
X54228Y-55839
X57728Y-48339
X61728Y-48339
X57728Y-40839
X61728Y-40839
X50228Y-33339
X54228Y-33339
X35228Y-55839
X39228Y-55839
X35228Y-33339
X39228Y-33339
X35228Y-40839
X39228Y-40839
X57728Y-55839
X61728Y-55839
X42728Y-55839
X46728Y-55839
X42728Y-33339
X46728Y-33339
X42728Y-40839
X46728Y-40839
T3
X63465Y-57598
X33465Y-57598
X33465Y-19882
X63465Y-19882
T4
X59728Y-55839
X44728Y-55839
X44728Y-33339
X44728Y-40839
X59728Y-33339
X52228Y-48339
X52228Y-40839
X37228Y-48339
X44728Y-48339
X52228Y-55839
X59728Y-48339
X59728Y-40839
X52228Y-33339
X37228Y-55839
X37228Y-33339
X37228Y-40839
T0
M30
