%TF.GenerationSoftware,KiCad,Pcbnew,(5.1.6)-1*%
%TF.CreationDate,2020-09-18T23:02:29-05:00*%
%TF.ProjectId,rocketboard-16,726f636b-6574-4626-9f61-72642d31362e,1.1*%
%TF.SameCoordinates,Original*%
%TF.FileFunction,Soldermask,Bot*%
%TF.FilePolarity,Negative*%
%FSLAX46Y46*%
G04 Gerber Fmt 4.6, Leading zero omitted, Abs format (unit mm)*
G04 Created by KiCad (PCBNEW (5.1.6)-1) date 2020-09-18 23:02:29*
%MOMM*%
%LPD*%
G01*
G04 APERTURE LIST*
%ADD10C,0.150000*%
%ADD11R,1.200000X0.900000*%
%ADD12R,1.000000X0.750000*%
%ADD13C,2.000000*%
%ADD14C,3.200000*%
%ADD15R,2.000000X2.000000*%
%ADD16O,1.000000X1.600000*%
%ADD17O,0.900000X2.100000*%
%ADD18C,0.650000*%
%ADD19R,0.300000X1.750000*%
%ADD20R,1.800000X0.820000*%
%ADD21C,1.700000*%
%ADD22C,4.000000*%
%ADD23C,2.200000*%
%ADD24R,1.700000X1.700000*%
%ADD25O,1.700000X1.700000*%
%ADD26R,1.000000X1.800000*%
%ADD27R,1.300000X1.600000*%
%ADD28R,1.060000X0.650000*%
%ADD29R,1.500000X2.000000*%
%ADD30R,3.800000X2.000000*%
%ADD31R,1.500000X1.000000*%
G04 APERTURE END LIST*
%TO.C,H6*%
D10*
X82647619Y-96342857D02*
X82600000Y-96390476D01*
X82552380Y-96485714D01*
X82552380Y-96723809D01*
X82600000Y-96819047D01*
X82647619Y-96866666D01*
X82742857Y-96914285D01*
X82838095Y-96914285D01*
X82980952Y-96866666D01*
X83552380Y-96295238D01*
X83552380Y-96914285D01*
X82552380Y-97533333D02*
X82552380Y-97628571D01*
X82600000Y-97723809D01*
X82647619Y-97771428D01*
X82742857Y-97819047D01*
X82933333Y-97866666D01*
X83171428Y-97866666D01*
X83361904Y-97819047D01*
X83457142Y-97771428D01*
X83504761Y-97723809D01*
X83552380Y-97628571D01*
X83552380Y-97533333D01*
X83504761Y-97438095D01*
X83457142Y-97390476D01*
X83361904Y-97342857D01*
X83171428Y-97295238D01*
X82933333Y-97295238D01*
X82742857Y-97342857D01*
X82647619Y-97390476D01*
X82600000Y-97438095D01*
X82552380Y-97533333D01*
X82647619Y-98247619D02*
X82600000Y-98295238D01*
X82552380Y-98390476D01*
X82552380Y-98628571D01*
X82600000Y-98723809D01*
X82647619Y-98771428D01*
X82742857Y-98819047D01*
X82838095Y-98819047D01*
X82980952Y-98771428D01*
X83552380Y-98200000D01*
X83552380Y-98819047D01*
X82552380Y-99438095D02*
X82552380Y-99533333D01*
X82600000Y-99628571D01*
X82647619Y-99676190D01*
X82742857Y-99723809D01*
X82933333Y-99771428D01*
X83171428Y-99771428D01*
X83361904Y-99723809D01*
X83457142Y-99676190D01*
X83504761Y-99628571D01*
X83552380Y-99533333D01*
X83552380Y-99438095D01*
X83504761Y-99342857D01*
X83457142Y-99295238D01*
X83361904Y-99247619D01*
X83171428Y-99200000D01*
X82933333Y-99200000D01*
X82742857Y-99247619D01*
X82647619Y-99295238D01*
X82600000Y-99342857D01*
X82552380Y-99438095D01*
X83171428Y-100200000D02*
X83171428Y-100961904D01*
X82552380Y-101628571D02*
X82552380Y-101723809D01*
X82600000Y-101819047D01*
X82647619Y-101866666D01*
X82742857Y-101914285D01*
X82933333Y-101961904D01*
X83171428Y-101961904D01*
X83361904Y-101914285D01*
X83457142Y-101866666D01*
X83504761Y-101819047D01*
X83552380Y-101723809D01*
X83552380Y-101628571D01*
X83504761Y-101533333D01*
X83457142Y-101485714D01*
X83361904Y-101438095D01*
X83171428Y-101390476D01*
X82933333Y-101390476D01*
X82742857Y-101438095D01*
X82647619Y-101485714D01*
X82600000Y-101533333D01*
X82552380Y-101628571D01*
X83552380Y-102438095D02*
X83552380Y-102628571D01*
X83504761Y-102723809D01*
X83457142Y-102771428D01*
X83314285Y-102866666D01*
X83123809Y-102914285D01*
X82742857Y-102914285D01*
X82647619Y-102866666D01*
X82600000Y-102819047D01*
X82552380Y-102723809D01*
X82552380Y-102533333D01*
X82600000Y-102438095D01*
X82647619Y-102390476D01*
X82742857Y-102342857D01*
X82980952Y-102342857D01*
X83076190Y-102390476D01*
X83123809Y-102438095D01*
X83171428Y-102533333D01*
X83171428Y-102723809D01*
X83123809Y-102819047D01*
X83076190Y-102866666D01*
X82980952Y-102914285D01*
X83171428Y-103342857D02*
X83171428Y-104104761D01*
X83552380Y-105104761D02*
X83552380Y-104533333D01*
X83552380Y-104819047D02*
X82552380Y-104819047D01*
X82695238Y-104723809D01*
X82790476Y-104628571D01*
X82838095Y-104533333D01*
X82552380Y-105961904D02*
X82552380Y-105771428D01*
X82600000Y-105676190D01*
X82647619Y-105628571D01*
X82790476Y-105533333D01*
X82980952Y-105485714D01*
X83361904Y-105485714D01*
X83457142Y-105533333D01*
X83504761Y-105580952D01*
X83552380Y-105676190D01*
X83552380Y-105866666D01*
X83504761Y-105961904D01*
X83457142Y-106009523D01*
X83361904Y-106057142D01*
X83123809Y-106057142D01*
X83028571Y-106009523D01*
X82980952Y-105961904D01*
X82933333Y-105866666D01*
X82933333Y-105676190D01*
X82980952Y-105580952D01*
X83028571Y-105533333D01*
X83123809Y-105485714D01*
%TD*%
%TO.C,R11*%
G36*
G01*
X98650000Y-63968750D02*
X98650000Y-64481250D01*
G75*
G02*
X98431250Y-64700000I-218750J0D01*
G01*
X97993750Y-64700000D01*
G75*
G02*
X97775000Y-64481250I0J218750D01*
G01*
X97775000Y-63968750D01*
G75*
G02*
X97993750Y-63750000I218750J0D01*
G01*
X98431250Y-63750000D01*
G75*
G02*
X98650000Y-63968750I0J-218750D01*
G01*
G37*
G36*
G01*
X100225000Y-63968750D02*
X100225000Y-64481250D01*
G75*
G02*
X100006250Y-64700000I-218750J0D01*
G01*
X99568750Y-64700000D01*
G75*
G02*
X99350000Y-64481250I0J218750D01*
G01*
X99350000Y-63968750D01*
G75*
G02*
X99568750Y-63750000I218750J0D01*
G01*
X100006250Y-63750000D01*
G75*
G02*
X100225000Y-63968750I0J-218750D01*
G01*
G37*
%TD*%
%TO.C,R17*%
G36*
G01*
X107000000Y-58943750D02*
X107000000Y-59456250D01*
G75*
G02*
X106781250Y-59675000I-218750J0D01*
G01*
X106343750Y-59675000D01*
G75*
G02*
X106125000Y-59456250I0J218750D01*
G01*
X106125000Y-58943750D01*
G75*
G02*
X106343750Y-58725000I218750J0D01*
G01*
X106781250Y-58725000D01*
G75*
G02*
X107000000Y-58943750I0J-218750D01*
G01*
G37*
G36*
G01*
X105425000Y-58943750D02*
X105425000Y-59456250D01*
G75*
G02*
X105206250Y-59675000I-218750J0D01*
G01*
X104768750Y-59675000D01*
G75*
G02*
X104550000Y-59456250I0J218750D01*
G01*
X104550000Y-58943750D01*
G75*
G02*
X104768750Y-58725000I218750J0D01*
G01*
X105206250Y-58725000D01*
G75*
G02*
X105425000Y-58943750I0J-218750D01*
G01*
G37*
%TD*%
%TO.C,R16*%
G36*
G01*
X107000000Y-63968750D02*
X107000000Y-64481250D01*
G75*
G02*
X106781250Y-64700000I-218750J0D01*
G01*
X106343750Y-64700000D01*
G75*
G02*
X106125000Y-64481250I0J218750D01*
G01*
X106125000Y-63968750D01*
G75*
G02*
X106343750Y-63750000I218750J0D01*
G01*
X106781250Y-63750000D01*
G75*
G02*
X107000000Y-63968750I0J-218750D01*
G01*
G37*
G36*
G01*
X105425000Y-63968750D02*
X105425000Y-64481250D01*
G75*
G02*
X105206250Y-64700000I-218750J0D01*
G01*
X104768750Y-64700000D01*
G75*
G02*
X104550000Y-64481250I0J218750D01*
G01*
X104550000Y-63968750D01*
G75*
G02*
X104768750Y-63750000I218750J0D01*
G01*
X105206250Y-63750000D01*
G75*
G02*
X105425000Y-63968750I0J-218750D01*
G01*
G37*
%TD*%
%TO.C,R15*%
G36*
G01*
X138865000Y-64436250D02*
X138865000Y-63923750D01*
G75*
G02*
X139083750Y-63705000I218750J0D01*
G01*
X139521250Y-63705000D01*
G75*
G02*
X139740000Y-63923750I0J-218750D01*
G01*
X139740000Y-64436250D01*
G75*
G02*
X139521250Y-64655000I-218750J0D01*
G01*
X139083750Y-64655000D01*
G75*
G02*
X138865000Y-64436250I0J218750D01*
G01*
G37*
G36*
G01*
X140440000Y-64436250D02*
X140440000Y-63923750D01*
G75*
G02*
X140658750Y-63705000I218750J0D01*
G01*
X141096250Y-63705000D01*
G75*
G02*
X141315000Y-63923750I0J-218750D01*
G01*
X141315000Y-64436250D01*
G75*
G02*
X141096250Y-64655000I-218750J0D01*
G01*
X140658750Y-64655000D01*
G75*
G02*
X140440000Y-64436250I0J218750D01*
G01*
G37*
%TD*%
%TO.C,R14*%
G36*
G01*
X138865000Y-59436250D02*
X138865000Y-58923750D01*
G75*
G02*
X139083750Y-58705000I218750J0D01*
G01*
X139521250Y-58705000D01*
G75*
G02*
X139740000Y-58923750I0J-218750D01*
G01*
X139740000Y-59436250D01*
G75*
G02*
X139521250Y-59655000I-218750J0D01*
G01*
X139083750Y-59655000D01*
G75*
G02*
X138865000Y-59436250I0J218750D01*
G01*
G37*
G36*
G01*
X140440000Y-59436250D02*
X140440000Y-58923750D01*
G75*
G02*
X140658750Y-58705000I218750J0D01*
G01*
X141096250Y-58705000D01*
G75*
G02*
X141315000Y-58923750I0J-218750D01*
G01*
X141315000Y-59436250D01*
G75*
G02*
X141096250Y-59655000I-218750J0D01*
G01*
X140658750Y-59655000D01*
G75*
G02*
X140440000Y-59436250I0J218750D01*
G01*
G37*
%TD*%
%TO.C,R13*%
G36*
G01*
X98625000Y-58893750D02*
X98625000Y-59406250D01*
G75*
G02*
X98406250Y-59625000I-218750J0D01*
G01*
X97968750Y-59625000D01*
G75*
G02*
X97750000Y-59406250I0J218750D01*
G01*
X97750000Y-58893750D01*
G75*
G02*
X97968750Y-58675000I218750J0D01*
G01*
X98406250Y-58675000D01*
G75*
G02*
X98625000Y-58893750I0J-218750D01*
G01*
G37*
G36*
G01*
X100200000Y-58893750D02*
X100200000Y-59406250D01*
G75*
G02*
X99981250Y-59625000I-218750J0D01*
G01*
X99543750Y-59625000D01*
G75*
G02*
X99325000Y-59406250I0J218750D01*
G01*
X99325000Y-58893750D01*
G75*
G02*
X99543750Y-58675000I218750J0D01*
G01*
X99981250Y-58675000D01*
G75*
G02*
X100200000Y-58893750I0J-218750D01*
G01*
G37*
%TD*%
%TO.C,R12*%
G36*
G01*
X145825000Y-64536250D02*
X145825000Y-64023750D01*
G75*
G02*
X146043750Y-63805000I218750J0D01*
G01*
X146481250Y-63805000D01*
G75*
G02*
X146700000Y-64023750I0J-218750D01*
G01*
X146700000Y-64536250D01*
G75*
G02*
X146481250Y-64755000I-218750J0D01*
G01*
X146043750Y-64755000D01*
G75*
G02*
X145825000Y-64536250I0J218750D01*
G01*
G37*
G36*
G01*
X147400000Y-64536250D02*
X147400000Y-64023750D01*
G75*
G02*
X147618750Y-63805000I218750J0D01*
G01*
X148056250Y-63805000D01*
G75*
G02*
X148275000Y-64023750I0J-218750D01*
G01*
X148275000Y-64536250D01*
G75*
G02*
X148056250Y-64755000I-218750J0D01*
G01*
X147618750Y-64755000D01*
G75*
G02*
X147400000Y-64536250I0J218750D01*
G01*
G37*
%TD*%
%TO.C,R10*%
G36*
G01*
X145825000Y-59546250D02*
X145825000Y-59033750D01*
G75*
G02*
X146043750Y-58815000I218750J0D01*
G01*
X146481250Y-58815000D01*
G75*
G02*
X146700000Y-59033750I0J-218750D01*
G01*
X146700000Y-59546250D01*
G75*
G02*
X146481250Y-59765000I-218750J0D01*
G01*
X146043750Y-59765000D01*
G75*
G02*
X145825000Y-59546250I0J218750D01*
G01*
G37*
G36*
G01*
X147400000Y-59546250D02*
X147400000Y-59033750D01*
G75*
G02*
X147618750Y-58815000I218750J0D01*
G01*
X148056250Y-58815000D01*
G75*
G02*
X148275000Y-59033750I0J-218750D01*
G01*
X148275000Y-59546250D01*
G75*
G02*
X148056250Y-59765000I-218750J0D01*
G01*
X147618750Y-59765000D01*
G75*
G02*
X147400000Y-59546250I0J218750D01*
G01*
G37*
%TD*%
%TO.C,C35*%
G36*
G01*
X108445000Y-79056250D02*
X108445000Y-78543750D01*
G75*
G02*
X108663750Y-78325000I218750J0D01*
G01*
X109101250Y-78325000D01*
G75*
G02*
X109320000Y-78543750I0J-218750D01*
G01*
X109320000Y-79056250D01*
G75*
G02*
X109101250Y-79275000I-218750J0D01*
G01*
X108663750Y-79275000D01*
G75*
G02*
X108445000Y-79056250I0J218750D01*
G01*
G37*
G36*
G01*
X110020000Y-79056250D02*
X110020000Y-78543750D01*
G75*
G02*
X110238750Y-78325000I218750J0D01*
G01*
X110676250Y-78325000D01*
G75*
G02*
X110895000Y-78543750I0J-218750D01*
G01*
X110895000Y-79056250D01*
G75*
G02*
X110676250Y-79275000I-218750J0D01*
G01*
X110238750Y-79275000D01*
G75*
G02*
X110020000Y-79056250I0J218750D01*
G01*
G37*
%TD*%
%TO.C,C34*%
G36*
G01*
X137786250Y-58315000D02*
X137273750Y-58315000D01*
G75*
G02*
X137055000Y-58096250I0J218750D01*
G01*
X137055000Y-57658750D01*
G75*
G02*
X137273750Y-57440000I218750J0D01*
G01*
X137786250Y-57440000D01*
G75*
G02*
X138005000Y-57658750I0J-218750D01*
G01*
X138005000Y-58096250D01*
G75*
G02*
X137786250Y-58315000I-218750J0D01*
G01*
G37*
G36*
G01*
X137786250Y-56740000D02*
X137273750Y-56740000D01*
G75*
G02*
X137055000Y-56521250I0J218750D01*
G01*
X137055000Y-56083750D01*
G75*
G02*
X137273750Y-55865000I218750J0D01*
G01*
X137786250Y-55865000D01*
G75*
G02*
X138005000Y-56083750I0J-218750D01*
G01*
X138005000Y-56521250D01*
G75*
G02*
X137786250Y-56740000I-218750J0D01*
G01*
G37*
%TD*%
%TO.C,C33*%
G36*
G01*
X109100000Y-75631250D02*
X109100000Y-75118750D01*
G75*
G02*
X109318750Y-74900000I218750J0D01*
G01*
X109756250Y-74900000D01*
G75*
G02*
X109975000Y-75118750I0J-218750D01*
G01*
X109975000Y-75631250D01*
G75*
G02*
X109756250Y-75850000I-218750J0D01*
G01*
X109318750Y-75850000D01*
G75*
G02*
X109100000Y-75631250I0J218750D01*
G01*
G37*
G36*
G01*
X110675000Y-75631250D02*
X110675000Y-75118750D01*
G75*
G02*
X110893750Y-74900000I218750J0D01*
G01*
X111331250Y-74900000D01*
G75*
G02*
X111550000Y-75118750I0J-218750D01*
G01*
X111550000Y-75631250D01*
G75*
G02*
X111331250Y-75850000I-218750J0D01*
G01*
X110893750Y-75850000D01*
G75*
G02*
X110675000Y-75631250I0J218750D01*
G01*
G37*
%TD*%
%TO.C,C32*%
G36*
G01*
X137786250Y-63405000D02*
X137273750Y-63405000D01*
G75*
G02*
X137055000Y-63186250I0J218750D01*
G01*
X137055000Y-62748750D01*
G75*
G02*
X137273750Y-62530000I218750J0D01*
G01*
X137786250Y-62530000D01*
G75*
G02*
X138005000Y-62748750I0J-218750D01*
G01*
X138005000Y-63186250D01*
G75*
G02*
X137786250Y-63405000I-218750J0D01*
G01*
G37*
G36*
G01*
X137786250Y-61830000D02*
X137273750Y-61830000D01*
G75*
G02*
X137055000Y-61611250I0J218750D01*
G01*
X137055000Y-61173750D01*
G75*
G02*
X137273750Y-60955000I218750J0D01*
G01*
X137786250Y-60955000D01*
G75*
G02*
X138005000Y-61173750I0J-218750D01*
G01*
X138005000Y-61611250D01*
G75*
G02*
X137786250Y-61830000I-218750J0D01*
G01*
G37*
%TD*%
%TO.C,C13*%
G36*
G01*
X114050000Y-65974999D02*
X114050000Y-66825001D01*
G75*
G02*
X113800001Y-67075000I-249999J0D01*
G01*
X112899999Y-67075000D01*
G75*
G02*
X112650000Y-66825001I0J249999D01*
G01*
X112650000Y-65974999D01*
G75*
G02*
X112899999Y-65725000I249999J0D01*
G01*
X113800001Y-65725000D01*
G75*
G02*
X114050000Y-65974999I0J-249999D01*
G01*
G37*
G36*
G01*
X116750000Y-65974999D02*
X116750000Y-66825001D01*
G75*
G02*
X116500001Y-67075000I-249999J0D01*
G01*
X115599999Y-67075000D01*
G75*
G02*
X115350000Y-66825001I0J249999D01*
G01*
X115350000Y-65974999D01*
G75*
G02*
X115599999Y-65725000I249999J0D01*
G01*
X116500001Y-65725000D01*
G75*
G02*
X116750000Y-65974999I0J-249999D01*
G01*
G37*
%TD*%
D11*
%TO.C,D14*%
X119100000Y-135950000D03*
X119100000Y-139250000D03*
%TD*%
%TO.C,D16*%
X157300000Y-134850000D03*
X157300000Y-138150000D03*
%TD*%
%TO.C,D11*%
X139100000Y-116350000D03*
X139100000Y-119650000D03*
%TD*%
%TO.C,D9*%
X100000000Y-115850000D03*
X100000000Y-119150000D03*
%TD*%
D12*
%TO.C,SW1*%
X97656000Y-72780000D03*
X91656000Y-72780000D03*
X97656000Y-76530000D03*
X91656000Y-76530000D03*
%TD*%
D13*
%TO.C,SW3*%
X158090000Y-64200000D03*
X158090000Y-59200000D03*
D14*
X151090000Y-67300000D03*
X151090000Y-56100000D03*
D13*
X143590000Y-64200000D03*
X143590000Y-61700000D03*
D15*
X143590000Y-59200000D03*
%TD*%
D13*
%TO.C,SW2*%
X88100000Y-59200000D03*
X88100000Y-64200000D03*
D14*
X95100000Y-56100000D03*
X95100000Y-67300000D03*
D13*
X102600000Y-59200000D03*
X102600000Y-61700000D03*
D15*
X102600000Y-64200000D03*
%TD*%
D16*
%TO.C,P1*%
X118740000Y-48230000D03*
X127380000Y-48230000D03*
D17*
X118740000Y-52410000D03*
X127380000Y-52410000D03*
D18*
X120170000Y-51910000D03*
X125950000Y-51910000D03*
D19*
X123310000Y-53250000D03*
X123810000Y-53250000D03*
X124310000Y-53250000D03*
X124810000Y-53250000D03*
X122310000Y-53250000D03*
X121310000Y-53250000D03*
X121810000Y-53250000D03*
X122810000Y-53250000D03*
X119710000Y-53250000D03*
X120010000Y-53250000D03*
X120510000Y-53250000D03*
X120810000Y-53250000D03*
X125610000Y-53250000D03*
X125310000Y-53250000D03*
X126110000Y-53250000D03*
X126410000Y-53250000D03*
%TD*%
%TO.C,K16*%
G36*
G01*
X148050000Y-147415000D02*
X148050000Y-147005000D01*
G75*
G02*
X148255000Y-146800000I205000J0D01*
G01*
X149645000Y-146800000D01*
G75*
G02*
X149850000Y-147005000I0J-205000D01*
G01*
X149850000Y-147415000D01*
G75*
G02*
X149645000Y-147620000I-205000J0D01*
G01*
X148255000Y-147620000D01*
G75*
G02*
X148050000Y-147415000I0J205000D01*
G01*
G37*
D20*
X154450000Y-147210000D03*
G36*
G01*
X153550000Y-146055000D02*
X153550000Y-145645000D01*
G75*
G02*
X153755000Y-145440000I205000J0D01*
G01*
X155145000Y-145440000D01*
G75*
G02*
X155350000Y-145645000I0J-205000D01*
G01*
X155350000Y-146055000D01*
G75*
G02*
X155145000Y-146260000I-205000J0D01*
G01*
X153755000Y-146260000D01*
G75*
G02*
X153550000Y-146055000I0J205000D01*
G01*
G37*
G36*
G01*
X148050000Y-146055000D02*
X148050000Y-145645000D01*
G75*
G02*
X148255000Y-145440000I205000J0D01*
G01*
X149645000Y-145440000D01*
G75*
G02*
X149850000Y-145645000I0J-205000D01*
G01*
X149850000Y-146055000D01*
G75*
G02*
X149645000Y-146260000I-205000J0D01*
G01*
X148255000Y-146260000D01*
G75*
G02*
X148050000Y-146055000I0J205000D01*
G01*
G37*
D21*
X156790000Y-141830000D03*
X146630000Y-141830000D03*
D22*
X151710000Y-141830000D03*
D23*
X147900000Y-139290000D03*
X154250000Y-136750000D03*
%TD*%
%TO.C,K15*%
G36*
G01*
X129000000Y-147415000D02*
X129000000Y-147005000D01*
G75*
G02*
X129205000Y-146800000I205000J0D01*
G01*
X130595000Y-146800000D01*
G75*
G02*
X130800000Y-147005000I0J-205000D01*
G01*
X130800000Y-147415000D01*
G75*
G02*
X130595000Y-147620000I-205000J0D01*
G01*
X129205000Y-147620000D01*
G75*
G02*
X129000000Y-147415000I0J205000D01*
G01*
G37*
D20*
X135400000Y-147210000D03*
G36*
G01*
X134500000Y-146055000D02*
X134500000Y-145645000D01*
G75*
G02*
X134705000Y-145440000I205000J0D01*
G01*
X136095000Y-145440000D01*
G75*
G02*
X136300000Y-145645000I0J-205000D01*
G01*
X136300000Y-146055000D01*
G75*
G02*
X136095000Y-146260000I-205000J0D01*
G01*
X134705000Y-146260000D01*
G75*
G02*
X134500000Y-146055000I0J205000D01*
G01*
G37*
G36*
G01*
X129000000Y-146055000D02*
X129000000Y-145645000D01*
G75*
G02*
X129205000Y-145440000I205000J0D01*
G01*
X130595000Y-145440000D01*
G75*
G02*
X130800000Y-145645000I0J-205000D01*
G01*
X130800000Y-146055000D01*
G75*
G02*
X130595000Y-146260000I-205000J0D01*
G01*
X129205000Y-146260000D01*
G75*
G02*
X129000000Y-146055000I0J205000D01*
G01*
G37*
D21*
X137740000Y-141830000D03*
X127580000Y-141830000D03*
D22*
X132660000Y-141830000D03*
D23*
X128850000Y-139290000D03*
X135200000Y-136750000D03*
%TD*%
%TO.C,K14*%
G36*
G01*
X109950000Y-147415000D02*
X109950000Y-147005000D01*
G75*
G02*
X110155000Y-146800000I205000J0D01*
G01*
X111545000Y-146800000D01*
G75*
G02*
X111750000Y-147005000I0J-205000D01*
G01*
X111750000Y-147415000D01*
G75*
G02*
X111545000Y-147620000I-205000J0D01*
G01*
X110155000Y-147620000D01*
G75*
G02*
X109950000Y-147415000I0J205000D01*
G01*
G37*
D20*
X116350000Y-147210000D03*
G36*
G01*
X115450000Y-146055000D02*
X115450000Y-145645000D01*
G75*
G02*
X115655000Y-145440000I205000J0D01*
G01*
X117045000Y-145440000D01*
G75*
G02*
X117250000Y-145645000I0J-205000D01*
G01*
X117250000Y-146055000D01*
G75*
G02*
X117045000Y-146260000I-205000J0D01*
G01*
X115655000Y-146260000D01*
G75*
G02*
X115450000Y-146055000I0J205000D01*
G01*
G37*
G36*
G01*
X109950000Y-146055000D02*
X109950000Y-145645000D01*
G75*
G02*
X110155000Y-145440000I205000J0D01*
G01*
X111545000Y-145440000D01*
G75*
G02*
X111750000Y-145645000I0J-205000D01*
G01*
X111750000Y-146055000D01*
G75*
G02*
X111545000Y-146260000I-205000J0D01*
G01*
X110155000Y-146260000D01*
G75*
G02*
X109950000Y-146055000I0J205000D01*
G01*
G37*
D21*
X118690000Y-141830000D03*
X108530000Y-141830000D03*
D22*
X113610000Y-141830000D03*
D23*
X109800000Y-139290000D03*
X116150000Y-136750000D03*
%TD*%
%TO.C,K13*%
G36*
G01*
X90900000Y-147415000D02*
X90900000Y-147005000D01*
G75*
G02*
X91105000Y-146800000I205000J0D01*
G01*
X92495000Y-146800000D01*
G75*
G02*
X92700000Y-147005000I0J-205000D01*
G01*
X92700000Y-147415000D01*
G75*
G02*
X92495000Y-147620000I-205000J0D01*
G01*
X91105000Y-147620000D01*
G75*
G02*
X90900000Y-147415000I0J205000D01*
G01*
G37*
D20*
X97300000Y-147210000D03*
G36*
G01*
X96400000Y-146055000D02*
X96400000Y-145645000D01*
G75*
G02*
X96605000Y-145440000I205000J0D01*
G01*
X97995000Y-145440000D01*
G75*
G02*
X98200000Y-145645000I0J-205000D01*
G01*
X98200000Y-146055000D01*
G75*
G02*
X97995000Y-146260000I-205000J0D01*
G01*
X96605000Y-146260000D01*
G75*
G02*
X96400000Y-146055000I0J205000D01*
G01*
G37*
G36*
G01*
X90900000Y-146055000D02*
X90900000Y-145645000D01*
G75*
G02*
X91105000Y-145440000I205000J0D01*
G01*
X92495000Y-145440000D01*
G75*
G02*
X92700000Y-145645000I0J-205000D01*
G01*
X92700000Y-146055000D01*
G75*
G02*
X92495000Y-146260000I-205000J0D01*
G01*
X91105000Y-146260000D01*
G75*
G02*
X90900000Y-146055000I0J205000D01*
G01*
G37*
D21*
X99640000Y-141830000D03*
X89480000Y-141830000D03*
D22*
X94560000Y-141830000D03*
D23*
X90750000Y-139290000D03*
X97100000Y-136750000D03*
%TD*%
%TO.C,K12*%
G36*
G01*
X148050000Y-128365000D02*
X148050000Y-127955000D01*
G75*
G02*
X148255000Y-127750000I205000J0D01*
G01*
X149645000Y-127750000D01*
G75*
G02*
X149850000Y-127955000I0J-205000D01*
G01*
X149850000Y-128365000D01*
G75*
G02*
X149645000Y-128570000I-205000J0D01*
G01*
X148255000Y-128570000D01*
G75*
G02*
X148050000Y-128365000I0J205000D01*
G01*
G37*
D20*
X154450000Y-128160000D03*
G36*
G01*
X153550000Y-127005000D02*
X153550000Y-126595000D01*
G75*
G02*
X153755000Y-126390000I205000J0D01*
G01*
X155145000Y-126390000D01*
G75*
G02*
X155350000Y-126595000I0J-205000D01*
G01*
X155350000Y-127005000D01*
G75*
G02*
X155145000Y-127210000I-205000J0D01*
G01*
X153755000Y-127210000D01*
G75*
G02*
X153550000Y-127005000I0J205000D01*
G01*
G37*
G36*
G01*
X148050000Y-127005000D02*
X148050000Y-126595000D01*
G75*
G02*
X148255000Y-126390000I205000J0D01*
G01*
X149645000Y-126390000D01*
G75*
G02*
X149850000Y-126595000I0J-205000D01*
G01*
X149850000Y-127005000D01*
G75*
G02*
X149645000Y-127210000I-205000J0D01*
G01*
X148255000Y-127210000D01*
G75*
G02*
X148050000Y-127005000I0J205000D01*
G01*
G37*
D21*
X156790000Y-122780000D03*
X146630000Y-122780000D03*
D22*
X151710000Y-122780000D03*
D23*
X147900000Y-120240000D03*
X154250000Y-117700000D03*
%TD*%
%TO.C,K11*%
G36*
G01*
X129000000Y-128365000D02*
X129000000Y-127955000D01*
G75*
G02*
X129205000Y-127750000I205000J0D01*
G01*
X130595000Y-127750000D01*
G75*
G02*
X130800000Y-127955000I0J-205000D01*
G01*
X130800000Y-128365000D01*
G75*
G02*
X130595000Y-128570000I-205000J0D01*
G01*
X129205000Y-128570000D01*
G75*
G02*
X129000000Y-128365000I0J205000D01*
G01*
G37*
D20*
X135400000Y-128160000D03*
G36*
G01*
X134500000Y-127005000D02*
X134500000Y-126595000D01*
G75*
G02*
X134705000Y-126390000I205000J0D01*
G01*
X136095000Y-126390000D01*
G75*
G02*
X136300000Y-126595000I0J-205000D01*
G01*
X136300000Y-127005000D01*
G75*
G02*
X136095000Y-127210000I-205000J0D01*
G01*
X134705000Y-127210000D01*
G75*
G02*
X134500000Y-127005000I0J205000D01*
G01*
G37*
G36*
G01*
X129000000Y-127005000D02*
X129000000Y-126595000D01*
G75*
G02*
X129205000Y-126390000I205000J0D01*
G01*
X130595000Y-126390000D01*
G75*
G02*
X130800000Y-126595000I0J-205000D01*
G01*
X130800000Y-127005000D01*
G75*
G02*
X130595000Y-127210000I-205000J0D01*
G01*
X129205000Y-127210000D01*
G75*
G02*
X129000000Y-127005000I0J205000D01*
G01*
G37*
D21*
X137740000Y-122780000D03*
X127580000Y-122780000D03*
D22*
X132660000Y-122780000D03*
D23*
X128850000Y-120240000D03*
X135200000Y-117700000D03*
%TD*%
%TO.C,K10*%
G36*
G01*
X109950000Y-128365000D02*
X109950000Y-127955000D01*
G75*
G02*
X110155000Y-127750000I205000J0D01*
G01*
X111545000Y-127750000D01*
G75*
G02*
X111750000Y-127955000I0J-205000D01*
G01*
X111750000Y-128365000D01*
G75*
G02*
X111545000Y-128570000I-205000J0D01*
G01*
X110155000Y-128570000D01*
G75*
G02*
X109950000Y-128365000I0J205000D01*
G01*
G37*
D20*
X116350000Y-128160000D03*
G36*
G01*
X115450000Y-127005000D02*
X115450000Y-126595000D01*
G75*
G02*
X115655000Y-126390000I205000J0D01*
G01*
X117045000Y-126390000D01*
G75*
G02*
X117250000Y-126595000I0J-205000D01*
G01*
X117250000Y-127005000D01*
G75*
G02*
X117045000Y-127210000I-205000J0D01*
G01*
X115655000Y-127210000D01*
G75*
G02*
X115450000Y-127005000I0J205000D01*
G01*
G37*
G36*
G01*
X109950000Y-127005000D02*
X109950000Y-126595000D01*
G75*
G02*
X110155000Y-126390000I205000J0D01*
G01*
X111545000Y-126390000D01*
G75*
G02*
X111750000Y-126595000I0J-205000D01*
G01*
X111750000Y-127005000D01*
G75*
G02*
X111545000Y-127210000I-205000J0D01*
G01*
X110155000Y-127210000D01*
G75*
G02*
X109950000Y-127005000I0J205000D01*
G01*
G37*
D21*
X118690000Y-122780000D03*
X108530000Y-122780000D03*
D22*
X113610000Y-122780000D03*
D23*
X109800000Y-120240000D03*
X116150000Y-117700000D03*
%TD*%
%TO.C,K9*%
G36*
G01*
X90900000Y-128365000D02*
X90900000Y-127955000D01*
G75*
G02*
X91105000Y-127750000I205000J0D01*
G01*
X92495000Y-127750000D01*
G75*
G02*
X92700000Y-127955000I0J-205000D01*
G01*
X92700000Y-128365000D01*
G75*
G02*
X92495000Y-128570000I-205000J0D01*
G01*
X91105000Y-128570000D01*
G75*
G02*
X90900000Y-128365000I0J205000D01*
G01*
G37*
D20*
X97300000Y-128160000D03*
G36*
G01*
X96400000Y-127005000D02*
X96400000Y-126595000D01*
G75*
G02*
X96605000Y-126390000I205000J0D01*
G01*
X97995000Y-126390000D01*
G75*
G02*
X98200000Y-126595000I0J-205000D01*
G01*
X98200000Y-127005000D01*
G75*
G02*
X97995000Y-127210000I-205000J0D01*
G01*
X96605000Y-127210000D01*
G75*
G02*
X96400000Y-127005000I0J205000D01*
G01*
G37*
G36*
G01*
X90900000Y-127005000D02*
X90900000Y-126595000D01*
G75*
G02*
X91105000Y-126390000I205000J0D01*
G01*
X92495000Y-126390000D01*
G75*
G02*
X92700000Y-126595000I0J-205000D01*
G01*
X92700000Y-127005000D01*
G75*
G02*
X92495000Y-127210000I-205000J0D01*
G01*
X91105000Y-127210000D01*
G75*
G02*
X90900000Y-127005000I0J205000D01*
G01*
G37*
D21*
X99640000Y-122780000D03*
X89480000Y-122780000D03*
D22*
X94560000Y-122780000D03*
D23*
X90750000Y-120240000D03*
X97100000Y-117700000D03*
%TD*%
%TO.C,K8*%
G36*
G01*
X148050000Y-109315000D02*
X148050000Y-108905000D01*
G75*
G02*
X148255000Y-108700000I205000J0D01*
G01*
X149645000Y-108700000D01*
G75*
G02*
X149850000Y-108905000I0J-205000D01*
G01*
X149850000Y-109315000D01*
G75*
G02*
X149645000Y-109520000I-205000J0D01*
G01*
X148255000Y-109520000D01*
G75*
G02*
X148050000Y-109315000I0J205000D01*
G01*
G37*
D20*
X154450000Y-109110000D03*
G36*
G01*
X153550000Y-107955000D02*
X153550000Y-107545000D01*
G75*
G02*
X153755000Y-107340000I205000J0D01*
G01*
X155145000Y-107340000D01*
G75*
G02*
X155350000Y-107545000I0J-205000D01*
G01*
X155350000Y-107955000D01*
G75*
G02*
X155145000Y-108160000I-205000J0D01*
G01*
X153755000Y-108160000D01*
G75*
G02*
X153550000Y-107955000I0J205000D01*
G01*
G37*
G36*
G01*
X148050000Y-107955000D02*
X148050000Y-107545000D01*
G75*
G02*
X148255000Y-107340000I205000J0D01*
G01*
X149645000Y-107340000D01*
G75*
G02*
X149850000Y-107545000I0J-205000D01*
G01*
X149850000Y-107955000D01*
G75*
G02*
X149645000Y-108160000I-205000J0D01*
G01*
X148255000Y-108160000D01*
G75*
G02*
X148050000Y-107955000I0J205000D01*
G01*
G37*
D21*
X156790000Y-103730000D03*
X146630000Y-103730000D03*
D22*
X151710000Y-103730000D03*
D23*
X147900000Y-101190000D03*
X154250000Y-98650000D03*
%TD*%
%TO.C,K7*%
G36*
G01*
X129000000Y-109315000D02*
X129000000Y-108905000D01*
G75*
G02*
X129205000Y-108700000I205000J0D01*
G01*
X130595000Y-108700000D01*
G75*
G02*
X130800000Y-108905000I0J-205000D01*
G01*
X130800000Y-109315000D01*
G75*
G02*
X130595000Y-109520000I-205000J0D01*
G01*
X129205000Y-109520000D01*
G75*
G02*
X129000000Y-109315000I0J205000D01*
G01*
G37*
D20*
X135400000Y-109110000D03*
G36*
G01*
X134500000Y-107955000D02*
X134500000Y-107545000D01*
G75*
G02*
X134705000Y-107340000I205000J0D01*
G01*
X136095000Y-107340000D01*
G75*
G02*
X136300000Y-107545000I0J-205000D01*
G01*
X136300000Y-107955000D01*
G75*
G02*
X136095000Y-108160000I-205000J0D01*
G01*
X134705000Y-108160000D01*
G75*
G02*
X134500000Y-107955000I0J205000D01*
G01*
G37*
G36*
G01*
X129000000Y-107955000D02*
X129000000Y-107545000D01*
G75*
G02*
X129205000Y-107340000I205000J0D01*
G01*
X130595000Y-107340000D01*
G75*
G02*
X130800000Y-107545000I0J-205000D01*
G01*
X130800000Y-107955000D01*
G75*
G02*
X130595000Y-108160000I-205000J0D01*
G01*
X129205000Y-108160000D01*
G75*
G02*
X129000000Y-107955000I0J205000D01*
G01*
G37*
D21*
X137740000Y-103730000D03*
X127580000Y-103730000D03*
D22*
X132660000Y-103730000D03*
D23*
X128850000Y-101190000D03*
X135200000Y-98650000D03*
%TD*%
%TO.C,K6*%
G36*
G01*
X109950000Y-109315000D02*
X109950000Y-108905000D01*
G75*
G02*
X110155000Y-108700000I205000J0D01*
G01*
X111545000Y-108700000D01*
G75*
G02*
X111750000Y-108905000I0J-205000D01*
G01*
X111750000Y-109315000D01*
G75*
G02*
X111545000Y-109520000I-205000J0D01*
G01*
X110155000Y-109520000D01*
G75*
G02*
X109950000Y-109315000I0J205000D01*
G01*
G37*
D20*
X116350000Y-109110000D03*
G36*
G01*
X115450000Y-107955000D02*
X115450000Y-107545000D01*
G75*
G02*
X115655000Y-107340000I205000J0D01*
G01*
X117045000Y-107340000D01*
G75*
G02*
X117250000Y-107545000I0J-205000D01*
G01*
X117250000Y-107955000D01*
G75*
G02*
X117045000Y-108160000I-205000J0D01*
G01*
X115655000Y-108160000D01*
G75*
G02*
X115450000Y-107955000I0J205000D01*
G01*
G37*
G36*
G01*
X109950000Y-107955000D02*
X109950000Y-107545000D01*
G75*
G02*
X110155000Y-107340000I205000J0D01*
G01*
X111545000Y-107340000D01*
G75*
G02*
X111750000Y-107545000I0J-205000D01*
G01*
X111750000Y-107955000D01*
G75*
G02*
X111545000Y-108160000I-205000J0D01*
G01*
X110155000Y-108160000D01*
G75*
G02*
X109950000Y-107955000I0J205000D01*
G01*
G37*
D21*
X118690000Y-103730000D03*
X108530000Y-103730000D03*
D22*
X113610000Y-103730000D03*
D23*
X109800000Y-101190000D03*
X116150000Y-98650000D03*
%TD*%
%TO.C,K5*%
G36*
G01*
X90900000Y-109315000D02*
X90900000Y-108905000D01*
G75*
G02*
X91105000Y-108700000I205000J0D01*
G01*
X92495000Y-108700000D01*
G75*
G02*
X92700000Y-108905000I0J-205000D01*
G01*
X92700000Y-109315000D01*
G75*
G02*
X92495000Y-109520000I-205000J0D01*
G01*
X91105000Y-109520000D01*
G75*
G02*
X90900000Y-109315000I0J205000D01*
G01*
G37*
D20*
X97300000Y-109110000D03*
G36*
G01*
X96400000Y-107955000D02*
X96400000Y-107545000D01*
G75*
G02*
X96605000Y-107340000I205000J0D01*
G01*
X97995000Y-107340000D01*
G75*
G02*
X98200000Y-107545000I0J-205000D01*
G01*
X98200000Y-107955000D01*
G75*
G02*
X97995000Y-108160000I-205000J0D01*
G01*
X96605000Y-108160000D01*
G75*
G02*
X96400000Y-107955000I0J205000D01*
G01*
G37*
G36*
G01*
X90900000Y-107955000D02*
X90900000Y-107545000D01*
G75*
G02*
X91105000Y-107340000I205000J0D01*
G01*
X92495000Y-107340000D01*
G75*
G02*
X92700000Y-107545000I0J-205000D01*
G01*
X92700000Y-107955000D01*
G75*
G02*
X92495000Y-108160000I-205000J0D01*
G01*
X91105000Y-108160000D01*
G75*
G02*
X90900000Y-107955000I0J205000D01*
G01*
G37*
D21*
X99640000Y-103730000D03*
X89480000Y-103730000D03*
D22*
X94560000Y-103730000D03*
D23*
X90750000Y-101190000D03*
X97100000Y-98650000D03*
%TD*%
%TO.C,K4*%
G36*
G01*
X148050000Y-90265000D02*
X148050000Y-89855000D01*
G75*
G02*
X148255000Y-89650000I205000J0D01*
G01*
X149645000Y-89650000D01*
G75*
G02*
X149850000Y-89855000I0J-205000D01*
G01*
X149850000Y-90265000D01*
G75*
G02*
X149645000Y-90470000I-205000J0D01*
G01*
X148255000Y-90470000D01*
G75*
G02*
X148050000Y-90265000I0J205000D01*
G01*
G37*
D20*
X154450000Y-90060000D03*
G36*
G01*
X153550000Y-88905000D02*
X153550000Y-88495000D01*
G75*
G02*
X153755000Y-88290000I205000J0D01*
G01*
X155145000Y-88290000D01*
G75*
G02*
X155350000Y-88495000I0J-205000D01*
G01*
X155350000Y-88905000D01*
G75*
G02*
X155145000Y-89110000I-205000J0D01*
G01*
X153755000Y-89110000D01*
G75*
G02*
X153550000Y-88905000I0J205000D01*
G01*
G37*
G36*
G01*
X148050000Y-88905000D02*
X148050000Y-88495000D01*
G75*
G02*
X148255000Y-88290000I205000J0D01*
G01*
X149645000Y-88290000D01*
G75*
G02*
X149850000Y-88495000I0J-205000D01*
G01*
X149850000Y-88905000D01*
G75*
G02*
X149645000Y-89110000I-205000J0D01*
G01*
X148255000Y-89110000D01*
G75*
G02*
X148050000Y-88905000I0J205000D01*
G01*
G37*
D21*
X156790000Y-84680000D03*
X146630000Y-84680000D03*
D22*
X151710000Y-84680000D03*
D23*
X147900000Y-82140000D03*
X154250000Y-79600000D03*
%TD*%
%TO.C,K3*%
G36*
G01*
X129000000Y-90265000D02*
X129000000Y-89855000D01*
G75*
G02*
X129205000Y-89650000I205000J0D01*
G01*
X130595000Y-89650000D01*
G75*
G02*
X130800000Y-89855000I0J-205000D01*
G01*
X130800000Y-90265000D01*
G75*
G02*
X130595000Y-90470000I-205000J0D01*
G01*
X129205000Y-90470000D01*
G75*
G02*
X129000000Y-90265000I0J205000D01*
G01*
G37*
D20*
X135400000Y-90060000D03*
G36*
G01*
X134500000Y-88905000D02*
X134500000Y-88495000D01*
G75*
G02*
X134705000Y-88290000I205000J0D01*
G01*
X136095000Y-88290000D01*
G75*
G02*
X136300000Y-88495000I0J-205000D01*
G01*
X136300000Y-88905000D01*
G75*
G02*
X136095000Y-89110000I-205000J0D01*
G01*
X134705000Y-89110000D01*
G75*
G02*
X134500000Y-88905000I0J205000D01*
G01*
G37*
G36*
G01*
X129000000Y-88905000D02*
X129000000Y-88495000D01*
G75*
G02*
X129205000Y-88290000I205000J0D01*
G01*
X130595000Y-88290000D01*
G75*
G02*
X130800000Y-88495000I0J-205000D01*
G01*
X130800000Y-88905000D01*
G75*
G02*
X130595000Y-89110000I-205000J0D01*
G01*
X129205000Y-89110000D01*
G75*
G02*
X129000000Y-88905000I0J205000D01*
G01*
G37*
D21*
X137740000Y-84680000D03*
X127580000Y-84680000D03*
D22*
X132660000Y-84680000D03*
D23*
X128850000Y-82140000D03*
X135200000Y-79600000D03*
%TD*%
%TO.C,K2*%
G36*
G01*
X109950000Y-90265000D02*
X109950000Y-89855000D01*
G75*
G02*
X110155000Y-89650000I205000J0D01*
G01*
X111545000Y-89650000D01*
G75*
G02*
X111750000Y-89855000I0J-205000D01*
G01*
X111750000Y-90265000D01*
G75*
G02*
X111545000Y-90470000I-205000J0D01*
G01*
X110155000Y-90470000D01*
G75*
G02*
X109950000Y-90265000I0J205000D01*
G01*
G37*
D20*
X116350000Y-90060000D03*
G36*
G01*
X115450000Y-88905000D02*
X115450000Y-88495000D01*
G75*
G02*
X115655000Y-88290000I205000J0D01*
G01*
X117045000Y-88290000D01*
G75*
G02*
X117250000Y-88495000I0J-205000D01*
G01*
X117250000Y-88905000D01*
G75*
G02*
X117045000Y-89110000I-205000J0D01*
G01*
X115655000Y-89110000D01*
G75*
G02*
X115450000Y-88905000I0J205000D01*
G01*
G37*
G36*
G01*
X109950000Y-88905000D02*
X109950000Y-88495000D01*
G75*
G02*
X110155000Y-88290000I205000J0D01*
G01*
X111545000Y-88290000D01*
G75*
G02*
X111750000Y-88495000I0J-205000D01*
G01*
X111750000Y-88905000D01*
G75*
G02*
X111545000Y-89110000I-205000J0D01*
G01*
X110155000Y-89110000D01*
G75*
G02*
X109950000Y-88905000I0J205000D01*
G01*
G37*
D21*
X118690000Y-84680000D03*
X108530000Y-84680000D03*
D22*
X113610000Y-84680000D03*
D23*
X109800000Y-82140000D03*
X116150000Y-79600000D03*
%TD*%
%TO.C,K1*%
G36*
G01*
X90900000Y-90265000D02*
X90900000Y-89855000D01*
G75*
G02*
X91105000Y-89650000I205000J0D01*
G01*
X92495000Y-89650000D01*
G75*
G02*
X92700000Y-89855000I0J-205000D01*
G01*
X92700000Y-90265000D01*
G75*
G02*
X92495000Y-90470000I-205000J0D01*
G01*
X91105000Y-90470000D01*
G75*
G02*
X90900000Y-90265000I0J205000D01*
G01*
G37*
D20*
X97300000Y-90060000D03*
G36*
G01*
X96400000Y-88905000D02*
X96400000Y-88495000D01*
G75*
G02*
X96605000Y-88290000I205000J0D01*
G01*
X97995000Y-88290000D01*
G75*
G02*
X98200000Y-88495000I0J-205000D01*
G01*
X98200000Y-88905000D01*
G75*
G02*
X97995000Y-89110000I-205000J0D01*
G01*
X96605000Y-89110000D01*
G75*
G02*
X96400000Y-88905000I0J205000D01*
G01*
G37*
G36*
G01*
X90900000Y-88905000D02*
X90900000Y-88495000D01*
G75*
G02*
X91105000Y-88290000I205000J0D01*
G01*
X92495000Y-88290000D01*
G75*
G02*
X92700000Y-88495000I0J-205000D01*
G01*
X92700000Y-88905000D01*
G75*
G02*
X92495000Y-89110000I-205000J0D01*
G01*
X91105000Y-89110000D01*
G75*
G02*
X90900000Y-88905000I0J205000D01*
G01*
G37*
D21*
X99640000Y-84680000D03*
X89480000Y-84680000D03*
D22*
X94560000Y-84680000D03*
D23*
X90750000Y-82140000D03*
X97100000Y-79600000D03*
%TD*%
D11*
%TO.C,D19*%
X158000000Y-68450000D03*
X158000000Y-71750000D03*
%TD*%
%TO.C,D18*%
X88138000Y-68450000D03*
X88138000Y-71750000D03*
%TD*%
%TO.C,D17*%
X108100000Y-54250000D03*
X108100000Y-57550000D03*
%TD*%
%TO.C,D15*%
X138100000Y-135950000D03*
X138100000Y-139250000D03*
%TD*%
%TO.C,D13*%
X100000000Y-135950000D03*
X100000000Y-139250000D03*
%TD*%
%TO.C,D12*%
X157700000Y-115550000D03*
X157700000Y-118850000D03*
%TD*%
%TO.C,D10*%
X120000000Y-124750000D03*
X120000000Y-128050000D03*
%TD*%
%TO.C,D8*%
X157600000Y-96350000D03*
X157600000Y-99650000D03*
%TD*%
%TO.C,D7*%
X139200000Y-96650000D03*
X139200000Y-99950000D03*
%TD*%
%TO.C,D6*%
X120000000Y-96950000D03*
X120000000Y-100250000D03*
%TD*%
%TO.C,D5*%
X100000000Y-97850000D03*
X100000000Y-101150000D03*
%TD*%
%TO.C,D4*%
X157600000Y-77550000D03*
X157600000Y-80850000D03*
%TD*%
%TO.C,D3*%
X138100000Y-78750000D03*
X138100000Y-82050000D03*
%TD*%
%TO.C,D2*%
X119100000Y-78750000D03*
X119100000Y-82050000D03*
%TD*%
%TO.C,D1*%
X100000000Y-78750000D03*
X100000000Y-82050000D03*
%TD*%
%TO.C,C10*%
G36*
G01*
X110450000Y-63425001D02*
X110450000Y-62574999D01*
G75*
G02*
X110699999Y-62325000I249999J0D01*
G01*
X111600001Y-62325000D01*
G75*
G02*
X111850000Y-62574999I0J-249999D01*
G01*
X111850000Y-63425001D01*
G75*
G02*
X111600001Y-63675000I-249999J0D01*
G01*
X110699999Y-63675000D01*
G75*
G02*
X110450000Y-63425001I0J249999D01*
G01*
G37*
G36*
G01*
X107750000Y-63425001D02*
X107750000Y-62574999D01*
G75*
G02*
X107999999Y-62325000I249999J0D01*
G01*
X108900001Y-62325000D01*
G75*
G02*
X109150000Y-62574999I0J-249999D01*
G01*
X109150000Y-63425001D01*
G75*
G02*
X108900001Y-63675000I-249999J0D01*
G01*
X107999999Y-63675000D01*
G75*
G02*
X107750000Y-63425001I0J249999D01*
G01*
G37*
%TD*%
%TO.C,C6*%
G36*
G01*
X115150000Y-115313750D02*
X115150000Y-115826250D01*
G75*
G02*
X114931250Y-116045000I-218750J0D01*
G01*
X114493750Y-116045000D01*
G75*
G02*
X114275000Y-115826250I0J218750D01*
G01*
X114275000Y-115313750D01*
G75*
G02*
X114493750Y-115095000I218750J0D01*
G01*
X114931250Y-115095000D01*
G75*
G02*
X115150000Y-115313750I0J-218750D01*
G01*
G37*
G36*
G01*
X116725000Y-115313750D02*
X116725000Y-115826250D01*
G75*
G02*
X116506250Y-116045000I-218750J0D01*
G01*
X116068750Y-116045000D01*
G75*
G02*
X115850000Y-115826250I0J218750D01*
G01*
X115850000Y-115313750D01*
G75*
G02*
X116068750Y-115095000I218750J0D01*
G01*
X116506250Y-115095000D01*
G75*
G02*
X116725000Y-115313750I0J-218750D01*
G01*
G37*
%TD*%
%TO.C,R2*%
G36*
G01*
X134774000Y-115645250D02*
X134774000Y-115132750D01*
G75*
G02*
X134992750Y-114914000I218750J0D01*
G01*
X135430250Y-114914000D01*
G75*
G02*
X135649000Y-115132750I0J-218750D01*
G01*
X135649000Y-115645250D01*
G75*
G02*
X135430250Y-115864000I-218750J0D01*
G01*
X134992750Y-115864000D01*
G75*
G02*
X134774000Y-115645250I0J218750D01*
G01*
G37*
G36*
G01*
X133199000Y-115645250D02*
X133199000Y-115132750D01*
G75*
G02*
X133417750Y-114914000I218750J0D01*
G01*
X133855250Y-114914000D01*
G75*
G02*
X134074000Y-115132750I0J-218750D01*
G01*
X134074000Y-115645250D01*
G75*
G02*
X133855250Y-115864000I-218750J0D01*
G01*
X133417750Y-115864000D01*
G75*
G02*
X133199000Y-115645250I0J218750D01*
G01*
G37*
%TD*%
%TO.C,R1*%
G36*
G01*
X134774000Y-112845250D02*
X134774000Y-112332750D01*
G75*
G02*
X134992750Y-112114000I218750J0D01*
G01*
X135430250Y-112114000D01*
G75*
G02*
X135649000Y-112332750I0J-218750D01*
G01*
X135649000Y-112845250D01*
G75*
G02*
X135430250Y-113064000I-218750J0D01*
G01*
X134992750Y-113064000D01*
G75*
G02*
X134774000Y-112845250I0J218750D01*
G01*
G37*
G36*
G01*
X133199000Y-112845250D02*
X133199000Y-112332750D01*
G75*
G02*
X133417750Y-112114000I218750J0D01*
G01*
X133855250Y-112114000D01*
G75*
G02*
X134074000Y-112332750I0J-218750D01*
G01*
X134074000Y-112845250D01*
G75*
G02*
X133855250Y-113064000I-218750J0D01*
G01*
X133417750Y-113064000D01*
G75*
G02*
X133199000Y-112845250I0J218750D01*
G01*
G37*
%TD*%
D24*
%TO.C,U4*%
X126920000Y-72000000D03*
D25*
X124380000Y-72000000D03*
X121840000Y-72000000D03*
X119300000Y-72000000D03*
%TD*%
%TO.C,C5*%
G36*
G01*
X121143750Y-120750000D02*
X121656250Y-120750000D01*
G75*
G02*
X121875000Y-120968750I0J-218750D01*
G01*
X121875000Y-121406250D01*
G75*
G02*
X121656250Y-121625000I-218750J0D01*
G01*
X121143750Y-121625000D01*
G75*
G02*
X120925000Y-121406250I0J218750D01*
G01*
X120925000Y-120968750D01*
G75*
G02*
X121143750Y-120750000I218750J0D01*
G01*
G37*
G36*
G01*
X121143750Y-119175000D02*
X121656250Y-119175000D01*
G75*
G02*
X121875000Y-119393750I0J-218750D01*
G01*
X121875000Y-119831250D01*
G75*
G02*
X121656250Y-120050000I-218750J0D01*
G01*
X121143750Y-120050000D01*
G75*
G02*
X120925000Y-119831250I0J218750D01*
G01*
X120925000Y-119393750D01*
G75*
G02*
X121143750Y-119175000I218750J0D01*
G01*
G37*
%TD*%
%TO.C,C3*%
G36*
G01*
X113243750Y-116675000D02*
X113756250Y-116675000D01*
G75*
G02*
X113975000Y-116893750I0J-218750D01*
G01*
X113975000Y-117331250D01*
G75*
G02*
X113756250Y-117550000I-218750J0D01*
G01*
X113243750Y-117550000D01*
G75*
G02*
X113025000Y-117331250I0J218750D01*
G01*
X113025000Y-116893750D01*
G75*
G02*
X113243750Y-116675000I218750J0D01*
G01*
G37*
G36*
G01*
X113243750Y-118250000D02*
X113756250Y-118250000D01*
G75*
G02*
X113975000Y-118468750I0J-218750D01*
G01*
X113975000Y-118906250D01*
G75*
G02*
X113756250Y-119125000I-218750J0D01*
G01*
X113243750Y-119125000D01*
G75*
G02*
X113025000Y-118906250I0J218750D01*
G01*
X113025000Y-118468750D01*
G75*
G02*
X113243750Y-118250000I218750J0D01*
G01*
G37*
%TD*%
%TO.C,C7*%
G36*
G01*
X114950000Y-111243750D02*
X114950000Y-111756250D01*
G75*
G02*
X114731250Y-111975000I-218750J0D01*
G01*
X114293750Y-111975000D01*
G75*
G02*
X114075000Y-111756250I0J218750D01*
G01*
X114075000Y-111243750D01*
G75*
G02*
X114293750Y-111025000I218750J0D01*
G01*
X114731250Y-111025000D01*
G75*
G02*
X114950000Y-111243750I0J-218750D01*
G01*
G37*
G36*
G01*
X116525000Y-111243750D02*
X116525000Y-111756250D01*
G75*
G02*
X116306250Y-111975000I-218750J0D01*
G01*
X115868750Y-111975000D01*
G75*
G02*
X115650000Y-111756250I0J218750D01*
G01*
X115650000Y-111243750D01*
G75*
G02*
X115868750Y-111025000I218750J0D01*
G01*
X116306250Y-111025000D01*
G75*
G02*
X116525000Y-111243750I0J-218750D01*
G01*
G37*
%TD*%
%TO.C,C8*%
G36*
G01*
X125256250Y-105450000D02*
X124743750Y-105450000D01*
G75*
G02*
X124525000Y-105231250I0J218750D01*
G01*
X124525000Y-104793750D01*
G75*
G02*
X124743750Y-104575000I218750J0D01*
G01*
X125256250Y-104575000D01*
G75*
G02*
X125475000Y-104793750I0J-218750D01*
G01*
X125475000Y-105231250D01*
G75*
G02*
X125256250Y-105450000I-218750J0D01*
G01*
G37*
G36*
G01*
X125256250Y-107025000D02*
X124743750Y-107025000D01*
G75*
G02*
X124525000Y-106806250I0J218750D01*
G01*
X124525000Y-106368750D01*
G75*
G02*
X124743750Y-106150000I218750J0D01*
G01*
X125256250Y-106150000D01*
G75*
G02*
X125475000Y-106368750I0J-218750D01*
G01*
X125475000Y-106806250D01*
G75*
G02*
X125256250Y-107025000I-218750J0D01*
G01*
G37*
%TD*%
%TO.C,C21*%
G36*
G01*
X128156250Y-106650000D02*
X127643750Y-106650000D01*
G75*
G02*
X127425000Y-106431250I0J218750D01*
G01*
X127425000Y-105993750D01*
G75*
G02*
X127643750Y-105775000I218750J0D01*
G01*
X128156250Y-105775000D01*
G75*
G02*
X128375000Y-105993750I0J-218750D01*
G01*
X128375000Y-106431250D01*
G75*
G02*
X128156250Y-106650000I-218750J0D01*
G01*
G37*
G36*
G01*
X128156250Y-108225000D02*
X127643750Y-108225000D01*
G75*
G02*
X127425000Y-108006250I0J218750D01*
G01*
X127425000Y-107568750D01*
G75*
G02*
X127643750Y-107350000I218750J0D01*
G01*
X128156250Y-107350000D01*
G75*
G02*
X128375000Y-107568750I0J-218750D01*
G01*
X128375000Y-108006250D01*
G75*
G02*
X128156250Y-108225000I-218750J0D01*
G01*
G37*
%TD*%
%TO.C,C30*%
G36*
G01*
X146693750Y-147000000D02*
X147206250Y-147000000D01*
G75*
G02*
X147425000Y-147218750I0J-218750D01*
G01*
X147425000Y-147656250D01*
G75*
G02*
X147206250Y-147875000I-218750J0D01*
G01*
X146693750Y-147875000D01*
G75*
G02*
X146475000Y-147656250I0J218750D01*
G01*
X146475000Y-147218750D01*
G75*
G02*
X146693750Y-147000000I218750J0D01*
G01*
G37*
G36*
G01*
X146693750Y-145425000D02*
X147206250Y-145425000D01*
G75*
G02*
X147425000Y-145643750I0J-218750D01*
G01*
X147425000Y-146081250D01*
G75*
G02*
X147206250Y-146300000I-218750J0D01*
G01*
X146693750Y-146300000D01*
G75*
G02*
X146475000Y-146081250I0J218750D01*
G01*
X146475000Y-145643750D01*
G75*
G02*
X146693750Y-145425000I218750J0D01*
G01*
G37*
%TD*%
%TO.C,C29*%
G36*
G01*
X127643750Y-147000000D02*
X128156250Y-147000000D01*
G75*
G02*
X128375000Y-147218750I0J-218750D01*
G01*
X128375000Y-147656250D01*
G75*
G02*
X128156250Y-147875000I-218750J0D01*
G01*
X127643750Y-147875000D01*
G75*
G02*
X127425000Y-147656250I0J218750D01*
G01*
X127425000Y-147218750D01*
G75*
G02*
X127643750Y-147000000I218750J0D01*
G01*
G37*
G36*
G01*
X127643750Y-145425000D02*
X128156250Y-145425000D01*
G75*
G02*
X128375000Y-145643750I0J-218750D01*
G01*
X128375000Y-146081250D01*
G75*
G02*
X128156250Y-146300000I-218750J0D01*
G01*
X127643750Y-146300000D01*
G75*
G02*
X127425000Y-146081250I0J218750D01*
G01*
X127425000Y-145643750D01*
G75*
G02*
X127643750Y-145425000I218750J0D01*
G01*
G37*
%TD*%
%TO.C,C28*%
G36*
G01*
X108593750Y-147000000D02*
X109106250Y-147000000D01*
G75*
G02*
X109325000Y-147218750I0J-218750D01*
G01*
X109325000Y-147656250D01*
G75*
G02*
X109106250Y-147875000I-218750J0D01*
G01*
X108593750Y-147875000D01*
G75*
G02*
X108375000Y-147656250I0J218750D01*
G01*
X108375000Y-147218750D01*
G75*
G02*
X108593750Y-147000000I218750J0D01*
G01*
G37*
G36*
G01*
X108593750Y-145425000D02*
X109106250Y-145425000D01*
G75*
G02*
X109325000Y-145643750I0J-218750D01*
G01*
X109325000Y-146081250D01*
G75*
G02*
X109106250Y-146300000I-218750J0D01*
G01*
X108593750Y-146300000D01*
G75*
G02*
X108375000Y-146081250I0J218750D01*
G01*
X108375000Y-145643750D01*
G75*
G02*
X108593750Y-145425000I218750J0D01*
G01*
G37*
%TD*%
%TO.C,C27*%
G36*
G01*
X89543750Y-147000000D02*
X90056250Y-147000000D01*
G75*
G02*
X90275000Y-147218750I0J-218750D01*
G01*
X90275000Y-147656250D01*
G75*
G02*
X90056250Y-147875000I-218750J0D01*
G01*
X89543750Y-147875000D01*
G75*
G02*
X89325000Y-147656250I0J218750D01*
G01*
X89325000Y-147218750D01*
G75*
G02*
X89543750Y-147000000I218750J0D01*
G01*
G37*
G36*
G01*
X89543750Y-145425000D02*
X90056250Y-145425000D01*
G75*
G02*
X90275000Y-145643750I0J-218750D01*
G01*
X90275000Y-146081250D01*
G75*
G02*
X90056250Y-146300000I-218750J0D01*
G01*
X89543750Y-146300000D01*
G75*
G02*
X89325000Y-146081250I0J218750D01*
G01*
X89325000Y-145643750D01*
G75*
G02*
X89543750Y-145425000I218750J0D01*
G01*
G37*
%TD*%
%TO.C,C26*%
G36*
G01*
X146693750Y-127950000D02*
X147206250Y-127950000D01*
G75*
G02*
X147425000Y-128168750I0J-218750D01*
G01*
X147425000Y-128606250D01*
G75*
G02*
X147206250Y-128825000I-218750J0D01*
G01*
X146693750Y-128825000D01*
G75*
G02*
X146475000Y-128606250I0J218750D01*
G01*
X146475000Y-128168750D01*
G75*
G02*
X146693750Y-127950000I218750J0D01*
G01*
G37*
G36*
G01*
X146693750Y-126375000D02*
X147206250Y-126375000D01*
G75*
G02*
X147425000Y-126593750I0J-218750D01*
G01*
X147425000Y-127031250D01*
G75*
G02*
X147206250Y-127250000I-218750J0D01*
G01*
X146693750Y-127250000D01*
G75*
G02*
X146475000Y-127031250I0J218750D01*
G01*
X146475000Y-126593750D01*
G75*
G02*
X146693750Y-126375000I218750J0D01*
G01*
G37*
%TD*%
%TO.C,C25*%
G36*
G01*
X127643750Y-127950000D02*
X128156250Y-127950000D01*
G75*
G02*
X128375000Y-128168750I0J-218750D01*
G01*
X128375000Y-128606250D01*
G75*
G02*
X128156250Y-128825000I-218750J0D01*
G01*
X127643750Y-128825000D01*
G75*
G02*
X127425000Y-128606250I0J218750D01*
G01*
X127425000Y-128168750D01*
G75*
G02*
X127643750Y-127950000I218750J0D01*
G01*
G37*
G36*
G01*
X127643750Y-126375000D02*
X128156250Y-126375000D01*
G75*
G02*
X128375000Y-126593750I0J-218750D01*
G01*
X128375000Y-127031250D01*
G75*
G02*
X128156250Y-127250000I-218750J0D01*
G01*
X127643750Y-127250000D01*
G75*
G02*
X127425000Y-127031250I0J218750D01*
G01*
X127425000Y-126593750D01*
G75*
G02*
X127643750Y-126375000I218750J0D01*
G01*
G37*
%TD*%
%TO.C,C24*%
G36*
G01*
X108593750Y-127950000D02*
X109106250Y-127950000D01*
G75*
G02*
X109325000Y-128168750I0J-218750D01*
G01*
X109325000Y-128606250D01*
G75*
G02*
X109106250Y-128825000I-218750J0D01*
G01*
X108593750Y-128825000D01*
G75*
G02*
X108375000Y-128606250I0J218750D01*
G01*
X108375000Y-128168750D01*
G75*
G02*
X108593750Y-127950000I218750J0D01*
G01*
G37*
G36*
G01*
X108593750Y-126375000D02*
X109106250Y-126375000D01*
G75*
G02*
X109325000Y-126593750I0J-218750D01*
G01*
X109325000Y-127031250D01*
G75*
G02*
X109106250Y-127250000I-218750J0D01*
G01*
X108593750Y-127250000D01*
G75*
G02*
X108375000Y-127031250I0J218750D01*
G01*
X108375000Y-126593750D01*
G75*
G02*
X108593750Y-126375000I218750J0D01*
G01*
G37*
%TD*%
%TO.C,C23*%
G36*
G01*
X89543750Y-127950000D02*
X90056250Y-127950000D01*
G75*
G02*
X90275000Y-128168750I0J-218750D01*
G01*
X90275000Y-128606250D01*
G75*
G02*
X90056250Y-128825000I-218750J0D01*
G01*
X89543750Y-128825000D01*
G75*
G02*
X89325000Y-128606250I0J218750D01*
G01*
X89325000Y-128168750D01*
G75*
G02*
X89543750Y-127950000I218750J0D01*
G01*
G37*
G36*
G01*
X89543750Y-126375000D02*
X90056250Y-126375000D01*
G75*
G02*
X90275000Y-126593750I0J-218750D01*
G01*
X90275000Y-127031250D01*
G75*
G02*
X90056250Y-127250000I-218750J0D01*
G01*
X89543750Y-127250000D01*
G75*
G02*
X89325000Y-127031250I0J218750D01*
G01*
X89325000Y-126593750D01*
G75*
G02*
X89543750Y-126375000I218750J0D01*
G01*
G37*
%TD*%
%TO.C,C22*%
G36*
G01*
X146693750Y-108900000D02*
X147206250Y-108900000D01*
G75*
G02*
X147425000Y-109118750I0J-218750D01*
G01*
X147425000Y-109556250D01*
G75*
G02*
X147206250Y-109775000I-218750J0D01*
G01*
X146693750Y-109775000D01*
G75*
G02*
X146475000Y-109556250I0J218750D01*
G01*
X146475000Y-109118750D01*
G75*
G02*
X146693750Y-108900000I218750J0D01*
G01*
G37*
G36*
G01*
X146693750Y-107325000D02*
X147206250Y-107325000D01*
G75*
G02*
X147425000Y-107543750I0J-218750D01*
G01*
X147425000Y-107981250D01*
G75*
G02*
X147206250Y-108200000I-218750J0D01*
G01*
X146693750Y-108200000D01*
G75*
G02*
X146475000Y-107981250I0J218750D01*
G01*
X146475000Y-107543750D01*
G75*
G02*
X146693750Y-107325000I218750J0D01*
G01*
G37*
%TD*%
%TO.C,C20*%
G36*
G01*
X108593750Y-108900000D02*
X109106250Y-108900000D01*
G75*
G02*
X109325000Y-109118750I0J-218750D01*
G01*
X109325000Y-109556250D01*
G75*
G02*
X109106250Y-109775000I-218750J0D01*
G01*
X108593750Y-109775000D01*
G75*
G02*
X108375000Y-109556250I0J218750D01*
G01*
X108375000Y-109118750D01*
G75*
G02*
X108593750Y-108900000I218750J0D01*
G01*
G37*
G36*
G01*
X108593750Y-107325000D02*
X109106250Y-107325000D01*
G75*
G02*
X109325000Y-107543750I0J-218750D01*
G01*
X109325000Y-107981250D01*
G75*
G02*
X109106250Y-108200000I-218750J0D01*
G01*
X108593750Y-108200000D01*
G75*
G02*
X108375000Y-107981250I0J218750D01*
G01*
X108375000Y-107543750D01*
G75*
G02*
X108593750Y-107325000I218750J0D01*
G01*
G37*
%TD*%
%TO.C,C19*%
G36*
G01*
X89543750Y-108900000D02*
X90056250Y-108900000D01*
G75*
G02*
X90275000Y-109118750I0J-218750D01*
G01*
X90275000Y-109556250D01*
G75*
G02*
X90056250Y-109775000I-218750J0D01*
G01*
X89543750Y-109775000D01*
G75*
G02*
X89325000Y-109556250I0J218750D01*
G01*
X89325000Y-109118750D01*
G75*
G02*
X89543750Y-108900000I218750J0D01*
G01*
G37*
G36*
G01*
X89543750Y-107325000D02*
X90056250Y-107325000D01*
G75*
G02*
X90275000Y-107543750I0J-218750D01*
G01*
X90275000Y-107981250D01*
G75*
G02*
X90056250Y-108200000I-218750J0D01*
G01*
X89543750Y-108200000D01*
G75*
G02*
X89325000Y-107981250I0J218750D01*
G01*
X89325000Y-107543750D01*
G75*
G02*
X89543750Y-107325000I218750J0D01*
G01*
G37*
%TD*%
%TO.C,C18*%
G36*
G01*
X146693750Y-89850000D02*
X147206250Y-89850000D01*
G75*
G02*
X147425000Y-90068750I0J-218750D01*
G01*
X147425000Y-90506250D01*
G75*
G02*
X147206250Y-90725000I-218750J0D01*
G01*
X146693750Y-90725000D01*
G75*
G02*
X146475000Y-90506250I0J218750D01*
G01*
X146475000Y-90068750D01*
G75*
G02*
X146693750Y-89850000I218750J0D01*
G01*
G37*
G36*
G01*
X146693750Y-88275000D02*
X147206250Y-88275000D01*
G75*
G02*
X147425000Y-88493750I0J-218750D01*
G01*
X147425000Y-88931250D01*
G75*
G02*
X147206250Y-89150000I-218750J0D01*
G01*
X146693750Y-89150000D01*
G75*
G02*
X146475000Y-88931250I0J218750D01*
G01*
X146475000Y-88493750D01*
G75*
G02*
X146693750Y-88275000I218750J0D01*
G01*
G37*
%TD*%
%TO.C,C17*%
G36*
G01*
X127643750Y-89850000D02*
X128156250Y-89850000D01*
G75*
G02*
X128375000Y-90068750I0J-218750D01*
G01*
X128375000Y-90506250D01*
G75*
G02*
X128156250Y-90725000I-218750J0D01*
G01*
X127643750Y-90725000D01*
G75*
G02*
X127425000Y-90506250I0J218750D01*
G01*
X127425000Y-90068750D01*
G75*
G02*
X127643750Y-89850000I218750J0D01*
G01*
G37*
G36*
G01*
X127643750Y-88275000D02*
X128156250Y-88275000D01*
G75*
G02*
X128375000Y-88493750I0J-218750D01*
G01*
X128375000Y-88931250D01*
G75*
G02*
X128156250Y-89150000I-218750J0D01*
G01*
X127643750Y-89150000D01*
G75*
G02*
X127425000Y-88931250I0J218750D01*
G01*
X127425000Y-88493750D01*
G75*
G02*
X127643750Y-88275000I218750J0D01*
G01*
G37*
%TD*%
%TO.C,C16*%
G36*
G01*
X108593750Y-89850000D02*
X109106250Y-89850000D01*
G75*
G02*
X109325000Y-90068750I0J-218750D01*
G01*
X109325000Y-90506250D01*
G75*
G02*
X109106250Y-90725000I-218750J0D01*
G01*
X108593750Y-90725000D01*
G75*
G02*
X108375000Y-90506250I0J218750D01*
G01*
X108375000Y-90068750D01*
G75*
G02*
X108593750Y-89850000I218750J0D01*
G01*
G37*
G36*
G01*
X108593750Y-88275000D02*
X109106250Y-88275000D01*
G75*
G02*
X109325000Y-88493750I0J-218750D01*
G01*
X109325000Y-88931250D01*
G75*
G02*
X109106250Y-89150000I-218750J0D01*
G01*
X108593750Y-89150000D01*
G75*
G02*
X108375000Y-88931250I0J218750D01*
G01*
X108375000Y-88493750D01*
G75*
G02*
X108593750Y-88275000I218750J0D01*
G01*
G37*
%TD*%
D26*
%TO.C,Y1*%
X109150000Y-117100000D03*
X111650000Y-117100000D03*
%TD*%
%TO.C,C31*%
G36*
G01*
X101058750Y-75132000D02*
X101571250Y-75132000D01*
G75*
G02*
X101790000Y-75350750I0J-218750D01*
G01*
X101790000Y-75788250D01*
G75*
G02*
X101571250Y-76007000I-218750J0D01*
G01*
X101058750Y-76007000D01*
G75*
G02*
X100840000Y-75788250I0J218750D01*
G01*
X100840000Y-75350750D01*
G75*
G02*
X101058750Y-75132000I218750J0D01*
G01*
G37*
G36*
G01*
X101058750Y-73557000D02*
X101571250Y-73557000D01*
G75*
G02*
X101790000Y-73775750I0J-218750D01*
G01*
X101790000Y-74213250D01*
G75*
G02*
X101571250Y-74432000I-218750J0D01*
G01*
X101058750Y-74432000D01*
G75*
G02*
X100840000Y-74213250I0J218750D01*
G01*
X100840000Y-73775750D01*
G75*
G02*
X101058750Y-73557000I218750J0D01*
G01*
G37*
%TD*%
%TO.C,R5*%
G36*
G01*
X124543750Y-60071000D02*
X125056250Y-60071000D01*
G75*
G02*
X125275000Y-60289750I0J-218750D01*
G01*
X125275000Y-60727250D01*
G75*
G02*
X125056250Y-60946000I-218750J0D01*
G01*
X124543750Y-60946000D01*
G75*
G02*
X124325000Y-60727250I0J218750D01*
G01*
X124325000Y-60289750D01*
G75*
G02*
X124543750Y-60071000I218750J0D01*
G01*
G37*
G36*
G01*
X124543750Y-58496000D02*
X125056250Y-58496000D01*
G75*
G02*
X125275000Y-58714750I0J-218750D01*
G01*
X125275000Y-59152250D01*
G75*
G02*
X125056250Y-59371000I-218750J0D01*
G01*
X124543750Y-59371000D01*
G75*
G02*
X124325000Y-59152250I0J218750D01*
G01*
X124325000Y-58714750D01*
G75*
G02*
X124543750Y-58496000I218750J0D01*
G01*
G37*
%TD*%
D14*
%TO.C,H4*%
X85000000Y-146300000D03*
%TD*%
D27*
%TO.C,X1*%
X105200000Y-114950000D03*
X105200000Y-111650000D03*
X103200000Y-111650000D03*
X103200000Y-114950000D03*
%TD*%
D28*
%TO.C,U3*%
X133100000Y-56800000D03*
X133100000Y-57750000D03*
X133100000Y-55850000D03*
X130900000Y-55850000D03*
X130900000Y-56800000D03*
X130900000Y-57750000D03*
%TD*%
D29*
%TO.C,U2*%
X115500000Y-59150000D03*
X110900000Y-59150000D03*
X113200000Y-59150000D03*
D30*
X113200000Y-52850000D03*
%TD*%
%TO.C,U1*%
G36*
G01*
X118090000Y-115825000D02*
X118090000Y-115675000D01*
G75*
G02*
X118165000Y-115600000I75000J0D01*
G01*
X119490000Y-115600000D01*
G75*
G02*
X119565000Y-115675000I0J-75000D01*
G01*
X119565000Y-115825000D01*
G75*
G02*
X119490000Y-115900000I-75000J0D01*
G01*
X118165000Y-115900000D01*
G75*
G02*
X118090000Y-115825000I0J75000D01*
G01*
G37*
G36*
G01*
X118090000Y-115325000D02*
X118090000Y-115175000D01*
G75*
G02*
X118165000Y-115100000I75000J0D01*
G01*
X119490000Y-115100000D01*
G75*
G02*
X119565000Y-115175000I0J-75000D01*
G01*
X119565000Y-115325000D01*
G75*
G02*
X119490000Y-115400000I-75000J0D01*
G01*
X118165000Y-115400000D01*
G75*
G02*
X118090000Y-115325000I0J75000D01*
G01*
G37*
G36*
G01*
X118090000Y-114825000D02*
X118090000Y-114675000D01*
G75*
G02*
X118165000Y-114600000I75000J0D01*
G01*
X119490000Y-114600000D01*
G75*
G02*
X119565000Y-114675000I0J-75000D01*
G01*
X119565000Y-114825000D01*
G75*
G02*
X119490000Y-114900000I-75000J0D01*
G01*
X118165000Y-114900000D01*
G75*
G02*
X118090000Y-114825000I0J75000D01*
G01*
G37*
G36*
G01*
X118090000Y-114325000D02*
X118090000Y-114175000D01*
G75*
G02*
X118165000Y-114100000I75000J0D01*
G01*
X119490000Y-114100000D01*
G75*
G02*
X119565000Y-114175000I0J-75000D01*
G01*
X119565000Y-114325000D01*
G75*
G02*
X119490000Y-114400000I-75000J0D01*
G01*
X118165000Y-114400000D01*
G75*
G02*
X118090000Y-114325000I0J75000D01*
G01*
G37*
G36*
G01*
X118090000Y-113825000D02*
X118090000Y-113675000D01*
G75*
G02*
X118165000Y-113600000I75000J0D01*
G01*
X119490000Y-113600000D01*
G75*
G02*
X119565000Y-113675000I0J-75000D01*
G01*
X119565000Y-113825000D01*
G75*
G02*
X119490000Y-113900000I-75000J0D01*
G01*
X118165000Y-113900000D01*
G75*
G02*
X118090000Y-113825000I0J75000D01*
G01*
G37*
G36*
G01*
X118090000Y-113325000D02*
X118090000Y-113175000D01*
G75*
G02*
X118165000Y-113100000I75000J0D01*
G01*
X119490000Y-113100000D01*
G75*
G02*
X119565000Y-113175000I0J-75000D01*
G01*
X119565000Y-113325000D01*
G75*
G02*
X119490000Y-113400000I-75000J0D01*
G01*
X118165000Y-113400000D01*
G75*
G02*
X118090000Y-113325000I0J75000D01*
G01*
G37*
G36*
G01*
X118090000Y-112825000D02*
X118090000Y-112675000D01*
G75*
G02*
X118165000Y-112600000I75000J0D01*
G01*
X119490000Y-112600000D01*
G75*
G02*
X119565000Y-112675000I0J-75000D01*
G01*
X119565000Y-112825000D01*
G75*
G02*
X119490000Y-112900000I-75000J0D01*
G01*
X118165000Y-112900000D01*
G75*
G02*
X118090000Y-112825000I0J75000D01*
G01*
G37*
G36*
G01*
X118090000Y-112325000D02*
X118090000Y-112175000D01*
G75*
G02*
X118165000Y-112100000I75000J0D01*
G01*
X119490000Y-112100000D01*
G75*
G02*
X119565000Y-112175000I0J-75000D01*
G01*
X119565000Y-112325000D01*
G75*
G02*
X119490000Y-112400000I-75000J0D01*
G01*
X118165000Y-112400000D01*
G75*
G02*
X118090000Y-112325000I0J75000D01*
G01*
G37*
G36*
G01*
X118090000Y-111825000D02*
X118090000Y-111675000D01*
G75*
G02*
X118165000Y-111600000I75000J0D01*
G01*
X119490000Y-111600000D01*
G75*
G02*
X119565000Y-111675000I0J-75000D01*
G01*
X119565000Y-111825000D01*
G75*
G02*
X119490000Y-111900000I-75000J0D01*
G01*
X118165000Y-111900000D01*
G75*
G02*
X118090000Y-111825000I0J75000D01*
G01*
G37*
G36*
G01*
X118090000Y-111325000D02*
X118090000Y-111175000D01*
G75*
G02*
X118165000Y-111100000I75000J0D01*
G01*
X119490000Y-111100000D01*
G75*
G02*
X119565000Y-111175000I0J-75000D01*
G01*
X119565000Y-111325000D01*
G75*
G02*
X119490000Y-111400000I-75000J0D01*
G01*
X118165000Y-111400000D01*
G75*
G02*
X118090000Y-111325000I0J75000D01*
G01*
G37*
G36*
G01*
X118090000Y-110825000D02*
X118090000Y-110675000D01*
G75*
G02*
X118165000Y-110600000I75000J0D01*
G01*
X119490000Y-110600000D01*
G75*
G02*
X119565000Y-110675000I0J-75000D01*
G01*
X119565000Y-110825000D01*
G75*
G02*
X119490000Y-110900000I-75000J0D01*
G01*
X118165000Y-110900000D01*
G75*
G02*
X118090000Y-110825000I0J75000D01*
G01*
G37*
G36*
G01*
X118090000Y-110325000D02*
X118090000Y-110175000D01*
G75*
G02*
X118165000Y-110100000I75000J0D01*
G01*
X119490000Y-110100000D01*
G75*
G02*
X119565000Y-110175000I0J-75000D01*
G01*
X119565000Y-110325000D01*
G75*
G02*
X119490000Y-110400000I-75000J0D01*
G01*
X118165000Y-110400000D01*
G75*
G02*
X118090000Y-110325000I0J75000D01*
G01*
G37*
G36*
G01*
X120090000Y-109500000D02*
X120090000Y-108175000D01*
G75*
G02*
X120165000Y-108100000I75000J0D01*
G01*
X120315000Y-108100000D01*
G75*
G02*
X120390000Y-108175000I0J-75000D01*
G01*
X120390000Y-109500000D01*
G75*
G02*
X120315000Y-109575000I-75000J0D01*
G01*
X120165000Y-109575000D01*
G75*
G02*
X120090000Y-109500000I0J75000D01*
G01*
G37*
G36*
G01*
X120590000Y-109500000D02*
X120590000Y-108175000D01*
G75*
G02*
X120665000Y-108100000I75000J0D01*
G01*
X120815000Y-108100000D01*
G75*
G02*
X120890000Y-108175000I0J-75000D01*
G01*
X120890000Y-109500000D01*
G75*
G02*
X120815000Y-109575000I-75000J0D01*
G01*
X120665000Y-109575000D01*
G75*
G02*
X120590000Y-109500000I0J75000D01*
G01*
G37*
G36*
G01*
X121090000Y-109500000D02*
X121090000Y-108175000D01*
G75*
G02*
X121165000Y-108100000I75000J0D01*
G01*
X121315000Y-108100000D01*
G75*
G02*
X121390000Y-108175000I0J-75000D01*
G01*
X121390000Y-109500000D01*
G75*
G02*
X121315000Y-109575000I-75000J0D01*
G01*
X121165000Y-109575000D01*
G75*
G02*
X121090000Y-109500000I0J75000D01*
G01*
G37*
G36*
G01*
X121590000Y-109500000D02*
X121590000Y-108175000D01*
G75*
G02*
X121665000Y-108100000I75000J0D01*
G01*
X121815000Y-108100000D01*
G75*
G02*
X121890000Y-108175000I0J-75000D01*
G01*
X121890000Y-109500000D01*
G75*
G02*
X121815000Y-109575000I-75000J0D01*
G01*
X121665000Y-109575000D01*
G75*
G02*
X121590000Y-109500000I0J75000D01*
G01*
G37*
G36*
G01*
X122090000Y-109500000D02*
X122090000Y-108175000D01*
G75*
G02*
X122165000Y-108100000I75000J0D01*
G01*
X122315000Y-108100000D01*
G75*
G02*
X122390000Y-108175000I0J-75000D01*
G01*
X122390000Y-109500000D01*
G75*
G02*
X122315000Y-109575000I-75000J0D01*
G01*
X122165000Y-109575000D01*
G75*
G02*
X122090000Y-109500000I0J75000D01*
G01*
G37*
G36*
G01*
X122590000Y-109500000D02*
X122590000Y-108175000D01*
G75*
G02*
X122665000Y-108100000I75000J0D01*
G01*
X122815000Y-108100000D01*
G75*
G02*
X122890000Y-108175000I0J-75000D01*
G01*
X122890000Y-109500000D01*
G75*
G02*
X122815000Y-109575000I-75000J0D01*
G01*
X122665000Y-109575000D01*
G75*
G02*
X122590000Y-109500000I0J75000D01*
G01*
G37*
G36*
G01*
X123090000Y-109500000D02*
X123090000Y-108175000D01*
G75*
G02*
X123165000Y-108100000I75000J0D01*
G01*
X123315000Y-108100000D01*
G75*
G02*
X123390000Y-108175000I0J-75000D01*
G01*
X123390000Y-109500000D01*
G75*
G02*
X123315000Y-109575000I-75000J0D01*
G01*
X123165000Y-109575000D01*
G75*
G02*
X123090000Y-109500000I0J75000D01*
G01*
G37*
G36*
G01*
X123590000Y-109500000D02*
X123590000Y-108175000D01*
G75*
G02*
X123665000Y-108100000I75000J0D01*
G01*
X123815000Y-108100000D01*
G75*
G02*
X123890000Y-108175000I0J-75000D01*
G01*
X123890000Y-109500000D01*
G75*
G02*
X123815000Y-109575000I-75000J0D01*
G01*
X123665000Y-109575000D01*
G75*
G02*
X123590000Y-109500000I0J75000D01*
G01*
G37*
G36*
G01*
X124090000Y-109500000D02*
X124090000Y-108175000D01*
G75*
G02*
X124165000Y-108100000I75000J0D01*
G01*
X124315000Y-108100000D01*
G75*
G02*
X124390000Y-108175000I0J-75000D01*
G01*
X124390000Y-109500000D01*
G75*
G02*
X124315000Y-109575000I-75000J0D01*
G01*
X124165000Y-109575000D01*
G75*
G02*
X124090000Y-109500000I0J75000D01*
G01*
G37*
G36*
G01*
X124590000Y-109500000D02*
X124590000Y-108175000D01*
G75*
G02*
X124665000Y-108100000I75000J0D01*
G01*
X124815000Y-108100000D01*
G75*
G02*
X124890000Y-108175000I0J-75000D01*
G01*
X124890000Y-109500000D01*
G75*
G02*
X124815000Y-109575000I-75000J0D01*
G01*
X124665000Y-109575000D01*
G75*
G02*
X124590000Y-109500000I0J75000D01*
G01*
G37*
G36*
G01*
X125090000Y-109500000D02*
X125090000Y-108175000D01*
G75*
G02*
X125165000Y-108100000I75000J0D01*
G01*
X125315000Y-108100000D01*
G75*
G02*
X125390000Y-108175000I0J-75000D01*
G01*
X125390000Y-109500000D01*
G75*
G02*
X125315000Y-109575000I-75000J0D01*
G01*
X125165000Y-109575000D01*
G75*
G02*
X125090000Y-109500000I0J75000D01*
G01*
G37*
G36*
G01*
X125590000Y-109500000D02*
X125590000Y-108175000D01*
G75*
G02*
X125665000Y-108100000I75000J0D01*
G01*
X125815000Y-108100000D01*
G75*
G02*
X125890000Y-108175000I0J-75000D01*
G01*
X125890000Y-109500000D01*
G75*
G02*
X125815000Y-109575000I-75000J0D01*
G01*
X125665000Y-109575000D01*
G75*
G02*
X125590000Y-109500000I0J75000D01*
G01*
G37*
G36*
G01*
X126415000Y-110325000D02*
X126415000Y-110175000D01*
G75*
G02*
X126490000Y-110100000I75000J0D01*
G01*
X127815000Y-110100000D01*
G75*
G02*
X127890000Y-110175000I0J-75000D01*
G01*
X127890000Y-110325000D01*
G75*
G02*
X127815000Y-110400000I-75000J0D01*
G01*
X126490000Y-110400000D01*
G75*
G02*
X126415000Y-110325000I0J75000D01*
G01*
G37*
G36*
G01*
X126415000Y-110825000D02*
X126415000Y-110675000D01*
G75*
G02*
X126490000Y-110600000I75000J0D01*
G01*
X127815000Y-110600000D01*
G75*
G02*
X127890000Y-110675000I0J-75000D01*
G01*
X127890000Y-110825000D01*
G75*
G02*
X127815000Y-110900000I-75000J0D01*
G01*
X126490000Y-110900000D01*
G75*
G02*
X126415000Y-110825000I0J75000D01*
G01*
G37*
G36*
G01*
X126415000Y-111325000D02*
X126415000Y-111175000D01*
G75*
G02*
X126490000Y-111100000I75000J0D01*
G01*
X127815000Y-111100000D01*
G75*
G02*
X127890000Y-111175000I0J-75000D01*
G01*
X127890000Y-111325000D01*
G75*
G02*
X127815000Y-111400000I-75000J0D01*
G01*
X126490000Y-111400000D01*
G75*
G02*
X126415000Y-111325000I0J75000D01*
G01*
G37*
G36*
G01*
X126415000Y-111825000D02*
X126415000Y-111675000D01*
G75*
G02*
X126490000Y-111600000I75000J0D01*
G01*
X127815000Y-111600000D01*
G75*
G02*
X127890000Y-111675000I0J-75000D01*
G01*
X127890000Y-111825000D01*
G75*
G02*
X127815000Y-111900000I-75000J0D01*
G01*
X126490000Y-111900000D01*
G75*
G02*
X126415000Y-111825000I0J75000D01*
G01*
G37*
G36*
G01*
X126415000Y-112325000D02*
X126415000Y-112175000D01*
G75*
G02*
X126490000Y-112100000I75000J0D01*
G01*
X127815000Y-112100000D01*
G75*
G02*
X127890000Y-112175000I0J-75000D01*
G01*
X127890000Y-112325000D01*
G75*
G02*
X127815000Y-112400000I-75000J0D01*
G01*
X126490000Y-112400000D01*
G75*
G02*
X126415000Y-112325000I0J75000D01*
G01*
G37*
G36*
G01*
X126415000Y-112825000D02*
X126415000Y-112675000D01*
G75*
G02*
X126490000Y-112600000I75000J0D01*
G01*
X127815000Y-112600000D01*
G75*
G02*
X127890000Y-112675000I0J-75000D01*
G01*
X127890000Y-112825000D01*
G75*
G02*
X127815000Y-112900000I-75000J0D01*
G01*
X126490000Y-112900000D01*
G75*
G02*
X126415000Y-112825000I0J75000D01*
G01*
G37*
G36*
G01*
X126415000Y-113325000D02*
X126415000Y-113175000D01*
G75*
G02*
X126490000Y-113100000I75000J0D01*
G01*
X127815000Y-113100000D01*
G75*
G02*
X127890000Y-113175000I0J-75000D01*
G01*
X127890000Y-113325000D01*
G75*
G02*
X127815000Y-113400000I-75000J0D01*
G01*
X126490000Y-113400000D01*
G75*
G02*
X126415000Y-113325000I0J75000D01*
G01*
G37*
G36*
G01*
X126415000Y-113825000D02*
X126415000Y-113675000D01*
G75*
G02*
X126490000Y-113600000I75000J0D01*
G01*
X127815000Y-113600000D01*
G75*
G02*
X127890000Y-113675000I0J-75000D01*
G01*
X127890000Y-113825000D01*
G75*
G02*
X127815000Y-113900000I-75000J0D01*
G01*
X126490000Y-113900000D01*
G75*
G02*
X126415000Y-113825000I0J75000D01*
G01*
G37*
G36*
G01*
X126415000Y-114325000D02*
X126415000Y-114175000D01*
G75*
G02*
X126490000Y-114100000I75000J0D01*
G01*
X127815000Y-114100000D01*
G75*
G02*
X127890000Y-114175000I0J-75000D01*
G01*
X127890000Y-114325000D01*
G75*
G02*
X127815000Y-114400000I-75000J0D01*
G01*
X126490000Y-114400000D01*
G75*
G02*
X126415000Y-114325000I0J75000D01*
G01*
G37*
G36*
G01*
X126415000Y-114825000D02*
X126415000Y-114675000D01*
G75*
G02*
X126490000Y-114600000I75000J0D01*
G01*
X127815000Y-114600000D01*
G75*
G02*
X127890000Y-114675000I0J-75000D01*
G01*
X127890000Y-114825000D01*
G75*
G02*
X127815000Y-114900000I-75000J0D01*
G01*
X126490000Y-114900000D01*
G75*
G02*
X126415000Y-114825000I0J75000D01*
G01*
G37*
G36*
G01*
X126415000Y-115325000D02*
X126415000Y-115175000D01*
G75*
G02*
X126490000Y-115100000I75000J0D01*
G01*
X127815000Y-115100000D01*
G75*
G02*
X127890000Y-115175000I0J-75000D01*
G01*
X127890000Y-115325000D01*
G75*
G02*
X127815000Y-115400000I-75000J0D01*
G01*
X126490000Y-115400000D01*
G75*
G02*
X126415000Y-115325000I0J75000D01*
G01*
G37*
G36*
G01*
X126415000Y-115825000D02*
X126415000Y-115675000D01*
G75*
G02*
X126490000Y-115600000I75000J0D01*
G01*
X127815000Y-115600000D01*
G75*
G02*
X127890000Y-115675000I0J-75000D01*
G01*
X127890000Y-115825000D01*
G75*
G02*
X127815000Y-115900000I-75000J0D01*
G01*
X126490000Y-115900000D01*
G75*
G02*
X126415000Y-115825000I0J75000D01*
G01*
G37*
G36*
G01*
X125590000Y-117825000D02*
X125590000Y-116500000D01*
G75*
G02*
X125665000Y-116425000I75000J0D01*
G01*
X125815000Y-116425000D01*
G75*
G02*
X125890000Y-116500000I0J-75000D01*
G01*
X125890000Y-117825000D01*
G75*
G02*
X125815000Y-117900000I-75000J0D01*
G01*
X125665000Y-117900000D01*
G75*
G02*
X125590000Y-117825000I0J75000D01*
G01*
G37*
G36*
G01*
X125090000Y-117825000D02*
X125090000Y-116500000D01*
G75*
G02*
X125165000Y-116425000I75000J0D01*
G01*
X125315000Y-116425000D01*
G75*
G02*
X125390000Y-116500000I0J-75000D01*
G01*
X125390000Y-117825000D01*
G75*
G02*
X125315000Y-117900000I-75000J0D01*
G01*
X125165000Y-117900000D01*
G75*
G02*
X125090000Y-117825000I0J75000D01*
G01*
G37*
G36*
G01*
X124590000Y-117825000D02*
X124590000Y-116500000D01*
G75*
G02*
X124665000Y-116425000I75000J0D01*
G01*
X124815000Y-116425000D01*
G75*
G02*
X124890000Y-116500000I0J-75000D01*
G01*
X124890000Y-117825000D01*
G75*
G02*
X124815000Y-117900000I-75000J0D01*
G01*
X124665000Y-117900000D01*
G75*
G02*
X124590000Y-117825000I0J75000D01*
G01*
G37*
G36*
G01*
X124090000Y-117825000D02*
X124090000Y-116500000D01*
G75*
G02*
X124165000Y-116425000I75000J0D01*
G01*
X124315000Y-116425000D01*
G75*
G02*
X124390000Y-116500000I0J-75000D01*
G01*
X124390000Y-117825000D01*
G75*
G02*
X124315000Y-117900000I-75000J0D01*
G01*
X124165000Y-117900000D01*
G75*
G02*
X124090000Y-117825000I0J75000D01*
G01*
G37*
G36*
G01*
X123590000Y-117825000D02*
X123590000Y-116500000D01*
G75*
G02*
X123665000Y-116425000I75000J0D01*
G01*
X123815000Y-116425000D01*
G75*
G02*
X123890000Y-116500000I0J-75000D01*
G01*
X123890000Y-117825000D01*
G75*
G02*
X123815000Y-117900000I-75000J0D01*
G01*
X123665000Y-117900000D01*
G75*
G02*
X123590000Y-117825000I0J75000D01*
G01*
G37*
G36*
G01*
X123090000Y-117825000D02*
X123090000Y-116500000D01*
G75*
G02*
X123165000Y-116425000I75000J0D01*
G01*
X123315000Y-116425000D01*
G75*
G02*
X123390000Y-116500000I0J-75000D01*
G01*
X123390000Y-117825000D01*
G75*
G02*
X123315000Y-117900000I-75000J0D01*
G01*
X123165000Y-117900000D01*
G75*
G02*
X123090000Y-117825000I0J75000D01*
G01*
G37*
G36*
G01*
X122590000Y-117825000D02*
X122590000Y-116500000D01*
G75*
G02*
X122665000Y-116425000I75000J0D01*
G01*
X122815000Y-116425000D01*
G75*
G02*
X122890000Y-116500000I0J-75000D01*
G01*
X122890000Y-117825000D01*
G75*
G02*
X122815000Y-117900000I-75000J0D01*
G01*
X122665000Y-117900000D01*
G75*
G02*
X122590000Y-117825000I0J75000D01*
G01*
G37*
G36*
G01*
X122090000Y-117825000D02*
X122090000Y-116500000D01*
G75*
G02*
X122165000Y-116425000I75000J0D01*
G01*
X122315000Y-116425000D01*
G75*
G02*
X122390000Y-116500000I0J-75000D01*
G01*
X122390000Y-117825000D01*
G75*
G02*
X122315000Y-117900000I-75000J0D01*
G01*
X122165000Y-117900000D01*
G75*
G02*
X122090000Y-117825000I0J75000D01*
G01*
G37*
G36*
G01*
X121590000Y-117825000D02*
X121590000Y-116500000D01*
G75*
G02*
X121665000Y-116425000I75000J0D01*
G01*
X121815000Y-116425000D01*
G75*
G02*
X121890000Y-116500000I0J-75000D01*
G01*
X121890000Y-117825000D01*
G75*
G02*
X121815000Y-117900000I-75000J0D01*
G01*
X121665000Y-117900000D01*
G75*
G02*
X121590000Y-117825000I0J75000D01*
G01*
G37*
G36*
G01*
X121090000Y-117825000D02*
X121090000Y-116500000D01*
G75*
G02*
X121165000Y-116425000I75000J0D01*
G01*
X121315000Y-116425000D01*
G75*
G02*
X121390000Y-116500000I0J-75000D01*
G01*
X121390000Y-117825000D01*
G75*
G02*
X121315000Y-117900000I-75000J0D01*
G01*
X121165000Y-117900000D01*
G75*
G02*
X121090000Y-117825000I0J75000D01*
G01*
G37*
G36*
G01*
X120590000Y-117825000D02*
X120590000Y-116500000D01*
G75*
G02*
X120665000Y-116425000I75000J0D01*
G01*
X120815000Y-116425000D01*
G75*
G02*
X120890000Y-116500000I0J-75000D01*
G01*
X120890000Y-117825000D01*
G75*
G02*
X120815000Y-117900000I-75000J0D01*
G01*
X120665000Y-117900000D01*
G75*
G02*
X120590000Y-117825000I0J75000D01*
G01*
G37*
G36*
G01*
X120090000Y-117825000D02*
X120090000Y-116500000D01*
G75*
G02*
X120165000Y-116425000I75000J0D01*
G01*
X120315000Y-116425000D01*
G75*
G02*
X120390000Y-116500000I0J-75000D01*
G01*
X120390000Y-117825000D01*
G75*
G02*
X120315000Y-117900000I-75000J0D01*
G01*
X120165000Y-117900000D01*
G75*
G02*
X120090000Y-117825000I0J75000D01*
G01*
G37*
%TD*%
%TO.C,R9*%
G36*
G01*
X124056250Y-101150000D02*
X123543750Y-101150000D01*
G75*
G02*
X123325000Y-100931250I0J218750D01*
G01*
X123325000Y-100493750D01*
G75*
G02*
X123543750Y-100275000I218750J0D01*
G01*
X124056250Y-100275000D01*
G75*
G02*
X124275000Y-100493750I0J-218750D01*
G01*
X124275000Y-100931250D01*
G75*
G02*
X124056250Y-101150000I-218750J0D01*
G01*
G37*
G36*
G01*
X124056250Y-102725000D02*
X123543750Y-102725000D01*
G75*
G02*
X123325000Y-102506250I0J218750D01*
G01*
X123325000Y-102068750D01*
G75*
G02*
X123543750Y-101850000I218750J0D01*
G01*
X124056250Y-101850000D01*
G75*
G02*
X124275000Y-102068750I0J-218750D01*
G01*
X124275000Y-102506250D01*
G75*
G02*
X124056250Y-102725000I-218750J0D01*
G01*
G37*
%TD*%
%TO.C,R8*%
G36*
G01*
X123827250Y-122713000D02*
X123314750Y-122713000D01*
G75*
G02*
X123096000Y-122494250I0J218750D01*
G01*
X123096000Y-122056750D01*
G75*
G02*
X123314750Y-121838000I218750J0D01*
G01*
X123827250Y-121838000D01*
G75*
G02*
X124046000Y-122056750I0J-218750D01*
G01*
X124046000Y-122494250D01*
G75*
G02*
X123827250Y-122713000I-218750J0D01*
G01*
G37*
G36*
G01*
X123827250Y-124288000D02*
X123314750Y-124288000D01*
G75*
G02*
X123096000Y-124069250I0J218750D01*
G01*
X123096000Y-123631750D01*
G75*
G02*
X123314750Y-123413000I218750J0D01*
G01*
X123827250Y-123413000D01*
G75*
G02*
X124046000Y-123631750I0J-218750D01*
G01*
X124046000Y-124069250D01*
G75*
G02*
X123827250Y-124288000I-218750J0D01*
G01*
G37*
%TD*%
%TO.C,R7*%
G36*
G01*
X110762500Y-111956250D02*
X110762500Y-111443750D01*
G75*
G02*
X110981250Y-111225000I218750J0D01*
G01*
X111418750Y-111225000D01*
G75*
G02*
X111637500Y-111443750I0J-218750D01*
G01*
X111637500Y-111956250D01*
G75*
G02*
X111418750Y-112175000I-218750J0D01*
G01*
X110981250Y-112175000D01*
G75*
G02*
X110762500Y-111956250I0J218750D01*
G01*
G37*
G36*
G01*
X109187500Y-111956250D02*
X109187500Y-111443750D01*
G75*
G02*
X109406250Y-111225000I218750J0D01*
G01*
X109843750Y-111225000D01*
G75*
G02*
X110062500Y-111443750I0J-218750D01*
G01*
X110062500Y-111956250D01*
G75*
G02*
X109843750Y-112175000I-218750J0D01*
G01*
X109406250Y-112175000D01*
G75*
G02*
X109187500Y-111956250I0J218750D01*
G01*
G37*
%TD*%
%TO.C,R6*%
G36*
G01*
X140874000Y-114424750D02*
X140874000Y-114937250D01*
G75*
G02*
X140655250Y-115156000I-218750J0D01*
G01*
X140217750Y-115156000D01*
G75*
G02*
X139999000Y-114937250I0J218750D01*
G01*
X139999000Y-114424750D01*
G75*
G02*
X140217750Y-114206000I218750J0D01*
G01*
X140655250Y-114206000D01*
G75*
G02*
X140874000Y-114424750I0J-218750D01*
G01*
G37*
G36*
G01*
X142449000Y-114424750D02*
X142449000Y-114937250D01*
G75*
G02*
X142230250Y-115156000I-218750J0D01*
G01*
X141792750Y-115156000D01*
G75*
G02*
X141574000Y-114937250I0J218750D01*
G01*
X141574000Y-114424750D01*
G75*
G02*
X141792750Y-114206000I218750J0D01*
G01*
X142230250Y-114206000D01*
G75*
G02*
X142449000Y-114424750I0J-218750D01*
G01*
G37*
%TD*%
%TO.C,R4*%
G36*
G01*
X122056250Y-59371000D02*
X121543750Y-59371000D01*
G75*
G02*
X121325000Y-59152250I0J218750D01*
G01*
X121325000Y-58714750D01*
G75*
G02*
X121543750Y-58496000I218750J0D01*
G01*
X122056250Y-58496000D01*
G75*
G02*
X122275000Y-58714750I0J-218750D01*
G01*
X122275000Y-59152250D01*
G75*
G02*
X122056250Y-59371000I-218750J0D01*
G01*
G37*
G36*
G01*
X122056250Y-60946000D02*
X121543750Y-60946000D01*
G75*
G02*
X121325000Y-60727250I0J218750D01*
G01*
X121325000Y-60289750D01*
G75*
G02*
X121543750Y-60071000I218750J0D01*
G01*
X122056250Y-60071000D01*
G75*
G02*
X122275000Y-60289750I0J-218750D01*
G01*
X122275000Y-60727250D01*
G75*
G02*
X122056250Y-60946000I-218750J0D01*
G01*
G37*
%TD*%
%TO.C,R3*%
G36*
G01*
X103571250Y-74432000D02*
X103058750Y-74432000D01*
G75*
G02*
X102840000Y-74213250I0J218750D01*
G01*
X102840000Y-73775750D01*
G75*
G02*
X103058750Y-73557000I218750J0D01*
G01*
X103571250Y-73557000D01*
G75*
G02*
X103790000Y-73775750I0J-218750D01*
G01*
X103790000Y-74213250D01*
G75*
G02*
X103571250Y-74432000I-218750J0D01*
G01*
G37*
G36*
G01*
X103571250Y-76007000D02*
X103058750Y-76007000D01*
G75*
G02*
X102840000Y-75788250I0J218750D01*
G01*
X102840000Y-75350750D01*
G75*
G02*
X103058750Y-75132000I218750J0D01*
G01*
X103571250Y-75132000D01*
G75*
G02*
X103790000Y-75350750I0J-218750D01*
G01*
X103790000Y-75788250D01*
G75*
G02*
X103571250Y-76007000I-218750J0D01*
G01*
G37*
%TD*%
D31*
%TO.C,JP2*%
X154133000Y-114630000D03*
X154133000Y-113330000D03*
X154133000Y-112030000D03*
%TD*%
%TO.C,JP1*%
X150333000Y-114630000D03*
X150333000Y-113330000D03*
X150333000Y-112030000D03*
%TD*%
D25*
%TO.C,J1*%
X163600000Y-117020000D03*
X163600000Y-114480000D03*
X163600000Y-111940000D03*
D24*
X163600000Y-109400000D03*
%TD*%
%TO.C,C15*%
G36*
G01*
X89543750Y-89850000D02*
X90056250Y-89850000D01*
G75*
G02*
X90275000Y-90068750I0J-218750D01*
G01*
X90275000Y-90506250D01*
G75*
G02*
X90056250Y-90725000I-218750J0D01*
G01*
X89543750Y-90725000D01*
G75*
G02*
X89325000Y-90506250I0J218750D01*
G01*
X89325000Y-90068750D01*
G75*
G02*
X89543750Y-89850000I218750J0D01*
G01*
G37*
G36*
G01*
X89543750Y-88275000D02*
X90056250Y-88275000D01*
G75*
G02*
X90275000Y-88493750I0J-218750D01*
G01*
X90275000Y-88931250D01*
G75*
G02*
X90056250Y-89150000I-218750J0D01*
G01*
X89543750Y-89150000D01*
G75*
G02*
X89325000Y-88931250I0J218750D01*
G01*
X89325000Y-88493750D01*
G75*
G02*
X89543750Y-88275000I218750J0D01*
G01*
G37*
%TD*%
%TO.C,C14*%
G36*
G01*
X113450000Y-62843750D02*
X113450000Y-63356250D01*
G75*
G02*
X113231250Y-63575000I-218750J0D01*
G01*
X112793750Y-63575000D01*
G75*
G02*
X112575000Y-63356250I0J218750D01*
G01*
X112575000Y-62843750D01*
G75*
G02*
X112793750Y-62625000I218750J0D01*
G01*
X113231250Y-62625000D01*
G75*
G02*
X113450000Y-62843750I0J-218750D01*
G01*
G37*
G36*
G01*
X115025000Y-62843750D02*
X115025000Y-63356250D01*
G75*
G02*
X114806250Y-63575000I-218750J0D01*
G01*
X114368750Y-63575000D01*
G75*
G02*
X114150000Y-63356250I0J218750D01*
G01*
X114150000Y-62843750D01*
G75*
G02*
X114368750Y-62625000I218750J0D01*
G01*
X114806250Y-62625000D01*
G75*
G02*
X115025000Y-62843750I0J-218750D01*
G01*
G37*
%TD*%
%TO.C,C12*%
G36*
G01*
X106643750Y-118250000D02*
X107156250Y-118250000D01*
G75*
G02*
X107375000Y-118468750I0J-218750D01*
G01*
X107375000Y-118906250D01*
G75*
G02*
X107156250Y-119125000I-218750J0D01*
G01*
X106643750Y-119125000D01*
G75*
G02*
X106425000Y-118906250I0J218750D01*
G01*
X106425000Y-118468750D01*
G75*
G02*
X106643750Y-118250000I218750J0D01*
G01*
G37*
G36*
G01*
X106643750Y-116675000D02*
X107156250Y-116675000D01*
G75*
G02*
X107375000Y-116893750I0J-218750D01*
G01*
X107375000Y-117331250D01*
G75*
G02*
X107156250Y-117550000I-218750J0D01*
G01*
X106643750Y-117550000D01*
G75*
G02*
X106425000Y-117331250I0J218750D01*
G01*
X106425000Y-116893750D01*
G75*
G02*
X106643750Y-116675000I218750J0D01*
G01*
G37*
%TD*%
%TO.C,C11*%
G36*
G01*
X131056250Y-116750000D02*
X130543750Y-116750000D01*
G75*
G02*
X130325000Y-116531250I0J218750D01*
G01*
X130325000Y-116093750D01*
G75*
G02*
X130543750Y-115875000I218750J0D01*
G01*
X131056250Y-115875000D01*
G75*
G02*
X131275000Y-116093750I0J-218750D01*
G01*
X131275000Y-116531250D01*
G75*
G02*
X131056250Y-116750000I-218750J0D01*
G01*
G37*
G36*
G01*
X131056250Y-118325000D02*
X130543750Y-118325000D01*
G75*
G02*
X130325000Y-118106250I0J218750D01*
G01*
X130325000Y-117668750D01*
G75*
G02*
X130543750Y-117450000I218750J0D01*
G01*
X131056250Y-117450000D01*
G75*
G02*
X131275000Y-117668750I0J-218750D01*
G01*
X131275000Y-118106250D01*
G75*
G02*
X131056250Y-118325000I-218750J0D01*
G01*
G37*
%TD*%
%TO.C,C9*%
G36*
G01*
X128843750Y-117450000D02*
X129356250Y-117450000D01*
G75*
G02*
X129575000Y-117668750I0J-218750D01*
G01*
X129575000Y-118106250D01*
G75*
G02*
X129356250Y-118325000I-218750J0D01*
G01*
X128843750Y-118325000D01*
G75*
G02*
X128625000Y-118106250I0J218750D01*
G01*
X128625000Y-117668750D01*
G75*
G02*
X128843750Y-117450000I218750J0D01*
G01*
G37*
G36*
G01*
X128843750Y-115875000D02*
X129356250Y-115875000D01*
G75*
G02*
X129575000Y-116093750I0J-218750D01*
G01*
X129575000Y-116531250D01*
G75*
G02*
X129356250Y-116750000I-218750J0D01*
G01*
X128843750Y-116750000D01*
G75*
G02*
X128625000Y-116531250I0J218750D01*
G01*
X128625000Y-116093750D01*
G75*
G02*
X128843750Y-115875000I218750J0D01*
G01*
G37*
%TD*%
%TO.C,C4*%
G36*
G01*
X110537500Y-66556250D02*
X110537500Y-66043750D01*
G75*
G02*
X110756250Y-65825000I218750J0D01*
G01*
X111193750Y-65825000D01*
G75*
G02*
X111412500Y-66043750I0J-218750D01*
G01*
X111412500Y-66556250D01*
G75*
G02*
X111193750Y-66775000I-218750J0D01*
G01*
X110756250Y-66775000D01*
G75*
G02*
X110537500Y-66556250I0J218750D01*
G01*
G37*
G36*
G01*
X108962500Y-66556250D02*
X108962500Y-66043750D01*
G75*
G02*
X109181250Y-65825000I218750J0D01*
G01*
X109618750Y-65825000D01*
G75*
G02*
X109837500Y-66043750I0J-218750D01*
G01*
X109837500Y-66556250D01*
G75*
G02*
X109618750Y-66775000I-218750J0D01*
G01*
X109181250Y-66775000D01*
G75*
G02*
X108962500Y-66556250I0J218750D01*
G01*
G37*
%TD*%
%TO.C,C2*%
G36*
G01*
X104050000Y-109043750D02*
X104050000Y-109556250D01*
G75*
G02*
X103831250Y-109775000I-218750J0D01*
G01*
X103393750Y-109775000D01*
G75*
G02*
X103175000Y-109556250I0J218750D01*
G01*
X103175000Y-109043750D01*
G75*
G02*
X103393750Y-108825000I218750J0D01*
G01*
X103831250Y-108825000D01*
G75*
G02*
X104050000Y-109043750I0J-218750D01*
G01*
G37*
G36*
G01*
X105625000Y-109043750D02*
X105625000Y-109556250D01*
G75*
G02*
X105406250Y-109775000I-218750J0D01*
G01*
X104968750Y-109775000D01*
G75*
G02*
X104750000Y-109556250I0J218750D01*
G01*
X104750000Y-109043750D01*
G75*
G02*
X104968750Y-108825000I218750J0D01*
G01*
X105406250Y-108825000D01*
G75*
G02*
X105625000Y-109043750I0J-218750D01*
G01*
G37*
%TD*%
%TO.C,C1*%
G36*
G01*
X103743750Y-118350000D02*
X104256250Y-118350000D01*
G75*
G02*
X104475000Y-118568750I0J-218750D01*
G01*
X104475000Y-119006250D01*
G75*
G02*
X104256250Y-119225000I-218750J0D01*
G01*
X103743750Y-119225000D01*
G75*
G02*
X103525000Y-119006250I0J218750D01*
G01*
X103525000Y-118568750D01*
G75*
G02*
X103743750Y-118350000I218750J0D01*
G01*
G37*
G36*
G01*
X103743750Y-116775000D02*
X104256250Y-116775000D01*
G75*
G02*
X104475000Y-116993750I0J-218750D01*
G01*
X104475000Y-117431250D01*
G75*
G02*
X104256250Y-117650000I-218750J0D01*
G01*
X103743750Y-117650000D01*
G75*
G02*
X103525000Y-117431250I0J218750D01*
G01*
X103525000Y-116993750D01*
G75*
G02*
X103743750Y-116775000I218750J0D01*
G01*
G37*
%TD*%
D14*
%TO.C,H1*%
X85000000Y-50500000D03*
%TD*%
%TO.C,H2*%
X161200000Y-50500000D03*
%TD*%
%TO.C,H3*%
X161200000Y-146300000D03*
%TD*%
M02*
