M48
INCH,TZ
T1C0.0118
T2C0.0157
T3C0.0197
T4C0.0236
T5C0.0394
T6C0.0591
T7C0.1024
%
G90
G05
T1
X50798Y-41711
T2
X32750Y-23750
X32750Y-53500
X33050Y-38900
X33100Y-46150
X33150Y-31500
X34250Y-52200
X34250Y-56450
X34600Y-37050
X34600Y-41900
X34950Y-43050
X35000Y-35600
X35300Y-51000
X35350Y-58400
X35354Y-49370
X35630Y-28661
X37480Y-37520
X38465Y-41929
X38850Y-35500
X38850Y-57950
X38898Y-28661
X38900Y-42950
X39000Y-50500
X39331Y-49921
X39370Y-51969
X39370Y-57402
X39370Y-59055
X39900Y-28850
X40250Y-43950
X40500Y-35200
X40500Y-43050
X40650Y-30550
X40650Y-40400
X40950Y-41250
X40950Y-46864
X41000Y-36000
X41250Y-54850
X41500Y-39000
X41500Y-40150
X41500Y-47300
X41550Y-32500
X41550Y-38250
X41550Y-52550
X41550Y-56500
X41650Y-42300
X41800Y-45300
X41839Y-36944
X42000Y-26700
X42100Y-41850
X42350Y-46742
X42400Y-43050
X42500Y-27000
X42650Y-25450
X42850Y-35900
X42850Y-50950
X42850Y-58450
X43700Y-24250
X43750Y-25500
X44000Y-27500
X44000Y-29100
X44500Y-25500
X44882Y-43898
X45050Y-46700
X45100Y-45700
X45550Y-24250
X45892Y-43354
X46100Y-40250
X46102Y-48661
X46150Y-23300
X46200Y-43600
X46200Y-45800
X46350Y-35450
X46350Y-57950
X46407Y-42330
X46457Y-46654
X46550Y-50500
X46800Y-37000
X46800Y-41500
X47000Y-46100
X47000Y-47300
X47150Y-21650
X47200Y-41350
X47350Y-47100
X47350Y-47500
X47545Y-45443
X47550Y-23800
X47600Y-43600
X47900Y-48450
X47938Y-45436
X47939Y-40850
X47939Y-41405
X47950Y-20250
X47950Y-22600
X47950Y-42300
X47992Y-49213
X48000Y-31000
X48064Y-48808
X48198Y-43702
X48250Y-41950
X48286Y-31350
X48350Y-46780
X48350Y-53800
X48500Y-43450
X48504Y-45276
X48636Y-49450
X48650Y-30000
X48701Y-51811
X48750Y-40700
X48750Y-42300
X48791Y-47403
X48900Y-43650
X48950Y-26100
X49000Y-56500
X49150Y-20250
X49150Y-22600
X49280Y-30000
X49291Y-51142
X49300Y-44250
X49300Y-44850
X49364Y-51950
X49364Y-52780
X49450Y-39100
X49500Y-46700
X49508Y-45184
X49550Y-23850
X49650Y-47800
X49650Y-54850
X49900Y-32800
X49950Y-31000
X50000Y-38000
X50050Y-21450
X50350Y-35900
X50350Y-58450
X50497Y-50939
X50500Y-37000
X50799Y-48049
X50800Y-43514
X51050Y-22350
X51050Y-31362
X51102Y-39213
X51150Y-41750
X51300Y-46950
X51350Y-43800
X51350Y-47650
X51450Y-37400
X51500Y-27000
X51600Y-47300
X51732Y-39528
X51850Y-46400
X52000Y-22350
X52000Y-24500
X52050Y-45400
X52123Y-39479
X52425Y-46975
X52600Y-44950
X53300Y-44950
X53425Y-40236
X53500Y-49000
X53600Y-39650
X53600Y-47000
X53750Y-43700
X53777Y-42977
X53850Y-57950
X53900Y-35450
X53950Y-50500
X54025Y-42000
X54500Y-26000
X54500Y-26500
X54500Y-27000
X54500Y-36050
X54500Y-36500
X54500Y-37400
X54528Y-36969
X54600Y-43250
X54750Y-39150
X54850Y-31650
X55118Y-42874
X55276Y-44567
X55512Y-52362
X55700Y-46650
X55866Y-43386
X55906Y-58858
X56050Y-51950
X56250Y-43700
X56250Y-44100
X56500Y-36050
X56500Y-40500
X56500Y-41500
X56500Y-52500
X56500Y-56500
X56564Y-44600
X56850Y-45150
X56850Y-42441
X56969Y-41142
X57000Y-36500
X57000Y-37400
X57000Y-39150
X57050Y-46650
X57150Y-31650
X57650Y-46250
X57850Y-35900
X57850Y-43400
X57850Y-51000
X57850Y-58300
X57900Y-44600
X58268Y-36214
X58400Y-37050
X58488Y-44988
X58504Y-43307
X58622Y-51063
X58650Y-41550
X58813Y-47881
X58950Y-45350
X59000Y-36500
X59500Y-39500
X59950Y-45450
X60700Y-39507
X60800Y-50950
X60850Y-35850
X60850Y-58350
X61100Y-45150
X61250Y-43650
X61350Y-32064
X61536Y-42950
X62350Y-39800
X62350Y-47350
X62400Y-32350
X62800Y-53900
X63000Y-25250
X63050Y-44100
X63500Y-23300
X63500Y-26000
X63550Y-28600
X63550Y-37050
T5
X64409Y-43071
X64409Y-44071
X64409Y-45071
X64409Y-46071
X56531Y-23307
X56531Y-24291
X56531Y-25276
X62240Y-23307
X62240Y-25276
X46969Y-28346
X47969Y-28346
X48969Y-28346
X49969Y-28346
X34685Y-23307
X34685Y-25276
X40394Y-23307
X40394Y-24291
X40394Y-25276
T6
X43228Y-39839
X45728Y-38839
X43228Y-54839
X45728Y-53839
X43228Y-32339
X45728Y-31339
X35728Y-32339
X38228Y-31339
X50728Y-39839
X53228Y-38839
X50728Y-54839
X53228Y-53839
X50728Y-32339
X53228Y-31339
X58228Y-32339
X60728Y-31339
X35728Y-54839
X38228Y-53839
X58228Y-39839
X60728Y-38839
X50728Y-47339
X53228Y-46339
X58228Y-54839
X60728Y-53839
X35728Y-47339
X38228Y-46339
X43228Y-47339
X45728Y-46339
X35728Y-39839
X38228Y-38839
X58228Y-47339
X60728Y-46339
T7
X59484Y-22087
X59484Y-26496
X37441Y-22087
X37441Y-26496
T3
G00X46748Y-20398
M15
G01X46748Y-20870
M16
G05
G00X50150Y-20398
M15
G01X50150Y-20870
M16
G05
T4
G00X46748Y-18870
M15
G01X46748Y-19106
M16
G05
G00X50150Y-18870
M15
G01X50150Y-19106
M16
G05
T0
M30
