%TF.GenerationSoftware,KiCad,Pcbnew,(5.1.6)-1*%
%TF.CreationDate,2020-09-14T21:40:03-05:00*%
%TF.ProjectId,rocketboard-16,726f636b-6574-4626-9f61-72642d31362e,1.1*%
%TF.SameCoordinates,Original*%
%TF.FileFunction,Profile,NP*%
%FSLAX46Y46*%
G04 Gerber Fmt 4.6, Leading zero omitted, Abs format (unit mm)*
G04 Created by KiCad (PCBNEW (5.1.6)-1) date 2020-09-14 21:40:03*
%MOMM*%
%LPD*%
G01*
G04 APERTURE LIST*
%TA.AperFunction,Profile*%
%ADD10C,0.100000*%
%TD*%
%TA.AperFunction,Profile*%
%ADD11C,0.050000*%
%TD*%
G04 APERTURE END LIST*
D10*
X165200000Y-45500000D02*
X81000000Y-45500000D01*
X165200000Y-45500000D02*
G75*
G02*
X166200000Y-46500000I0J-1000000D01*
G01*
X166200000Y-150300000D02*
X166200000Y-46500000D01*
X80000000Y-46500000D02*
G75*
G02*
X81000000Y-45500000I1000000J0D01*
G01*
X80000000Y-150300000D02*
X80000000Y-46500000D01*
X165200000Y-151300000D02*
X81000000Y-151300000D01*
X166200000Y-150300000D02*
G75*
G02*
X165200000Y-151300000I-1000000J0D01*
G01*
X81000000Y-151300000D02*
G75*
G02*
X80000000Y-150300000I0J1000000D01*
G01*
D11*
%TO.C,K7*%
X133600000Y-106550000D02*
X131700000Y-106550000D01*
X134500000Y-109350000D02*
X134500000Y-107450000D01*
X131700000Y-110250000D02*
X133600000Y-110250000D01*
X130800000Y-107450000D02*
X130800000Y-109350000D01*
X134500000Y-109350000D02*
G75*
G02*
X133600000Y-110250000I-900000J0D01*
G01*
X131700000Y-110250000D02*
G75*
G02*
X130800000Y-109350000I0J900000D01*
G01*
X130800000Y-107450000D02*
G75*
G02*
X131700000Y-106550000I900000J0D01*
G01*
X133600000Y-106550000D02*
G75*
G02*
X134500000Y-107450000I0J-900000D01*
G01*
%TO.C,K16*%
X152650000Y-144650000D02*
X150750000Y-144650000D01*
X153550000Y-147450000D02*
X153550000Y-145550000D01*
X150750000Y-148350000D02*
X152650000Y-148350000D01*
X149850000Y-145550000D02*
X149850000Y-147450000D01*
X153550000Y-147450000D02*
G75*
G02*
X152650000Y-148350000I-900000J0D01*
G01*
X150750000Y-148350000D02*
G75*
G02*
X149850000Y-147450000I0J900000D01*
G01*
X149850000Y-145550000D02*
G75*
G02*
X150750000Y-144650000I900000J0D01*
G01*
X152650000Y-144650000D02*
G75*
G02*
X153550000Y-145550000I0J-900000D01*
G01*
%TO.C,K15*%
X133600000Y-144650000D02*
X131700000Y-144650000D01*
X134500000Y-147450000D02*
X134500000Y-145550000D01*
X131700000Y-148350000D02*
X133600000Y-148350000D01*
X130800000Y-145550000D02*
X130800000Y-147450000D01*
X134500000Y-147450000D02*
G75*
G02*
X133600000Y-148350000I-900000J0D01*
G01*
X131700000Y-148350000D02*
G75*
G02*
X130800000Y-147450000I0J900000D01*
G01*
X130800000Y-145550000D02*
G75*
G02*
X131700000Y-144650000I900000J0D01*
G01*
X133600000Y-144650000D02*
G75*
G02*
X134500000Y-145550000I0J-900000D01*
G01*
%TO.C,K14*%
X114550000Y-144650000D02*
X112650000Y-144650000D01*
X115450000Y-147450000D02*
X115450000Y-145550000D01*
X112650000Y-148350000D02*
X114550000Y-148350000D01*
X111750000Y-145550000D02*
X111750000Y-147450000D01*
X115450000Y-147450000D02*
G75*
G02*
X114550000Y-148350000I-900000J0D01*
G01*
X112650000Y-148350000D02*
G75*
G02*
X111750000Y-147450000I0J900000D01*
G01*
X111750000Y-145550000D02*
G75*
G02*
X112650000Y-144650000I900000J0D01*
G01*
X114550000Y-144650000D02*
G75*
G02*
X115450000Y-145550000I0J-900000D01*
G01*
%TO.C,K13*%
X95500000Y-144650000D02*
X93600000Y-144650000D01*
X96400000Y-147450000D02*
X96400000Y-145550000D01*
X93600000Y-148350000D02*
X95500000Y-148350000D01*
X92700000Y-145550000D02*
X92700000Y-147450000D01*
X96400000Y-147450000D02*
G75*
G02*
X95500000Y-148350000I-900000J0D01*
G01*
X93600000Y-148350000D02*
G75*
G02*
X92700000Y-147450000I0J900000D01*
G01*
X92700000Y-145550000D02*
G75*
G02*
X93600000Y-144650000I900000J0D01*
G01*
X95500000Y-144650000D02*
G75*
G02*
X96400000Y-145550000I0J-900000D01*
G01*
%TO.C,K12*%
X152650000Y-125600000D02*
X150750000Y-125600000D01*
X153550000Y-128400000D02*
X153550000Y-126500000D01*
X150750000Y-129300000D02*
X152650000Y-129300000D01*
X149850000Y-126500000D02*
X149850000Y-128400000D01*
X153550000Y-128400000D02*
G75*
G02*
X152650000Y-129300000I-900000J0D01*
G01*
X150750000Y-129300000D02*
G75*
G02*
X149850000Y-128400000I0J900000D01*
G01*
X149850000Y-126500000D02*
G75*
G02*
X150750000Y-125600000I900000J0D01*
G01*
X152650000Y-125600000D02*
G75*
G02*
X153550000Y-126500000I0J-900000D01*
G01*
%TO.C,K11*%
X133600000Y-125600000D02*
X131700000Y-125600000D01*
X134500000Y-128400000D02*
X134500000Y-126500000D01*
X131700000Y-129300000D02*
X133600000Y-129300000D01*
X130800000Y-126500000D02*
X130800000Y-128400000D01*
X134500000Y-128400000D02*
G75*
G02*
X133600000Y-129300000I-900000J0D01*
G01*
X131700000Y-129300000D02*
G75*
G02*
X130800000Y-128400000I0J900000D01*
G01*
X130800000Y-126500000D02*
G75*
G02*
X131700000Y-125600000I900000J0D01*
G01*
X133600000Y-125600000D02*
G75*
G02*
X134500000Y-126500000I0J-900000D01*
G01*
%TO.C,K10*%
X114550000Y-125600000D02*
X112650000Y-125600000D01*
X115450000Y-128400000D02*
X115450000Y-126500000D01*
X112650000Y-129300000D02*
X114550000Y-129300000D01*
X111750000Y-126500000D02*
X111750000Y-128400000D01*
X115450000Y-128400000D02*
G75*
G02*
X114550000Y-129300000I-900000J0D01*
G01*
X112650000Y-129300000D02*
G75*
G02*
X111750000Y-128400000I0J900000D01*
G01*
X111750000Y-126500000D02*
G75*
G02*
X112650000Y-125600000I900000J0D01*
G01*
X114550000Y-125600000D02*
G75*
G02*
X115450000Y-126500000I0J-900000D01*
G01*
%TO.C,K9*%
X95500000Y-125600000D02*
X93600000Y-125600000D01*
X96400000Y-128400000D02*
X96400000Y-126500000D01*
X93600000Y-129300000D02*
X95500000Y-129300000D01*
X92700000Y-126500000D02*
X92700000Y-128400000D01*
X96400000Y-128400000D02*
G75*
G02*
X95500000Y-129300000I-900000J0D01*
G01*
X93600000Y-129300000D02*
G75*
G02*
X92700000Y-128400000I0J900000D01*
G01*
X92700000Y-126500000D02*
G75*
G02*
X93600000Y-125600000I900000J0D01*
G01*
X95500000Y-125600000D02*
G75*
G02*
X96400000Y-126500000I0J-900000D01*
G01*
%TO.C,K8*%
X152650000Y-106550000D02*
X150750000Y-106550000D01*
X153550000Y-109350000D02*
X153550000Y-107450000D01*
X150750000Y-110250000D02*
X152650000Y-110250000D01*
X149850000Y-107450000D02*
X149850000Y-109350000D01*
X153550000Y-109350000D02*
G75*
G02*
X152650000Y-110250000I-900000J0D01*
G01*
X150750000Y-110250000D02*
G75*
G02*
X149850000Y-109350000I0J900000D01*
G01*
X149850000Y-107450000D02*
G75*
G02*
X150750000Y-106550000I900000J0D01*
G01*
X152650000Y-106550000D02*
G75*
G02*
X153550000Y-107450000I0J-900000D01*
G01*
%TO.C,K6*%
X114550000Y-106550000D02*
X112650000Y-106550000D01*
X115450000Y-109350000D02*
X115450000Y-107450000D01*
X112650000Y-110250000D02*
X114550000Y-110250000D01*
X111750000Y-107450000D02*
X111750000Y-109350000D01*
X115450000Y-109350000D02*
G75*
G02*
X114550000Y-110250000I-900000J0D01*
G01*
X112650000Y-110250000D02*
G75*
G02*
X111750000Y-109350000I0J900000D01*
G01*
X111750000Y-107450000D02*
G75*
G02*
X112650000Y-106550000I900000J0D01*
G01*
X114550000Y-106550000D02*
G75*
G02*
X115450000Y-107450000I0J-900000D01*
G01*
%TO.C,K5*%
X95500000Y-106550000D02*
X93600000Y-106550000D01*
X96400000Y-109350000D02*
X96400000Y-107450000D01*
X93600000Y-110250000D02*
X95500000Y-110250000D01*
X92700000Y-107450000D02*
X92700000Y-109350000D01*
X96400000Y-109350000D02*
G75*
G02*
X95500000Y-110250000I-900000J0D01*
G01*
X93600000Y-110250000D02*
G75*
G02*
X92700000Y-109350000I0J900000D01*
G01*
X92700000Y-107450000D02*
G75*
G02*
X93600000Y-106550000I900000J0D01*
G01*
X95500000Y-106550000D02*
G75*
G02*
X96400000Y-107450000I0J-900000D01*
G01*
%TO.C,K4*%
X152650000Y-87500000D02*
X150750000Y-87500000D01*
X153550000Y-90300000D02*
X153550000Y-88400000D01*
X150750000Y-91200000D02*
X152650000Y-91200000D01*
X149850000Y-88400000D02*
X149850000Y-90300000D01*
X153550000Y-90300000D02*
G75*
G02*
X152650000Y-91200000I-900000J0D01*
G01*
X150750000Y-91200000D02*
G75*
G02*
X149850000Y-90300000I0J900000D01*
G01*
X149850000Y-88400000D02*
G75*
G02*
X150750000Y-87500000I900000J0D01*
G01*
X152650000Y-87500000D02*
G75*
G02*
X153550000Y-88400000I0J-900000D01*
G01*
%TO.C,K3*%
X133600000Y-87500000D02*
X131700000Y-87500000D01*
X134500000Y-90300000D02*
X134500000Y-88400000D01*
X131700000Y-91200000D02*
X133600000Y-91200000D01*
X130800000Y-88400000D02*
X130800000Y-90300000D01*
X134500000Y-90300000D02*
G75*
G02*
X133600000Y-91200000I-900000J0D01*
G01*
X131700000Y-91200000D02*
G75*
G02*
X130800000Y-90300000I0J900000D01*
G01*
X130800000Y-88400000D02*
G75*
G02*
X131700000Y-87500000I900000J0D01*
G01*
X133600000Y-87500000D02*
G75*
G02*
X134500000Y-88400000I0J-900000D01*
G01*
%TO.C,K2*%
X114550000Y-87500000D02*
X112650000Y-87500000D01*
X115450000Y-90300000D02*
X115450000Y-88400000D01*
X112650000Y-91200000D02*
X114550000Y-91200000D01*
X111750000Y-88400000D02*
X111750000Y-90300000D01*
X115450000Y-90300000D02*
G75*
G02*
X114550000Y-91200000I-900000J0D01*
G01*
X112650000Y-91200000D02*
G75*
G02*
X111750000Y-90300000I0J900000D01*
G01*
X111750000Y-88400000D02*
G75*
G02*
X112650000Y-87500000I900000J0D01*
G01*
X114550000Y-87500000D02*
G75*
G02*
X115450000Y-88400000I0J-900000D01*
G01*
%TO.C,K1*%
X95500000Y-87500000D02*
X93600000Y-87500000D01*
X96400000Y-90300000D02*
X96400000Y-88400000D01*
X93600000Y-91200000D02*
X95500000Y-91200000D01*
X92700000Y-88400000D02*
X92700000Y-90300000D01*
X96400000Y-90300000D02*
G75*
G02*
X95500000Y-91200000I-900000J0D01*
G01*
X93600000Y-91200000D02*
G75*
G02*
X92700000Y-90300000I0J900000D01*
G01*
X92700000Y-88400000D02*
G75*
G02*
X93600000Y-87500000I900000J0D01*
G01*
X95500000Y-87500000D02*
G75*
G02*
X96400000Y-88400000I0J-900000D01*
G01*
%TD*%
M02*
