%TF.GenerationSoftware,KiCad,Pcbnew,(5.1.6)-1*%
%TF.CreationDate,2020-09-25T15:14:42-05:00*%
%TF.ProjectId,rocketboard-16,726f636b-6574-4626-9f61-72642d31362e,1.1*%
%TF.SameCoordinates,Original*%
%TF.FileFunction,Legend,Top*%
%TF.FilePolarity,Positive*%
%FSLAX46Y46*%
G04 Gerber Fmt 4.6, Leading zero omitted, Abs format (unit mm)*
G04 Created by KiCad (PCBNEW (5.1.6)-1) date 2020-09-25 15:14:42*
%MOMM*%
%LPD*%
G01*
G04 APERTURE LIST*
%ADD10C,0.120000*%
%ADD11C,0.150000*%
G04 APERTURE END LIST*
D10*
%TO.C,U4*%
X128250000Y-70670000D02*
X128250000Y-72000000D01*
X126920000Y-70670000D02*
X128250000Y-70670000D01*
X125650000Y-70670000D02*
X125650000Y-73330000D01*
X125650000Y-73330000D02*
X117970000Y-73330000D01*
X125650000Y-70670000D02*
X117970000Y-70670000D01*
X117970000Y-70670000D02*
X117970000Y-73330000D01*
%TO.C,J1*%
X162270000Y-118350000D02*
X164930000Y-118350000D01*
X162270000Y-110670000D02*
X162270000Y-118350000D01*
X164930000Y-110670000D02*
X164930000Y-118350000D01*
X162270000Y-110670000D02*
X164930000Y-110670000D01*
X162270000Y-109400000D02*
X162270000Y-108070000D01*
X162270000Y-108070000D02*
X163600000Y-108070000D01*
%TO.C,SW3*%
D11*
X145056666Y-54904761D02*
X145199523Y-54952380D01*
X145437619Y-54952380D01*
X145532857Y-54904761D01*
X145580476Y-54857142D01*
X145628095Y-54761904D01*
X145628095Y-54666666D01*
X145580476Y-54571428D01*
X145532857Y-54523809D01*
X145437619Y-54476190D01*
X145247142Y-54428571D01*
X145151904Y-54380952D01*
X145104285Y-54333333D01*
X145056666Y-54238095D01*
X145056666Y-54142857D01*
X145104285Y-54047619D01*
X145151904Y-54000000D01*
X145247142Y-53952380D01*
X145485238Y-53952380D01*
X145628095Y-54000000D01*
X145961428Y-53952380D02*
X146199523Y-54952380D01*
X146390000Y-54238095D01*
X146580476Y-54952380D01*
X146818571Y-53952380D01*
X147104285Y-53952380D02*
X147723333Y-53952380D01*
X147390000Y-54333333D01*
X147532857Y-54333333D01*
X147628095Y-54380952D01*
X147675714Y-54428571D01*
X147723333Y-54523809D01*
X147723333Y-54761904D01*
X147675714Y-54857142D01*
X147628095Y-54904761D01*
X147532857Y-54952380D01*
X147247142Y-54952380D01*
X147151904Y-54904761D01*
X147104285Y-54857142D01*
%TO.C,SW2*%
X98466666Y-69304761D02*
X98609523Y-69352380D01*
X98847619Y-69352380D01*
X98942857Y-69304761D01*
X98990476Y-69257142D01*
X99038095Y-69161904D01*
X99038095Y-69066666D01*
X98990476Y-68971428D01*
X98942857Y-68923809D01*
X98847619Y-68876190D01*
X98657142Y-68828571D01*
X98561904Y-68780952D01*
X98514285Y-68733333D01*
X98466666Y-68638095D01*
X98466666Y-68542857D01*
X98514285Y-68447619D01*
X98561904Y-68400000D01*
X98657142Y-68352380D01*
X98895238Y-68352380D01*
X99038095Y-68400000D01*
X99371428Y-68352380D02*
X99609523Y-69352380D01*
X99800000Y-68638095D01*
X99990476Y-69352380D01*
X100228571Y-68352380D01*
X100561904Y-68447619D02*
X100609523Y-68400000D01*
X100704761Y-68352380D01*
X100942857Y-68352380D01*
X101038095Y-68400000D01*
X101085714Y-68447619D01*
X101133333Y-68542857D01*
X101133333Y-68638095D01*
X101085714Y-68780952D01*
X100514285Y-69352380D01*
X101133333Y-69352380D01*
%TO.C,K16*%
X145435714Y-134502380D02*
X145435714Y-133502380D01*
X146007142Y-134502380D02*
X145578571Y-133930952D01*
X146007142Y-133502380D02*
X145435714Y-134073809D01*
X146959523Y-134502380D02*
X146388095Y-134502380D01*
X146673809Y-134502380D02*
X146673809Y-133502380D01*
X146578571Y-133645238D01*
X146483333Y-133740476D01*
X146388095Y-133788095D01*
X147816666Y-133502380D02*
X147626190Y-133502380D01*
X147530952Y-133550000D01*
X147483333Y-133597619D01*
X147388095Y-133740476D01*
X147340476Y-133930952D01*
X147340476Y-134311904D01*
X147388095Y-134407142D01*
X147435714Y-134454761D01*
X147530952Y-134502380D01*
X147721428Y-134502380D01*
X147816666Y-134454761D01*
X147864285Y-134407142D01*
X147911904Y-134311904D01*
X147911904Y-134073809D01*
X147864285Y-133978571D01*
X147816666Y-133930952D01*
X147721428Y-133883333D01*
X147530952Y-133883333D01*
X147435714Y-133930952D01*
X147388095Y-133978571D01*
X147340476Y-134073809D01*
%TO.C,K15*%
X126385714Y-134502380D02*
X126385714Y-133502380D01*
X126957142Y-134502380D02*
X126528571Y-133930952D01*
X126957142Y-133502380D02*
X126385714Y-134073809D01*
X127909523Y-134502380D02*
X127338095Y-134502380D01*
X127623809Y-134502380D02*
X127623809Y-133502380D01*
X127528571Y-133645238D01*
X127433333Y-133740476D01*
X127338095Y-133788095D01*
X128814285Y-133502380D02*
X128338095Y-133502380D01*
X128290476Y-133978571D01*
X128338095Y-133930952D01*
X128433333Y-133883333D01*
X128671428Y-133883333D01*
X128766666Y-133930952D01*
X128814285Y-133978571D01*
X128861904Y-134073809D01*
X128861904Y-134311904D01*
X128814285Y-134407142D01*
X128766666Y-134454761D01*
X128671428Y-134502380D01*
X128433333Y-134502380D01*
X128338095Y-134454761D01*
X128290476Y-134407142D01*
%TO.C,K14*%
X107335714Y-134502380D02*
X107335714Y-133502380D01*
X107907142Y-134502380D02*
X107478571Y-133930952D01*
X107907142Y-133502380D02*
X107335714Y-134073809D01*
X108859523Y-134502380D02*
X108288095Y-134502380D01*
X108573809Y-134502380D02*
X108573809Y-133502380D01*
X108478571Y-133645238D01*
X108383333Y-133740476D01*
X108288095Y-133788095D01*
X109716666Y-133835714D02*
X109716666Y-134502380D01*
X109478571Y-133454761D02*
X109240476Y-134169047D01*
X109859523Y-134169047D01*
%TO.C,K13*%
X88285714Y-134502380D02*
X88285714Y-133502380D01*
X88857142Y-134502380D02*
X88428571Y-133930952D01*
X88857142Y-133502380D02*
X88285714Y-134073809D01*
X89809523Y-134502380D02*
X89238095Y-134502380D01*
X89523809Y-134502380D02*
X89523809Y-133502380D01*
X89428571Y-133645238D01*
X89333333Y-133740476D01*
X89238095Y-133788095D01*
X90142857Y-133502380D02*
X90761904Y-133502380D01*
X90428571Y-133883333D01*
X90571428Y-133883333D01*
X90666666Y-133930952D01*
X90714285Y-133978571D01*
X90761904Y-134073809D01*
X90761904Y-134311904D01*
X90714285Y-134407142D01*
X90666666Y-134454761D01*
X90571428Y-134502380D01*
X90285714Y-134502380D01*
X90190476Y-134454761D01*
X90142857Y-134407142D01*
%TO.C,K12*%
X145435714Y-115452380D02*
X145435714Y-114452380D01*
X146007142Y-115452380D02*
X145578571Y-114880952D01*
X146007142Y-114452380D02*
X145435714Y-115023809D01*
X146959523Y-115452380D02*
X146388095Y-115452380D01*
X146673809Y-115452380D02*
X146673809Y-114452380D01*
X146578571Y-114595238D01*
X146483333Y-114690476D01*
X146388095Y-114738095D01*
X147340476Y-114547619D02*
X147388095Y-114500000D01*
X147483333Y-114452380D01*
X147721428Y-114452380D01*
X147816666Y-114500000D01*
X147864285Y-114547619D01*
X147911904Y-114642857D01*
X147911904Y-114738095D01*
X147864285Y-114880952D01*
X147292857Y-115452380D01*
X147911904Y-115452380D01*
%TO.C,K11*%
X126385714Y-115452380D02*
X126385714Y-114452380D01*
X126957142Y-115452380D02*
X126528571Y-114880952D01*
X126957142Y-114452380D02*
X126385714Y-115023809D01*
X127909523Y-115452380D02*
X127338095Y-115452380D01*
X127623809Y-115452380D02*
X127623809Y-114452380D01*
X127528571Y-114595238D01*
X127433333Y-114690476D01*
X127338095Y-114738095D01*
X128861904Y-115452380D02*
X128290476Y-115452380D01*
X128576190Y-115452380D02*
X128576190Y-114452380D01*
X128480952Y-114595238D01*
X128385714Y-114690476D01*
X128290476Y-114738095D01*
%TO.C,K10*%
X107335714Y-115452380D02*
X107335714Y-114452380D01*
X107907142Y-115452380D02*
X107478571Y-114880952D01*
X107907142Y-114452380D02*
X107335714Y-115023809D01*
X108859523Y-115452380D02*
X108288095Y-115452380D01*
X108573809Y-115452380D02*
X108573809Y-114452380D01*
X108478571Y-114595238D01*
X108383333Y-114690476D01*
X108288095Y-114738095D01*
X109478571Y-114452380D02*
X109573809Y-114452380D01*
X109669047Y-114500000D01*
X109716666Y-114547619D01*
X109764285Y-114642857D01*
X109811904Y-114833333D01*
X109811904Y-115071428D01*
X109764285Y-115261904D01*
X109716666Y-115357142D01*
X109669047Y-115404761D01*
X109573809Y-115452380D01*
X109478571Y-115452380D01*
X109383333Y-115404761D01*
X109335714Y-115357142D01*
X109288095Y-115261904D01*
X109240476Y-115071428D01*
X109240476Y-114833333D01*
X109288095Y-114642857D01*
X109335714Y-114547619D01*
X109383333Y-114500000D01*
X109478571Y-114452380D01*
%TO.C,K9*%
X88761904Y-115452380D02*
X88761904Y-114452380D01*
X89333333Y-115452380D02*
X88904761Y-114880952D01*
X89333333Y-114452380D02*
X88761904Y-115023809D01*
X89809523Y-115452380D02*
X90000000Y-115452380D01*
X90095238Y-115404761D01*
X90142857Y-115357142D01*
X90238095Y-115214285D01*
X90285714Y-115023809D01*
X90285714Y-114642857D01*
X90238095Y-114547619D01*
X90190476Y-114500000D01*
X90095238Y-114452380D01*
X89904761Y-114452380D01*
X89809523Y-114500000D01*
X89761904Y-114547619D01*
X89714285Y-114642857D01*
X89714285Y-114880952D01*
X89761904Y-114976190D01*
X89809523Y-115023809D01*
X89904761Y-115071428D01*
X90095238Y-115071428D01*
X90190476Y-115023809D01*
X90238095Y-114976190D01*
X90285714Y-114880952D01*
%TO.C,K8*%
X145911904Y-96402380D02*
X145911904Y-95402380D01*
X146483333Y-96402380D02*
X146054761Y-95830952D01*
X146483333Y-95402380D02*
X145911904Y-95973809D01*
X147054761Y-95830952D02*
X146959523Y-95783333D01*
X146911904Y-95735714D01*
X146864285Y-95640476D01*
X146864285Y-95592857D01*
X146911904Y-95497619D01*
X146959523Y-95450000D01*
X147054761Y-95402380D01*
X147245238Y-95402380D01*
X147340476Y-95450000D01*
X147388095Y-95497619D01*
X147435714Y-95592857D01*
X147435714Y-95640476D01*
X147388095Y-95735714D01*
X147340476Y-95783333D01*
X147245238Y-95830952D01*
X147054761Y-95830952D01*
X146959523Y-95878571D01*
X146911904Y-95926190D01*
X146864285Y-96021428D01*
X146864285Y-96211904D01*
X146911904Y-96307142D01*
X146959523Y-96354761D01*
X147054761Y-96402380D01*
X147245238Y-96402380D01*
X147340476Y-96354761D01*
X147388095Y-96307142D01*
X147435714Y-96211904D01*
X147435714Y-96021428D01*
X147388095Y-95926190D01*
X147340476Y-95878571D01*
X147245238Y-95830952D01*
%TO.C,K7*%
X126861904Y-96402380D02*
X126861904Y-95402380D01*
X127433333Y-96402380D02*
X127004761Y-95830952D01*
X127433333Y-95402380D02*
X126861904Y-95973809D01*
X127766666Y-95402380D02*
X128433333Y-95402380D01*
X128004761Y-96402380D01*
%TO.C,K6*%
X107811904Y-96402380D02*
X107811904Y-95402380D01*
X108383333Y-96402380D02*
X107954761Y-95830952D01*
X108383333Y-95402380D02*
X107811904Y-95973809D01*
X109240476Y-95402380D02*
X109050000Y-95402380D01*
X108954761Y-95450000D01*
X108907142Y-95497619D01*
X108811904Y-95640476D01*
X108764285Y-95830952D01*
X108764285Y-96211904D01*
X108811904Y-96307142D01*
X108859523Y-96354761D01*
X108954761Y-96402380D01*
X109145238Y-96402380D01*
X109240476Y-96354761D01*
X109288095Y-96307142D01*
X109335714Y-96211904D01*
X109335714Y-95973809D01*
X109288095Y-95878571D01*
X109240476Y-95830952D01*
X109145238Y-95783333D01*
X108954761Y-95783333D01*
X108859523Y-95830952D01*
X108811904Y-95878571D01*
X108764285Y-95973809D01*
%TO.C,K5*%
X88761904Y-96402380D02*
X88761904Y-95402380D01*
X89333333Y-96402380D02*
X88904761Y-95830952D01*
X89333333Y-95402380D02*
X88761904Y-95973809D01*
X90238095Y-95402380D02*
X89761904Y-95402380D01*
X89714285Y-95878571D01*
X89761904Y-95830952D01*
X89857142Y-95783333D01*
X90095238Y-95783333D01*
X90190476Y-95830952D01*
X90238095Y-95878571D01*
X90285714Y-95973809D01*
X90285714Y-96211904D01*
X90238095Y-96307142D01*
X90190476Y-96354761D01*
X90095238Y-96402380D01*
X89857142Y-96402380D01*
X89761904Y-96354761D01*
X89714285Y-96307142D01*
%TO.C,K4*%
X145911904Y-77352380D02*
X145911904Y-76352380D01*
X146483333Y-77352380D02*
X146054761Y-76780952D01*
X146483333Y-76352380D02*
X145911904Y-76923809D01*
X147340476Y-76685714D02*
X147340476Y-77352380D01*
X147102380Y-76304761D02*
X146864285Y-77019047D01*
X147483333Y-77019047D01*
%TO.C,K3*%
X126861904Y-77352380D02*
X126861904Y-76352380D01*
X127433333Y-77352380D02*
X127004761Y-76780952D01*
X127433333Y-76352380D02*
X126861904Y-76923809D01*
X127766666Y-76352380D02*
X128385714Y-76352380D01*
X128052380Y-76733333D01*
X128195238Y-76733333D01*
X128290476Y-76780952D01*
X128338095Y-76828571D01*
X128385714Y-76923809D01*
X128385714Y-77161904D01*
X128338095Y-77257142D01*
X128290476Y-77304761D01*
X128195238Y-77352380D01*
X127909523Y-77352380D01*
X127814285Y-77304761D01*
X127766666Y-77257142D01*
%TO.C,K2*%
X107811904Y-77352380D02*
X107811904Y-76352380D01*
X108383333Y-77352380D02*
X107954761Y-76780952D01*
X108383333Y-76352380D02*
X107811904Y-76923809D01*
X108764285Y-76447619D02*
X108811904Y-76400000D01*
X108907142Y-76352380D01*
X109145238Y-76352380D01*
X109240476Y-76400000D01*
X109288095Y-76447619D01*
X109335714Y-76542857D01*
X109335714Y-76638095D01*
X109288095Y-76780952D01*
X108716666Y-77352380D01*
X109335714Y-77352380D01*
%TO.C,K1*%
X88761904Y-77352380D02*
X88761904Y-76352380D01*
X89333333Y-77352380D02*
X88904761Y-76780952D01*
X89333333Y-76352380D02*
X88761904Y-76923809D01*
X90285714Y-77352380D02*
X89714285Y-77352380D01*
X90000000Y-77352380D02*
X90000000Y-76352380D01*
X89904761Y-76495238D01*
X89809523Y-76590476D01*
X89714285Y-76638095D01*
%TO.C,U4*%
X128702380Y-72761904D02*
X129511904Y-72761904D01*
X129607142Y-72714285D01*
X129654761Y-72666666D01*
X129702380Y-72571428D01*
X129702380Y-72380952D01*
X129654761Y-72285714D01*
X129607142Y-72238095D01*
X129511904Y-72190476D01*
X128702380Y-72190476D01*
X129035714Y-71285714D02*
X129702380Y-71285714D01*
X128654761Y-71523809D02*
X129369047Y-71761904D01*
X129369047Y-71142857D01*
%TO.C,J1*%
X163266666Y-106522380D02*
X163266666Y-107236666D01*
X163219047Y-107379523D01*
X163123809Y-107474761D01*
X162980952Y-107522380D01*
X162885714Y-107522380D01*
X164266666Y-107522380D02*
X163695238Y-107522380D01*
X163980952Y-107522380D02*
X163980952Y-106522380D01*
X163885714Y-106665238D01*
X163790476Y-106760476D01*
X163695238Y-106808095D01*
%TD*%
M02*
